<?xml version="1.0" encoding="UTF-8"?> <!-- Generated by IcoMoon.io --> <svg xmlns="http://www.w3.org/2000/svg" width="32" height="32" viewBox="0 0 32 32"><title>serv-2</title><path d="M31.335 15.987h-3.935c-0.389 0-0.774-0.101-1.113-0.293l-3.389-1.916c-0.526-0.297-1.124-0.454-1.728-0.454h-10.51c-0.601 0-1.195 0.155-1.719 0.449l-3.415 1.916c-0.336 0.188-0.717 0.288-1.102 0.289l-3.761 0.008c-0.345 0.001-0.624 0.281-0.624 0.626s0.28 0.624 0.625 0.624h0.001l3.761-0.008c0.598-0.001 1.189-0.157 1.711-0.449l3.415-1.916c0.337-0.189 0.72-0.289 1.107-0.289h4.765l-3.627 4.353c-0.11 0.131-0.16 0.302-0.141 0.472s0.108 0.324 0.245 0.427c1.692 1.272 4.094 1.006 5.467-0.605l0.614-0.721c0.778 0.882 2.441 2.354 4.943 2.457l3.383 3.674c0.308 0.334 0.286 0.857-0.048 1.165s-0.857 0.286-1.165-0.048l-3.823-4.152c-0.234-0.254-0.629-0.27-0.883-0.036s-0.27 0.629-0.036 0.883l3.137 3.407c0.72 0.783-0.493 1.899-1.213 1.117l-3.62-3.931c-0.234-0.254-0.629-0.27-0.883-0.036s-0.27 0.629-0.036 0.883l3.139 3.409c0.719 0.787-0.499 1.892-1.215 1.115l-3.716-4.035c-0.234-0.254-0.629-0.27-0.883-0.036s-0.27 0.629-0.036 0.883l2.687 2.918c0.723 0.785-0.494 1.898-1.217 1.113l-0.83-0.871c-0.414-0.361-0.934-0.524-1.443-0.497-0.045-0.506-0.277-0.997-0.689-1.356l-0.055-0.048c-0.368-0.321-0.82-0.485-1.274-0.5 0-0.047-0.001-0.094-0.004-0.141-0.077-1.122-1.106-2.018-2.228-1.942-0.342 0.023-0.665 0.13-0.947 0.308-0.117-0.269-0.293-0.517-0.529-0.722l-0.056-0.048c-0.847-0.738-2.137-0.65-2.875 0.197l-0.443 0.509c-0.247 0.283-0.4 0.615-0.465 0.96h-3.367v-2.775c0-0.345-0.28-0.625-0.625-0.625s-0.625 0.28-0.625 0.625v3.4c0 0.345 0.28 0.625 0.625 0.625h4.152c0.419 0.888 1.447 1.394 2.403 1.15 0.27 1.040 1.352 1.735 2.409 1.535 0.258 1.215 1.597 1.967 2.765 1.53 0.264 0.792 1.028 1.383 1.861 1.434 0.91 0.056 1.769-0.517 2.059-1.384 0.253 0.104 0.523 0.157 0.793 0.157 0.503 0 1.007-0.181 1.405-0.547 0.221-0.204 0.392-0.449 0.506-0.718 0.367 0.278 0.809 0.419 1.251 0.419 0.503 0 1.007-0.181 1.405-0.548 0.292-0.269 0.497-0.609 0.597-0.984 0.199 0.061 0.407 0.092 0.614 0.092 0.503 0 1.007-0.181 1.405-0.548 0.264-0.243 0.45-0.538 0.558-0.856 0.271 0.122 0.563 0.184 0.856 0.184 0.503-0 1.006-0.181 1.404-0.548 0.138-0.127 0.255-0.27 0.351-0.422h3.877c0.345 0 0.625-0.28 0.625-0.625v-9.058c-0-0.345-0.28-0.625-0.625-0.625zM6.196 26.118c-0.347-0.294-0.447-0.798-0.132-1.16l0.443-0.509c0.301-0.345 0.806-0.342 1.139-0.052s0.404 0.79 0.104 1.135l-0.444 0.509c-0.285 0.327-0.784 0.361-1.111 0.076zM9.3 27.817c-0.694 0.048-1.173-0.812-0.703-1.351l0.921-1.056c0.301-0.345 0.805-0.343 1.139-0.052s0.405 0.79 0.104 1.136l-0.92 1.056c-0.138 0.159-0.33 0.254-0.54 0.268zM11.158 29.25c-0.346-0.294-0.447-0.796-0.133-1.158l0.521-0.597c0.304-0.347 0.81-0.338 1.144-0.046 0.33 0.29 0.395 0.789 0.098 1.13l-0.518 0.594c-0.285 0.327-0.784 0.362-1.111 0.076zM14.976 30.481c-0.697 0.8-1.966-0.363-1.206-1.123 0.705-0.705 1.864 0.368 1.206 1.123zM30.71 25.045h-2.94c-0.032-0.454-0.211-0.9-0.542-1.26l-3.563-3.869c-0.117-0.127-0.287-0.202-0.46-0.202-1.247 0-2.407-0.42-3.448-1.249-0.799-0.635-1.224-1.285-1.228-1.29-0.107-0.167-0.286-0.273-0.484-0.287s-0.39 0.067-0.518 0.218l-1.11 1.303c-0.798 0.937-2.1 1.213-3.187 0.75l3.822-4.587h4.118c0.389 0 0.774 0.101 1.113 0.293l3.389 1.916c0.526 0.297 1.124 0.454 1.728 0.454h3.31v7.808z"></path><path d="M0.088 19.775c0.214 0.512 0.958 0.499 1.159-0.014 0.213-0.543-0.407-1.058-0.904-0.761-0.262 0.157-0.373 0.493-0.256 0.775z"></path><path d="M9.457 12.081c0.072 0.027 0.147 0.041 0.222 0.041 0.175 0 0.347-0.074 0.468-0.21l1.694-1.908h8.717c1.342 0 2.434-1.092 2.434-2.434v-5.135c0-1.342-1.092-2.434-2.434-2.434h-0.032c-0.345 0-0.625 0.28-0.625 0.625 0 0.026 0.002 0.053 0.005 0.079 0.041 0.331 0.334 0.568 0.663 0.546 0.648 0.006 1.172 0.535 1.172 1.184v5.135c0 0.653-0.531 1.184-1.184 1.184h-8.998c-0.179 0-0.349 0.076-0.467 0.21l-0.788 0.887v-7.417c0-0.653 0.531-1.184 1.184-1.184h3.507c0.028 0.002 0.055 0.002 0.084 0 0.337-0.021 0.595-0.306 0.586-0.641-0-0.008-0.001-0.016-0.001-0.024-0.021-0.329-0.294-0.586-0.624-0.586h-3.551c-1.342 0-2.434 1.092-2.434 2.434v9.063c-0 0.26 0.16 0.492 0.403 0.584z"></path><path d="M15.101 5.723l-0.86-0.899c-0.239-0.249-0.634-0.258-0.884-0.019s-0.258 0.634-0.020 0.884l1.287 1.345c0.123 0.128 0.287 0.193 0.452 0.193 0.153 0 0.306-0.056 0.427-0.168l3.627-3.393c0.252-0.236 0.265-0.631 0.030-0.883s-0.631-0.265-0.884-0.030l-3.176 2.97z"></path><path d="M17.434 1.144c0.472 0.315 1.1-0.141 0.949-0.686-0.071-0.256-0.305-0.445-0.571-0.458s-0.517 0.151-0.613 0.4c-0.104 0.267-0.006 0.586 0.236 0.744z"></path></svg> 