<?xml version="1.0" encoding="UTF-8"?> <!-- Generated by IcoMoon.io --> <svg xmlns="http://www.w3.org/2000/svg" width="32" height="32" viewBox="0 0 32 32"><title>serv-4</title><path d="M10.138 16.535c0 0.294 0.239 0.533 0.533 0.533h4.266c0.294 0 0.533-0.239 0.533-0.533v-4.266c-0.005-1.204-0.816-2.255-1.979-2.565 1.23-1.256 1.215-3.27-0.032-4.508s-3.261-1.239-4.508 0c-1.248 1.239-1.262 3.252-0.032 4.508-1.164 0.31-1.975 1.361-1.98 2.565v1.833c0 0.294 0.239 0.533 0.533 0.533s0.533-0.239 0.533-0.533v-1.833c0-0.883 0.716-1.6 1.6-1.6h3.199c0.884 0 1.6 0.716 1.6 1.6v3.733h-3.733c-0.294 0-0.533 0.239-0.533 0.533zM11.204 5.337c1.178 0 2.133 0.955 2.133 2.133s-0.955 2.133-2.133 2.133c-1.178 0-2.133-0.955-2.133-2.133s0.955-2.133 2.133-2.133z"></path><path d="M12.804 13.336c0.294 0 0.533-0.239 0.533-0.533s-0.239-0.533-0.533-0.533h-1.066c-0.294 0-0.533 0.239-0.533 0.533s0.239 0.533 0.533 0.533h1.066z"></path><path d="M31.532 27.006l-6.41-6.41c-0.486-0.462-1.203-0.582-1.813-0.303l-2.826-2.826c3.385-5.011 2.181-11.804-2.721-15.345s-11.73-2.552-15.424 2.236c-3.694 4.788-2.92 11.644 1.749 15.487 0.227 0.187 0.563 0.155 0.751-0.073s0.155-0.563-0.072-0.751c-4.295-3.518-4.964-9.835-1.501-14.174s9.771-5.088 14.154-1.681c4.383 3.408 5.212 9.706 1.86 14.132-0.128 0.169-0.258 0.336-0.396 0.497-0.012 0.015-0.025 0.027-0.037 0.042-0.31 0.357-0.645 0.692-1.002 1.002-0.017 0.015-0.032 0.030-0.049 0.045-0.16 0.136-0.323 0.267-0.49 0.391-1.753 1.336-3.896 2.060-6.1 2.061-0.169 0-0.337-0.009-0.504-0.017-0.294-0.016-0.546 0.209-0.563 0.504s0.21 0.546 0.504 0.563c0.187 0.010 0.373 0.019 0.562 0.019 2.233 0.002 4.415-0.666 6.262-1.92l3.131 3.131c0.208 0.208 0.546 0.208 0.754 0l2.262-2.262c0.211-0.201 0.543-0.201 0.755 0l6.41 6.411c0.208 0.208 0.208 0.545 0 0.753l-2.262 2.263c-0.1 0.1-0.236 0.156-0.377 0.156s-0.277-0.056-0.377-0.156l-4.201-4.201c-0.209-0.202-0.542-0.199-0.748 0.006s-0.209 0.538-0.006 0.748l4.201 4.201c0.625 0.625 1.638 0.625 2.263 0l2.262-2.262c0.625-0.625 0.625-1.638 0-2.262v-0.001zM19.837 18.327l2.646 2.646-1.508 1.508-2.646-2.646c0.549-0.454 1.054-0.959 1.508-1.508z"></path><path d="M11.204 19.201c-0.294 0-0.533 0.239-0.533 0.533s0.239 0.533 0.533 0.533c2.807 0.009 5.458-1.286 7.175-3.506s2.306-5.111 1.593-7.825c-0.074-0.285-0.364-0.457-0.65-0.383s-0.457 0.365-0.383 0.65c0.631 2.395 0.112 4.947-1.403 6.906s-3.856 3.102-6.333 3.092z"></path><path d="M15.59 3.271c-4.032-2.235-9.099-1.086-11.773 2.67s-2.1 8.92 1.332 11.998c0.141 0.131 0.342 0.175 0.525 0.117s0.32-0.212 0.359-0.4c0.039-0.189-0.027-0.384-0.172-0.51-3.026-2.716-3.53-7.271-1.172-10.583s6.826-4.327 10.384-2.358c0.258 0.143 0.582 0.049 0.725-0.208s0.049-0.582-0.208-0.725z"></path><path d="M4.805 28.266c-0.294 0-0.533 0.239-0.533 0.533s0.239 0.533 0.533 0.533h3.199c0.294 0 0.533-0.239 0.533-0.533s-0.239-0.533-0.533-0.533h-3.199z"></path><path d="M14.937 23.467h-5.866v-6.932c0.001-0.242-0.161-0.454-0.395-0.517s-0.481 0.040-0.601 0.25l-4.113 7.199h-0.757c-0.883 0-1.6 0.716-1.6 1.6v5.332c0 0.883 0.716 1.6 1.6 1.6h11.731c0.884 0 1.6-0.716 1.6-1.6v-1.067c0-0.294-0.239-0.533-0.533-0.533s-0.533 0.239-0.533 0.533v1.067c0 0.294-0.239 0.533-0.533 0.533h-11.731c-0.294 0-0.533-0.239-0.533-0.533v-5.332c0-0.294 0.239-0.533 0.533-0.533h1.066c0.191 0.001 0.367-0.101 0.463-0.267l3.27-5.724v5.457c0 0.294 0.239 0.533 0.533 0.533h6.399c0.294 0 0.533 0.239 0.533 0.533v1.067c0 0.294 0.239 0.533 0.533 0.533s0.533-0.239 0.533-0.533v-1.067c0-0.883-0.716-1.6-1.6-1.6z"></path><path d="M10.138 26.667c0-0.294-0.239-0.533-0.533-0.533h-3.733c-0.294 0-0.533 0.239-0.533 0.533s0.239 0.533 0.533 0.533h3.733c0.294 0 0.533-0.239 0.533-0.533z"></path><path d="M14.404 26.667c0-0.294-0.239-0.533-0.533-0.533h-2.133c-0.294 0-0.533 0.239-0.533 0.533s0.239 0.533 0.533 0.533h2.133c0.294 0 0.533-0.239 0.533-0.533z"></path><path d="M10.138 29.333h2.133c0.294 0 0.533-0.239 0.533-0.533s-0.239-0.533-0.533-0.533h-2.133c-0.294 0-0.533 0.239-0.533 0.533s0.239 0.533 0.533 0.533z"></path><path d="M23.469 4.271h4.799c0.294 0 0.533-0.239 0.533-0.533s-0.239-0.533-0.533-0.533h-4.799c-0.294 0-0.533 0.239-0.533 0.533s0.239 0.533 0.533 0.533z"></path><path d="M23.469 6.937h4.799c0.294 0 0.533-0.239 0.533-0.533s-0.239-0.533-0.533-0.533h-4.799c-0.294 0-0.533 0.239-0.533 0.533s0.239 0.533 0.533 0.533z"></path><path d="M28.268 8.537h-2.666c-0.294 0-0.533 0.239-0.533 0.533s0.239 0.533 0.533 0.533h2.666c0.294 0 0.533-0.239 0.533-0.533s-0.239-0.533-0.533-0.533z"></path><path d="M28.268 11.203h-2.666c-0.294 0-0.533 0.239-0.533 0.533s0.239 0.533 0.533 0.533h2.666c0.294 0 0.533-0.239 0.533-0.533s-0.239-0.533-0.533-0.533z"></path><path d="M24.535 15.469c-0.294 0-0.533 0.239-0.533 0.533s0.239 0.533 0.533 0.533h3.199c0.589 0 1.067-0.477 1.067-1.066v-1.066c0-0.589-0.478-1.066-1.067-1.066h-3.199c-0.294 0-0.533 0.239-0.533 0.533s0.239 0.533 0.533 0.533h3.199v1.066h-3.199z"></path></svg> 