<?xml version="1.0" encoding="UTF-8"?> <!-- Generated by IcoMoon.io --> <svg xmlns="http://www.w3.org/2000/svg" width="32" height="32" viewBox="0 0 32 32"><title>serv-1</title><path d="M26.844 20.601c0.929-0.718 1.468-1.829 1.457-3.003 0.067-1.951-1.454-3.589-3.404-3.666-0.78 0.002-1.533 0.287-2.12 0.801-0.839 0.747-1.308 1.826-1.283 2.949s0.542 2.179 1.414 2.889c0.007 0.006 0.016 0.009 0.023 0.015-1.442 0.6-2.642 1.664-3.412 3.022-0.474-0.383-1.004-0.693-1.571-0.918 0.27-0.204 0.509-0.445 0.71-0.717 0.486-0.661 0.746-1.46 0.741-2.28-0.002-1.924-1.486-3.521-3.404-3.666-1.713 0.044-3.136 1.333-3.349 3.033-0.037 0.209-0.056 0.42-0.055 0.633-0.011 1.171 0.526 2.279 1.451 2.997-0.567 0.225-1.097 0.534-1.571 0.918-0.741-1.301-1.875-2.335-3.239-2.954 0.971-0.713 1.539-1.851 1.527-3.055 0.067-1.951-1.454-3.589-3.404-3.666-1.95 0.077-3.471 1.715-3.404 3.666-0.009 1.139 0.498 2.22 1.38 2.94-2.888 1.031-5.020 4.482-5.020 8.581 0 0.289 0.234 0.524 0.524 0.524h8.515c-0.075 0.52-0.114 1.045-0.118 1.571 0 0.289 0.235 0.524 0.524 0.524h12.48c0.289 0 0.524-0.234 0.524-0.524-0.004-0.526-0.043-1.051-0.118-1.571h8.516c0.289 0 0.524-0.235 0.524-0.524 0-4.012-2.040-7.41-4.835-8.519zM22.54 17.598c-0.012-0.792 0.324-1.55 0.92-2.072 0.398-0.35 0.908-0.544 1.437-0.547 1.371 0.077 2.424 1.246 2.357 2.619 0.067 1.372-0.985 2.541-2.357 2.619-0.489 0-0.963-0.166-1.345-0.472-0.649-0.522-1.023-1.314-1.011-2.147zM13.637 19.693c-0-0.154 0.013-0.308 0.041-0.459 0.132-1.194 1.116-2.112 2.316-2.16 1.204 0.050 2.19 0.974 2.318 2.172 0.026 0.147 0.039 0.297 0.039 0.447 0.004 0.596-0.184 1.178-0.537 1.659-0.417 0.593-1.094 0.951-1.82 0.96-1.371-0.078-2.423-1.247-2.357-2.619zM7.353 14.98c1.371 0.077 2.424 1.246 2.357 2.618 0.067 1.372-0.985 2.541-2.357 2.619-1.371-0.078-2.423-1.247-2.357-2.619-0.067-1.372 0.985-2.541 2.357-2.619zM9.533 28.596h-8.164c0.198-4.088 2.7-7.332 5.748-7.332 1.792 0 3.48 1.147 4.572 3.084-1.071 1.208-1.813 2.671-2.157 4.248zM10.29 30.691c0.023-0.495 0.082-0.987 0.175-1.473 0.281-1.661 1.058-3.198 2.229-4.41 0.014-0.013 0.027-0.027 0.039-0.042 0.862-0.877 2.032-1.381 3.261-1.406 1.229 0.024 2.399 0.529 3.261 1.405 0.012 0.015 0.026 0.030 0.040 0.043 1.171 1.212 1.947 2.75 2.228 4.412 0.093 0.486 0.152 0.978 0.175 1.472h-11.407zM22.455 28.596c-0.343-1.577-1.085-3.040-2.156-4.247 1.092-1.938 2.78-3.084 4.572-3.084 3.048 0 5.551 3.244 5.748 7.332h-8.164z"></path><path d="M9.907 8.873l1.431 0.179-0.886 1.139c-0.254 0.328-0.224 0.793 0.068 1.087l1.319 1.319c0.294 0.293 0.76 0.321 1.088 0.068l1.138-0.886 0.179 1.433c0.053 0.411 0.402 0.719 0.817 0.72h1.865c0.415-0.001 0.764-0.309 0.817-0.721l0.179-1.432 1.138 0.886c0.328 0.254 0.794 0.225 1.087-0.068l1.32-1.32c0.292-0.294 0.321-0.759 0.067-1.087l-0.886-1.139 1.431-0.179c0.412-0.052 0.721-0.402 0.721-0.817v-1.865c-0.001-0.415-0.309-0.765-0.721-0.816l-1.431-0.179 0.886-1.139c0.254-0.328 0.225-0.793-0.068-1.087l-1.319-1.319c-0.294-0.293-0.76-0.322-1.088-0.068l-1.138 0.886-0.179-1.432c-0.053-0.411-0.402-0.719-0.817-0.72h-1.865c-0.415 0.001-0.764 0.309-0.817 0.721l-0.179 1.432-1.138-0.886c-0.328-0.254-0.793-0.225-1.087 0.068l-1.32 1.32c-0.292 0.294-0.321 0.759-0.067 1.087l0.886 1.138-1.431 0.179c-0.412 0.052-0.721 0.402-0.721 0.816v1.865c0.001 0.415 0.309 0.765 0.721 0.817zM10.233 6.391l1.582-0.197c0.199-0.025 0.366-0.161 0.431-0.35 0.054-0.157 0.118-0.31 0.192-0.459 0.089-0.18 0.067-0.395-0.057-0.553l-0.98-1.257 1.039-1.043 1.257 0.979c0.158 0.123 0.373 0.146 0.552 0.057 0.149-0.074 0.303-0.138 0.46-0.192 0.189-0.065 0.325-0.232 0.351-0.43l0.2-1.582h1.466l0.197 1.582c0.025 0.198 0.161 0.366 0.351 0.43 0.157 0.054 0.311 0.118 0.46 0.192 0.18 0.089 0.396 0.067 0.554-0.057l1.257-0.979 1.039 1.039-0.98 1.257c-0.123 0.158-0.145 0.373-0.057 0.553 0.074 0.149 0.138 0.302 0.192 0.459 0.065 0.189 0.232 0.325 0.43 0.35l1.583 0.2v1.467l-1.582 0.197c-0.199 0.025-0.366 0.161-0.43 0.35-0.054 0.157-0.118 0.31-0.192 0.459-0.088 0.18-0.067 0.395 0.057 0.553l0.98 1.257-1.039 1.043-1.257-0.979c-0.158-0.123-0.373-0.145-0.553-0.057-0.149 0.074-0.303 0.138-0.46 0.192-0.189 0.065-0.326 0.232-0.35 0.431l-0.201 1.582h-1.466l-0.197-1.582c-0.025-0.199-0.161-0.366-0.35-0.431-0.158-0.054-0.311-0.118-0.46-0.192-0.18-0.088-0.395-0.066-0.553 0.057l-1.257 0.979-1.040-1.039 0.98-1.257c0.123-0.158 0.145-0.373 0.056-0.553-0.074-0.149-0.138-0.302-0.192-0.459-0.065-0.19-0.232-0.325-0.431-0.35l-1.585-0.201v-1.467z"></path><path d="M15.994 10.266c1.736 0 3.142-1.407 3.142-3.142s-1.407-3.142-3.142-3.142c-1.735 0-3.142 1.407-3.142 3.142 0.002 1.735 1.408 3.14 3.142 3.142zM15.994 5.029c1.157 0 2.095 0.938 2.095 2.095s-0.938 2.095-2.095 2.095c-1.157 0-2.095-0.938-2.095-2.095s0.938-2.095 2.095-2.095z"></path><path d="M3.472 14.91c0.079 0 0.156-0.018 0.227-0.052 0.131-0.063 0.231-0.176 0.276-0.314 0.075-0.235-0.009-0.387-0.177-0.69-0.376-0.681-1.519-2.749-0.825-4.437 0.396-0.961 3.049-1.737 4.475-2.154 0.327-0.095 0.621-0.181 0.862-0.258 0.217-0.070 0.364-0.272 0.363-0.5l-0.011-4.093c-0.010-0.159-0.090-0.305-0.217-0.4-0.131-0.099-0.298-0.137-0.459-0.105-2.978 0.602-6.525 1.571-7.516 3.718-1.717 3.718 1.774 8.3 2.533 9.048 0.12 0.138 0.289 0.223 0.47 0.237zM2.006 9.014c-0.214 0.532-0.316 1.103-0.297 1.676-0.618-1.447-0.967-3.151-0.286-4.625 0.793-1.72 4.347-2.619 6.195-3.013l0.009 3.062c-0.147 0.044-0.304 0.090-0.471 0.138-2.405 0.705-4.608 1.445-5.151 2.762h0.002z"></path><path d="M23.689 7c0.241 0.077 0.536 0.163 0.863 0.259 1.425 0.419 4.079 1.192 4.475 2.153 0.695 1.687-0.45 3.757-0.825 4.436-0.168 0.304-0.252 0.457-0.177 0.692 0.045 0.138 0.144 0.251 0.274 0.314 0.071 0.034 0.148 0.052 0.226 0.052 0.182-0.012 0.351-0.095 0.471-0.232 0.759-0.747 4.254-5.329 2.534-9.049-0.991-2.149-4.538-3.116-7.516-3.718l-0.049-0.010c-0.154-0.031-0.314 0.008-0.435 0.107s-0.193 0.248-0.193 0.405l-0.011 4.091c-0.001 0.228 0.146 0.43 0.363 0.5zM24.383 3.053c1.804 0.384 5.397 1.283 6.196 3.014 0.681 1.473 0.33 3.177-0.286 4.625 0.018-0.573-0.084-1.144-0.298-1.676-0.543-1.317-2.746-2.057-5.15-2.76-0.166-0.048-0.324-0.094-0.471-0.138l0.010-3.065z"></path></svg> 