<?xml version="1.0" encoding="UTF-8"?> <!-- Generated by IcoMoon.io --> <svg xmlns="http://www.w3.org/2000/svg" width="32" height="32" viewBox="0 0 32 32"><title>serv-3</title><path d="M31.467 19.2h-3.2c-0.294 0-0.533 0.239-0.533 0.533h-1.6c-0.294 0-0.533 0.239-0.533 0.533v0.096l-2.161 0.432-5.459-0.528c-0.132-0.013-0.263 0.024-0.369 0.103l-1.115 0.831-1.267-0.845c-0.101-0.068-0.222-0.1-0.344-0.090l-5.798 0.527-2.687-0.446v-0.082c0-0.294-0.239-0.533-0.533-0.533h-1.6c0-0.294-0.239-0.533-0.533-0.533h-3.2c-0.295 0-0.533 0.239-0.533 0.533v9.6c0 0.295 0.239 0.533 0.533 0.533h3.2c0.295 0 0.533-0.239 0.533-0.533h1.6c0.295 0 0.533-0.239 0.533-0.533h2.031l7.904 3.162c0.108 0.043 0.227 0.050 0.339 0.019l5.867-1.6c0.28-0.074 0.448-0.36 0.375-0.641-0.001-0.005-0.003-0.011-0.004-0.016l2.72-0.764c0.068 0.221 0.272 0.372 0.503 0.372h1.6c0 0.295 0.239 0.533 0.533 0.533h3.2c0.294 0 0.533-0.239 0.533-0.533v-9.6c0-0.294-0.239-0.533-0.533-0.533zM3.2 28.8h-2.133v-8.533h2.133v8.533zM5.333 28.267h-1.067v-7.467h1.067v7.467zM16.565 30.905l-7.834-3.134c-0.063-0.025-0.13-0.038-0.198-0.038h-2.133v-6.304l2.579 0.43c0.045 0.007 0.091 0.009 0.136 0.005l5.679-0.516 0.793 0.529-1.44 1.070c-0.841 0.554-1.074 1.685-0.519 2.526 0.338 0.513 0.912 0.822 1.527 0.82 0.372-0.001 0.736-0.112 1.045-0.32l0.31-0.234 4.751 3.887-4.696 1.278zM25.596 27.862l-3.58 1.004-4.629-3.79 0.863-0.65-0.64-0.853-2.027 1.527c-0.349 0.233-0.822 0.139-1.055-0.21-0.098-0.146-0.142-0.322-0.124-0.498 0.025-0.236 0.157-0.447 0.357-0.574l3.321-2.468 5.331 0.516c0.052 0.005 0.104 0.002 0.156-0.009l2.027-0.405v6.41zM27.733 28.267h-1.067v-7.467h1.067v7.467zM30.933 28.8h-2.133v-8.533h2.133v8.533z"></path><path d="M8.213 29.376l-0.42 0.98 3.733 1.601 0.42-0.98-3.733-1.601z"></path><path d="M12.267 7.467h-4.8v-3.2c0-0.295-0.239-0.533-0.533-0.533h-1.6v-2.133c0-0.295-0.239-0.533-0.533-0.533h-0.533v-1.067h-1.067v1.067h-0.533c-0.295 0-0.533 0.239-0.533 0.533v2.133h-1.6c-0.295 0-0.533 0.239-0.533 0.533v13.333c0 0.294 0.239 0.533 0.533 0.533h11.733c0.294 0 0.533-0.239 0.533-0.533v-9.6c0-0.295-0.239-0.533-0.533-0.533zM3.2 2.133h1.067v1.6h-1.067v-1.6zM6.4 17.067h-5.333v-12.267h5.333v12.267zM11.733 9.6h-1.067v1.067h1.067v1.067h-1.067v1.067h1.067v4.267h-4.267v-8.533h4.267v1.067z"></path><path d="M3.2 8h-1.067v1.067h1.067v-1.067z"></path><path d="M5.333 8h-1.067v1.067h1.067v-1.067z"></path><path d="M3.2 10.133h-1.067v1.067h1.067v-1.067z"></path><path d="M5.333 10.133h-1.067v1.067h1.067v-1.067z"></path><path d="M3.2 12.267h-1.067v1.067h1.067v-1.067z"></path><path d="M9.6 9.6h-1.067v1.067h1.067v-1.067z"></path><path d="M9.6 11.733h-1.067v1.067h1.067v-1.067z"></path><path d="M3.2 5.867h-1.067v1.067h1.067v-1.067z"></path><path d="M5.333 5.867h-1.067v1.067h1.067v-1.067z"></path><path d="M22.933 0v0.8c0 0.442-0.358 0.8-0.8 0.8-1.031 0-1.867 0.836-1.867 1.867v0.8h1.067v-0.8c0-0.442 0.358-0.8 0.8-0.8 1.031 0 1.867-0.836 1.867-1.867v-0.8h-1.067z"></path><path d="M31.814 11.862l-3.733-3.2c-0.224-0.192-0.56-0.166-0.752 0.058-0.083 0.097-0.128 0.22-0.128 0.347v1.126l-1.786-1.531c-0.224-0.192-0.56-0.166-0.752 0.058-0.083 0.097-0.128 0.22-0.128 0.347v2.667h-1.067v-5.333h0.533v-1.067h-0.385c0.189-0.329 0.539-0.532 0.918-0.533 1.472-0.002 2.665-1.195 2.667-2.667v-1.067h-1.067v1.067c0 0.884-0.716 1.6-1.6 1.6-0.97 0.004-1.815 0.661-2.058 1.6h-2.742v1.067h0.533v5.333h-0.533c-0.295 0-0.533 0.239-0.533 0.533v5.333c0 0.294 0.239 0.533 0.533 0.533h11.733c0.294 0 0.533-0.239 0.533-0.533v-5.333c0-0.156-0.068-0.303-0.186-0.405zM21.333 6.4h1.067v5.333h-1.067v-5.333zM30.933 17.067h-10.667v-4.267h4.8c0.294 0 0.533-0.239 0.533-0.533v-2.041l1.786 1.531c0.224 0.192 0.56 0.166 0.752-0.058 0.083-0.097 0.128-0.22 0.128-0.347v-1.126l2.667 2.286v4.555z"></path><path d="M27.733 14.933h-1.067v1.067h1.067v-1.067z"></path><path d="M29.867 14.933h-1.067v1.067h1.067v-1.067z"></path><path d="M27.733 12.8h-1.067v1.067h1.067v-1.067z"></path><path d="M29.867 12.8h-1.067v1.067h1.067v-1.067z"></path><path d="M22.4 13.867h-1.067v1.067h1.067v-1.067z"></path><path d="M24.533 13.867h-1.067v1.067h1.067v-1.067z"></path><path d="M16.533 13.333v-1.067h-1.067v1.067h-1.067v1.067h1.067v1.067h1.067v-1.067h1.067v-1.067h-1.067z"></path></svg> 