<svg width="1920" height="325" viewBox="0 0 1920 325" fill="none" xmlns="http://www.w3.org/2000/svg"><g opacity=".3"><path d="M344.88 235.65c0-.217.044-.434.044-.65-.433-.217-.91-.433-1.3-.606-1.342-.607-1.256-2.296-.476-3.292-1.646-2.988-1.949-6.67-1.949-10.048.043-8.748 2.555-17.237 3.118-25.943.433-6.453.044-13.079.044-19.576v-20.962-.216c-1.386-3.725-1.819-7.666-1.863-11.694 0-1.169.737-1.819 1.603-2.035-.823-3.292-1.3-6.584-.607-10.005.174-.866.78-1.343 1.473-1.516-.866-5.414-2.166-10.784-2.685-16.198-.433-4.634-.26-9.355-.217-13.989.043-4.5476.087-9.0518.173-13.5993.174-9.3117.39-18.6666.65-27.9783.476-18.7965.996-37.593.996-56.3896 0-.3898.087-.693.217-.9528H3.6843v296.24c.693.044 1.4292.174 2.1221.174H68.9958c-4.5908-12.95-7.6225-25.727-4.5475-39.283-2.7286.563-5.0673 1.343-7.4493 1.516-2.1222.173-4.2877-.216-6.4099-.563-1.6458-.26-2.0356-1.646-1.1261-2.728 1.0828-1.213 2.5553-2.382 4.0712-2.859 2.382-.736 4.9806-.866 7.4493-1.386 1.2993-.26 2.5119-.823 3.7679-1.256v-.736c-.9095-.217-1.819-.693-2.6852-.65-2.1655.087-4.331.304-6.4532.65-5.1539.823-7.1894-.606-7.5359-5.847-.3465-5.11-.3032-10.264-.6063-15.375-.4331-8.575-1.6891-17.064-3.8979-25.423-1.8624-7.146-2.2089-14.552.3897-21.828 1.5592-4.461 4.331-7.969 8.1423-10.654a222.2023 222.2023 0 0 1 5.7169-3.898c2.8585-1.906 5.717-3.595 7.8392-6.54 2.9017-3.941 6.9729-7.103 11.5637-8.402 4.5043-1.299 6.6697-4.418 8.7053-7.709 2.9884-4.894 5.5437-10.092 7.7958-15.375.7796-1.863.3032-4.331.0433-6.497-.2165-1.602-1.0827-3.118-1.5158-4.721-1.0395-3.984-1.8624-7.969 1.9056-11.13-5.1106-4.851-5.5004-9.312-1.256-14.9423 4.5476-6.0634 9.2252-12.0402 13.6862-18.1469 10.567-14.4222 26.289-15.7215 40.191-6.1933 4.851 3.3349 9.225 7.1895 11.608 12.8198 2.078 4.9373 2.035 10.0479 1.082 15.1151-.693 3.9846.26 7.1896 2.945 10.1346 3.552 3.941 3.162 6.323-1.299 9.225-1.299.866-2.772 1.602-4.244 2.122-2.902 1.04-4.201.303-4.894-2.642-.13-.563-.217-1.126-.607-1.732-.433 2.512-.866 4.981-1.299 7.449-1.473 8.359-3.378 16.631-8.402 23.647-2.339 3.292-5.327 6.324-8.576 8.749-7.059 5.197-14.855 4.331-21.611-1.992-5.587-5.241-9.355-11.694-12.0837-18.753-.2598-.65-.4764-1.343-.8662-2.556-.6496 3.508-1.2127 6.497-1.7324 9.442-.9095 5.327-1.7324 10.654-2.7718 15.938-.3465 1.689-1.2993 3.248-2.1655 5.197 2.5986 2.296 5.5004 4.894 8.4456 7.493 8.489 7.406 16.025 15.591 20.875 25.899.823 1.776 2.382 2.166 4.115 2.339 4.071.433 8.142.866 12.256 1.256.78.086 1.603.086 2.382.086 3.379-.129 4.981-1.732 4.635-5.067-.477-4.937-2.642-9.268-5.154-13.383-3.682-6.106-7.579-12.083-11.347-18.103-.65-.996-1.213-2.079-1.863-3.075.13-.173.217-.347.347-.563 1.429.52 2.988.823 4.287 1.602 5.977 3.595 11.174 8.186 15.462 13.686 6.8 8.749 10.394 18.97 12.387 29.754 1.429 7.796 2.598 15.635 3.984 23.431.52 3.032 1.473 5.977 3.378 8.489.217 0 .433 0 .693-.044 0-.909.174-1.819-.043-2.642-2.122-9.658-4.244-19.272-6.41-28.931-1.429-6.236-2.902-12.473-4.461-19.186 3.552 1.083 5.934 2.945 7.016 5.674 1.863 4.72 3.422 9.614 4.548 14.595 1.906 8.532 2.815 17.237 1.732 26.029-.606 4.765-1.212 9.529-1.819 14.509 6.973-2.555 7.666-9.874 12.604-14.205-1.646-.174-2.772-.217-3.855-.39-.996-.173-2.122-.303-2.858-.866-.78-.65-1.776-1.993-1.56-2.686.26-.866 1.733-2.078 2.556-1.992 2.512.26 4.937 1.04 7.536 1.689.606-2.815 3.291-3.811 6.323-4.071 3.378-.303 6.756-.52 10.134-.39 1.256.044 2.426 1.343 3.682 2.079.346.217.649.433 1.039.606 2.599.997 2.902 1.56 2.382 4.375 4.028.823 4.461 1.646 2.642 5.543 1.733-.216 3.378-.259 4.937-.692 2.166-.607 3.465-2.686 3.465-5.024v-20.313h25.51c-.347-5.154-.693-10.091-1.04-15.028-1.212-17.757-2.425-35.558-3.724-53.315-.13-1.819.303-2.728 2.165-3.205 6.15-1.602 12.214-3.378 18.364-5.024 1.082-.303 2.252-.346 3.811-.563v30.837c-4.288.216-8.619.433-12.95.606-.086.173-.303.347-.303.563.173 5.024.26 10.091.65 15.115.606 7.839 1.516 15.635 2.122 23.474.173 2.079.693 3.075 2.988 3.075 3.119.044 6.28.52 9.485.823v-72.76c3.552.346 7.19.649 10.784 1.082.347.044.78 1.213.78 1.819 0 5.111-.13 10.265-.173 15.375v2.339h7.319v-15.202c2.512.174 5.067.347 7.449.52-.649-8.965-1.342-17.844-1.949-26.766-.086-1.559-.692-2.338-2.252-2.555-4.374-.52-8.705-1.083-13.079-1.602-1.559-.217-2.079.519-2.296 2.035-.952 6.713-2.079 13.383-3.118 20.053-.043.26-.303.519-.996.693v-20.746c-4.764.866-9.052 1.646-13.296 2.512-.39.087-.737 1.083-.866 1.689-.997 5.154-1.863 10.351-2.902 15.505-.26 1.343-1.083 2.556-1.646 3.812-.217-.044-.433-.087-.65-.13-.823-10.092-1.645-20.226-2.468-30.577 9.355-1.083 18.45-.217 27.545.086V80.8597c-12.647-1.4292-25.033-2.8151-37.68-4.201 0 1.0394-.043 1.8623 0 2.7285.347 8.8785.736 17.7571 1.04 26.5928.043.736-.39 1.472-.607 2.078h4.938c-.347 3.119-.65 6.15-1.04 9.225-.043.347-.779.823-1.213.867-2.598.13-5.197.173-7.795.086-.477 0-1.343-.519-1.386-.866-.26-3.421-.39-6.843-.52-10.351 1.646-.13 2.815-.26 4.071-.347V92.5101c0-3.4648 0-6.9296.087-10.3944.086-2.9017-.607-5.9334 1.602-8.532 12.863 1.2126 25.9 2.4253 39.109 3.638.26-2.1655.433-3.768.65-5.4137 1.212.6496 2.252 1.3859 3.421 1.8623 1.126.4331 2.339.6063 3.682.9528-.304 2.0789.996 2.512 2.728 2.5553 1.646.0433 3.335.2165 4.981.2598 1.429.0434 3.075.6064 3.724-1.5158.087-.3032 1.127-.4764 1.733-.4764 1.862.0433 3.725.2598 6.063.4331-.519 2.8151-.996 5.5004-1.516 8.2289-1.949 0-3.551.0433-5.11 0-.477 0-1.256-.1733-1.343-.4331-.519-1.8623-2.035-1.5159-3.335-1.5592-2.512-.0866-5.024-.0433-8.142-.0433.26 5.6736.52 11.3039.91 16.9775.043.3898 1.082.9961 1.732 1.0831 4.028.693 8.099 1.256 12.3 1.862.26 12.43.476 24.73.736 37.073 1.343.217 2.426.39 3.465.563 1.169 5.068-.13 49.504-1.732 53.098-.607-1.299-1.256-2.252-1.43-3.248-.779-4.98-1.689-9.961-2.078-14.985-.737-9.009-1.3-18.017-1.603-27.026-.086-2.511-.953-3.464-3.248-3.551-.477 0-.996-.087-1.862-.173-1.949 16.674.693 33.305 0 50.239 9.225.39 18.276.823 27.501 1.213v40.495h30.447v-.043z" fill="#fff"/><path d="M342.801 321.317c-1.212-.044-2.295-1.04-1.992-2.642.13-.78.217-1.603.303-2.382-.606-.433-.952-1.213-.736-2.209.563-2.772 1.213-5.674 2.252-8.402-1.429-5.111-1.083-10.958-.909-16.198.26-6.453.866-12.863.866-19.316 0-.953.476-1.56 1.126-1.863.043-.043.043-.086.087-.13-.13.217.173-.649.129-.563.087-.606.044-1.256.044-1.862-.044-1.559-.26-3.118-.477-4.634-.519-3.811-1.212-7.623-1.515-11.477-.347-4.028-.217-9.572 2.468-12.56h-31.27v-40.842c-9.095-.389-18.146-.779-27.545-1.169.91-17.67-1.862-35.168.26-52.838 2.209.433 4.201.693 6.107 1.256.476.13.866 1.169.909 1.819.52 8.662.867 17.281 1.473 25.943.433 5.717 1.213 11.433 1.862 17.15h.736c.087-1.082.217-2.122.217-3.205.303-13.729.606-27.415.866-41.144.044-3.422-.043-3.422-3.595-3.855-.086-.779-.216-1.645-.216-2.468-.217-10.828-.433-21.655-.563-32.483 0-1.819-.477-2.512-2.382-2.685-3.248-.26-6.41-.91-9.658-1.299-1.256-.174-2.252-.39-2.252-1.9493-.13-5.8901-.304-11.8236-.433-17.7138 0-.2598.173-.5197.173-.6063 3.941 0 7.752-.0433 11.564.0433.433 0 .822.6497 1.256.9528.476.3465.909.8662 1.429.9095 3.335.2599 3.465.0867 3.984-3.1616.13-.8662.217-1.6891.39-2.9018-1.646-.1299-3.205-.2598-4.764-.3031-.26 0-.693.1299-.736.2598-.78 2.5553-2.815 1.7324-4.505 1.6891-2.512-.0433-5.024-.2165-7.709-.3465-.13.4331-.303 1.1261-.519 1.9057-1.949-.1299-3.855-.2599-5.934-.3898.736-2.6419 2.425-3.7247 5.067-3.9845-1.602-.5631-3.205-1.1261-4.894-1.6891-.216 1.3426-.433 2.5553-.736 4.3743a43621.966 43621.966 0 0 1-39.022-3.5081c-.044.1732-.044.3465-.087.4764.563.1299 1.126.3032 1.689.3898 11.694 1.2993 23.388 2.6419 35.081 3.8979 1.516.1732 2.079.563 2.079 2.2088.043 5.8468.217 11.6937.347 17.5405v2.295h-27.805c.693 8.662 1.386 17.065 2.035 25.467.13.043.26.086.39.13.217-.737.563-1.473.693-2.209.736-4.548 1.516-9.095 2.122-13.686.173-1.386.607-2.036 1.992-2.252 3.768-.607 7.536-1.343 11.304-1.906.953-.13 1.993.043 3.075.13v9.009c.174.043.304.043.477.086.606-3.205 1.342-6.453 1.775-9.701.217-1.603.78-1.993 2.296-2.036 5.327-.173 10.481.52 15.635 1.906 1.342.346 1.602 1.126 1.689 2.339.563 7.752 1.083 15.548 1.732 23.3.13 1.819.607 3.638.953 5.717-2.685-.173-5.37-.39-8.099-.563v15.159h-9.528v-19.836c-2.988-.217-6.063-.39-9.138-.607v72.588c-.477.043-1.04.173-1.56.13-3.724-.347-7.449-.736-11.217-1.04-1.083-.086-1.646-.346-1.732-1.602-.563-7.926-1.256-15.808-1.906-23.734-.39-5.154-.78-10.351-1.126-15.505-.087-1.083 0-2.122 0-3.291 3.898-.217 7.623-.434 11.347-.564 1.603-.043 2.252-.563 2.252-2.295-.086-8.662-.043-17.281-.043-26.549-4.201 1.039-7.709 1.862-11.217 2.772-3.205.866-6.367 1.776-9.528 2.815-.607.217-1.516 1.039-1.473 1.559.563 10.221 1.213 20.443 1.906 30.664.866 12.949 1.819 25.899 2.685 38.849 0 .086-.043.13-.13.346h-25.25v20.746c1.906-1.689 3.335-3.032 4.851-4.331 4.981-4.158 9.918-8.359 14.942-12.43 1.689-1.386 3.638-2.036 5.803-.65.26.173.823.13 1.213 0 4.418-1.343 9.095 2.469 10.741 5.241.996 1.689.303 2.901-.953 3.984-5.673 4.894-11.347 9.831-17.064 14.682-2.252 1.906-4.634 3.682-6.973 5.544.347 1.213.693 2.382.996 3.551.563 2.166.563 4.071-1.862 5.327-.606.347-.866 1.689-.996 2.642-.217 1.733-.087 3.465-.303 5.154-.087.823-.563 1.603-.91 2.382-.39 1.04-1.039 2.036-1.126 3.075-.26 2.772-.65 3.465-3.465 3.682-1.862.13-3.118.649-4.287 2.295-.693.996-2.382 1.646-3.682 1.776-1.689.13-3.465-.217-5.11-.693-4.245-1.3-8.186-.736-11.694 1.905-3.898 2.989-7.406 6.497-11.434 9.225-6.107 4.158-12.516 7.969-18.883 11.737-1.603.953-3.681 1.3-5.587 1.473-4.028.39-7.103-2.599-7.536-6.973-.476-4.981 1.213-9.528 2.772-14.119.26-.736.563-1.473.953-2.555-3.508.866-6.67 1.689-9.832 2.425-15.158 3.681-30.273 7.363-45.865 8.532-4.0278.303-8.0556.433-12.0835.78-6.02.519-10.1345-2.296-12.8197-7.363-3.2483-6.107-5.3705-12.603-6.0634-19.533-.563-5.457.9095-8.099 6.15-9.615 4.2444-1.256 8.7486-1.689 13.1229-2.555 2.6419-.563 5.2838-1.299 7.7958-1.905-2.1222-6.843-4.3743-13.297-6.1067-19.88-1.2127-4.634-1.7324-9.485-2.5553-14.205-.0866-.607 0-1.3.0433-1.949.1733-1.733.693-3.379 2.642-3.768 1.8623-.39 3.075.909 3.7679 2.338 1.2127 2.512 2.4254 5.111 3.205 7.753 2.2517 7.839 4.2877 15.721 6.4527 23.56.217.823.563 1.603 1.386 2.512.347-.866.91-1.732.996-2.598.953-10.611 1.083-21.265-1.862-31.573-2.252-7.926-6.7562-14.682-12.1266-20.962-4.5476-5.327-9.8747-9.745-15.9814-12.993-3.4648-1.819-7.6226-2.209-11.174-3.898-3.1183-1.473-5.1972-.347-7.5359 1.299-2.512 1.819-5.1539 3.422-7.6659 5.284-5.5004 4.071-8.099 9.831-8.4021 16.415-.2166 4.634 0 9.484 1.126 13.945 3.2483 12.647 4.1145 25.467 4.4176 38.373.0434 1.646.0867 3.335.3898 4.937.4331 2.426 1.6891 3.379 4.1145 3.119 1.7324-.174 3.4215-.607 5.1106-.823 2.6852-.347 5.3271-.477 7.7091 1.646-.8662 1.819-2.382 2.641-4.201 2.988-2.6852.52-5.4138.866-8.099 1.429-1.6891.347-3.4215.823-3.8979 3.119 2.5986 1.299 5.2838 1.342 7.969.779 2.5553-.563 5.0673-1.386 7.9258-2.209-4.4176 14.682-.3898 28.455 4.2877 42.401H3.6843v27.285H342.931c-.086-1.343-.13-2.512-.13-3.681z" fill="#fff"/><path d="M344.404 237.079c.39-.433.866-.823 1.386-1.126v-.347c-.303-.173-.563-.346-.866-.519-.044.216-.044.433-.044.649h-30.533v-40.495c-9.225-.389-18.277-.822-27.502-1.212.693-16.978-1.949-33.565 0-50.24.866.087 1.343.173 1.862.173 2.296.087 3.162 1.04 3.248 3.552.347 9.008.867 18.017 1.603 27.025.39 5.024 1.299 10.005 2.079 14.986.173.996.823 1.948 1.429 3.248 1.646-3.595 2.902-48.031 1.732-53.098-1.039-.173-2.122-.347-3.464-.563-.26-12.387-.477-24.687-.737-37.074-4.157-.606-8.229-1.169-12.3-1.862-.649-.087-1.689-.6929-1.732-1.0827-.39-5.6303-.606-11.3039-.91-16.9775 3.119 0 5.631-.0433 8.143.0433 1.256.0433 2.815-.3032 3.335 1.5591.086.2599.866.3898 1.342.4331 1.603.0434 3.162 0 5.111 0 .476-2.7285.996-5.4137 1.516-8.2289-2.339-.1732-4.201-.3464-6.064-.4331-.606 0-1.602.1733-1.732.4765-.65 2.0788-2.296 1.5591-3.725 1.5158-1.646-.0433-3.335-.2165-4.98-.2599-1.69-.0433-2.989-.4764-2.729-2.5552-1.299-.3032-2.555-.4765-3.681-.9529-1.17-.4764-2.252-1.2126-3.422-1.8623-.216 1.6458-.39 3.2483-.649 5.4138-13.21-1.2127-26.246-2.4254-39.109-3.6381-2.166 2.5986-1.516 5.6303-1.603 8.5321-.086 3.4648-.086 6.9296-.086 10.3944v14.1625c-1.213.13-2.426.216-4.072.346.174 3.508.304 6.93.52 10.351.043.347.91.867 1.386.867 2.599.043 5.197 0 7.796-.087.433 0 1.169-.52 1.212-.866.434-3.032.737-6.107 1.04-9.225h-4.937c.173-.607.606-1.343.606-2.079-.303-8.8787-.693-17.7572-1.04-26.5924-.043-.8229 0-1.6891 0-2.7286 12.647 1.4293 25.034 2.8152 37.68 4.2011v19.7929c-9.095-.347-18.19-1.1696-27.545-.087.823 10.351 1.646 20.486 2.469 30.577.216.043.433.087.649.13.563-1.256 1.386-2.469 1.646-3.811 1.04-5.154 1.906-10.351 2.902-15.505.13-.607.476-1.646.866-1.689 4.244-.91 8.532-1.646 13.296-2.512v20.745c.693-.173.953-.433.996-.693 1.083-6.67 2.166-13.383 3.119-20.052.216-1.516.693-2.253 2.295-2.036 4.331.563 8.705 1.126 13.08 1.602 1.559.174 2.122.953 2.252 2.556.606 8.878 1.299 17.8 1.949 26.765-2.426-.173-4.938-.346-7.449-.519v15.201h-7.32v-2.338c.087-5.111.173-10.265.173-15.375 0-.65-.433-1.776-.779-1.819-3.595-.477-7.233-.78-10.784-1.083v72.934c-3.205-.303-6.324-.78-9.485-.823-2.296-.043-2.815-.996-2.989-3.075-.606-7.839-1.516-15.635-2.122-23.474-.39-5.024-.476-10.091-.65-15.115 0-.173.174-.347.304-.563 4.331-.217 8.618-.433 12.949-.607v-30.966c-1.559.216-2.728.26-3.811.563-6.107 1.646-12.213 3.421-18.363 5.024-1.819.476-2.296 1.386-2.166 3.205 1.299 17.757 2.512 35.557 3.725 53.314.346 4.938.693 9.875 1.039 15.029h-25.423v20.312c0 2.339-1.299 4.418-3.465 5.024-1.559.433-3.248.477-4.937.693 1.776-3.898 1.386-4.677-2.642-5.544.52-2.771.217-3.378-2.382-4.374-.346-.13-.693-.39-1.039-.606-1.213-.736-2.426-2.036-3.682-2.079-3.378-.173-6.756.087-10.134.39-3.032.26-5.674 1.256-6.323 4.071-2.599-.606-5.068-1.429-7.536-1.689-.823-.087-2.296 1.126-2.556 1.992-.216.693.78 2.036 1.56 2.685.692.563 1.862.693 2.858.866 1.083.217 2.209.217 3.855.39-4.938 4.331-5.631 11.651-12.604 14.206.65-5.024 1.256-9.745 1.819-14.509 1.083-8.792.174-17.454-1.732-26.029-1.126-4.938-2.685-9.832-4.548-14.596-1.082-2.728-3.464-4.591-7.016-5.673 1.559 6.713 3.032 12.949 4.461 19.186 2.166 9.615 4.331 19.273 6.41 28.931.173.866.043 1.776.043 2.642-.216 0-.433 0-.693.043-1.905-2.512-2.815-5.457-3.378-8.488-1.386-7.796-2.555-15.635-3.984-23.431-1.993-10.784-5.587-21.005-12.387-29.754-4.288-5.5-9.442-10.091-15.462-13.686-1.299-.78-2.858-1.083-4.287-1.602-.13.173-.217.346-.347.563.607 1.039 1.213 2.078 1.863 3.075 3.811 6.02 7.665 11.996 11.347 18.103 2.512 4.158 4.677 8.489 5.154 13.383.346 3.378-1.256 4.981-4.635 5.067-.779.043-1.602 0-2.382-.086-4.071-.39-8.142-.823-12.256-1.256-1.689-.174-3.249-.563-4.115-2.339-4.894-10.308-12.43-18.494-20.875-25.9-2.9453-2.598-5.8903-5.197-8.4456-7.492.8229-1.992 1.819-3.552 2.1655-5.197 1.0394-5.284 1.8623-10.611 2.7718-15.938.5197-2.989 1.0828-5.934 1.7324-9.442.4331 1.213.6064 1.906.8662 2.555 2.7287 7.103 6.4967 13.556 12.0837 18.753 6.756 6.324 14.552 7.19 21.611 1.993 3.249-2.382 6.194-5.457 8.576-8.749 5.024-7.016 6.929-15.288 8.402-23.647.433-2.469.866-4.981 1.299-7.449.433.606.477 1.169.607 1.732.693 2.945 1.949 3.725 4.894 2.642 1.472-.52 2.901-1.256 4.244-2.122 4.461-2.902 4.851-5.284 1.299-9.225-2.642-2.945-3.638-6.1937-2.945-10.1349.91-5.0672.953-10.1778-1.082-15.1152-2.383-5.6303-6.714-9.5282-11.608-12.8197-13.902-9.5282-29.624-8.2289-40.191 6.1933-4.461 6.1067-9.1386 12.0835-13.6862 18.1469-4.2011 5.6303-3.8546 10.0476 1.256 14.9416-3.768 3.162-2.9018 7.146-1.9056 11.131.3898 1.602 1.2993 3.118 1.5158 4.721.2599 2.165.7363 4.634-.0433 6.496-2.2521 5.284-4.8074 10.481-7.7958 15.375-2.0356 3.292-4.2011 6.41-8.7053 7.71-4.5475 1.299-8.662 4.46-11.5638 8.402-2.1221 2.945-4.9806 4.634-7.8391 6.539-1.9056 1.3-3.8112 2.599-5.7169 3.898-3.8113 2.686-6.5831 6.194-8.1423 10.655-2.5553 7.276-2.2088 14.682-.3031 21.958 2.1655 8.359 3.4215 16.804 3.8979 25.423.2598 5.11.2598 10.264.6063 15.375.3465 5.24 2.3387 6.669 7.5359 5.847 2.1222-.347 4.2877-.563 6.4532-.65.9095-.043 1.819.39 2.6852.65v.736c-1.2559.433-2.5119.953-3.7679 1.256-2.4687.52-5.0673.606-7.4493 1.386-1.5159.476-2.9884 1.602-4.0712 2.858-.9528 1.083-.5197 2.469 1.1261 2.729 2.1222.346 4.2877.736 6.4099.563 2.382-.173 4.7207-.91 7.4493-1.516-3.075 13.556-.0433 26.332 4.5475 39.282H5.8931c-.693 0-1.4293-.13-2.1222-.173v1.299h66.8273c-4.6775-13.902-8.7053-27.675-4.2877-42.4-2.8585.823-5.3704 1.645-7.9257 2.208-2.6853.607-5.3705.564-7.9691-.779.4764-2.295 2.2088-2.772 3.8979-3.118 2.6852-.52 5.4138-.867 8.099-1.43 1.7757-.346 3.3349-1.169 4.2011-2.988-2.3821-2.122-5.024-1.992-7.7092-1.646-1.7324.217-3.4215.693-5.1106.823-2.4254.217-3.6813-.693-4.1144-3.118-.3032-1.603-.3465-3.292-.3898-4.938-.3465-12.949-1.1694-25.769-4.4177-38.372-1.126-4.461-1.3426-9.312-1.126-13.946.3032-6.583 2.9018-12.343 8.4021-16.415 2.512-1.862 5.1539-3.464 7.6659-5.283 2.3387-1.689 4.4176-2.772 7.5359-1.3 3.5514 1.689 7.7092 2.079 11.174 3.898 6.15 3.249 11.4338 7.623 15.9814 12.993 5.3704 6.28 9.8747 13.08 12.1267 20.962 2.945 10.308 2.815 20.962 1.862 31.573-.086.91-.649 1.733-.996 2.599-.779-.91-1.126-1.689-1.386-2.512-2.165-7.839-4.201-15.765-6.4528-23.561-.7796-2.685-1.949-5.24-3.205-7.752-.6929-1.429-1.9056-2.685-3.7679-2.339-1.949.39-2.4687 2.036-2.6419 3.768-.0867.65-.1733 1.299-.0434 1.949.7796 4.764 1.2993 9.571 2.5553 14.206 1.7324 6.583 3.9846 13.079 6.1067 19.879-2.5552.65-5.1538 1.386-7.7958 1.906-4.3743.909-8.8785 1.299-13.1229 2.555-5.2405 1.516-6.713 4.158-6.15 9.615.693 6.886 2.8152 13.426 6.0634 19.532 2.6852 5.068 6.843 7.883 12.8198 7.363 4.0278-.346 8.0556-.476 12.0835-.779 15.592-1.213 30.75-4.894 45.865-8.532 3.162-.78 6.367-1.56 9.832-2.426-.39 1.083-.693 1.819-.953 2.555-1.559 4.591-3.248 9.139-2.772 14.119.39 4.375 3.508 7.363 7.536 6.973 1.905-.173 3.984-.519 5.587-1.472 6.41-3.725 12.776-7.536 18.883-11.737 4.028-2.729 7.536-6.28 11.434-9.225 3.508-2.685 7.449-3.248 11.694-1.906 1.645.52 3.421.866 5.11.693 1.299-.13 2.988-.779 3.681-1.776 1.127-1.645 2.426-2.122 4.288-2.295 2.772-.217 3.205-.909 3.465-3.681.087-1.04.736-2.036 1.126-3.075.303-.78.78-1.56.91-2.382.216-1.733.086-3.465.303-5.154.13-.953.346-2.296.996-2.642 2.425-1.256 2.425-3.162 1.862-5.327-.303-1.17-.65-2.296-.996-3.552 2.339-1.862 4.721-3.594 6.973-5.543 5.717-4.851 11.39-9.788 17.064-14.682 1.256-1.083 1.949-2.296.953-3.985-1.646-2.815-6.323-6.583-10.741-5.241-.39.13-.91.174-1.213 0-2.122-1.385-4.071-.736-5.803.65-5.024 4.071-10.005 8.272-14.942 12.43-1.516 1.256-2.945 2.642-4.851 4.331v-20.745h25.25c.086-.217.13-.304.13-.347-.91-12.95-1.819-25.899-2.685-38.849-.693-10.221-1.343-20.442-1.906-30.663-.043-.52.866-1.343 1.472-1.56 3.162-1.039 6.324-1.992 9.529-2.815 3.508-.953 7.016-1.732 11.217-2.772 0 9.225-.043 17.887.043 26.549 0 1.733-.606 2.253-2.252 2.296-3.725.13-7.449.346-11.347.563 0 1.169-.043 2.209 0 3.292.346 5.153.736 10.351 1.126 15.504.606 7.926 1.299 15.809 1.906 23.734.086 1.256.649 1.516 1.732 1.603 3.725.303 7.449.693 11.217 1.039.52.044 1.083-.086 1.559-.13v-72.717c3.075.216 6.15.39 9.139.606v19.836h9.528v-15.158c2.729.173 5.414.389 8.099.563-.346-2.036-.78-3.855-.953-5.717-.649-7.753-1.169-15.548-1.732-23.301-.087-1.213-.347-1.992-1.689-2.339-5.111-1.386-10.308-2.079-15.635-1.905-1.516.043-2.079.433-2.296 2.035-.433 3.248-1.169 6.453-1.775 9.702-.174-.044-.304-.044-.477-.087v-9.008c-1.083-.044-2.079-.26-3.075-.13-3.768.606-7.536 1.342-11.304 1.905-1.386.217-1.819.866-1.992 2.252-.606 4.591-1.386 9.139-2.122 13.686-.13.737-.433 1.473-.693 2.209-.13-.043-.26-.086-.39-.13-.693-8.402-1.342-16.804-2.035-25.466h27.805v-2.2955c-.13-5.8468-.304-11.6937-.347-17.5405 0-1.6025-.563-2.0356-2.079-2.2088a4831.223 4831.223 0 0 1-35.081-3.8979c-.563-.0433-1.126-.2599-1.689-.3898.043-.1733.043-.3465.087-.4764 12.993 1.1693 25.986 2.3387 39.022 3.5081.303-1.819.52-2.9884.736-4.3743 1.646.563 3.292 1.126 4.894 1.6891-2.598.3031-4.331 1.3426-5.067 3.9845 2.036.1299 3.985.2598 5.933.3898.217-.8229.39-1.4726.52-1.9057 2.685.13 5.197.3032 7.709.3465 1.689.0433 3.725.8662 4.505-1.6891.043-.1732.476-.3031.736-.2598 1.559.0866 3.075.2165 4.764.3031-.173 1.1694-.26 2.0356-.39 2.9018-.476 3.2483-.649 3.3782-3.984 3.1616-.477-.0433-.953-.563-1.43-.9095-.433-.3031-.822-.9528-1.256-.9528-3.811-.0866-7.622-.0433-11.563-.0433 0 .0433-.217.3465-.174.6063.13 5.8902.304 11.8237.434 17.7138.043 1.5588 1.039 1.7758 2.252 1.9488 3.205.39 6.41 1.04 9.658 1.299 1.862.174 2.339.867 2.382 2.686.13 10.827.346 21.655.563 32.482 0 .823.13 1.689.216 2.469 3.552.433 3.638.433 3.595 3.854-.26 13.73-.563 27.416-.866 41.145-.043 1.083-.173 2.122-.217 3.205h-.736c-.65-5.717-1.472-11.391-1.862-17.151-.65-8.619-.953-17.281-1.473-25.943-.043-.649-.476-1.689-.909-1.819-1.906-.563-3.898-.822-6.107-1.256-2.122 17.714.65 35.168-.26 52.839 9.442.389 18.494.779 27.545 1.169v40.841h31.097v.087zM232.707 85.1908c.347 7.1461.693 14.2923 1.04 21.3952l-1.04.043c-.346-7.1459-.216-14.2921 0-21.4382zm5.328 24.2972c-.26 2.295-.52 4.591-.867 6.886-.043.303-.693.736-1.082.736-2.296.087-4.548.044-7.103.044-.173-2.946-.39-5.847-.563-9.009 1.689-.13 3.161-.909 3.378 1.343h6.237zM210.23 235.823c3.897-.65 3.941-.217 4.894-4.028.086-.346.519-.563.952-1.039.867 3.031-.216 4.677-2.425 6.409-12.387 9.745-24.643 19.707-36.857 29.668-2.165 1.776-4.028 3.898-5.803 6.107-1.083 1.342-1.646 3.031-2.772 5.283-1.603-.259-4.028-.346-6.15-1.126-3.118-1.126-3.205-3.205-.52-5.197 2.252-1.646 4.504-3.421 6.93-4.807 11.737-6.627 21.438-16.068 32.439-23.691 1.256-.866 1.689-2.815 2.902-3.768 1.949-1.516 4.114-3.421 6.41-3.811zm-31.573-8.922c-.26.087-.563 0-.867 0 0 .043-.043.13-.043.173-1.299-.303-2.685-.519-3.898-.996-.52-.216-.779-1.039-1.169-1.602.563-.347 1.169-1.083 1.646-.996 1.689.216 3.334.606 4.937 1.126.52.173.779 1.039 1.169 1.559-.606.26-1.169.519-1.775.736zm-6.713 14.119c.692-.303 1.256-.996 1.645-1.646 3.032-4.764 6.194-9.528 8.965-14.422 1.127-1.992 2.296-3.421 4.635-3.595 3.031-.259 6.02-.693 9.008-.823 1.299-.043 2.642.434 3.941.693v.65l-2.382 1.04c0 .173.044.303.044.476.519.043.996.087 1.515.087.997 0 2.079-.217 2.989.043.736.173 1.299.909 1.949 1.386-.52.519-.91 1.299-1.559 1.559-1.386.606-2.902.953-4.331 1.386.043.216.043.433.086.649.477 0 .953.044 1.429 0 1.993-.129 4.028-.346 6.021-.346.563 0 1.515.52 1.645.953.174.52-.216 1.559-.693 1.862-1.039.693-2.252 1.17-3.464 1.603-.693.26-1.43.346-2.772.649 1.992.996 3.378 1.733 4.807 2.469v.736c-3.508.65-7.016 1.256-10.567 1.906v.606h5.63c-.303.65-.347.866-.477.996-8.142 6.107-16.198 12.257-24.426 18.234-4.028 2.902-8.359 5.414-12.56 8.012-.737.477-1.646.736-2.945 1.299 1.732-5.5 3.248-10.481 4.807-15.504.043-.217.13-.39.173-.607.953-4.374 2.252-8.402 6.887-10.351zm-14.379-56.649c.216-.087.389-.217.606-.304 2.339 1.3 3.811 3.422 4.764 5.804 2.729 6.886 4.028 14.119 4.807 21.438.477 4.505.39 9.052.52 13.6 0 .649-.173 1.342-.52 1.949-3.421-14.163-6.799-28.325-10.177-42.487zm-7.32-73.497c-1.516 9.095-2.772 18.233-6.886 26.679-3.032 6.236-7.276 11.433-13.686 14.508-4.894 2.382-9.658 1.819-14.162-1.126-5.934-3.898-9.615-9.658-12.777-15.764-2.295-4.418-4.2009-9.009-3.3347-14.033.4331-2.599 1.4297-5.37 2.9887-7.493 3.854-5.37 6.106-11.13 6.236-18.3197-2.165 4.1145-4.677 7.1457-8.445 9.0517-1.0829-1.689-.9096-3.162.087-4.8073 1.169-1.949 1.905-4.2011 3.031-6.1933.433-.7363 1.343-1.6458 2.079-1.6891 14.682-.9528 28.628 1.256 40.755 10.4377.303.217.563.476.823.693 2.642 1.992 3.898 4.288 3.291 8.056zm-51.4953-10.741c-2.6853-3.8982-1.2993-6.8866 3.7683-7.926-1.343 2.7718-2.512 5.2838-3.7683 7.926zm1.2993 6.366c0-.389.346-.909.693-1.169 1.949-1.473 3.898-2.859 5.76-4.201.303 3.161-3.508 10.827-6.496 12.993 0-2.469-.0437-5.067.043-7.623zm50.846-1.645c-13.08-12.647-29.061-15.3322-46.385-14.5093 2.598-6.5831 6.063-12.2134 12.3-15.5483 5.977-3.205 12.343-4.2877 19.056-2.9884 8.013 1.5592 12.863 6.4965 14.899 14.2057 1.646 6.15 1.126 12.3866.13 18.8403zM92.4697 93.5929c2.9018-4.3743 6.1933-8.4887 9.3553-12.7331 1.992-2.6419 3.984-5.3271 5.976-7.9257 9.615-12.5166 23.388-15.1152 36.684-6.5832 3.551 2.2522 6.8 5.1539 9.658 8.2722 4.678 5.1106 5.5 11.5205 4.331 18.1036-.953 5.1972-.087 9.4853 3.681 13.2963 2.209 2.252 1.993 4.114-.606 5.933-1.732 1.213-3.768 2.079-5.717 2.989-1.342.606-2.382.043-2.555-1.386-.433-3.811-1.603-7.493-.866-11.521.996-5.4134.909-10.9138-.52-16.3275-2.425-9.2683-9.182-14.8553-18.753-15.505-13.08-.8662-23.258 5.1539-28.541 17.1075-.953 2.1655-2.123 3.5947-4.505 4.3743-3.5945 1.1694-4.9804 4.0711-3.3779 7.3194 1.256 2.5553.3465 3.9843-1.5592 5.5003-3.9845-2.339-5.2838-6.9729-2.6852-10.9141zm1.3426 38.0691c2.0356-4.417 2.0356-8.705.2599-13.209-.8229-2.036-1.2993-4.288-1.4292-6.497-.0867-1.386.563-2.901 1.2126-4.201.9962-1.992 2.9451-1.645 5.1972-1.472-.2165 3.031-.3898 6.106-.6496 9.138-.8662 10.698-2.1222 21.352-4.894 31.79-.4332 1.732-.3032 3.594-.5631 5.37-.1299 1.04-.3898 2.122-.8229 3.075-.7795 1.603-1.7757 1.906-3.3781.606-2.2955-1.819-4.8074-3.378-7.4927-5.197 5.5004-5.76 9.3117-12.386 12.5599-19.403zm-15.6782 20.01c.1733.216.3032.476.4764.693l-11.4771 7.925c-.13-.173-.2599-.39-.4331-.563 3.638-2.945 6.713-6.713 11.4338-8.055zm30.4899 85.234c.52-.477.737-1.43.78-2.166.823-10.048.909-20.052-1.169-29.927-1.516-7.06-4.851-13.296-9.4853-18.71-4.1578-4.851-8.4888-9.615-13.2096-13.902-4.2877-3.942-9.918-5.717-15.4183-7.493-1.5592-.52-3.1617-.866-5.1972-1.429 3.3348-2.382 6.2366-4.418 9.1384-6.54 1.7324-1.299 3.3348-2.772 5.1539-3.941.6063-.39 1.8623-.607 2.382-.26 2.5986 1.646 5.024 3.551 7.7958 5.543-.9095.78-1.5592 1.3-2.1655 1.863-2.4687 2.079-3.1616 4.287-1.256 6.843 2.4254 3.248 5.3705 6.15 8.2289 9.052 1.9923 2.078 4.2877 3.854 6.3669 5.846 7.362 7.147 10.091 16.502 11.737 26.203 1.775 10.308.866 20.572-1.993 30.62-.216.693-.433 1.386-.649 2.036-.044.13-.173.216-.347.433-1.386-1.3-2.512-2.339-.693-4.071zm-2.598 2.035c1.212 1.429 2.338 2.729 3.508 4.071.26-.043.52-.086.779-.13.91-3.811 1.993-7.579 2.729-11.39 2.772-14.682 1.083-28.845-5.414-42.401-1.862-3.854-4.677-6.843-7.8389-9.658-3.8979-3.508-7.8391-7.016-11.2606-10.957-3.6813-4.245-3.1183-6.237 1.9923-9.442 3.8979 3.465 7.969 6.887 11.8232 10.568 3.855 3.681 7.71 7.406 11.044 11.564 2.686 3.335 4.591 7.319 6.67 11.087 1.083 1.992 2.555 3.032 4.721 3.292 4.591.476 9.138 1.039 13.729 1.429 5.631.476 8.619-2.642 6.93-8.099-1.559-4.981-3.811-9.788-6.323-14.379-3.075-5.587-6.757-10.871-10.222-16.241-.13-.217-.216-.477-.476-1.04 4.677 2.122 8.012 5.327 11.52 8.402 8.879 7.71 13.47 17.931 16.155 28.931 2.295 9.442 3.422 19.143 5.327 28.672.693 3.335 1.516 7.189 3.638 9.528 3.162 3.465 1.256 6.626 1.04 9.961-.044.433-1.083 1.083-1.776 1.213-3.551.65-7.103 1.559-10.654 1.602-7.623.044-15.289-.476-22.911-.606-7.493-.13-14.986-.173-22.478-.087-3.725.044-5.977-.996-7.406-3.811 1.732-.736 3.465-1.429 5.154-2.079zm-8.6623-5.63c-2.7285-8.359-5.5869-16.674-6.3232-25.553-.1299-1.343 0-2.729.2598-4.071.13-.65.8229-1.516 1.386-1.646.6063-.13 1.6891.347 1.9922.866 1.256 2.339 2.6419 4.678 3.3349 7.19 2.2086 7.622 4.1576 15.288 6.2366 22.954.39 1.516.953 2.988 1.516 4.678-1.949.736-3.811 1.472-5.9769 2.338-.8229-2.338-1.7324-4.504-2.4254-6.756zm59.3343 35.601c-7.406 1.775-14.768 3.941-22.261 5.413-9.961 1.993-20.009 3.639-30.057 5.154-4.7641.693-9.6149.78-14.4656 1.04-4.4609.216-8.0989-1.386-10.481-5.241-4.0278-6.626-6.4532-13.859-6.9296-21.611-.2599-4.505 1.1261-6.324 5.4571-7.58 2.4253-.693 4.9373-1.082 7.406-1.602 4.2877-.91 8.5754-1.819 12.9063-2.599.5631-.086 1.4293.174 1.7758.563 2.469 2.945 5.544 3.552 9.268 3.508 8.359-.13 16.718 0 25.077.39 9.225.433 18.45 1.17 27.632-.606 1.126-.217 2.252-.52 3.854-.91-.909 3.162-1.646 6.064-2.512 8.922-1.256 4.158-2.598 8.229-3.811 12.387-.477 1.472-1.299 2.382-2.859 2.772zm71.765-21.006c-.736.693-1.126 1.993-1.256 3.032-.217 1.473 0 3.032-.13 4.548-.086.909-.26 2.035-.823 2.598-1.169 1.213-1.516 2.512-1.472 4.115.086 1.516-.563 2.425-2.252 2.468-2.166.044-4.072.347-5.241 2.772-.433.866-2.512 1.256-3.811 1.256-1.603 0-3.292-.476-4.851-.953-3.638-1.082-7.146-.519-10.134 1.603-4.158 2.945-7.97 6.41-12.041 9.485-6.669 4.937-13.382 9.874-21.222 12.819-6.279 2.339-10.87-1.385-9.701-8.012.823-4.634 2.512-9.138 3.855-13.686.13-.476.649-.996 1.082-1.213 8.922-3.681 16.242-9.831 23.778-15.678 5.327-4.158 10.914-8.012 16.414-11.997.347-.259.736-.346 1.343-.303-.39.433-.737.953-1.17 1.3-8.488 6.453-16.934 12.949-25.553 19.272-4.417 3.249-9.095 6.107-13.686 9.096-1.775 1.169-3.421 2.771-3.161 4.807.26 2.036 2.425 2.858 4.331 3.421 4.634 1.43 9.225.434 13.339-1.256 10.914-4.46 21.655-9.484 32.439-14.292.13-.043.174-.216.434-.563-.563-1.213-1.083-2.642-1.863-3.898-.953-1.516-.779-2.468.823-3.205.65-.303 1.213-.736 1.906-1.169 1.819 1.386 3.594 2.772 5.414 4.158.129-.13.259-.217.346-.347-1.386-1.516-2.772-3.075-4.158-4.591 2.685-2.512 2.859-2.512 5.804-.649 1.386.866 2.858 1.602 4.287 2.425.13-.216.26-.433.434-.65-1.863-1.385-3.725-2.815-5.804-4.374 1.386-.996 2.425-1.906 3.595-2.555.476-.26 1.299-.044 1.905.086 1.17.26 2.339.607 4.115 1.083-.736-1.862-1.213-3.032-1.733-4.331 1.56-1.212 3.119-2.382 4.635-3.551 2.165 2.382 1.992 4.894-.217 6.929zM184.2 273.069c6.887-5.153 13.773-10.307 20.919-15.634.866 1.645 1.689 3.118 2.685 4.98-7.926 3.725-15.678 7.363-23.431 11.044-.043-.13-.129-.26-.173-.39zm21.092-17.194c.13-1.256 0-2.555.303-2.728.78-.347 1.819-.087 2.729-.087 0 .26.043.477.043.737-.823.563-1.689 1.126-3.075 2.078zm3.162-6.713c1.949.433 3.248.693 4.547.996.044.174.087.347.13.564-.866.606-1.775 1.212-2.988 2.078-.563-1.212-.953-2.078-1.689-3.638zm5.544-4.85c.909 0 1.862-.26 2.685 0 .996.346 1.775 1.126 2.988 1.949-1.472 1.039-2.685 1.949-4.114 2.945-.52-.867-1.126-1.516-1.386-2.296-.26-.823-.13-1.732-.173-2.598zm9.398-.78c-.52-2.122-2.209-4.288-.217-5.76 1.906-1.386 3.422.693 5.111 2.122-1.776 1.299-3.248 2.425-4.894 3.638zm-2.945-16.674c5.76-4.678 11.304-9.658 17.021-14.379 1.082-.91 2.641-1.256 4.201-1.473-4.505 3.378-9.095 6.54-12.604 10.914.13.174.26.39.39.563.347 0 .736.13.996 0 4.894-2.598 10.005-4.85 13.08-9.918.433-.736 2.035-1.126 3.032-1.039 3.464.173 5.89 2.209 7.536 5.111.303.519-.304 1.905-.91 2.425-4.461 4.028-8.922 7.969-13.513 11.824-3.335 2.815-6.843 5.5-10.307 8.228-1.127-.822-1.906-1.775-2.902-2.078-1.256-.39-2.902-.737-3.985-.26-1.559.649-1.516 2.425-1.126 4.028.13.563.26 1.169.52 1.645.866 1.516.303 2.382-1.299 3.075-.867-.606-1.776-1.256-2.686-1.905-1.472-.953-3.118-1.473-4.59-.174-1.516 1.343-.65 2.902 0 4.375.216.476.476.866.736 1.342-1.516-.303-2.945-.866-4.374-.866-2.123 0-2.079 1.559-1.56 3.118-4.244.823-4.331.997-3.464 5.024-10.222 6.843-18.97 16.068-30.967 20.443-.996.39-2.166.26-3.292.39-.173-.217-.346-.477-.519-.693 1.212-1.603 2.208-3.509 3.681-4.808 7.406-6.626 14.812-13.296 22.478-19.619 6.453-5.327 13.209-10.265 19.922-15.289 1.213-.909 1.949-1.862 1.646-3.378-.563-2.858.607-4.807 2.859-6.626zm21.005-12.863c-2.599 1.905-5.154 3.854-7.752 5.76-.174-.217-.347-.433-.477-.65 2.555-1.949 5.111-3.898 7.666-5.847.217.26.39.477.563.737z" fill="#4DBCE9"/><path d="M128.374 157.172c4.677 2.122 8.012 5.327 11.52 8.402 8.879 7.709 13.47 17.93 16.155 28.931 2.295 9.442 3.421 19.143 5.327 28.671.693 3.335 1.516 7.19 3.638 9.529 3.162 3.464 1.256 6.626 1.039 9.961-.043.433-1.082 1.083-1.775 1.213-3.552.649-7.103 1.559-10.655 1.602-7.622.043-15.288-.476-22.911-.606-7.492-.13-14.985-.174-22.477-.087-3.725.043-5.977-.996-7.406-3.811 1.732-.693 3.464-1.343 5.153-2.036 1.213 1.429 2.339 2.729 3.509 4.071.259-.043.519-.086.779-.13.91-3.811 1.992-7.579 2.729-11.39 2.771-14.682 1.082-28.845-5.414-42.401-1.862-3.854-4.678-6.843-7.8392-9.658-3.8979-3.508-7.8391-7.016-11.2606-10.957-3.6813-4.244-3.1183-6.237 1.9923-9.442 3.8979 3.465 7.969 6.887 11.8235 10.568 3.855 3.681 7.709 7.406 11.044 11.564 2.685 3.335 4.591 7.319 6.67 11.087 1.083 1.992 2.555 3.032 4.721 3.292 4.591.476 9.138 1.039 13.729 1.429 5.63.476 8.619-2.642 6.93-8.099-1.56-4.981-3.812-9.788-6.324-14.379-3.075-5.587-6.756-10.871-10.221-16.241-.173-.26-.26-.52-.476-1.083z" fill="#fff"/><path d="M165.88 244.745c-.909 3.161-1.646 6.063-2.512 8.922-1.256 4.157-2.598 8.228-3.811 12.386-.433 1.559-1.256 2.469-2.815 2.815-7.406 1.776-14.769 3.942-22.262 5.414-9.961 1.992-20.009 3.638-30.057 5.154-4.7638.693-9.6145.78-14.4652 1.039-4.4609.217-8.099-1.385-10.481-5.24-4.0278-6.626-6.4532-13.859-6.9296-21.612-.2599-4.504 1.1261-6.323 5.4571-7.579 2.4253-.693 4.9373-1.083 7.406-1.602 4.2876-.91 8.5753-1.819 12.9063-2.599.5631-.087 1.4293.173 1.7754.563 2.469 2.945 5.544 3.551 9.269 3.508 8.359-.13 16.717 0 25.076.39 9.225.433 18.45 1.169 27.632-.606 1.083-.26 2.209-.563 3.811-.953zM108.581 95.2819c-2.165 4.1145-4.677 7.1461-8.445 9.0521-1.0831-1.689-.9099-3.162.086-4.8077 1.17-1.9489 1.906-4.2011 3.032-6.1933.433-.7363 1.343-1.6458 2.079-1.6891 14.682-.9528 28.628 1.256 40.755 10.4381.303.216.563.476.822.693 2.686 2.035 3.985 4.331 3.335 8.099-1.516 9.095-2.772 18.233-6.886 26.678-3.032 6.237-7.276 11.434-13.686 14.509-4.894 2.382-9.658 1.819-14.162-1.126-5.934-3.898-9.615-9.658-12.777-15.765-2.295-4.417-4.2008-9.008-3.3346-14.032.4331-2.599 1.4296-5.37 2.9886-7.493 3.811-5.413 6.02-11.174 6.193-18.3631zM229.329 239.115c-1.126-.823-1.905-1.776-2.902-2.079-1.256-.39-2.901-.737-3.984-.26-1.559.649-1.516 2.425-1.126 4.028.13.563.26 1.169.52 1.645.866 1.516.303 2.382-1.3 3.075-.866-.606-1.775-1.256-2.685-1.905-1.472-.953-3.118-1.473-4.591-.173-1.516 1.342-.649 2.901 0 4.374.217.476.477.866.737 1.342-1.516-.303-2.946-.866-4.375-.866-2.122 0-2.079 1.559-1.559 3.119-4.244.822-4.331.996-3.465 5.023-10.221 6.843-18.97 16.069-30.966 20.443-.997.39-2.166.26-3.292.39-.173-.217-.346-.477-.52-.693 1.213-1.603 2.209-3.508 3.682-4.808 7.406-6.626 14.812-13.296 22.478-19.619 6.453-5.327 13.209-10.265 19.922-15.289 1.213-.909 1.949-1.862 1.646-3.378-.52-2.858.65-4.807 2.858-6.626 5.761-4.678 11.304-9.658 17.021-14.379 1.083-.91 2.642-1.256 4.201-1.473-4.504 3.379-9.095 6.54-12.603 10.914.13.174.26.39.39.563.346 0 .736.13.996 0 4.894-2.598 10.005-4.85 13.08-9.918.433-.736 2.035-1.126 3.031-1.039 3.465.173 5.89 2.209 7.536 5.111.303.519-.303 1.905-.909 2.425-4.461 4.028-8.922 7.969-13.513 11.824-3.335 2.815-6.843 5.5-10.308 8.229zM200.225 221.834c-.78.346-1.559.693-2.382 1.039 0 .173.043.303.043.477.52.043.996.086 1.516.086.996 0 2.079-.216 2.989.044.736.173 1.299.909 1.949 1.385-.52.52-.91 1.3-1.56 1.56-1.386.606-2.901.952-4.331 1.386.044.216.044.433.087.649.476 0 .953.043 1.429 0 1.992-.13 4.028-.346 6.02-.346.563 0 1.516.519 1.646.953.173.519-.216 1.559-.693 1.862-1.039.693-2.252 1.169-3.465 1.602-.693.26-1.429.347-2.772.65 1.993.996 3.379 1.732 4.808 2.469v.736c-3.508.65-7.016 1.256-10.568 1.906v.606h5.631c-.304.65-.347.866-.477.996-8.142 6.107-16.198 12.257-24.427 18.234-4.028 2.901-8.359 5.413-12.56 8.012-.736.476-1.645.736-2.945 1.299 1.733-5.5 3.249-10.481 4.808-15.505.043-.216.13-.39.173-.606.736-4.418 2.079-8.446 6.713-10.395.693-.303 1.256-.996 1.646-1.645 3.032-4.764 6.193-9.529 8.965-14.423 1.126-1.992 2.295-3.421 4.634-3.594 3.032-.26 6.02-.693 9.009-.823 1.299-.043 2.642.433 3.941.693.173.26.173.476.173.693z" fill="#fff"/><path d="M104.51 90.3446c2.599-6.5831 6.063-12.2134 12.3-15.5483 5.977-3.2049 12.343-4.2877 19.056-2.9884 8.013 1.5592 12.863 6.4965 14.899 14.2057 1.602 6.15 1.126 12.43.13 18.8394-13.036-12.6461-29.061-15.3313-46.385-14.5084z" fill="#fff"/><path d="M95.155 104.55c-3.9845-2.382-5.2838-7.0159-2.6852-10.9572 2.9017-4.3743 6.1933-8.4887 9.3552-12.7331 1.992-2.6419 3.984-5.3271 5.976-7.9257 9.615-12.5166 23.388-15.1152 36.684-6.5831 3.551 2.2521 6.8 5.1538 9.658 8.2722 4.678 5.1105 5.501 11.5204 4.331 18.1035-.953 5.1972-.086 9.4854 3.682 13.2964 2.208 2.252 1.992 4.114-.607 5.933-1.732 1.213-3.768 2.079-5.717 2.989-1.342.606-2.382.043-2.555-1.386-.433-3.812-1.602-7.493-.866-11.521.996-5.4135.909-10.9138-.52-16.3276-2.425-9.2683-9.182-14.8553-18.753-15.5049-13.08-.8662-23.258 5.1538-28.541 17.1074-.953 2.1655-2.123 3.5947-4.505 4.3743-3.5944 1.1694-4.9803 4.0711-3.3779 7.3194 1.256 2.5984.3465 4.0274-1.5591 5.5434zM208.974 262.588c-.564-1.212-1.083-2.642-1.863-3.898-.953-1.515-.779-2.468.823-3.204.65-.304 1.213-.737 1.906-1.17 1.819 1.386 3.594 2.772 5.413 4.158.13-.13.26-.217.347-.347-1.386-1.515-2.772-3.075-4.158-4.59 2.685-2.512 2.859-2.512 5.804-.65 1.386.866 2.858 1.602 4.287 2.425.13-.216.26-.433.434-.649-1.863-1.386-3.725-2.815-5.804-4.375 1.386-.996 2.425-1.905 3.595-2.555.476-.26 1.299-.043 1.905.087 1.17.26 2.339.606 4.115 1.082-.736-1.862-1.213-3.031-1.733-4.331 1.56-1.212 3.119-2.382 4.635-3.551 2.165 2.339 1.992 4.851-.217 6.886-.736.693-1.126 1.993-1.256 3.032-.217 1.473 0 3.032-.13 4.548-.087.909-.26 2.035-.823 2.598-1.169 1.213-1.516 2.512-1.472 4.115.086 1.515-.563 2.425-2.252 2.468-2.166.044-4.072.347-5.241 2.772-.433.866-2.512 1.256-3.811 1.256-1.603 0-3.292-.476-4.851-.953-3.638-1.082-7.146-.519-10.134 1.603-4.158 2.945-7.97 6.41-12.041 9.485-6.669 4.937-13.382 9.874-21.222 12.819-6.28 2.339-10.87-1.386-9.701-8.012.823-4.634 2.512-9.138 3.855-13.686.13-.476.649-.996 1.082-1.213 8.922-3.681 16.242-9.831 23.778-15.678 5.327-4.158 10.914-8.012 16.414-11.997.346-.26.736-.346 1.343-.303-.39.433-.737.953-1.17 1.299-8.488 6.454-16.934 12.95-25.553 19.273-4.417 3.249-9.095 6.107-13.686 9.095-1.775 1.17-3.421 2.772-3.161 4.808.26 2.035 2.425 2.858 4.331 3.421 4.634 1.43 9.225.433 13.339-1.256 10.914-4.461 21.655-9.485 32.439-14.292.087 0 .174-.173.434-.52zM64.9246 163.192c3.3349-2.382 6.2366-4.418 9.1384-6.54 1.7324-1.299 3.3349-2.772 5.1539-3.941.6063-.39 1.8623-.606 2.382-.26 2.5986 1.646 5.024 3.551 7.7958 5.544-.9095.779-1.5591 1.299-2.1655 1.862-2.4686 2.079-3.1616 4.288-1.256 6.843 2.4254 3.248 5.3705 6.15 8.2289 9.052 1.9923 2.079 4.2877 3.854 6.3669 5.847 7.362 7.146 10.091 16.501 11.737 26.202 1.775 10.308.866 20.572-1.993 30.62-.216.693-.433 1.386-.649 2.036-.044.13-.173.217-.347.433-1.299-1.213-2.468-2.252-.649-3.984.519-.477.736-1.43.779-2.166.823-10.048.91-20.052-1.169-29.927-1.516-7.06-4.851-13.296-9.485-18.71-4.1578-4.851-8.4888-9.615-13.2095-13.903-4.2877-3.941-9.918-5.717-15.4184-7.492-1.6025-.607-3.2049-.996-5.2405-1.516z" fill="#fff"/><path d="M216.076 230.756c.867 3.031-.216 4.677-2.425 6.409-12.387 9.745-24.643 19.707-36.857 29.668-2.165 1.776-4.028 3.898-5.803 6.107-1.083 1.342-1.646 3.031-2.772 5.283-1.603-.259-4.028-.346-6.15-1.126-3.118-1.126-3.205-3.205-.52-5.197 2.252-1.646 4.504-3.421 6.93-4.807 11.737-6.627 21.438-16.068 32.439-23.691 1.256-.866 1.689-2.815 2.902-3.768 1.949-1.559 4.114-3.421 6.453-3.811 3.898-.65 3.941-.217 4.894-4.028 0-.303.433-.563.909-1.039zM81.2524 151.065c5.5004-5.76 9.3117-12.386 12.5599-19.446 2.0356-4.418 2.0356-8.705.2599-13.21-.8229-2.035-1.2993-4.287-1.4292-6.496-.0867-1.386.563-2.902 1.2126-4.201.9962-1.992 2.9451-1.646 5.1972-1.473-.2165 3.032-.3898 6.107-.6496 9.139-.8662 10.697-2.1222 21.352-4.894 31.789-.4331 1.733-.3032 3.595-.5631 5.371-.1299 1.039-.3898 2.122-.8229 3.075-.7795 1.602-1.7757 1.905-3.3781.606-2.2955-1.776-4.8074-3.335-7.4927-5.154zM105.766 237.772c-1.949.736-3.811 1.472-5.9769 2.339-.8662-2.339-1.7324-4.505-2.4686-6.757-2.7286-8.359-5.587-16.674-6.3233-25.553-.1299-1.342 0-2.728.2599-4.071.1299-.649.8228-1.516 1.3859-1.646.6063-.13 1.6891.347 1.9922.867 1.256 2.338 2.6419 4.677 3.3349 7.189 2.2089 7.623 4.1579 15.288 6.2369 22.954.433 1.473.996 2.945 1.559 4.678zM158.171 184.067c2.339 1.3 3.811 3.422 4.764 5.804 2.729 6.886 4.028 14.119 4.808 21.438.476 4.505.389 9.052.519 13.6 0 .649-.173 1.342-.519 1.949-3.379-14.163-6.757-28.325-10.135-42.531.173-.086.39-.173.563-.26zM184.2 273.069c6.887-5.153 13.773-10.307 20.919-15.634.866 1.645 1.689 3.118 2.685 4.98-7.925 3.725-15.678 7.363-23.43 11.044-.044-.13-.13-.26-.174-.39zM228.376 108.145c1.69-.13 3.162-.91 3.379 1.343h6.28c-.26 2.295-.52 4.59-.867 6.886-.043.303-.693.736-1.082.736-2.296.087-4.548.043-7.103.043-.217-2.945-.433-5.846-.607-9.008zM100.006 114.122c0-2.469-.0436-5.067.043-7.623 0-.39.346-.909.693-1.169 1.949-1.473 3.898-2.859 5.76-4.201.303 3.161-3.508 10.827-6.496 12.993zM228.247 239.937c-1.733 1.3-3.205 2.382-4.851 3.595-.52-2.122-2.209-4.288-.217-5.76 1.906-1.386 3.422.736 5.068 2.165zM177.747 227.074c-1.299-.303-2.685-.519-3.898-.996-.52-.216-.779-1.039-1.169-1.602.563-.347 1.169-1.083 1.646-.996 1.689.216 3.334.606 4.937 1.126.52.173.779 1.039 1.169 1.559-.606.26-1.169.52-1.819.736-.26.087-.563 0-.866 0 .043.087 0 .13 0 .173zM102.474 92.2069c-1.299 2.7718-2.5116 5.2838-3.7676 7.9261-2.6852-3.8983-1.256-6.8867 3.7676-7.9261zM215.557 249.206c-.52-.867-1.126-1.516-1.386-2.296-.26-.823-.13-1.732-.173-2.598.909 0 1.862-.26 2.685 0 .996.346 1.776 1.126 2.988 1.948-1.472 1.04-2.728 1.949-4.114 2.946zM232.707 85.1908c.347 7.1461.693 14.2923 1.04 21.3952-.347 0-.693.043-1.04.043-.346-7.1459-.216-14.2921 0-21.4382zM66.7436 159.727c3.5947-2.945 6.6697-6.713 11.3905-8.055.1732.216.3032.476.4764.692-3.8113 2.642-7.6226 5.284-11.4772 7.926-.1299-.173-.2598-.346-.3897-.563zM241.456 213.995c-2.599 1.905-5.154 3.854-7.752 5.76-.174-.217-.347-.433-.477-.65 2.555-1.949 5.111-3.898 7.666-5.847.217.26.39.477.563.737zM210.143 252.757c-.563-1.169-.953-2.036-1.689-3.595 1.949.433 3.248.693 4.547.996.044.174.087.347.13.563-.866.607-1.775 1.213-2.988 2.036zM208.454 253.753c-.866.607-1.733 1.17-3.118 2.122.13-1.256 0-2.555.303-2.728.779-.347 1.819-.087 2.728-.087.044.217.044.477.087.693z" fill="#fff"/><path fill="#4DBCE9" d="M334.956 235.711h98.0703v1.2544H334.956zM-75 296.491h98.0703v1.2544H-75z"/></g><path d="M2204.33 287.478h-121.46v-78.277h-9.11c-1.52-3.043-2.87-5.579-4.38-8.96h-20.92c-1.69 3.212-3.38 6.255-5.57 10.144h-11.3v76.924h-17.71V187.054h-37.62v98.903h-39.64V129.741c-4.05-.507-7.76-1.014-12.32-1.522V63.2985h-24.46v83.6875c2.87.507 5.57 1.014 8.94 1.69v76.417h6.75V242h15.18v43.957h-137.48v-44.802h105.43v-89.267h-9.27v74.896h-8.44c-.17-.338-.51-1.183-.51-2.198V76.6546c0-3.8885 1.19-8.1151-3.2-11.1582-1.18-.6763-.84-3.7195-1.01-5.7482-.17-7.9461 0-15.7231 0-24.0072h-30.37v29.0791c-.5.1691-1.85.6763-4.21 1.3525V166.259c0 5.072 1.68 10.989-5.06 13.525" stroke="#B3E4F7" stroke-width=".75" stroke-miterlimit="10" stroke-linecap="round" stroke-linejoin="round"/><path d="M1847.55 66.0036c.34 3.0432.84 6.2554.84 9.2986V230.335h8.1V63.1295c-2.87.6763-5.9 1.3525-8.94 2.0288M1694.04 249.439v-64.245h12.32V96.0971c-6.92-2.1979-14.34-4.5648-21.76-7.1008 0 1.0144.17 1.8598.17 2.8741-2.87 1.6907-5.91 3.5504-9.28 5.4101v89.6045c0 1.183-.51 2.198-.84 3.381-1.02-.507-1.86-1.014-2.87-1.521-.34-2.536-.51-5.241-.85-8.623h-18.21V287.14h-21.6V175.05c-6.41.338-11.47.507-16.86.846-.17 2.197-.34 4.057-.51 6.086" stroke="#B3E4F7" stroke-width=".75" stroke-miterlimit="10" stroke-linecap="round" stroke-linejoin="round"/><path d="M1732 172.514v19.105h-22.44v96.367h-33.4v-98.734c3.71-.846 8.1-1.86 13.5-3.212v37.194c0 7.101-.34 14.032.17 21.133.17 2.367 2.02 4.565 3.2 6.763M1556.56 162.371c-6.24.338-12.31.676-18.38 1.183-.85-9.637-7.93-13.356-12.82-18.766-1.35-1.353-4.05-1.522-7.09-2.536v146.072h-21.59V225.77M1824.78 45.7158c.5 10.1439.84 20.2878 1.85 30.4317.34 4.0575 2.2 7.946 3.21 11.8345.5 1.6907.84 3.3813.84 5.0719.34 26.5431.51 52.9171 1.01 79.4601.34 15.723 1.02 31.615 1.69 47.338.17 2.875 0 5.58 0 8.792h-19.4c-.34-3.212-.67-6.086-.84-6.932-3.88-4.395-6.92-7.608-9.79-10.82.51-.507.85-1.183 1.35-1.691h-12.65v8.285c-3.2.845-5.9 1.69-9.28 2.536v26.036c-.84.169-1.68.169-2.53.338-.5-3.551-1.51-6.932-1.68-10.482-.17-11.835 0-23.669 0-35.504" stroke="#B3E4F7" stroke-width=".75" stroke-miterlimit="10" stroke-linecap="round" stroke-linejoin="round"/><path d="M1559.09 163.216c.34 2.029.85 3.888.85 5.917v118.853h-16.53V133.291c4.21-4.226 8.43-8.453 12.65-12.679 11.81 3.719 15.69 12.341 15.01 24.852-.84 14.032.34 28.234-.34 42.266-.33 7.608 3.55 16.4-4.04 22.824-.17.169 0 .507 0 .845v49.536h28.67v-39.392M1497.52 222.388h-30.36v65.09h-40.49M1614.76 183.504c-.34 6.762-.84 13.525-.84 20.287-.17 25.022 0 50.213 0 75.234v8.961h-15.35c.33-4.396.67-8.285 1.01-12.342M1747.18 167.442V287.14h15.18c.34-3.55.85-7.439.85-11.496v-72.698-65.935h-34.58c0 1.183-.17 2.367-.17 3.55 5.06 6.763 12.48-3.212 18.38 2.029.34 6.932.85 15.047 1.18 23.331M1803.69 66.0037c-.84 2.0287-2.36 3.8885-2.36 5.9172-1.35 16.5684-2.19 33.3061-3.54 49.8741-.17 2.874-2.7 5.579-3.21 8.453-1.35 9.468-2.19 19.105-3.54 28.741-1.01 6.932-.84 13.695-4.55 20.626-2.53 4.903-.51 12.173-.51 19.781-7.09-.846-14.17-1.522-21.09-2.367" stroke="#B3E4F7" stroke-width=".75" stroke-miterlimit="10" stroke-linecap="round" stroke-linejoin="round"/><path d="M1620.67 181.813c-3.72.169-7.26.338-11.48.507v92.479h-36.26v-58.835h21.59c.67 1.353 1.52 3.043 2.36 4.734" stroke="#B3E4F7" stroke-width=".75" stroke-miterlimit="10" stroke-linecap="round" stroke-linejoin="round"/><path d="M1622.35 175.05v-8.96h-22.77c-.34 3.212-.84 6.086-.84 8.96-.17 13.525 0 27.051-.17 40.576 0 1.69-1.01 3.381-1.69 5.072M1598.74 221.543v53.256M1728.63 143.773v42.267h7.25c-.68-4.903-1.52-9.637-2.19-14.371M1789.35 177.586c12.99.338 25.81.507 38.8.846M1559.09 123.486c-.33 12.679-.5 25.359-.84 38.039M1795.26 39.7986c9.11 6.7626 19.4 4.7338 29.52 5.0719V24.5828c-2.2-2.536-4.39-5.241-6.58-7.9461-9.78 4.0576-7.76 13.1871-9.45 20.6259M1786.82 177.586c-2.19-.169-4.38-.507-7.59-.845v21.978" stroke="#B3E4F7" stroke-width=".75" stroke-miterlimit="10" stroke-linecap="round" stroke-linejoin="round"/><path d="M1732 144.619c0 7.608-.17 15.215 0 22.823 0 1.353 1.01 2.874 1.69 4.227M1806.22 45.7158c-.34 6.2554-.5 12.3417-.84 18.5971M1828.15 38.9532c-14-.3381-28.17-.5072-42.17-.8453M1762.36 166.597c-6.24 0-12.31-.169-18.55 0-3.88.169-7.59.676-9.28 5.072M1811.28 7.6763v13.5251M1834.9 38.1079c-2.87 1.3525-5.57 2.8741-8.44 4.2266" stroke="#B3E4F7" stroke-width=".75" stroke-miterlimit="10" stroke-linecap="round" stroke-linejoin="round"/></svg>