<svg width="1920" height="870" viewBox="0 0 1920 870" fill="none" xmlns="http://www.w3.org/2000/svg"><path d="M467 373C172.56 307.958 33.5 768.5 0 889v143.5h1921V264c0-78.8-51.13-264-277.5-264C1471 0 1396 120.179 1190 264 956.416 427.079 677.5 419.5 467 373z" fill="#F3F4FF"/><path d="M467 373C172.56 307.958 33.5 768.5 0 889v143.5h1921V264c0-78.8-51.13-264-277.5-264C1471 0 1396 120.179 1190 264 956.416 427.079 677.5 419.5 467 373z" fill="url(#paint0_linear)"/><defs><linearGradient id="paint0_linear" x1="960" y1="816.679" x2="961" y2="135.232" gradientUnits="userSpaceOnUse"><stop stop-color="#fff"/><stop offset="1" stop-color="#fff" stop-opacity="0"/></linearGradient></defs></svg>