<svg id="Слой_1" xmlns="http://www.w3.org/2000/svg" xmlns:xlink="http://www.w3.org/1999/xlink" width="969.3" height="920.5" viewBox="0 0 969.3 920.5"><style>.st6{fill:#a39195}.st7{fill:#606362}.st8{fill:#343c4a}.st9{fill:#7a7a7a}.st10{fill:#f9a21b}.st11{fill:#7c807e}.st13{fill:#ffe2cf}.st15{fill:#f9b346}.st16{fill:#ffd4b8}.st17{fill:#ffc49e}.st18{fill:#f5c86c}.st19{fill:#4a4d4c}.st20{fill:#e39419}.st21{fill:#282f39}.st22{fill:#979797}.st23{fill:#de9018}.st25{fill:#4b576b}.st26{fill:#454d5a}.st27{fill:#949997}.st28{fill:gray}.st29{fill:#c47f15}.st30{fill:#d68b17}.st31{fill:#616161}.st34{fill:#c98316}.st35{fill:#231f20}.st36{fill:#f6c96b}.st37{fill:#fca30b}.st40{fill:#413833}.st41{fill:#e4a549}.st42{fill:#b07d2e}.st43{fill:#15191f}.st44{fill:#e4eae8}.st46{fill:#603913}.st47{fill:#d9b15e}.st48{fill:#bf9c53}</style><g id="Слой_2_1_"><defs><path id="SVGID_1_" d="M-1-.1h970.4v920.6H-1z"/></defs><clipPath id="SVGID_2_"><use xlink:href="#SVGID_1_" overflow="visible"/></clipPath><g id="Слой_1-2" clip-path="url(#SVGID_2_)"><path d="M9.7 600.8c-49-252.2 211.4-484.6 409-602.7h550.6l-1 704.7c-53.5 143.6-235.9 199.3-299.6 211.5-297 26-610-61.3-659-313.5z" fill="#99d8fb"/><path d="M418.7-3.8h-.5l-.4.3C318.9 55.6 204.2 143.4 120.3 248S-16.7 474.3 7.9 601.1s115.7 212.2 237.6 262.4 274.7 65.6 423.4 52.6h.2c32-6.1 93.7-23.2 154.2-56.7s119.8-83.6 146.8-156l.1-.3v-.3l1-704.7v-1.9H418.7z" fill="none" stroke="#99d8fb" stroke-width="3.71"/><linearGradient id="SVGID_3_" gradientUnits="userSpaceOnUse" x1="665.2819" y1="-1280.4249" x2="346.632" y2="-685.9249" gradientTransform="translate(0 1545.8)"><stop offset="0" stop-color="#398bd1"/><stop offset="1" stop-color="#4db4ec"/></linearGradient><path d="M45.2 621.3C-2.7 374.7 227.5 111 420.7-4.4h550v686.1c-52.4 140.4-241.6 196.7-304 208.6-192 21.8-573.6-22.4-621.5-269z" fill="url(#SVGID_3_)"/><linearGradient id="SVGID_4_" gradientUnits="userSpaceOnUse" x1="847.7839" y1="-136.6157" x2="113.4239" y2="285.7343" gradientTransform="rotate(38.556 349.8688 738.0396)"><stop offset="0" stop-color="#4cb3eb"/><stop offset="1" stop-color="#398bd1"/></linearGradient><path d="M645.3 90.4c126-158 350.8-188.3 502.1-67.7s171.9 346.6 46 504.6S842.6 715.7 691.3 595s-172-346.6-46-504.6z" fill="url(#SVGID_4_)"/><path d="M866.3 952.6H-466c-6.3 0-11.4-5.1-11.4-11.4v1.4c0 6.3 5.1 11.4 11.4 11.4H866.3c6.3 0 11.4-5.1 11.4-11.4v-1.4c0 6.3-5.1 11.4-11.4 11.4z" opacity=".18" fill="#fff"/><path class="st6" d="M429.5 622.8l-13.9-1.2c-.5 0-1 0-1.4-.2-1.7-.2-3.5-.2-5.3 0l1.7-.7h-.2l-20.1-9.3-14.6-6.7-8.6-1-22-8.9-112.7-46.4-98.4-12h-.2l-7.2-1-81.4 18.2-4.8 1 49.8 43.6-10.3-5.2-29.2-2.6-2.4.7-2.4.7-2.4.7 70.1 37.3c-11 7.7-9.3 18.9 6.9 27.5 9.8 5.3 22.7 8.4 35.9 9.3v.3l8.8.5-9.3 5.7 24.4 17.5-86.2 49.5-13.9 24.4 59.8-26.8 96.9-46.7 38.5 1.9-121.8 70.4-12.9 14.6 52.6-29.7 21.3.5 23.7-8.4 81.8-45 9.6.5 1-.7-5.3-2.6 24.7-13.6 13.2.7c10.5.5 20.3-1 26.6-4.5 9.3-5.5 8.8-14.1.5-22l23.7-12.9c2.7.8 5.5 1.3 8.4 1.7l16 1.4c4.8.5 9.3-.2 12-1.9 5.5-3.1 2.4-9.3-6.7-13.7-3.9-3.2-9.3-4.4-14.3-4.9zM335 593.4l-51-4.5-3.3-1.7c-3.3-1.7-9.1-3.3-15.3-4.5l-2.8-1.4c-.2 0-.2-.2-.5-.2-2.3-.7-4.6-1.3-6.9-1.7-3.8-.7-8.6-1.4-13.4-2.2-3.6-.5-6.9-1-10-1.2-1.7-.3-3.5-.4-5.3-.5-1.9-1-3.8-1.9-6-2.9.5.2 1 .2 1.2.5h.5c2.4-.5.7-2.2-.5-3.1-1.3-1-2.6-1.8-4.1-2.4h.5c-1.4-.9-3-1.6-4.5-2.2-4.6-1.4-9.3-2.5-14.1-3.1l34.7-10.5L335 593.4zm-105.3-44.5l-43.1 12.4-52.4-24.2 95.5 11.8zM129 537.1l52.2 24.9c-1.9.5-3.3 1.2-3.6 1.9l-6.9 2.2-117.2-12.2 75.5-16.8zm-33.5 57.2l-14.8-12.4-31.3-26.8 106 11.3 48.8 27 2.4 1.2-41.2 13.9-51.2-23.7-11.3-1 57.2 26.6-4.5 1.5-29-14.8-28-2.6-2.2.5-.9-.7z"/><path class="st7" d="M332.6 510.3c-.2 0-.2 0-.5-.2-1.9 1.2-4.1 2.6-6.2 4.1.8.9 1.7 1.8 2.6 2.6.3.4.8.7 1.2 1l4.1.2h.7c-1.2-.8-2.1-2-2.6-3.3v-.5c.4-.4 1-.5 1.4-.2.8 0 1.5.3 2.2.7l-1-1.4-1.9-3zm-32.8 23.5c-1.7 3.3-1.9 6.9-3.1 11.3v.2l6.7 3.8.2-.5c-.7-8.4 3.1-13.9 9.6-17.2 1.7-.9 3.4-2 5-3.1l.2-5.3.2-3.8c-6.5 4.3-12.2 8.4-14.6 9.8-1.6 1.3-3.1 2.9-4.2 4.8z"/><path class="st8" d="M331.9 506.5c1.2.5 2.4 1 3.6 1.7 1.2-.6 2.3-1.3 3.3-2.2l-.2-3.6-4.1 2.4-2.6 1.7z"/><path class="st7" d="M339.3 509.8l-.2-4.1c-1.2.6-2.3 1.3-3.3 2.1 1.2.6 2.4 1.3 3.5 2z"/><path class="st9" d="M327.6 508.9c.5 0 1 .2 1.7.2 1 .2 2 .6 2.9 1 .2 0 .2 0 .5.2l2.2 3.1 1 1.4c1.4.6 2.8 1.3 4.1 2.2v-.5l-2.6-3.8c1 .5 1.7 1 2.6 1.4l-.2-3.1v-.7c-1.1-.7-2.3-1.4-3.6-1.9-1.2-.7-2.4-1.2-3.6-1.7-.3-.2-.6-.3-1-.2-1.6-.6-3.3-1.1-5-1.4l-.2 4.1c-.2-.6.5-.3 1.2-.3z"/><path class="st8" d="M288.6 540.5c3.1-1.9 7.2-4.1 11.5-6.7 1.1-1.9 2.5-3.6 4.3-5 2.2-1.7 8.1-5.5 14.6-9.8l.2-5-38 22.3 7.4 4.2z"/><path class="st9" d="M329.8 520.6c1 .8 2 1.5 3.1 2.2.2.2.5.5.7.5l1.2-1.9c-.1 0-.2-.1-.2-.2-.5-.2-.7-.5-1.2-.7h2.2l.7-1c-.5-.5-1-.7-1.4-1.2h-.7l-4.1-.2c-.5-.2-.7-.7-1.2-1l-2.6-2.6c-.2-.2-.5-.5-.5-.7v1l-.2 2.4c.5.5 1 .7 1.4 1.2.8.7 1.7 1.5 2.8 2.2z"/><path class="st8" d="M332.2 510.1c-.9-.4-1.9-.8-2.9-1-.9 1-2.4 1.3-3.6.7l-.2 3.3c.2.2.2.5.5.7 2.1-1.1 4.2-2.5 6.2-3.7z"/><path class="st10" d="M374 463.1c-.5.8-.8 1.7-1 2.6-1.7 6.5-1.4 18.7-3.3 23-5.5 11.7-8.6 13.6-12.2 17l-2.1 2.1c3.8 2.1 6.9 5.2 8.8 9.1.5 1 .7 1.7 1.2 2.6.5-.5 1.2-.7 1.7-1.2 1.2-.7 2.3-1.5 3.3-2.4 3.1-2.2 5.9-4.8 8.4-7.7 1.1-1.2 2.1-2.5 3.1-3.8l.7-1.4c1-5 2.4-10.5 3.6-15.8.5-4.3 1-8.6 2.4-12.2.2-1 .2-1.7.5-2.6.7-4.3 1.2-8.4 1.7-12.2.2-1.6.3-3.2.2-4.8v-.7c-.7-2-1.7-3.9-3.1-5.5-4.8.3-11.7 10.4-13.9 13.9zm-22.2-21.5c1.1-1.8 2.8-3.3 4.8-4.1-1.8-.3-3.3-1.5-4.1-3.1-.2-.6-.3-1.3-.2-1.9-.2-.2-.7-.5-1-.7-2.9 3.6-.2 6.2.5 9.8zm6.9-3.8c-.4 0-.8 0-1.2-.2v.5c-4.1 7-6.3 14.9-6.5 23 3.8 1.7 7.7 3.3 11.5 5.3.3-.9.4-1.9.5-2.9 4.8-6 6.9-21.3 17-21.8-2.2-1.7-4.5-3.1-6.7-4.5l-3.6-2.2c-.2 1.8-6.2 3.2-11 2.8z"/><path class="st11" d="M357.5 505.7c3.3-3.1 6.5-5 12.2-17 2.2-4.5 1.7-16.8 3.3-23 .2-.9.5-1.8 1-2.6 2.2-3.6 9.1-13.6 13.9-13.9-2.4-2.7-5-5.2-7.9-7.4-10 .5-12.2 15.8-17 21.8-.3.9-.4 1.9-.5 2.9-3.6-1.7-7.4-3.6-11.5-5.3-2.2-1-4.5-1.9-6.7-2.9 0-8.9.7-19.9 6.5-26.8-.5-.3-.9-.7-1.2-1.2-2.4-.1-4.8.4-6.9 1.4l1 26.1 1 24.2.2 8.4.5 8.4v.7c2.1 1.5 4.4 2.9 6.7 4.1 1.8.8 3.6 1.5 5.4 2.1z"/><path d="M364.5 412.2l-.2.5c.1 3.2-.3 6.5-1.2 9.6 1.2-.5 2.6-.2 4.1-.2.1-1.3.4-2.6 1-3.8h.2c.2-1 1-1.2 1.9-.7 1.4 1 1.7 3.8 1.4 5.3-.4 1.4-1.3 2.5-2.6 3.1l1-.2c0 .2.2.5.2 1s.2 1 .2 1.4h.5c2.9-1.2 4.5-6.2 5.3-9.1.6-2.3.8-4.8.5-7.2-2.9 1-7.7.7-10.8 1.4-.5-.6-1-.9-1.5-1.1z" fill="#8a1621"/><path class="st13" d="M351.5 513.4c0-.1.1-.2.2-.2-1.8.2-3.6.7-5.3 1.4l.2.2c1.1.7 2.1 1.5 3.1 2.4-.4 1-1 2-1.7 2.9-.5 1-1.2 1.9-1.4 2.4h-.2v.2c.5 2.4 3.3 5.7 5.5 6.5.2 0 .4.1.5.2 1.7.6 3.5.4 5-.5 2.2-1.4 3.3-3.8 3.8-6.7-.2 0-.2.2-.5.2-.3-2.8-4.8-8-9.2-9z"/><path d="M386.5 487.3c-1.2 5.5-2.4 10.8-3.6 15.8l-.7 1.4c-.9 1.4-1.9 2.7-3.1 3.8 1 0 1.9-.2 2.9-.5-.5 2.6-1 5-1.4 7.2 0 .5-.2 1-.2 1.4-.2 2.4-.7 6.5-.7 8.1v.5c2.9 1.4 5.7 2.9 8.6 4.5.3-.3.5-.6.7-1 1-1.8 1.5-3.9 1.4-6V478c0-2-.3-4.1-1-6-.2 1-.2 1.7-.5 2.6-1.5 4.1-1.9 8.4-2.4 12.7z" fill="#3b414d"/><path class="st15" d="M355.6 507.9c-.5.7-1.2 1.4-1.7 2.2s-1.2 1.7-1.7 2.4c.2.2.7.2 1 .5-.5 0-1 0-1.4.2 0 .1-.1.2-.2.2 4.3 1 8.8 6.2 9.6 8.9.2 0 .2-.2.5-.2 1.2-.7 2.6-1.7 3.8-2.4-.3-.9-.7-1.8-1.2-2.6-2-3.9-5-7.1-8.7-9.2z"/><path class="st16" d="M356.3 433.7c4.1 0 7.9-2.6 10.5-7.7.6 0 1.2-.2 1.7-.5 1.3-.6 2.3-1.7 2.6-3.1.2-1.4 0-4.3-1.4-5.3-1-.5-1.7-.2-1.9.7h-.3c-.4 1.2-.8 2.5-1 3.8-1.4-.2-2.7-.1-4.1.2 1-3.1 1.4-6.3 1.2-9.6l.2-.5-.2-.2c-.9.2-1.8.5-2.6 1 2.3 4.9.4 19-4.7 21.2z"/><path class="st9" d="M349.9 517c-1-.9-2-1.7-3.1-2.4l-.2-.2c-.2-.2-.5-.2-.5-.5v1l.2 3.3c.7.5 1.4 1.2 2.2 1.7.4-1 .9-1.9 1.4-2.9z"/><path class="st17" d="M368.8 425.6c-.5.3-1.1.4-1.7.5-2.6 4.8-6.7 7.7-10.5 7.7-1.5-.1-3-.5-4.3-1.2 0 .6 0 1.3.2 1.9.8 1.6 2.3 2.8 4.1 3.1.2 0 .7.2 1 .2.5 0 .7.2 1.2.2 4.8.5 10.5-1.2 11-2.6v-8.9c0-.2-.2-.5-.2-1l-.8.1z"/><path class="st18" d="M316.6 556.3l-1.9-1-11.5-6.4-6.7-3.8-8.1-4.5-7.4-4.3 38-22.3v-.5c-2.1-1.4-3.6-3.5-4.3-6l-44.8 25.9.5 8.8c.1 1.8-1.3 3.3-3.1 3.3h-.2c-1.7.1-3-1.2-3.1-2.9v-.2l-.2-5.5-6.5 3.6v.5l57.9 33.8 1.4-18.5z"/><path class="st13" d="M352.3 432.5c1.3.7 2.8 1.1 4.3 1.2 5-2.2 6.9-16.3 5-20.8-5.3 1.7-10.9 2.6-16.5 2.6-.5 5-.2 9.8 3.6 14.1.2.5.7.7 1 1.2.5.5 1 .7 1.2 1.2.2.2.5.2.5.5.1-.2.4-.2.9 0z"/><path class="st11" d="M356.8 548.1c1.4-1 2.6-1.9 4.1-2.9 4.8-3.1 9.1-6 13.2-10.8 2.4-2.9 5.5-6 5.8-9.6v-.5c0-1.4.5-5.5.7-8.1 0-.5.2-1 .2-1.4-2.9 1-6.5 1-10.1 1-1.2.7-2.2 1.7-3.3 2.4-.5.5-1.2.7-1.7 1.2-1.2.7-2.6 1.7-3.8 2.4-.5 2.6-1.7 5.3-3.8 6.7 0 .2-.2.7-.2 1-1 1.4-3.1 1.7-6.2 1.2-1.2 1.2-2.6 2.6-4.1 3.8l.5 6.5.5 6.9.5 6.5c1.7-1.2 3.6-2.6 5-3.8.7-.9 1.7-1.7 2.7-2.5z"/><path class="st19" d="M332.9 538.5c1.2-1.2 2.2-2.6 3.3-3.8 1.7-1.9 3.1-3.6 4.3-5l-.2-2.4c-1.2-.5-2.3-1.2-3.3-1.9l-4.1 6.7-1.9 3.1-7.9 13.2-.2 4.3c.5-2.3 1.5-4.4 2.9-6.2 1.8-2 4.4-4.8 7.1-8z"/><path class="st7" d="M347 529.9l.2 4.8c1.4-1.2 2.6-2.4 4.1-3.8-1.5-.1-2.9-.4-4.3-1z"/><path class="st20" d="M357.8 437.8c-.5 0-.7 0-1-.2-1.9.9-3.6 2.3-4.8 4.1-.7-3.6-3.3-6.2-.7-9.6-.2-.2-.5-.2-.5-.5-5.7 6.9-6.2 18-6.5 26.8 2.4 1 4.5 1.9 6.7 2.9.2-8.1 2.4-16 6.5-23l.3-.5z"/><path class="st13" d="M314.9 507.4c.5 2.5 2.1 4.7 4.3 6l.2-4.5.2-3.3v-1l.2-2.9c-4.4 0-5.6 2.9-4.9 5.7z"/><path class="st21" d="M466.7 596.2c-2.1-1-4.4-1.4-6.7-1.2-2.8.4-5.5 1.4-7.9 2.9-4.2 2.6-7.9 5.9-11 9.8l-.5 3.2-1.9 14.1-7.4 4.3c-.3 1.8-.4 3.7-.5 5.5-.1 2.8.4 5.6 1.4 8.1 1 2.3 2.7 4.2 4.8 5.5 3.8 2.2 9.1 1.7 14.6-1.7 11.7-6.7 21.1-23.2 21.1-36.6.4-6.9-2-11.7-6-13.9zm-14.9 40.2c-3.1 1.7-6 2.2-8.1 1.2-2.6-1.2-4.1-4.1-4.1-8.1 0-7.9 5.5-17.2 12.2-21.3 3.6-2.2 6.9-2.2 9.1-.5 1.9 1.4 3.1 4.1 3.1 7.7.3 7.6-5.2 17.2-12.2 21z"/><path class="st22" d="M441 607.7c3-3.9 6.7-7.3 11-9.8 2.4-1.5 5.1-2.5 7.9-2.9 2.3-.3 4.6.2 6.7 1.2l-11-6.2c-.4-.3-.8-.5-1.2-.7-1.6-.7-3.3-1.1-5-1l-5.7 3.1-2.7 16.3z"/><path class="st18" d="M461.2 607.7c-2.2-1.7-5.5-1.7-9.1.5-6.7 3.8-12.2 13.4-12.2 21.3 0 4.3 1.7 6.9 4.1 8.1 2.2 1 5 .7 8.1-1.2 6.7-3.8 12.2-13.4 12.2-21.3 0-3.6-1.2-6.2-3.1-7.4zm-9.4 27.3c-1.9 1.3-4.2 1.7-6.5 1.2-2.6-.7-4.5-3.3-4.5-7.7 0-6.9 5-15.6 11-19.2 3.6-2.2 6.9-1.9 8.9 0 1.5 1.7 2.3 3.9 2.2 6.2-.1 7.5-4.9 15.9-11.1 19.5z"/><path class="st23" d="M451.8 609.6c-6 3.6-11 12-11 19.2 0 4.1 1.7 6.9 4.5 7.7 2.2.5 4.6.1 6.5-1.2 6-3.6 11-12 11-19.2 0-2.9-.7-5-2.2-6.2-1.8-2.2-5-2.4-8.8-.3zm0 20.6l-1.4.7c-3.1 1.2-5.5-.7-5.5-4.5.2-4.9 2.8-9.4 6.9-12 3.4-1.9 6.2-.7 6.7 2.4 0 .5.2 1 .2 1.4.3 4.6-3.1 9.9-6.9 12z"/><path class="st8" d="M451.8 614.2c-3.8 2.2-6.9 7.7-6.9 12 0 3.8 2.4 5.7 5.5 4.5.5-.2 1-.2 1.4-.7 3.8-2.2 6.9-7.7 6.9-12 0-.5 0-1-.2-1.4-.5-3.1-3.3-4.3-6.7-2.4z"/><path d="M445.6 588.8l-2.2 1.7-.2 1.2-2.2 15.8 2.9-16.3 5.7-3.1 3.1-1.7v-.2l-3.3 1.9c-1.3.1-2.6.4-3.8.7z" fill="#c13831"/><path class="st23" d="M368.3 615.4c4.8 2.6 8.4 7.4 10.3 13.9l9.3-5.5 40.9-23.7 14.4-8.4.2-1.2 2.2-1.7c1.2-.4 2.5-.5 3.8-.5l3.3-1.9-.7-28.7-92.6 52.7 8.9 5z"/><path class="st10" d="M350.3 605.1l9.3 5.3 92.4-52.7-.5-21.3-101.2 58.4v10.3z"/><path class="st18" d="M442.7 539.5h-.5c-1.6 0-3-1.3-3.1-2.9l-1-8.1-4.1-2.4-10.3 5.5c2.3 1.3 4.7 2.5 7.2 3.6l-8.6 5-67 37.8-5.5-3.1.7 12.2c.1 1.7-1.2 3.2-2.9 3.3h-.2c-.6 0-1.2-.2-1.7-.5-.8-.5-1.3-1.4-1.4-2.4l-.7-12.7-14.1 7.7 15.6 9.1 5.7 3.3L452 536.5l-6.5-3.8.5 3.6c-.4 1.7-1.7 2.9-3.3 3.2z"/><path class="st25" d="M428.8 600.1v17.5l11.7-6.6.5-3.1 2.2-16-14.4 8.2z"/><path class="st10" d="M438.7 624.9l1.9-14.1-11.7 6.7-40.9 23.7-7.9 4.5c-.5 4.9-1.5 9.8-2.9 14.6l43.5-25.1 10.8-6.2 7.2-4.1z"/><path class="st22" d="M432.2 642.7c-1-2.6-1.5-5.4-1.4-8.1.1-1.8.2-3.7.5-5.5l-10.8 6.2c.9 2.4 2.5 4.5 4.5 6l12.2 6.9c-2.3-1.2-4.1-3.1-5-5.5z"/><path class="st25" d="M430.8 535.4s-2.6-1.4-7.2-3.6l-8.8 4.8c2.6 1.4 5.3 2.6 7.4 3.8l8.6-5z"/><path class="st21" d="M387.9 623.7v17.5l40.9-23.7V600l-40.9 23.7z"/><path class="st18" d="M396.1 517.5c7.7 3.8 14.8 7.7 20.8 10.8l10.8-5.7-31.6-18.4v13.3z"/><path class="st21" d="M422.1 540.2c-2.2-1.2-4.5-2.4-7.4-3.8l-65.3 35 .2 3.6 5.5 3.1 67-37.9z"/><path class="st25" d="M396.1 519.4v7.4c4.1 2.2 8.1 4.3 12 6.2l8.8-4.8c-6-3.1-13.2-6.9-20.8-10.8v2z"/><path class="st21" d="M396.1 528.5c0 5-2.2 9.3-5.5 11.5l-8.4 5-7.2 4c-2.7 1.5-5.7 2.5-8.8 2.9-4.3.5-8.6.2-12.7-1-1.4 1.2-3.3 2.6-5 3.8l.5 9.8 17.2-9.1 9.6-5 32.3-17.2c-3.8-1.9-7.9-4.1-12-6.2v1.5z"/><path class="st9" d="M391 460.3c-.2 3.8-1 7.9-1.7 12.2.6 2 .9 4 1 6v44c.1 2.1-.4 4.2-1.4 6-.2.2-.5.7-.7 1l-.7.7c0 1.3-.3 2.7-1 3.8-1.1 1.6-2.6 3-4.3 4.1l-1.2.7-5.7 3.3c-2.7 1.5-5.7 2.5-8.8 2.9v6.7c3.1-.4 6.1-1.4 8.8-2.9l7.2-4.1 8.4-5c3.3-2.2 5.5-6.5 5.5-11.5v-53.4c-.5-5.2-2.3-10.2-5.4-14.5z"/><path class="st26" d="M373.8 534.7c-4.1 4.8-8.6 7.4-13.2 10.8 1.8 0 3.7 0 5.5-.2 3.1-.4 6.1-1.4 8.8-2.9l5.8-3.3 1.2-.7c1.8-.9 3.3-2.3 4.3-4.1.7-1.2 1-2.5 1-3.8l.7-.7c-2.9-1.4-5.8-3.1-8.6-4.5 0 3.4-2.9 6.6-5.5 9.4z"/><path class="st25" d="M378.5 629c1.1 3.8 1.7 7.8 1.7 11.7 0 1.7 0 3.3-.2 5l7.9-4.5v-17.5l-9.4 5.3z"/><path class="st27" d="M379.1 508.4c-2.5 2.9-5.3 5.4-8.4 7.7 3.6 0 7.2 0 10.1-1 .5-2.4.9-4.8 1.4-7.2-1 .3-2.1.4-3.1.5z"/><path class="st21" d="M380 641c.1-4-.5-7.9-1.7-11.7-1.9-6.5-5.5-11.3-10.3-13.9-3.8-1.9-8.2-2.7-12.4-2.2-5.3.7-10.3 2.5-14.8 5.3-21.5 12.4-39.2 42.8-39.2 67.7 0 4.9.8 9.7 2.4 14.4l-14.8-8.6-3.4 1.9-17.2 10.1v22l34.5-19.9 2.9-1.7.5-.2 1.9-1v2.2l-1.4.7c1.7 2.5 3.9 4.5 6.5 6 7.2 3.8 16.8 3.1 27.3-3.1 16.3-9.3 29.9-28.7 35.9-48.1 1.4-4.8 2.4-9.7 2.9-14.6.3-1.8.5-3.6.4-5.3zm-39 48.6c-5.8 3.3-11 3.8-15.1 2.2-4.8-2.2-7.7-7.4-7.7-15.1 0-14.4 10-32.1 22.7-39.3 6.7-3.8 12.9-4.1 17-1 3.6 2.6 5.7 7.4 5.7 14.1-.1 14.4-10.1 31.9-22.6 39.1z"/><path class="st10" d="M364.5 412.2l1.4.7c3.1-.7 7.9-.5 10.8-1.4.2 0 .5-.2.7-.2.1-2.2 0-4.3-.2-6.5-.9-4.1-3.4-7.7-6.9-10l-19.2 11.5c4.5 1.7 8.9 3.6 13.2 5.7l.2.2z"/><path class="st28" d="M350.3 605.1l-2.4-1.4c-.7-.5-1.4-.9-2.2-1.2-6.3-3.1-14.1-2.6-23.3 1.4-1 .5-1.7 1-2.6 1.4-.2.2-.5.2-.7.5-1.9 1.2-3.8 2.4-5.8 3.8-.8.5-1.5 1-2.2 1.7-3.6 3-7 6.2-10 9.8-9.1 10.8-16.3 24.4-19.4 37.8-1.1 4.7-1.7 9.5-1.7 14.4 0 8.6 2.2 15.6 5.7 20.3l3.3-1.9 14.8 8.6c-1.6-4.6-2.4-9.5-2.4-14.4 0-24.9 17.5-55.3 39.3-67.7 4.5-2.8 9.6-4.6 14.8-5.3 4.3-.6 8.6.2 12.4 2.2l-8.6-5-9-5z"/><path class="st22" d="M360.6 545.2c-1.2 1-2.6 1.9-4.1 2.9-1 .7-1.9 1.7-3.3 2.6 4.1 1.3 8.4 1.6 12.7 1V545c-1.7.4-3.5.4-5.3.2z"/><path class="st18" d="M358 636.4c-4.1-3.1-10.3-2.9-17 1-12.5 7.2-22.7 24.7-22.7 39.3 0 7.9 2.9 13.2 7.7 15.1 4.1 1.7 9.3 1.2 15.1-2.2 12.4-7.2 22.7-24.9 22.7-39.3-.3-6.7-2.4-11.4-5.8-13.9zm-17 50.5c-4.5 2.6-8.6 3.3-12.2 2.4-5-1.4-8.1-6.5-8.1-14.1 0-12.9 9.1-28.7 20.3-35.2 6.7-3.8 12.7-3.6 16.3 0 2.4 2.4 4.1 6.5 4.1 11.7 0 13-9.1 28.8-20.4 35.2z"/><path class="st23" d="M341 640c-11.3 6.5-20.3 22.3-20.3 35.2 0 7.7 3.1 12.7 8.1 14.1 3.3 1 7.7.2 12.2-2.4 11.3-6.5 20.3-22.3 20.3-35.2 0-5.3-1.4-9.1-4.1-11.7-3.5-3.6-9.5-4-16.2 0zm0 38.3c-.8.5-1.7.9-2.6 1.2-6 1.9-10.3-1.4-10.3-8.6 0-8.1 5.8-18.2 12.9-22.3 6.2-3.6 11.5-1.4 12.7 4.5.2.9.3 1.9.2 2.9-.2 8.2-5.9 18.3-12.9 22.3z"/><path class="st9" d="M357.5 529.7c.2-.3.3-.6.2-1-1.5 1-3.4 1.2-5 .5-.2 0-.3-.1-.5-.2-2.4-.7-5-4.1-5.5-6.5v-.2l-.2-.2v.7l.2 3.1 2.9 2.2c-.9 0-1.8-.3-2.6-.7l.2 2.4c1.4.5 2.8.8 4.3 1 2.7.6 5 .3 6-1.1z"/><path class="st8" d="M341 648.6c-7.2 4.1-12.9 14.1-12.9 22.3 0 7.2 4.3 10.5 10.3 8.6.9-.3 1.8-.7 2.6-1.2 7.2-4.1 12.9-14.1 12.9-22.3 0-1 0-1.9-.2-2.9-1.4-5.9-6.5-8-12.7-4.5z"/><path class="st10" d="M347.2 400l6.5-3.8v-1.7c-2.6 1.3-4.8 3.1-6.5 5.5z"/><path class="st21" d="M352 512.4c0 .2-.2.5-.5.7.5 0 1-.2 1.4-.2-.2-.2-.4-.2-.9-.5z"/><path class="st27" d="M353.7 510.1c.5-.7 1.2-1.4 1.7-2.2l2.2-2.2c-2-.5-3.9-1.2-5.7-2.2-2.4-1.1-4.6-2.5-6.7-4.1l.5 7.4v1.7c2 1.5 4.2 2.7 6.5 3.8.5-.8 1-1.5 1.5-2.2z"/><path class="st7" d="M351.8 513.2c.2-.2.2-.5.5-.7-2.2-1.2-4.3-2.4-6.5-3.8l.2 5.5c.2.2.5.2.5.5 1.7-.8 3.5-1.3 5.3-1.5z"/><path class="st29" d="M345.8 602.4c.7.5 1.4.7 2.2 1.2l2.4 1.4v-10.3l-5.7-3.3-15.6-9.1-7.9 4.3-1 15.8 2.4 1.4c9.1-4 17.2-4.5 23.2-1.4z"/><path class="st7" d="M346.8 526.1v1.4c1 .2 1.9.5 2.6.7l-2.6-2.1z"/><path class="st19" d="M346.8 522.5c.5-.8 1-1.6 1.4-2.4-.7-.5-1.4-1.2-2.2-1.7l.2 4.1h.6z"/><path class="st30" d="M344.8 415.3c5.6 0 11.2-.9 16.5-2.6.9-.2 1.8-.5 2.6-1-4.2-2.2-8.6-4.1-13.2-5.8l-5.5 3.4-3.8 2.4.2 3.4h.2c1.1.1 2.1.2 3 .2z"/><path class="st11" d="M341.3 540c-1 .9-2 1.8-3.1 2.6-7.2 5.8-12 11-10.5 20.1l12.2 6.9 2.9-1.7-1.4-23.5-.1-4.4z"/><path class="st9" d="M336.9 525.4c1.2.7 2.2 1.2 3.3 1.9l-.2-2.4c-.7-.5-1.4-.7-2.2-1.2l-.9 1.7z"/><path class="st19" d="M338.1 523.5c.7.5 1.4.7 2.2 1.2l-.2-3.1v-1.4l-.7 1-1.3 2.3z"/><path class="st31" d="M333.1 532.1l4.1-6.7 1-1.9 1.2-2.2.7-1-.2-2.4v-1.2c-1.3-.9-2.6-1.6-4.1-2.2-.7-.2-1.5-.4-2.2-.7-.7 0-1.2 0-1.4.2v.5c0 .7 1 1.9 2.6 3.3.5.5 1 .7 1.4 1.2l-.7 1-.2.2-.5.7-1.2 1.9-2.6 4.3-7.2 12.2-.5 8.6 7.9-13.2 1.9-2.6z"/><path class="st18" d="M322.8 559.9l-1.2 18.2 1 .7 17.2-9.3-12.2-6.9-4.8-2.7z"/><path class="st7" d="M339.8 516.3l-.3-2.4c-1-.5-1.7-1-2.6-1.4l2.9 3.8z"/><path class="st20" d="M333.4 502.9c1.7-2.2 3.6-4.1 5.3-6l-.2-2.9-.5-19.1c-.6-6.4-.8-12.9-.5-19.4l-.5-14.6c-4.3 12.4-1.4 28.2-5.3 40.5-1.4 2.4-3.3 5.3-5 8.4v1.2l-.5 7.9 2.2.7c1.9.6 3.6 1.8 5 3.3z"/><path class="st7" d="M327.6 562.5c-1.4-8.9 3.1-14.4 10.5-20.1 1.1-.8 2.1-1.7 3.1-2.6l-.2-2.6-.5-7.9c-1.2 1.4-2.9 3.3-4.3 5-1.2 1.2-2.2 2.6-3.3 3.8-2.6 3.1-5 6-6.7 8.1-1.3 1.9-2.3 4-2.9 6.2l-.5 6.7v.2l4.8 3.2z"/><path class="st19" d="M334.5 521.3l.7-.7.2-.2h-2.2c.4.4.9.7 1.3.9z"/><path class="st26" d="M334.8 521.5l.5-.7-.7.7c-.1-.2.2 0 .2 0z"/><path class="st18" d="M331 506c.2 0 .7.2 1 .2l2.9-1.7 4.1-2.4-.2-5.5c-1.7 1.9-3.6 4.1-5.3 6-1 1.1-1.8 2.2-2.5 3.4z"/><path class="st26" d="M331.2 527.5v.5l2.6-4.3c-.2-.2-.5-.2-.7-.5-1.3 1-2 2.7-1.9 4.3z"/><path class="st15" d="M333.4 502.9c-1.5-1.3-3.1-2.4-4.8-3.3-.6-.4-1.4-.7-2.2-.7l-.2 2.2-.2 3.8c1.7.3 3.4.8 5 1.4.5-1.3 1.4-2.5 2.4-3.4z"/><path class="st19" d="M331.2 527.5c.1-1.7.7-3.3 1.9-4.5-1-.7-2.2-1.4-3.1-2.2-1.7 1-3.3 2.2-5 3.1l-1 16 7.2-12.2v-.2z"/><path class="st13" d="M329.3 509.1c-.5-.2-1.1-.3-1.7-.2-.7 0-1.4-.2-1.9 0v1.2c1.3.5 2.7.1 3.6-1z"/><path class="st7" d="M326.7 518c-.5-.5-1-.7-1.4-1.2l-.2 2.2-.2 5c1.7-1.2 3.3-2.2 5-3.1-1.3-1-2.3-1.9-3.2-2.9z"/><path d="M320.2 602.4l-.2 2.9c.9-.4 1.8-.9 2.6-1.4l-2.4-1.5z" fill="#d73f36"/><path d="M321.6 579.2l1-.5-1-.7v1.2z" fill="#862722"/><path class="st19" d="M303.7 548.4l-.2.5 11.5 6.5 2.2-3.6 1.4-23.7c-1.7 1-3.3 2.2-5 3.1-6.8 3.5-10.6 9-9.9 17.2z"/><path class="st31" d="M316.6 556.3l.2-4.3-1.9 3.3 1.7 1z"/><path class="st29" d="M315.6 574.7l-57.9-33.8v3.8l57.7 32.3.2-2.3zm-.7 9.3l-57.2-31.8v13.9l56.5 32.8.7-14.9z"/><path class="st10" d="M313.5 609.6l.7-10.8-56.5-32.8v13.9l53.8 31.4c.6-.7 1.2-1.2 2-1.7z"/><path class="st28" d="M307 705.6l1.4-.7v-2.2l-1.9 1-.5.2-2.9 1.7-34.5 19.8v-26.6L258 678.3l2.2-1.2V675l-1.9 1-.7.5v-193l-16-9.3-2.2 1.2 2.2 1.2 13.9 7.9v188.6l-.7-1.4-1.4-2.6v-183l-13.9-8.1-.2-.2-1.9-1h-.2L235 478l2.2 1.2h.2l1.4.7 1 .5 11.5 6.7v179l-11.5-6.6-2.4-1.4-2.2-1.2-3.1-1.7V565l1.9 1.2c.5-.3.9-.6 1.2-1v-21.3l-3.1 1.7v-77.8l-16-9.3-2.4 1.2 16 9.3v185.3l-2.4-1.4V470.6l-13.6-7.9-2.4-1.4-2.4 1.2 2.4 1.2 2.4 1.4 11.5 6.7v179.8l-11.5-6.7-2.4-1.4-2.4-1.4-4.5-2.6c-1-3.7-1.5-7.6-1.4-11.5.2-9.4 2.2-18.7 6-27.3v-44.3c-16 14.8-27.5 38.8-27.5 59.1 0 12.2 4.1 20.8 11 25.1l-.2.2 4.8 2.6 4.5-3.6 3.8 2.2 3.6 2.2 2.4 1.4 2.4 1.4 11.5 6.7 2.4 1.4 1.2.7 1.2.7 2.4 1.4 3.1 1.7 2.2 1.2 2.4 1.4 11.5 6.7.2.5.2.5 1.9 3.6.2.5 2.2 4.1.7 1.4 1.4 2.9 9.3 18v35.4l1.7-1.2v-6.7l36.4-21.1 8.6 5v-.2c-3.2-1.3-5.7-3.4-7.5-6z"/><path class="st18" d="M311.3 611.3l-53.8-31.4v15.8l43.8 25.4c3-3.6 6.4-6.8 10-9.8z"/><path class="st34" d="M301.3 621.1l-43.8-25.4v49.1l24.4 14.1c3.5-13.9 10.1-26.8 19.4-37.8z"/><path class="st21" d="M299.8 533.8c-4.3 2.6-8.1 4.8-11.5 6.7l8.1 4.5v-.2c1.8-4.1 1.8-7.7 3.4-11zm-33 195.1v-28.8l-9.3-18-1.4-2.9-.7-1.4-2.2-4.1-.2-.5-1.9-3.6-.2-.5-.2-.5-11.5-6.7-2.4-1.4-2.1-1.1-3.1-1.7-2.4-1.4-1.2-.7-1.2-.7-2.4-1.4-11.5-6.7-2.4-1.4-2.4-1.4-3.6-2.2-3.8-2.2-4.5 3.6-12 9.3v34.9l7.4 4.3-58.6 33.8L92.5 749l-12.2 12.2 1.4.7 9.1 5.3 20.6-7.2 35.4-20.6 63.7-36.9 1.9 1 27.5 15.8-58.4 33.8-40.5 23.5-12.2 12.2 1.2.7 9.1 5.3 20.6-7.2 35.5-20.7 63.7-36.6 1.9 1 5.8 3.4V729h.2zM114.6 753l-8.9-5 8.9-5 8.8 5-8.8 5zm21.3-12.2l-8.9-5 8.9-5 8.8 5-8.8 5zm27 40l-8.8-5 8.8-5 8.9 5-8.9 5zm21.3-12.2l-8.8-5 8.8-5 8.8 5-8.8 5z"/><path class="st22" d="M195.7 767.9l-35.4 20.6-20.8 7.2-9.1-5.3-1.2-.7v2.2l10.3 6 20.8-7.2L261 732.3l-1.9-1-63.4 36.6z"/><path class="st35" d="M234.5 499.5v-21.3l2.2-1.2h.2l2.2-1.2.2-1.7 6.5-32.6 14.4-72.5 64.6 36.6-4.1 78.3-.2 3.6-51.5 29.7-3.8-64.6-6.5-3.6 4.3 71.9-5.3 3.1v7.2l5.8-3.3.5 9.6.2 5.5c0 1.7 1.4 3.1 3.1 3.1h.3c1.8-.1 3.1-1.6 3.1-3.3l-.5-8.8-.5-9.6 50.7-29.2-.5 7.4-.2 2.9v1l-.2 3.3-.2 4.5v.5l-.2 5-.2 3.8-.2 5.3-1.4 23.7-.2 4.5-1 18.2-.2 2.4-57.9-32.2v7.2l57.4 32.1-1 14.8-.7 10.8c1.9-1.4 3.8-2.6 5.8-3.8.2-.2.5-.2.7-.5l.2-2.9 1-15.8 7.9-4.3 14.1-7.7.7 12.7c.1 1 .6 1.9 1.4 2.4.5.3 1.1.4 1.7.5h.2c1.7-.1 2.9-1.5 2.9-3.1v-.2l-.7-12.2-.2-3.6 65.4-34.9 8.8-4.8 10.3-5.5 3.6-1.9.5 4.3 1 8.1c.1 1.6 1.5 2.9 3.1 2.9h.5c1.7-.3 3-1.8 2.9-3.6l-.5-3.6-3.3-28.5-16-150.1-67.7-39.7-4.5-3.1-93.1 51.9-4.8 2.6v.2l-.2.2h.2l-23.7 115.9v33.3l2.6-16.1zm105.3 69.9l-17.3 9.1-1 .5v-1l1.2-18.2v-.2l.5-6.7.2-4.3.5-8.6 1-16 .2-5 .2-2.2.2-2.4v-1l.2-3.3v-1.2l.2-4.1.2-3.8.2-2.2.5-7.9v-4l2.6-79.2 6.5 3.6.7.2v1.2l.7 27.8.5 14.6.5 19.4.5 19.1.2 2.9.3 5.4.2 3.6.2 4.1v.7l.2 3.1.2 2.4v1.7l.2 2.4v1.4l.2 3.1.2 2.4.2 2.4.5 7.9.2 2.6.2 4.5 1.4 23.5-3.4 1.7zm94.7-70.4L396 479.8v7.2l39.5 19.4 1.2 10.8-9.3 5-10.8 5.7-8.8 4.8-32.3 17.3-9.6 5-17.2 9.1-.5-9.8-.5-6.5-.5-6.9-.5-6.5-.2-4.8-.2-2.4v-1.3l-.2-3.1v-.8l-.2-4.1.2-3.1v-1l-.2-5.5v-1.7l-.5-7.4v-.7l-.5-8.4-.2-8.4-1-24.2-1-26.1-.7-16.8-.2-3.4 3.8-2.4 5.5-3.4 19.2-11.5 51.5-30.9 12.7 136zm-13.1-142.4L359.2 393l-3.1-75.4 65.3 39zm-69.9-39l1.9 76.8v1.7L347 400l-9.3 5.5-72.5-40.2 86.3-47.7z"/><path class="st21" d="M257.7 676.4l.5-.5 1.9-1-2.4-1.4v2.9zm-18.6-200.8h.2l15.8 9.3V673l.2.2V484.9l-13.9-8.1-2.2-1.2h-.1z"/><path class="st36" d="M255.1 643.6V484.9l-15.8-9.3h-.2l-2.2 1.2 1.9 1.2.2.2 14.1 7.9V669l1.2 2.6.7 1.4.1-29.4z"/><path class="st21" d="M234.5 478.2v86.7c-.5.3-.9.6-1.2 1l1.2.7v68c-1 .2-2.1.3-3.1.2v20c1.1-.3 2.1-.6 3.1-1v3.1l2.2 1.2 2.4 1.4 11.5 6.7V487.8l-11.5-6.7-1-.5-1.4-.7h-.2l-2-1.7z"/><path class="st36" d="M236.9 477v-.2l-.2.2h.2z"/><path class="st37" d="M236.7 476.8v.2-.2z"/><path d="M234.5 631.6c-1 .2-2.1.3-3.1.2v3.1c1 0 1.9-.2 3.1-.2v-3.1z" fill="#fa493f"/><path d="M234.5 631.6l-3.1-1.9v2.1c1.1.1 2.1 0 3.1-.2z" fill="#9a1503"/><path class="st34" d="M234.5 582.3l-3.1-1.7v49.1l3.1 1.7v-49.1z"/><path class="st18" d="M234.5 566.5l-1-.5-2.2-1.2v15.8l3.1 1.7.1-15.8z"/><path class="st35" d="M231.4 530.4v7.2l.7.2-.7.5v7.2l3.1-1.7v-11.7l-3.1-1.7z"/><path class="st36" d="M213 462.7l13.9 7.9V653l2.4 1.2V469.4l-16-9.3h-.3l-2.2 1.2 2.2 1.4z"/><path class="st21" d="M202.4 628.3c-.1 3.9.4 7.7 1.4 11.5l4.5 2.6 2.4 1.4 2.4 1.4 11.5 6.7V472.2l-11.5-6.7-2.4-1.4-2.4-1.2V601c-3.7 8.6-5.7 17.9-5.9 27.3z"/><path class="st22" d="M147.4 740.1L112 760.7l-20.8 7.2-9.1-5.3-1.2-.7v1.9l10.3 6.2 20.8-7.4 100.8-58.2-1.7-1.2-63.7 36.9z"/><path class="st37" d="M210.8 461.2h-.3v.2h.2l.1-.2z"/><path class="st40" d="M190.5 763.3l-6.9 3.8-7.9-3.6 8.6 5 8.8-5-8.8-5 6.2 4.8z"/><path class="st41" d="M190.5 763.3l-6.2-4.8-8.6 5 7.9 3.6 6.9-3.8z"/><path class="st40" d="M169.2 775.5l-6.9 4.1-7.9-3.8 8.6 5 8.9-5-8.9-5 6.2 4.7z"/><path class="st41" d="M169.2 775.5l-6.2-4.8-8.6 5 7.9 3.8 6.9-4z"/><path class="st40" d="M142.1 735.3l-6.9 4.1-7.9-3.6 8.6 5 8.8-5-8.8-5.3 6.2 4.8z"/><path class="st41" d="M142.1 735.3l-6.2-4.8-8.6 5.3 7.9 3.6 6.9-4.1z"/><path class="st40" d="M120.8 747.7l-6.9 3.8-7.9-3.5 8.6 5 8.8-5-8.8-5 6.2 4.7z"/><path class="st41" d="M120.8 747.7l-6.2-4.8-8.6 5 7.9 3.6 6.9-3.8z"/><path class="st6" d="M865.1 788.2L841 766.9 808.7 781l-17.2-6.2-4.8-1.7 1.7-.2-11-15.3-17.2-6-9.3-3.3-16.3-5.8-17.5 1.4-4.1.2-19.6 1.4.2.2c-2.1-.5-4.3-.7-6.5-.7l-28.2-38.8c-1.7-2.4-5.5-4.3-10-5-1.6-.3-3.3-.4-5-.2l-1.7.2c-.6-.4-1.2-.7-1.9-1-1.9-.7-4.8-.5-6.5-.7-.2-.2-.5-.2-.5-.5-.9-.7-1.8-1.4-2.6-2.2-2.4-2.2-4.6-4.5-7.2-6.7-2.9-2.6-7.2-4.8-11.3-7.2-3.6-3.3-6.7-6.2-9.8-9.6-2-2.1-4.2-4.1-6.5-6l-1.4-1.4-.5-.5c-2.2-2.4-7.2-4.5-15.6-6.9v-.2c1.8.3 3.6 0 5.3-.7 2.6-1.2 1.4-3.3-.7-5.7 1 .2 1.9.2 2.9.5 11.2 1.7 3.6-3.3-7.2-5.8h-.5v-.2c0-.1-.1-.2-.2-.2-3.1-2.6-11-5.7-16.8-6.9-4.3-1-7.4-1.7-10.8-1.7-4.1 0-6.7 1.4-6.2 3.3.5 1 1.2 2 1.9 2.9.2 0 .5.2.7.2.7 1.3 1.7 2.4 2.9 3.3 2.9 2.4 6.2 4.2 9.8 5.5 0 .5-.2 1.2-.2 1.7-1.2-.2-2.6-.2-4.1-.5-2.4-.2-5.3-.5-7.9-.5-6.2-.2-12-.2-13.4 1-.1 2 .2 4.1 1 6 1.7 5.5 5.3 12.7 7.4 18 .5 1.1.9 2.2 1.2 3.3 1.4 4.8 5.7 11 8.4 16 3.1 4.8 4.8 9.3 9.3 14.6 7.9 9.3 14.6 18.4 24.9 28l3.6 3.6v.2c-.1.4 0 .8.2 1.2.2.5 1 1 2.6 2.2 8.4 3.8 25.1 9.8 33.5 11.7 2.2 0 3.8-.5 6-.5-.4-.5-.9-.9-1.4-1.2-1.7-1.2-3.5-2.1-5.5-2.6h-.1c-1.4-.5-2.9-1.2-4.3-1.7-3.7-1.8-7.3-3.9-10.8-6.2-.2-.2-.5-.3-.7-.2h.2c-3.6-6.2-14.1-23.7-22.5-37.8 7.4 8.4 18 20.1 23.2 26.6 1.4 1.7 5.3 5.8 6.7 7.7.2 0 .5.2.7.2v.7c.1.4.2.7.5 1 3.1 1.4 7 2.9 11 4.3-2.6.2-3.6 1.2-2.9 2.4l.2.2.7 1c0 .1.1.2.2.2 1 1.2 4.1 2.9 8.8 4.5l14.8 5.3c-1.2 1.2-1.9 2.9-1.2 4.3 2.2 4.5 5.8 7.2 11 9.1 1.4.5 2.9-.5 3.8-.2.7.2 4.6-6.2 3.3-6.9l86.4 52.7c0 8.6 16 17 17 18 1.4 1.4 98.8-50.3 94-52zm-185-42.9l-39.3 3.1c-2.2-.9-4.4-2-6.5-3.3-.2 0-.2-.2-.5-.2h.2c-2.6-4.1-5.3-8.4-7.9-12.5l45-3.3 12 16.5c-.8-.5-1.9-.5-3-.3zm-59.3-21l44.8-3.3 4.6 6.2-45 3.3c-1.5-2.2-3-4.3-4.4-6.2zm23.7-20.4c0-.2-.5-.5-.7-.7l1.9-.2c1.1 0 2.2 0 3.3.2 2.3.3 4.4 1.4 6 3.1l9.3 12.7-44.8 3.3c-.8-1.2-1.7-2.3-2.6-3.3-3.6-4.3-7.2-8.6-10.8-12.7h.2c1.6.3 3.2.4 4.8.2 1.3.1 2.6.1 3.8 0 2.2.5 4.6.5 4.3-.2-.3-.5-.7-.8-1.2-1l14.6-1.2c3.9 1.2 8.1 1.2 11.9-.2z"/><path class="st42" d="M640.4 728.1v-2.4c-.2 0-.2-.2-.5-.2-1-.7-2-1.4-3.1-1.9-2.2-1.4-4.3-2.4-6-4.1-.2.9-.3 1.7-.2 2.6 2.9 2.4 5.9 4.6 9.1 6.7.2-.5.4-.5.7-.7z"/><path class="st11" d="M622.9 516.8c6 16.5 7.7 33.5 13.6 49.3 2.2 3.5 4.1 7.2 5.8 11 .5 1 .7 1.7 1.2 2.6 1.4 0 2.9-.2 4.3-.5v-3.1c.5-7.4 2.9-13.6 7.2-21.1 1.9-3.1 3.6-6.4 5-9.8 4.3-9.8 6.9-20.1 10.8-30.4-.2-1.2-.2-2.4-.5-3.6V510c-.5-5.5-4.5-9.6-12.2-12.2-.2 0-.2 0-.5-.2 8.4 7.7 3.1 23.2-.5 32.8-2.6 0-5.5.2-8.1.2-4.3.2-8.6.7-12.7 1-.2-1-.5-1.9-.7-3.1-1.2-8.4.7-24.9-9.6-29-6.9 2.2-13.6 5.3-16.5 9.3v.2c6-4.7 10.8 2.7 13.4 7.8z"/><path class="st10" d="M621.3 570.4c1.2 3.6 2.9 7.2 4.3 10.5 1.7 3.6 3.3 7.2 4.8 10.3.5 1.2 1.2 2.4 1.7 3.3 1.4 3.1 3.8 7.4 6 11.3 1.1-2.1 3-3.7 5.3-4.5 1.7-.7 3.6-1.2 5.5-1.9l2.2-.7c-.7-2.4-1.4-4.8-2.4-7.4-1.4-3.8-2.9-7.7-4.8-11.7-.5-1-.7-1.7-1.2-2.6-1.7-3.8-3.6-7.4-5.7-11-6-15.8-7.7-32.8-13.6-49.3-2.6-5-7.2-12.7-13.4-7.4-1.8 5.5-3.2 11.1-4.1 16.8h.5c1.9 14.6 8.4 32.5 14.9 44.3zm14.3-41.7c.2 1 .5 2.2.7 3.1 4.1-.5 8.4-.7 12.7-1 2.7-8.5 3.3-17.5 1.7-26.3v-.6c-.5 0-.7-.2-1.2-.2-1.7 3-3.5 5.9-5.5 8.6-3.3-5-8.6-8.6-9.6-14.6-2.6.5-5.8 1.4-8.6 2.2 10.7 4 8.6 20.4 9.8 28.8z"/><path class="st22" d="M777.8 837l-.7.5c.2-.2.4-.2.7-.5zm87.1-62.7c-.5 2.9-2.6 5.5-6.2 7.7l-62 35.7c-5.7 3.3-13.6 4.3-21.1 3.3h-.7c-3.2-.5-6.3-1.5-9.1-3.1-.1 0-.2-.1-.2-.2l-1.7-1-97.2-56.2-2.4-1.4h-.2l-8.1-4.8-2.9-1.7-12.2-6.9c-3.6-2.2-5.7-4.8-6.2-7.7 0-.4 0-.8-.2-1.2v2.9c.2 3.1 2.2 6.2 6.5 8.6l12.7 7.4.5.2.2.2 8.4 4.8h.2l.7.5 4.8 2.9 95 54.8.7.5 1 .5.5.2c2.3 1.2 4.7 2.2 7.2 2.9.2 0 .5.2.7.2h.2c1.1.3 2.2.4 3.3.5 6.9.7 14.1-.5 19.4-3.6l62-35.7c4.3-2.4 6.5-5.7 6.5-8.9v-2.6c.1.2-.1.8-.1 1.2z"/><path class="st43" d="M664.3 762.6c1.5 2.4 2.3 5.1 2.4 7.9 0 1.4-.4 2.9-1.2 4.1.5 0 .7-.2 1.2-.2l.7-.5c1.3-1.2 2-3 1.9-4.8 0-1.6-.3-3.1-1-4.5l-4.8-2.9c.4.2.6.6.8.9z"/><path class="st15" d="M649 606c1-.2 1.9-.5 3.1-.7h.5c-.5-1.9-1-4.1-1.7-6.5l-2.2.7c-1.9.4-3.8 1-5.5 1.9-2.2.9-4.1 2.5-5.3 4.5 1 1.7 2 3.2 3.1 4.8.2.2.5.7 1 1 .5-.8 1-1.5 1.7-2.2 1.3-1.7 3.2-2.9 5.3-3.5z"/><path class="st10" d="M698.5 590.2c1.2-.7 2.5-1.1 3.8-1.2 2.6 0 4.3 2.2 4.3 5.7v31.4l-55 31.8-6.5 3.6-1 .5v-29.9c0-1 0-2.1.2-3.1.8-3.7 2.5-7 5-9.8l.2-.2c.7-.8 1.5-1.5 2.4-2.2.2-1.4-.2-2.7-1-3.8v-.2c-.4.2-.7.4-1 .7-.2.2-.7.5-1 .7-2.1 1.8-3.8 3.9-5.3 6.2-2.3 3.7-3.7 7.9-3.8 12.2v94.8c.1-.1.3-.2.5-.2l1.4-1 1.7-1v-40l6.9-4.1L706 649v40.2c1.2-.5 2.4-.7 3.8-1.2v-94.2c0-5.5-2.9-9.3-7.4-9.3-2 .1-4 .6-5.7 1.7l-2.2 1.2c.5 1.2.8 2.5 1 3.8l3-1zm8.2 55.3l-55.3 31.8-6.9 4.1-.2.2v-15.1l1-.5 6.5-3.8 55-31.8v15.1z"/><path class="st7" d="M650 713.3c.5-10.3 1-20.8 1.4-31.1l-6.9 4.1v29.6c1.9-.4 3.7-1.3 5.3-2.4-.1-.2-.1-.2.2-.2z"/><path class="st15" d="M649.7 503.6c-5.3-1.4-10.8-5.3-10.5-6.9-1.5.2-3 .6-4.5 1 1 6.2 6.5 9.8 9.6 14.6 1.6-3 3.8-5.8 5.4-8.7z"/><path class="st19" d="M644.5 629.3c-.2 1-.3 2.1-.2 3.1v29.9l1-.5c-.1-8.6-.3-20.3-.8-32.5z"/><path class="st44" d="M659.5 765.7l1.9-2.2 1.7-2.4h-.2l-1.7 2.4-1.7 2.2z"/><path class="st42" d="M618.6 752.5c-1.9-1-3.8-2.4-6-3.6-2.6-1.7-5-3.3-7.7-5.3-.2 0-.2-.2-.5-.2-1.4-1.2-5.7-4.1-7.2-6.5 0 1.2.2 2.2 1.2 4.8 6.7 6.5 20.8 15.5 29 16.5 2.6-1.2 4.8-2.9 7.4-4.3l-.7-2.9c-1.2.7-2.2 1.4-3.3 2.2-4.3 2.2-8.3 1.2-12.2-.7z"/><path class="st13" d="M650.2 613.9c.2-.2.7-.5 1-.7v.2c.5 1.2 1.2 2.4 1 3.8-.9.6-1.7 1.3-2.4 2.2 1.9 0 3.8-.7 5.3-1.9 1.4-.5 3.1-.7 4.3-1.9 2.2.2 4.8-.5 5.3-3.1 0-.8-.2-1.6-.5-2.4-.3-1.3-.7-2.5-1.4-3.6-.5-1-1.2-1.9-1.9-3.1-1.9.2-6.5 1.4-8.8 1.9h-.5c-1.1 0-2.1.2-3.1.7-2 .7-3.8 2-5.3 3.6-.6.7-1.2 1.4-1.7 2.2.5.5 1.2.7 1.7 1.2 1.7.8 3.6 1.2 5.5 1.2.4-.2 1-.2 1.5-.3z"/><path class="st20" d="M649.5 713.5c-1.7.9-3.5 1.7-5.3 2.4v10.3l10.3-6c-1.7-1.9-3.3-4.1-4.8-6 0-.5 0-.7-.2-.7z"/><path class="st40" d="M658.1 765.4c.1-.1.3-.2.5-.2s.5 0 .5.2c.2 0 .2.2.5.2l1.7-2.4 1.7-2.4-8.4-4.8 1.7 4.1 1.8 5.3z"/><path class="st10" d="M647.1 473.4l.2-.2c6.5-3.3 13.6-5.7 20.3-8.6v-1c-1.4-5.8-8.1-10.5-13.6-11.3-4.3-.5-7.2-1-11 .5-4.5 1.7-8.8 7.2-9.8 12.2-.3 2.4-.4 4.8-.2 7.2.2 0 .5.2.7.2 3.1 1.2 8.6.7 12 1.7.5-.2 1-.4 1.4-.7z"/><path class="st20" d="M655.5 510.3c-.5-2.4-1.6-4.5-3.3-6.2-.4 0-.8 0-1.2-.2v.7c1.6 8.8 1 17.8-1.7 26.3 2.6-.2 5.5-.2 8.1-.2 3.3-9.6 8.9-24.9.5-32.8.6.8 1.1 1.7 1.4 2.6.7 3.6-1.9 6.7-3.8 9.8z"/><path d="M640.9 745.6l12.2 6.9 2.9 1.7 8.1 4.8h.2l2.4 1.4 97.2 56.2 1.7 1c.1 0 .2.1.2.2 2.8 1.6 5.9 2.6 9.1 3.1h.7c7.2 1.2 15.3 0 21.1-3.3l62-35.7c3.6-2.2 5.8-4.8 6.2-7.7 0-.5.2-1 .2-1.4 0-3.1-2.2-6.5-6.5-8.8l-124.7-72c-6.2-3.6-15.6-4.5-23.5-2.9-2.7.7-5.2 1.6-7.7 2.9l-48.1 28-10.3 6-1.7 1-1.4 1c-.2 0-.4.1-.5.2-.1 0-.2.1-.2.2-.1 0-.2.1-.2.2-3.3 2.2-5.3 5-5.3 7.9v.7c0 .4.1.8.2 1.2-.1 2.4 2.1 5.3 5.7 7.2z" fill="#d7dddb"/><path class="st7" d="M620.1 590.2c-1.2 29-3.8 132.6-4.1 142.2 1-.6 2-1.2 2.9-1.9l.5-.5c1-15.8 3.8-59.8 5.7-95.3 1.2-18.7 2.2-35.2 2.4-44-2.5.2-5 .1-7.4-.5z"/><path class="st11" d="M621.3 570.4c-7.3-13.9-12.5-28.8-15.3-44.3h-.5c-2.9 14.8-4.6 32.8-6.5 46.7 6.9 5.8 17.5 8.1 26.8 8.1-1.7-3.6-3.3-7.2-4.5-10.5z"/><path class="st7" d="M645.2 666.1c-.2 5.3-.5 10.3-.7 15.6l6.9-4.1c.2-5 .2-10 .2-15.1l-6.4 3.6z"/><path class="st21" d="M775.9 837.7c.8-1.2 1.2-2.6 1.2-4.1-.1-2.8-.9-5.5-2.4-7.9-.3-.6-.7-1.2-1.2-1.7l-1.9 2.6c.2.2.2.5.5.7.7 1.3 1.1 2.8 1.2 4.3 0 1.9-1 3.1-2.4 3.1-.7-.1-1.3-.2-1.9-.5-.7-.5-1.3-1.1-1.9-1.7-1-1-1.7-2.2-1.9-3.6-.3-.8-.4-1.6-.5-2.4 0-1.7.7-2.9 1.9-3.1l-1.2-3.4-1-.5-.7-.5c-1.4.7-2.4 2.6-2.4 5.3 0 5 3.6 11.3 7.9 13.9 1.1.7 2.3 1.1 3.6 1.2.7 0 1.5-.2 2.2-.5l.2-.2c.2-.2.4-.5.7-1z"/><path class="st20" d="M662.2 550.7c1.4 8.4 5 17 7.4 25.1 1.4 5 2.4 9.8 4.6 13.9 1-3.8 7.4-9.3 11.7-8.9-.9-5-1.7-10.3-2.6-15.3-1.2-5.7-4.1-10.3-6.7-15.1-1.4-7.4-2.4-14.4-3.3-22-.5-4.5-1.7-9.1-2.4-13.9-3.8 10-6.5 20.3-10.8 30.4.3 2.1 1.1 4.1 2.1 5.8z"/><path class="st19" d="M639 717.3c.5 0 1-.2 1.4-.2v-83.8c.1-4.3 1.5-8.6 3.8-12.2-.2-2.9-.2-5.5-.5-8.4-.6-.3-1.2-.7-1.7-1.2-.2-.2-.7-.5-1-1-1.2-1.5-2.2-3.1-3.1-4.8-2.2-3.6-4.2-7.4-6-11.3-.5-1.2-1-2.3-1.7-3.3h-2.9c-.5 8.9-1.4 25.4-2.4 44 1.4 20.1 3.8 48.1 4.6 63.4.2 4.3 1.2 13.7 1.4 18l-.2.2c.2 0 .5.2.7.2 2.3.9 5.1.7 7.6.4z"/><path class="st46" d="M641.8 488.5c-1.4-.6-2.4-1.9-2.6-3.3-.2-1.4 0-4.8 1.7-5.8 1-.5 1.7-.5 2.2.5h.2c.5 1.5.9 3 1.2 4.5 1.4 0 3.1-.2 4.3.2-1-3.4-1.4-7-1.4-10.5l-.2-.5c-.6.3-1.1.6-1.7 1-3.3-.7-8.6-.5-12-1.7-.1 2.7.1 5.3.7 7.9.7 3.1 3.3 9.3 6.7 10.8.2-1.2.7-2.1.9-3.1z"/><path class="st40" d="M768.4 828.4c.1-.1.3-.2.5-.2s.5 0 .5.2c.2 0 .2.2.5.2l1.7-2.4 1.9-2.6.2-.5c-.2 0-.5-.2-.7-.2-2.5-.6-5-1.5-7.2-2.9l-.5-.2 1.2 3.3 1.9 5.3z"/><path class="st27" d="M647.8 583.1c-.2-1.3-.3-2.5-.2-3.8-1.4.3-2.9.4-4.3.5 1.7 3.8 3.3 7.9 4.8 11.7 0-2.9 0-5.6-.3-8.4z"/><path class="st22" d="M664.5 775.5l2.2-1.2c-.4.2-.8.3-1.2.2-.2.5-.7.8-1 1zm110.4 63.2l2.2-1.2c-.2.2-.7.2-1.2.2-.2.5-.6.8-1 1z"/><path class="st44" d="M771.5 826.5l-1.7 2.4.2.2 1.5-2.6 1.9-2.4.5-.5h-.2l-.2.5-2 2.4z"/><path class="st10" d="M660.3 767.6c0 .5-.2 1-.7 1-.2 0-.5 0-.5-.2-.8-.5-1.3-1.3-1.4-2.2 0-.5 0-.7.2-.7l-1.9-5c-1.2.2-1.9 1.4-1.9 3.1 0 .8.2 1.6.5 2.4.5 1.3 1.2 2.5 2.2 3.6.5.7 1.1 1.2 1.9 1.4.6.4 1.2.5 1.9.5 1.4 0 2.4-1.2 2.4-3.1-.1-1.5-.5-3-1.2-4.3-.2-.2-.2-.5-.5-.7l-1.7 2.4c.4.5.6 1.1.7 1.8z"/><path class="st13" d="M655.7 497.6c.7 0 1.5 0 2.2-.2 2.4-.5 4.6-1.9 6.7-4.5 4.1-4.5 4.6-10.1 4.1-15.6-6.2-.1-12.4-1.1-18.4-2.9-2 5-.1 20.8 5.4 23.2z"/><path class="st17" d="M649.7 503.6c.5 0 .7.2 1.2.2s.7.2 1.2.2c2 .3 4-.3 5.5-1.7.5-.6.8-1.2 1-1.9h.2c-.3-1-.8-1.9-1.4-2.6.2 0 .2 0 .5.2l.2-.5c-.7.2-1.4.3-2.2.2-4.6 0-8.9-3.1-11.7-8.4-.7 0-1.5-.2-2.2-.5-.5 1-.7 1.9-1.2 3.1-.7 1.7-1.2 3.3-1.9 5 .1 1.4 5.6 5.5 10.8 6.7z"/><path class="st13" d="M678 592.4l-.2.2c-.3.4-.5.8-.7 1.2-.6 1.6-.8 3.3-.7 5l7.9-4.5c.5.2.9.2 1.4.7v3.1l-3.1 1.7c5 2.6 10.5-3.1 14.1-6.5 0-.5-.2-1.2-.2-1.7-.2-1.3-.5-2.6-.9-3.8-.2-.8-.6-1.6-1.2-2.2-1.7-.7-5.3 1-6.9 1.4v-.5c0-.2-.2-.7-.2-1-3.8-.5-7.2 5-9.3 6.9z"/><path class="st19" d="M644.2 666.6v15.1l.2-.2c.2-5 .5-10.3.7-15.6l-.9.7z"/><path class="st20" d="M616 732.7c-3.5 1.7-7.4 2.6-11.3 2.6.4 2.9.6 5.7.5 8.6 2.5 1.9 5 3.6 7.7 5.3 2.2 1.2 4.1 2.4 6 3.6v-.2c1.7-4.1 4.1-7.4 7.7-8.9-3.1-3.3-5.3-8.6-7.4-12-.2-.2-.2-.5-.5-.7-.8.5-1.7.9-2.7 1.7z"/><path class="st27" d="M627.5 591h2.9c-1.4-3.1-3.1-6.7-4.8-10.3-9.3 0-19.9-2.6-26.8-8.1-.5 3.1-1 6.2-1.4 8.9 5.3 5 14.1 7.7 22.5 8.8 2.4.4 5 .6 7.6.7z"/><path class="st30" d="M650.5 474.4c6 1.8 12.2 2.7 18.4 2.9 1 0 2.1 0 3.1-.2 11.7-1.2 7.2-11.5-3.6-12.7-.2 0-.5.2-.7.2-6.7 2.9-13.9 5.3-20.3 8.6.9.5 1.9.7 3.1 1.2z"/><path class="st43" d="M773.5 824.1c.5.5.7 1.2 1.2 1.7 1.4 2.4 2.3 5.1 2.4 7.9 0 1.4-.4 2.9-1.2 4.1.5 0 .7-.2 1.2-.2l.7-.5c1.3-1.2 2-3 1.9-4.8-.1-2.8-.9-5.5-2.4-7.9 0-.1-.1-.2-.2-.2-1.1 0-2.3-.2-3.3-.5l-.3.4z"/><path class="st7" d="M649.7 619.4c-2.5 2.8-4.2 6.2-5 9.8.5 12.2.7 23.9.7 32.3l6.5-3.6c0-2.6 0-5.3-.2-7.9-.8-10.7-1.5-20.7-2-30.6z"/><path class="st21" d="M665.5 774.5c.8-1.2 1.2-2.6 1.2-4.1-.1-2.8-1-5.5-2.4-7.9-.2-.5-.5-.7-.7-1.2l-.7-.5-1.7 2.4c.2.2.2.5.5.7.7 1.3 1.1 2.8 1.2 4.3 0 1.9-1 3.1-2.4 3.1-.7-.1-1.3-.2-1.9-.5-.7-.5-1.2-1-1.9-1.4-1-1-1.7-2.2-2.2-3.6-.3-.8-.4-1.6-.5-2.4-.1-1.4.6-2.6 1.9-3.1l-1.7-4.1-.2-.2-.5-.2c-1.9.5-3.1 2.6-3.1 5.5 0 5 3.6 11.3 7.9 13.9 1.1.7 2.3 1.1 3.6 1.2.7 0 1.5-.2 2.2-.5.1 0 .2-.1.2-.2.5-.4 1-.7 1.2-1.2z"/><path class="st10" d="M770.8 830.8c0 .7-.2 1-.7 1-.2 0-.5 0-.5-.2-.8-.5-1.3-1.3-1.4-2.2 0-.3.1-.5.2-.7l-1.9-5c-1.2.2-1.9 1.4-1.9 3.1 0 .8.2 1.6.5 2.4.5 1.2 1.2 2.4 1.9 3.6.5.7 1.2 1.3 1.9 1.7.6.4 1.2.5 1.9.5 1.4 0 2.4-1.2 2.4-3.1-.1-1.5-.5-3-1.2-4.3-.2-.2-.2-.5-.5-.7l-1.7 2.4c.8.8 1 1.3 1 1.5z"/><path class="st11" d="M616 732.7c.2-9.6 2.9-113.2 4.1-142.2-8.6-1.2-17.2-3.8-22.5-8.8-2.2 12.4-2.6 28-3.6 40.7-.7 12.2-2.2 23.7-1.4 36.1 1.2 22.7 1.4 44.5 5.3 66.8 0 .5 1 7.2 1 8.1 0 .2 0 .2-.2.5 1.9 1 4.1 1.5 6.2 1.7 3.8-.3 7.6-1.3 11.1-2.9z"/><path class="st10" d="M664.5 609.9l18-10.3 3.1-1.7v-3.1l-1.4-.7-7.9 4.5-13.2 7.7 1.4 3.6z"/><path class="st7" d="M649.5 614.7v-.7c-1.9 0-3.8-.4-5.5-1.2.2 2.6.2 5.5.5 8.4 1.1-2.6 2.9-4.8 5-6.5z"/><path class="st16" d="M650.5 474.4c-1-.2-2.2-.7-3.1-1-.1 0-.2.1-.2.2l.2.5c-.1 3.6.4 7.1 1.4 10.5-1.4-.3-2.9-.4-4.3-.2-.3-1.5-.7-3.1-1.2-4.5h-.3c-.2-1-1.2-1-2.2-.5-1.7 1-1.9 4.3-1.7 5.8.4 1.4 1.3 2.7 2.6 3.3.7.3 1.4.4 2.2.5 2.9 5.5 7.2 8.6 11.7 8.4-5.4-2.2-7.3-18-5.1-23z"/><path class="st15" d="M655.5 510.3c1.9-2.9 4.6-6 3.3-9.8h-.2c-.3.7-.6 1.3-1 1.9-1.2 1.4-3.1 1.9-5.5 1.7 1.7 1.7 2.9 3.8 3.4 6.2z"/><path class="st10" d="M604.7 743.4c.2 0 .2.2.5.2 0-2.9-.2-5.7-.5-8.6-2.2.1-4.4-.5-6.2-1.7-.4 1.1-.6 2.2-.7 3.3 1.2 2.8 5.5 5.6 6.9 6.8z"/><path class="st26" d="M768.2 829.4c0 .9.6 1.8 1.4 2.2.1.1.3.2.5.2.5 0 .7-.2.7-1 0-.5 0-.7-.7-1.7l-.2-.2c-.2-.2-.2-.2-.5-.2-.1-.1-.3-.2-.5-.2s-.2 0-.5.2c-.2-.1-.2.2-.2.7z"/><path class="st10" d="M618.9 752.3c3.8 2.2 7.7 3.1 12.4.7 1.2-.5 2.3-1.3 3.3-2.2-.5-1.7-1.2-3.3-4.3-4.8-.1 0-.2-.1-.2-.2-1.3-.7-2.4-1.7-3.3-2.9-4.1 2-6.3 5.3-7.9 9.4z"/><path class="st26" d="M659.1 768.3c.1.1.3.2.5.2.5 0 .7-.2.7-1 0-.5 0-.7-.7-1.7l-.2-.2c-.2-.2-.2-.2-.5-.2-.1-.1-.3-.2-.5-.2s-.2 0-.5.2c-.2.2-.3.5-.2.7 0 1 .6 1.8 1.4 2.2z"/><path class="st20" d="M639 717.3c.7 2.7 1 5.4 1 8.1.2 0 .2.2.5.2V717c-.6 0-1.1.1-1.5.3z"/><path class="st10" d="M640.2 725.5c0-2.7-.3-5.5-1-8.1-2.5.5-5.2.4-7.7-.2l-.7 2.2c1.7 1.7 4.1 2.9 6 4.1 1.2.5 2.2 1.3 3.4 2z"/><path class="st22" d="M667.4 773.9l-.7.5c.3-.1.5-.3.7-.5z"/><path class="st15" d="M673.9 589.8c.7 1.6 1.8 2.9 3.1 4.1.2-.5.5-.7.7-1.2l.2-.2c2.2-1.9 5.5-7.2 8.9-6.5-.5-1.6-.9-3.3-1.2-5-4.3-.6-10.5 4.7-11.7 8.8z"/><path class="st47" d="M705.7 718.8l-13.9-8.1v37.8l13.9 8.1v-37.8z"/><path class="st36" d="M705.7 718.8c14.1-8.1 42.4-24.4 51-29.4l-13.9-8.1-21.6 12.7-5 2.9L692 711l13.7 7.8z"/><path class="st30" d="M713.9 723.3l-7.9-4.5v37.8l7.9 4.5v-37.8z"/><path class="st10" d="M713.9 723.3c13.4-7.7 41.2-23.9 51-29.5l-7.9-4.5c-8.6 5-36.8 21.3-51 29.7l7.9 4.3z"/><path class="st47" d="M713.9 723.3v37.8l14.8 8.6v-37.8l-14.8-8.6z"/><path class="st36" d="M713.9 723.3l15.1 8.6 24.2-14.1 5-2.9 21.5-12.5-15.1-8.6c-9.6 5.6-37.3 21.9-50.7 29.5z"/><path class="st48" d="M729 731.9l-.2 37.8 24.4-14.1 5-2.9 21.5-12.7v-37.6l-21.5 12.5-5 2.9-24.2 14.1z"/><path class="st47" d="M747.9 745.8l-13.9-8.1v37.8l13.9 8.1v-37.8z"/><path class="st36" d="M747.9 745.8c14.1-8.1 42.4-24.4 51-29.4l-13.9-8.1-21.5 12.7-5 2.9-24.2 14.1 13.6 7.8z"/><path class="st30" d="M756 750.4l-7.9-4.5v37.8l7.9 4.5v-37.8z"/><path class="st10" d="M756 750.4c13.4-7.7 41.2-23.9 51-29.4l-7.9-4.5c-8.6 5-36.8 21.3-51 29.7l7.9 4.2z"/><path class="st47" d="M756 750.4v37.8l14.8 8.6V759l-14.8-8.6z"/><path class="st36" d="M756 750.4l15.1 8.6 24.2-14.1 5-2.9 21.5-12.5-15.1-8.6c-9.5 5.5-37.3 21.8-50.7 29.5z"/><path class="st48" d="M770.8 759v37.8l24.4-14.1 5-2.9 21.5-12.7v-37.6L800.2 742l-5 2.9-24.4 14.1z"/><path class="st47" d="M731.1 695.8v-.2l-13.9-7.9v37.8l13.9 7.9v-37.6z"/><path class="st36" d="M731.1 695.6c14.1-8.1 42.4-24.4 51-29.4l-13.9-8.1-21.5 12.7-5 2.9-24.2 14.1 13.6 7.8z"/><path class="st30" d="M739.2 700.3l-7.9-4.5v37.8l7.9 4.5v-37.8z"/><path class="st10" d="M739.2 700.3c13.4-7.7 41.2-23.9 51-29.4l-7.9-4.5c-8.6 5-36.9 21.3-51 29.7l7.9 4.2z"/><path class="st47" d="M739.2 700.3v37.8l14.8 8.6V709l-14.8-8.7z"/><path class="st36" d="M739.2 700.3l15.1 8.6 24.2-14.1 5-2.9 21.5-12.7-15.1-8.6c-9.5 5.8-37.3 22.1-50.7 29.7z"/><path class="st48" d="M754.1 709v37.8l24.5-14.1 5-3.1 21.5-12.5v-37.6L783.5 692l-5 2.9-24.4 14.1z"/><path class="st6" d="M537.5 378.4l-15.1 9.8 12.5 4.1 2.9 1 14.8 4.8 16.8-1.7 6.5-.7c.7.3 1.4.4 2.2.5-6.5 3.6-12.7 6.9-18.7 10.5-9.1 5.3-16.8 12-24.4 17.5h-.2c-3.3.7-7.2 1.4-10.8 1.9h.2c-4.5 0-.2 4.3 1.2 4.8 4.1.2 19.4-3.1 22.5-3.6.4-.2.7-.4 1-.7.2-.2.2-.2.2-.5 1.9-1.2 6.7-3.6 8.6-4.5 7.2-4.1 17.9-8.9 24.2-13.2-2.6 3-4.8 6.2-6.7 9.6-2.9 4.8-16.8 34.7-8.9 33 17.7-5.7 34.9-32.3 42.1-38.5 4.1-3.4 6.7-6.9 9.3-10.3 1.9-2.9 6.7-7.2 10.3-10.5l.7-.7c1-.5 2.2-1 3.3-1.4 7-2.9 15.6-6.5 23-9.8 4.3-1.8 8.4-3.9 12.4-6.2.2-.7-.1-1.4-.7-1.7-1.6-1.1-3.4-1.9-5.3-2.4l-5-1.4c-1-.2-1.9-.5-2.6-.7 1-.7 1.9-1.2 3.1-1.9.2 0 .2-.2.5-.2h.7c3.8-.2 7.9-1.9 10-2.6 1.4-.6 2.8-1.3 4.1-2.2h1c1-.5 2-1.2 2.9-1.9 1.2-1.4-.7-2.9-4.3-3.4-3.1-.5-6-.2-10.3-.2-5.5.2-14.4 1.7-18.2 3.1-10.3.2-18.7 2.9-8.4 3.4h2.5c-2.6 1.4-4.8 2.9-2.9 4.1.2.2.2.2.5.2-7.7 0-11.7.7-14.8 2.4-.2 0-.7.2-1 .2-12 2.6-25.6 4.3-37.3 6.7l-4.1-1.2-15.6 1.9-8.6 1-16.1 1.6zm63.9 1.7l-6.5-1.7-3.3-1-1-.2c6-1 13.6-1.9 18.7-3.1-3.1 1.9-5.7 3.6-7.4 5.5l-.5.5z"/><path class="st47" d="M533.4 284.9c0 2.4 0 5-.2 7.4.8.7 1.6 1.3 2.4 1.9l-2.2-9.3z"/><path class="st15" d="M537.7 306.9c1 1.4 3.3 2.9 5.8 3.6V305c-1.3-.8-2.4-2-3.1-3.4-.8 1.8-1.6 3.6-2.7 5.3z"/><path class="st20" d="M541.1 223.1c-5.3 6.5-6 16.8-6 24.9 2.1.7 4.2 1.6 6.2 2.6.1-7.5 2.3-14.9 6.2-21.3v-.5c-.2 0-.7-.2-1-.2-1.8.9-3.4 2.2-4.5 3.8-.7-3.4-3.1-5.8-.5-9.1-.1-.1-.3-.2-.4-.2z"/><path class="st47" d="M523.9 288.4l-13.4 7.7v33.8l13.4-7.7v-33.8z"/><path class="st48" d="M464.5 269.5l.2 34 19.4 11.3 4.3 2.6 22 12.7-.2-34-21.8-12.5v-.2l-4.3-2.4-19.6-11.5z"/><path class="st10" d="M542.3 298.2c-.5 1.2-1.2 2.4-1.9 3.6.5 1.2 1.7 2.2 3.1 3.4V299c-.5-.3-.7-.5-1.2-.8z"/><path class="st42" d="M525.5 430.9c4.1-.5 9.8-3.4 15.1-6.7 0-1 0-1.9.2-2.9-1.7 1-3.1 1.9-4.8 2.9-1.7.7-2.9 1.4-4.3 2.2-3.1 1.4-6 1.7-9.8-1-.6-.5-1.2-.9-1.9-1.2l-.7 2.9c1.9 1.1 4.1 2.5 6.2 3.8z"/><path class="st15" d="M559 226.4c-.5 1.4-6 2.9-10.5 2.4.5 2.9 1.2 5.5 1.9 8.4 4.1-2.9 9.3-4.3 11.7-8.9-.9-.7-1.9-1.4-3.1-1.9z"/><path class="st13" d="M537.7 306.9c-1.2-.2-3.3-.7-5-1.2 0 1.4-.2 2.6-.2 4.1.7.7 1.5 1.4 2.4 1.9-1.4 2.4-1.2 3.4-2.4 5.5l11-6.5v-.2c-2.2-.7-4.2-2-5.8-3.6z"/><path class="st27" d="M543.5 290.6v5c.7-1.4 1.4-2.8 1.9-4.3-.7-.2-1.3-.4-1.9-.7z"/><path class="st20" d="M538.2 413.6c-1.4-.5-4.1-1.2-5.5-2.4 0 .2-.2.2-.2.5-1.9 3-4.4 5.7-7.2 7.9.2 0 .2.2.5.2 2.9 1.4 5.5 3.6 6 6.5 1.4-.5 2.6-1.4 4.3-2.2 1.7-1 3.3-1.9 4.8-2.9 0-2.3.2-4.7.7-6.9-1.2-.2-2.2-.5-3.1-.7h-.3z"/><path class="st13" d="M531 318.1l-2.2 1.2 2.9 1.4c0-1.2.2-2.1.2-3.1l-.9.5z"/><path class="st10" d="M525.5 419.8c-4.1 1.4-5.3 2.6-5.8 4.3.7.5 1.2.7 1.9 1.2 3.8 2.6 6.7 2.4 9.8 1-.4-2.9-3-5-5.9-6.5z"/><path class="st13" d="M532 317.6c0 1-.2 2.1-.2 3.1 1.6.7 3.3 1.4 5 1.9 1.2.3 2.4.4 3.6.5h.7c1.3-1.7 2.3-3.5 3.1-5.5.7-1.4 1.4-3.4 2.6-6.2-1.1-.3-2.3-.6-3.3-1v.2l-11 6.5-.5.5z"/><path class="st7" d="M560.7 360.5c-4.1-16-11.3-34.2-11.3-51-.8.7-1.7 1.4-2.6 1.9-1.2 2.9-1.9 4.5-2.6 6.2h.2c2.6 12 5.3 25.1 8.1 38.3 2.2 9.8 4.6 19.4 7.2 28.5 4.1 14.1 5.5 27.8 8.8 41.9.2 0 .2.2.5.2 1.7.8 3.4 1.4 5.3 1.7.1-.5.2-1 .2-1.4.5-10-3.8-22.3-6-32.3-2-11.5-4.7-22.6-7.8-34z"/><path class="st27" d="M569.1 300.9c.2 0 .5-.2.7-.2 0-.7-.2-1.4-.2-1.9-.3.6-.5 1.3-.5 2.1z"/><path class="st47" d="M531 290.3v15.3c.6 0 1.1.1 1.7.2.2-4.5.5-9.1.7-13.4-.9-.9-1.6-1.4-2.4-2.1z"/><path class="st10" d="M542.3 298.2c.5.2.7.5 1.2.7v-3.1c-.5.8-.7 1.7-1.2 2.4zm5.2-68.9c-3.7 6.5-5.8 13.8-6.2 21.3 3.6 1.4 7.2 3.1 10.5 4.8.2-1 .2-1.7.5-2.6 4.6-5.5 6.5-19.9 16-20.3-2.2-1.4-4.1-2.9-6.2-4.3-2.6 4.5-7.9 6-11.7 8.9-.5-2.9-1.4-5.5-1.9-8.4-.4 0-.7 0-1-.2v.8z"/><path class="st13" d="M531 305.6v2.4c.5.7 1 1.2 1.4 1.9 0-1.4.2-2.6.2-4.1-.6-.2-1.3-.4-1.6-.2zm10.5-82.3c.3.3.6.4 1 .5 1.2.7 2.5 1 3.8 1 4.8-1.9 6.5-15.1 4.5-19.4-5.1 1.5-10.3 2.3-15.5 2.4-.5 4.8-.2 9.1 3.3 13.2.2.5.7.7 1 1 .3.4.7.7 1.2 1 .3 0 .5.1.7.3z"/><path class="st42" d="M548.7 415.7c-1.4 1.7-3.6 2.6-5.5 4.1-1 .5-1.7 1.2-2.6 1.7 0 1 0 1.9-.2 2.9 3-1.9 5.9-4.1 8.6-6.5 0-.7-.1-1.5-.3-2.2z"/><path class="st36" d="M533.4 282.7l10.1-5.7-13.2-7.7c.7 4.6 1.7 9.1 2.9 13.6l.2-.2z"/><path class="st47" d="M532.9 282.9c.1.4.1.8.2 1.2v-1.7l-.2.5z"/><path class="st46" d="M559.8 219.5c2.9-1.2 4.1-6 4.8-8.6.4-2.2.5-4.5.5-6.7-2.9 1-9.1.2-11.5.5h-.2v.5c.1 3-.3 6-1.2 8.9 1.3-.2 2.5-.3 3.8-.2.1-1.3.4-2.6 1-3.8.1-.5.7-.9 1.2-.7.2 0 .3.1.5.3 1.4.7 1.7 3.6 1.4 4.8-.3 1-.9 1.8-1.7 2.4l.2.2c.2.7.3 1.4.2 2.1l1 .3z"/><path class="st27" d="M555.9 301.6l.2.2c4.3 0 9.1.2 12.7-1 0-.7.2-1.5.5-2.1-.3-1.4-.4-2.9-.5-4.3-2.9.5-5.5 0-8.8.2-1.5 2.4-2.6 4.6-4.1 7z"/><path class="st36" d="M485.3 257.8c7.9 4.5 33 19.1 45.7 26.6l1.4-.7.7-.5c-.9-4.5-1.9-9.1-2.9-13.6l-8.6-5-4.5-2.6-1.2-.7-12.2-7.2-5.8-3.4-12.6 7.1z"/><path class="st10" d="M536.1 197c.2 0 .2.2.5.2v-.2h-.5z"/><path class="st47" d="M531 284.3v6h.2l2.2 2.2c0-2.4.2-5 .2-7.4v-.5l-1-1-1.6.7z"/><path class="st15" d="M541.5 223.3c-2.6 3.1-.2 5.5.5 9.1 1-1.4 2.6-3.4 4.6-3.8-1.6-.4-3-1.4-3.8-2.9-.2-.5-.3-1.1-.2-1.7-.4-.3-.7-.5-1.1-.7z"/><path class="st7" d="M532.5 411.2c1.4 1.2 4.3 1.9 5.5 2.4-.2-14.1-1.4-28-1.9-42.4-.5-16 .2-32.3.5-48.4-1.7-.5-3.4-1.2-5-1.9-.7 11.5-1.7 22.7-2.2 34.2-.7 17.5 1.9 38.5 2.9 56l.2.1z"/><path class="st16" d="M553.8 205.1v-.5h.2c-.7.2-1.7.5-2.6.7 1.7 4.3 0 17.5-4.5 19.4 3.8 0 7.4-2.6 9.8-7.2.8 0 1.5-.2 2.2-.7 1-.7 1.7-1.4 1.7-2.4.2-1.2 0-4.1-1.4-4.8-.4-.4-1-.4-1.4 0-.1.1-.2.3-.3.5-.2 1.2-.7 2.6-1 3.8-1.3 0-2.6 0-3.8.2.6-2.9 1-5.9 1.1-9z"/><path class="st30" d="M523.9 288.4v34l5-2.9 2.2-1.2V308c-.5-1-1-1.7-.5-2.1.1-.1.3-.2.5-.2v-21.3l-7.2 4z"/><path class="st10" d="M581.3 428.4c0 2.4.2 4.8.7 7.2l.2-.2c1.9-1.9 3.6-4 5-6.2-.3-.9-.7-1.8-1.2-2.6-1.3 1-3 1.6-4.7 1.8z"/><path class="st47" d="M532.5 283.4l1 1c-.1-.4-.1-.8-.2-1.2l-.8.2z"/><path class="st47" d="M533.4 284.3v.5l2.2 9.3c2.1 1.6 4.3 2.9 6.7 4.1.5-1 .7-1.7 1.2-2.6v-5c-3.8-1.4-7.2-3.5-10.1-6.3z"/><path class="st10" d="M541.3 414.6c-.6 2.3-.9 4.6-.7 6.9 1-.5 1.7-1.2 2.6-1.7 2-1.1 3.9-2.5 5.5-4.1-.1-.6-.2-1.1-.5-1.7-2.2.7-4.6.9-6.9.6z"/><path class="st42" d="M587.3 428.9c-1 2.1-4.1 5-5 6.2l-.2.2c-1.7 1.9-3.6 3.6-5.5 5.3-1.4 1.2-2.9 2.6-4.6 3.8-2.9 2.1-6 3.6-10.3 2.4-1.1-.3-2.1-.7-3.1-1.2v2.4c2.4.7 4.6 1.9 6.9 2.6 6.7-2.1 17-11.5 21.5-18 .5-1.7.8-2.5.3-3.7z"/><path class="st27" d="M568.8 294.4c.3 1.4.5 2.9.5 4.3.2-1.5.6-3.1 1-4.5-.5 0-1 .2-1.5.2z"/><path class="st15" d="M543.5 305.2v5.5c1.1.4 2.2.7 3.4 1 .9-.6 1.8-1.2 2.6-1.9v-1.5c-1.7-1-4.1-1.9-6-3.1zm6.2 2.8v1.4c.5-.5.9-.7 1.2-1.2-.4 0-.8-.1-1.2-.2z"/><path class="st20" d="M503.5 253.9l12.2 7.2c4.3-3.6 10.1-6.7 12.9-11.3 0-6.5.5-12.9.2-19.4-7.1 8.7-17.4 15.2-25.3 23.5z"/><path class="st47" d="M532 317.6l.5-.2c1.2-2.1 1-3.1 2.4-5.5-.9-.5-1.7-1.2-2.4-1.9-.3 2.3-.5 5-.5 7.6z"/><path class="st30" d="M535.5 207.8c5.3-.1 10.5-.9 15.6-2.4 1-.2 1.7-.5 2.6-.7-5.5-2.9-11.5-4.8-17.2-7.4-.1 3.4-.4 7-1 10.5z"/><path class="st10" d="M485.3 257.8l-7.2 4.1c8.9 5 33.7 19.6 45.7 26.6l7.2-4.1c-12.6-7.5-38-22.1-45.7-26.6z"/><path class="st11" d="M569.1 300.9c-3.6 1.2-8.6 1-12.7 1l-.2-.2c-1.4 2.5-3.2 4.7-5.3 6.7l-1.2 1.2c0 16.5 6.9 35 11.3 51 2.9 11.5 5.5 22.7 7.9 34.5 2.2 10 6.2 22.3 6 32.3 0 .5-.1 1-.2 1.4 2.4.5 4.8.5 7.2 0 1.8-.4 3.5-1.1 5-2.1 0-.1-.1-.2-.2-.2 0-1-.2-6.5-.2-7 0-18.9-2.9-37.1-5.3-56-1.2-10.3-3.3-20.4-5.5-30.4-2.2-8.6-3.8-21.8-5.3-31.8-.5-.5-.9-.6-1.3-.4z"/><path class="st47" d="M540.4 301.8c.7-1.2 1.2-2.4 1.9-3.6-2.3-1.2-4.6-2.6-6.7-4.1-.7-.7-1.7-1.2-2.4-1.9-.2 4.5-.2 8.9-.7 13.4 1.7.2 3.8 1 5 1.2 1.1-1.5 2.1-3.2 2.9-5zm-7-19.1v1.7c2.9 2.7 6.3 4.8 10.1 6.2V277l-10.1 5.7z"/><path class="st10" d="M549.7 308c.4.2.8.3 1.2.2 2.1-2 3.9-4.2 5.3-6.7 1.4-2.1 2.6-4.5 4.1-6.9.6-1 1.2-2 1.9-2.9 4.8-7.4 11.5-19.6 14.8-28.3 1.2-6.2 1.9-12.6 2.2-18.9-.6-1.9-1.6-3.7-2.9-5.3-4.5.2-11 9.8-12.9 12.9-2.6 4.5-4.8 10-6.9 14.8-3.8 8.1-6.9 16-10.5 24.2-.7 1.4-1.2 2.9-1.9 4.3v9.3c1.5 1.6 3.5 2.7 5.6 3.3z"/><path class="st47" d="M531 308v10.3l1-.5c.2-2.6.2-5.3.5-7.9-.5-.7-1.2-1.4-1.5-1.9z"/><path class="st30" d="M530.3 305.6c-.2.8 0 1.5.5 2.2v-2.4c0 .2-.3.2-.5.2z"/><path class="st11" d="M528.6 249.9c0 6 0 12 1.2 18 0 .5.2 1 .2 1.4l13.2 7.7v13.6c.7.2 1.3.4 1.9.7 3.6-8.1 6.7-16 10.5-24.2 2.2-4.8 4.6-10.3 6.9-14.8 1.9-3.4 8.4-12.7 12.9-12.9-2.2-2.6-4.7-4.9-7.4-6.9-9.3.5-11.5 14.6-16 20.3-.2 1-.2 1.7-.5 2.6-3.3-1.7-6.9-3.4-10.5-4.8-2.2-1-4.3-1.7-6.2-2.6 0-8.1.7-18.4 6-24.9-.5-.2-.7-.7-1.2-1-7.2 0-9.6 2.6-10.3 7.7l-.7.7c.4 6.4.4 12.9 0 19.4z"/><path class="st10" d="M561.7 441.4c-2.4 1.7-2.9 3.1-2.9 4.5 1 .5 2 .9 3.1 1.2 4.3 1.2 7.4 0 10.3-2.4v-.2c-1.9-3.1-4.3-5.5-7.7-6.2-.7 1.1-1.7 2.2-2.8 3.1zm-25.2-244.2c5.7 2.4 11.5 4.3 17.2 7.4 2.4-.2 8.6.5 11.5-.5.2 0 .5-.2.7-.2.1-2 .1-4-.2-6-1-4.6-4.1-8.4-8.4-10.3-3.3-1.2-5.8-1-9.3-.5-4.5.5-10.5 5.3-12 9.8h.5v.3z"/><path class="st17" d="M559 226.4v-6.9c0-.7 0-1.5-.2-2.1l-.2-.2c-.6.5-1.4.7-2.2.7-2.6 4.5-6.2 7.2-9.8 7.2-1.3 0-2.7-.3-3.8-1-.1.6 0 1.1.2 1.7.8 1.5 2.2 2.6 3.8 2.9.2 0 .7.2 1 .2.4 0 .7 0 1 .2 4.5.2 9.7-1.2 10.2-2.7z"/><path class="st11" d="M568.8 294.4c.5 0 1-.2 1.4-.5 1.9-9.3 4.6-20.3 6.5-30.6-3.3 8.6-10 20.8-14.8 28.2-.7 1-1.2 1.9-1.9 2.9 2.9.4 5.9.4 8.8 0z"/><path class="st19" d="M548.3 413.9c.2-3.8 1-11.7 1.2-15.1.7-12.9 3.6-29 3.1-42.6-2.9-12.9-5.5-26.1-8.1-38.3h-.2c-.9 1.9-1.9 3.7-3.1 5.5h-.7c-1.2 0-2.4-.2-3.6-.5 0 16-.7 32.3-.5 48.4.2 14.4 1.7 28.5 1.9 42.4h.2c1 .2 1.9.5 3.1.7 2.3.6 4.8.4 7-.5-.3.2-.3 0-.3 0z"/><path class="st20" d="M568.6 427.5c-1.2 3.1-2.4 7.7-4.5 11 3.3.7 5.7 3.1 7.7 6.2v.2c1.4-1.2 2.9-2.4 4.5-3.8 2-1.6 3.8-3.4 5.5-5.3-.5-2.4-.7-4.8-.7-7.2-2.4.5-4.8.5-7.2 0-1.8-.3-3.6-.8-5.3-1.7.2.1.2.3 0 .6z"/><path class="st30" d="M536.1 197c-9.3.5-13.2 9.6-2.9 10.5.9 0 1.8 0 2.6.2.2-3.4 1-6.9 1-10.5-.5 0-.5 0-.7-.2z"/><path class="st36" d="M523.6 288.4c-12-6.9-36.9-21.5-45.7-26.6l-13.4 7.7 19.4 11.3 4.5 2.6 21.8 12.7 13.4-7.7z"/></g></g></svg>