<svg width="1920" height="1316" viewBox="0 0 1920 1316" fill="none" xmlns="http://www.w3.org/2000/svg"><path d="M440 917.5C145.56 982.543 37.5 679 4 558.5V18.5001h1921c0 464.6669-1 1371.2999-1 1292.4999 0-78.8-63-158.5-173-137.5-103.93 19.84-359.42 136.95-565-51.5-210-192.5-535.5-251-746-204.5z" fill="#F9FDFF"/><path d="M436 897.5C141.56 962.542 33.5 659 0 538.5v-540h1921c0 464.667-1 1371.3-1 1292.5 0-78.8-63-158.5-173-137.5-103.93 19.84-359.42 136.95-565-51.5-210-192.5-535.5-251-746-204.5z" fill="#F3F4FF"/></svg>