<svg width="1920" height="1033" viewBox="0 0 1920 1033" fill="none" xmlns="http://www.w3.org/2000/svg"><path d="M467 659.5C172.56 724.542 33.5 264 0 143.5V0h1921v768.5c0 78.8-51.13 264-277.5 264-172.5 0-247.5-120.179-453.5-264-233.584-163.079-512.5-155.5-723-109z" fill="#F3F4FF"/><path d="M467 659.5C172.56 724.542 33.5 264 0 143.5V0h1921v768.5c0 78.8-51.13 264-277.5 264-172.5 0-247.5-120.179-453.5-264-233.584-163.079-512.5-155.5-723-109z" fill="url(#paint0_linear)"/><defs><linearGradient id="paint0_linear" x1="960" y1="215.821" x2="961" y2="897.268" gradientUnits="userSpaceOnUse"><stop stop-color="#fff"/><stop offset="1" stop-color="#fff" stop-opacity="0"/></linearGradient></defs></svg>