<svg width="121" height="116" viewBox="0 0 121 116" fill="none" xmlns="http://www.w3.org/2000/svg">
<g clip-path="url(#clip0)">
<path d="M116.3 75.0999L79.5 56.9C73.2 53.8 63.1 53.8 56.8 56.9L4.69998 84C-1.60002 87.0999 -1.60002 92.2 4.69998 95.3L37.5 112.2C43.8 115.3 57.9 116.7 64.2 113.5L116.4 86.4C122.6 83.3 122.6 78.2999 116.3 75.0999Z" fill="#A7B4B7"/>
<path d="M120.1 27.2L65.7 0L11.3 27.2L11.1 27.5L65.7 54.8L120.3 27.5L120.1 27.2Z" fill="#F2BA82"/>
<path d="M97.3 39.0001L42.5 11.6001L34.2 15.8001L89 43.2001L97.3 39.0001Z" fill="#A06442"/>
<path d="M93.3 41.0001L38.5 13.6001L38.1 13.8001L92.9 41.2001L93.3 41.0001Z" fill="#7C420D"/>
<path d="M65.3 109.4L10.9 82.2V27.8L11.1 27.5L65.7 54.8V109.4H65.3Z" fill="#D78C4B"/>
<path d="M27.4 85.8999L20.1 82.1999V81.3999L27.4 85.0999V85.8999Z" fill="#8C5438"/>
<path d="M23.4999 77.6999L22.0999 75.3999L20.7999 76.3999L21.5999 76.7999V81.6999L22.6999 82.1999V77.2999L23.4999 77.6999Z" fill="#8C5438"/>
<path d="M26.7 79.3L25.4 77L24.1 78L24.9 78.4V83.3L25.9 83.8V78.9L26.7 79.3Z" fill="#8C5438"/>
<path d="M27.2 87.1999L20.4 83.7999C19.3 83.2999 18.4 81.8999 18.4 80.6999V74.0999C18.4 72.9999 19.3 72.4999 20.4 72.9999L27.2 76.3999C28.3 76.8999 29.2 78.2999 29.2 79.4999V86.0999C29.1 87.2999 28.3 87.6999 27.2 87.1999ZM20.4 73.4999C19.6 73.0999 18.9 73.4999 18.9 74.2999V80.9999C18.9 81.8999 19.6 82.8999 20.4 83.3999L27.2 86.7999C28 87.1999 28.7 86.7999 28.7 85.9999V79.3999C28.7 78.4999 28 77.4999 27.2 76.9999L20.4 73.4999Z" fill="#8C5438"/>
<path d="M40.3 93.8L33.5 90.4C32.4 89.9 31.5 88.5 31.5 87.3V80.7C31.5 79.6 32.4 79.1 33.5 79.6L40.3 83C41.4 83.5 42.3 84.9 42.3 86.1V92.7C42.3 93.8 41.4 94.3 40.3 93.8ZM33.5 80.1C32.7 79.7 32 80.1 32 80.9V87.5C32 88.4 32.7 89.4 33.5 89.9L40.3 93.3C41.1 93.7 41.8 93.3 41.8 92.5V85.9C41.8 85 41.1 84 40.3 83.5L33.5 80.1Z" fill="#8C5438"/>
<path d="M38.4 86.0001V83.6001L35.4 82.1001V84.5001C35.4 85.6001 36 86.8001 36.7 87.3001V89.8001C35.9 89.5001 35.5 90.0001 35.5 90.0001L38.4 91.4001C38.4 91.4001 38 90.5001 37.2 90.0001V87.5001C37.9 87.7001 38.4 87.1001 38.4 86.0001Z" fill="#8C5438"/>
<path d="M53.5001 100.4L46.7001 96.9999C45.6001 96.4999 44.7001 95.0999 44.7001 93.8999V87.2999C44.7001 86.1999 45.6001 85.6999 46.7001 86.1999L53.5001 89.5999C54.6001 90.0999 55.5001 91.4999 55.5001 92.6999V99.2999C55.4001 100.4 54.6001 100.9 53.5001 100.4ZM46.7001 86.6999C45.9001 86.2999 45.2001 86.6999 45.2001 87.4999V94.0999C45.2001 94.9999 45.9001 95.9999 46.7001 96.4999L53.5001 99.8999C54.3001 100.3 55.0001 99.8999 55.0001 99.0999V92.4999C55.0001 91.5999 54.3001 90.5999 53.5001 90.0999L46.7001 86.6999Z" fill="#8C5438"/>
<path d="M53.8 94.4999C53.8 92.7999 52.1 90.6999 50.1 89.5999C48 88.5999 46.4 89.0999 46.4 90.6999C46.4 90.6999 46.6 90.2999 47.1 90.5999C47.6 90.8999 47.8 91.4999 47.8 91.4999C47.8 91.4999 48 91.0999 48.6 91.3999C49.1 91.6999 49.4 92.2999 49.4 92.2999C49.4 92.2999 49.6 91.8999 50.1 92.1999C50.6 92.4999 50.9 93.0999 50.9 93.0999C50.9 93.0999 51.2 92.6999 51.6 92.9999C52.1 93.1999 52.3 93.8999 52.3 93.8999C52.3 93.8999 52.5 93.4999 53.1 93.7999C53.6 93.8999 53.8 94.4999 53.8 94.4999Z" fill="#8C5438"/>
<path d="M49.2001 96.9998C48.9001 96.7998 48.6001 96.5998 48.5001 96.2998C48.2001 95.7998 48.2001 95.2998 48.2001 95.2998C48.2001 95.1998 48.3001 95.1998 48.4001 95.1998C48.5001 95.2998 48.6001 95.3998 48.6001 95.4998C48.6001 95.4998 48.6001 95.7998 48.8001 96.0998C48.9001 96.2998 49.0001 96.3998 49.2001 96.4998C49.4001 96.5998 49.5001 96.5998 49.6001 96.5998C49.8001 96.4998 49.8001 96.0998 49.8001 95.9998V88.9998C49.8001 88.8998 49.9001 88.7998 50.0001 88.8998C50.1001 88.9998 50.2001 89.0998 50.2001 89.1998V96.0998C50.2001 96.0998 50.2001 96.7998 49.9001 96.9998C49.7001 97.1998 49.5001 97.1998 49.2001 96.9998Z" fill="#8C5438"/>
<path d="M120.5 82.2L66.1001 109.4H65.7001V54.8L120.3 27.5L120.5 27.8V82.2Z" fill="#ECA763"/>
<path d="M97.3001 39V52.2L89.0001 56.4V43.2L97.3001 39Z" fill="#8C5438"/>
<path d="M112 55.3L95.8001 63.4C94.3001 64.2 93.0001 66 93.0001 67.4V74.7C93.0001 76.1 94.3001 76.7 95.8001 75.9L112 67.8C113.5 67 114.8 65.2 114.8 63.8V56.5C114.8 55.1 113.5 54.6 112 55.3Z" fill="white"/>
<path d="M95.7001 67.1L105.6 62.2V61.5L95.7001 66.4V67.1Z" fill="#8C5438"/>
<path d="M107 61.5L112.2 58.9V58.2L107 60.7999V61.5Z" fill="#8C5438"/>
<path d="M95.7001 69.0999L112.2 60.9V60.2L95.7001 68.4V69.0999Z" fill="#8C5438"/>
<path d="M95.7001 71.0999L99.8001 69.0999V68.3999L95.7001 70.3999V71.0999Z" fill="#8C5438"/>
<path d="M101.6 68.1999L107.6 65.0999V64.3999L101.6 67.4999V68.1999Z" fill="#8C5438"/>
<path d="M109.2 64.3L112.2 62.9V62.2L109.2 63.5999V64.3Z" fill="#8C5438"/>
<path d="M95.7001 73.1L104.9 68.5V67.8L95.7001 72.4V73.1Z" fill="#8C5438"/>
<path d="M106.7 67.6L112.2 64.9V64.2L106.7 66.9V67.6Z" fill="#8C5438"/>
<path d="M112 70.7999L95.8001 78.8999C94.3001 79.6999 93.0001 81.4999 93.0001 82.8999V90.1999C93.0001 91.5999 94.3001 92.1999 95.8001 91.3999L112 83.2999C113.5 82.4999 114.8 80.6999 114.8 79.2999V71.9999C114.8 70.4999 113.5 69.9999 112 70.7999Z" fill="white"/>
<path d="M96.3 89.7L96.8 89.4V80.2L96.3 80.5V89.7Z" fill="#8C5438"/>
<path d="M97.2001 87.3L97.8001 87V79.7L97.2001 80V87.3Z" fill="#8C5438"/>
<path d="M98.2001 86.8L98.8001 86.6V79.2L98.2001 79.5V86.8Z" fill="#8C5438"/>
<path d="M99.2001 86.3L99.7001 86.1V78.7L99.2001 79V86.3Z" fill="#8C5438"/>
<path d="M100.2 85.9L100.7 85.6V78.2L100.2 78.5V85.9Z" fill="#8C5438"/>
<path d="M101.1 85.3998L101.7 85.0998V77.7998L101.1 77.9998V85.3998Z" fill="#8C5438"/>
<path d="M102.1 84.8998L102.6 84.5998V77.2998L102.1 77.4998V84.8998Z" fill="#8C5438"/>
<path d="M103.1 86.2998L103.6 85.9998V76.7998L103.1 77.0998V86.2998Z" fill="#8C5438"/>
<path d="M104 85.7998L104.6 85.4998V76.2998L104 76.5998V85.7998Z" fill="#8C5438"/>
<path d="M105 83.3998L105.6 83.0998V75.7998L105 76.0998V83.3998Z" fill="#8C5438"/>
<path d="M106 82.8998L106.5 82.6998V75.2998L106 75.5998V82.8998Z" fill="#8C5438"/>
<path d="M107 82.3998L107.5 82.1998V74.7998L107 75.0998V82.3998Z" fill="#8C5438"/>
<path d="M107.9 81.9999L108.5 81.6999V74.3999L107.9 74.5999V81.9999Z" fill="#8C5438"/>
<path d="M108.9 81.4999L109.5 81.1999V73.8999L108.9 74.0999V81.4999Z" fill="#8C5438"/>
<path d="M109.9 80.9999L110.4 80.6999V73.3999L109.9 73.5999V80.9999Z" fill="#8C5438"/>
<path d="M110.9 82.3999L111.4 82.0999V72.8999L110.9 73.1999V82.3999Z" fill="#8C5438"/>
<path d="M111.8 81.9999L112.3 81.6999V72.3999L111.8 72.6999V81.9999Z" fill="#8C5438"/>
<path d="M97.0001 89.3L97.7001 88.9V87.8L97.0001 88.1V89.3Z" fill="#8C5438"/>
<path d="M95.2001 90.2L95.9001 89.9V88.7L95.2001 89.1V90.2Z" fill="#8C5438"/>
<path d="M98.1001 88.8L98.8001 88.4V87.3L98.1001 87.6V88.8Z" fill="#8C5438"/>
<path d="M99.1001 88.3L99.8001 87.9V86.8L99.1001 87.1V88.3Z" fill="#8C5438"/>
<path d="M100.1 87.7L100.8 87.4V86.2L100.1 86.6V87.7Z" fill="#8C5438"/>
<path d="M101.1 87.2L101.8 86.9V85.7L101.1 86.1V87.2Z" fill="#8C5438"/>
<path d="M102.2 86.7L102.9 86.4V85.2L102.2 85.6V86.7Z" fill="#8C5438"/>
<path d="M104.8 85.3999L105.5 85.0999V83.8999L104.8 84.2999V85.3999Z" fill="#8C5438"/>
<path d="M105.9 84.8999L106.6 84.5999V83.3999L105.9 83.7999V84.8999Z" fill="#8C5438"/>
<path d="M106.9 84.3999L107.6 83.9999V82.8999L106.9 83.1999V84.3999Z" fill="#8C5438"/>
<path d="M107.9 83.8999L108.6 83.4999V82.3999L107.9 82.6999V83.8999Z" fill="#8C5438"/>
<path d="M108.9 83.3999L109.6 82.9999V81.8999L108.9 82.1999V83.3999Z" fill="#8C5438"/>
<path d="M110 82.8999L110.7 82.4999V81.3999L110 81.6999V82.8999Z" fill="#8C5438"/>
<path d="M66.1 54.8H65.3V109.4H66.1V54.8Z" fill="#F2BA82"/>
<path d="M65.7 55.2999L10.9 27.7999L11.3 27.2L65.7 54.4L120.1 27.2L120.5 27.7999L65.7 55.2999Z" fill="#F4CEAB"/>
<path d="M89 43.6L97.3 39.5L96.8 38.8L88.5 43L89 43.6Z" fill="#BC8266"/>
<path d="M32.5 16.6L87.5 44.1L98.7 38.5L98.5 38L44.2 10.8L32.5 16.6Z" fill="#A06442"/>
<path d="M38.1 13.8L93.1 41.3L93.6 41.1L38.6 13.5L38.1 13.8Z" fill="#7C420D"/>
<path d="M87.2 57.9001L98.8 52.1001V38.8001L98.4 38.4001L87.2 44.1001V57.9001Z" fill="#8C5438"/>
<path d="M87 43.8001C87 43.8001 87.2 43.9001 87.2 44.1001C87.2 44.3001 87.2 44.6001 87.2 44.6001L98.7 38.9001C98.7 38.9001 98.8 38.7001 98.8 38.5001C98.7 38.1001 98.5 38.1001 98.5 38.1001L87 43.8001Z" fill="#BC8266"/>
</g>
<defs>
<clipPath id="clip0">
<rect width="121" height="115.3" fill="white"/>
</clipPath>
</defs>
</svg>
