<svg width="152" height="197" viewBox="0 0 152 197" fill="none" xmlns="http://www.w3.org/2000/svg">
<g clip-path="url(#clip0)">
<path d="M4.69998 171L52.3 194.5C58.6 197.6 68.7 197.6 75 194.5L146.2 157.1C152.5 154 152.5 148.9 146.2 145.8L98.6 122.3C92.3 119.2 82.2 119.2 75.9 122.3L4.69998 159.6C-1.60002 162.8 -1.60002 167.8 4.69998 171Z" fill="#C7D0D4"/>
<path d="M139.1 92.9002L75.5 61.2002L12 92.9002L11.8 93.3002L75.5 125.2L139.3 93.3002L139.1 92.9002Z" fill="#F2BA82"/>
<path d="M112.4 106.8L48.4001 74.7002L38.7001 79.6002L102.7 111.6L112.4 106.8Z" fill="#A06442"/>
<path d="M107.8 109.1L43.7001 77.1001L43.3 77.3001L107.3 109.3L107.8 109.1Z" fill="#7C420D"/>
<path d="M80.4 88.4001C80.4 88.4001 69.6 91.7001 69.2 100.6C68.8 107.8 79.7 112.2 90.5 114.9C91.5 115.2 95 115.3 96.3 114.8C106 111 132.9 95.8001 132.9 95.8001L102.9 81.6001L80.4 88.4001Z" fill="#D78C4B"/>
<path d="M75.1 189L11.5 157.2V93.7003L11.8 93.3003L75.5 125.2V189H75.1Z" fill="#D78C4B"/>
<path d="M30.8001 161.5L22.2001 157.2V156.3L30.8001 160.5V161.5Z" fill="#8C5438"/>
<path d="M26.2001 151.9L24.6001 149.3L23.1001 150.4L24.0001 150.8V156.6L25.2001 157.2V151.5L26.2001 151.9Z" fill="#8C5438"/>
<path d="M30.0001 153.8L28.4001 151.2L26.9001 152.3L27.8001 152.8V158.5L29.0001 159.1V153.4L30.0001 153.8Z" fill="#8C5438"/>
<path d="M30.5 163L22.6 159C21.3001 158.4 20.3 156.8 20.3 155.4V147.7C20.3 146.4 21.3001 145.8 22.6 146.4L30.5 150.4C31.8 151 32.8 152.6 32.8 154V161.7C32.8 163.1 31.8 163.7 30.5 163ZM22.6 147.1C21.6 146.6 20.8 147.1 20.8 148.1V155.8C20.8 156.8 21.6 158.1 22.6 158.6L30.5 162.601C31.5 163.101 32.3 162.6 32.3 161.6V153.9C32.3 152.9 31.5 151.6 30.5 151.1L22.6 147.1Z" fill="#8C5438"/>
<path d="M45.9001 170.701L38.0001 166.701C36.7001 166.101 35.7001 164.501 35.7001 163.101V155.401C35.7001 154.101 36.7001 153.501 38.0001 154.101L45.9001 158.101C47.2001 158.701 48.2001 160.301 48.2001 161.701V169.401C48.2001 170.801 47.1001 171.301 45.9001 170.701ZM37.9001 154.701C36.9001 154.201 36.1001 154.701 36.1001 155.701V163.401C36.1001 164.401 36.9001 165.701 37.9001 166.201L45.8001 170.201C46.8001 170.701 47.6001 170.201 47.6001 169.201V161.501C47.6001 160.501 46.8001 159.201 45.8001 158.701L37.9001 154.701Z" fill="#8C5438"/>
<path d="M43.7001 161.701V158.901L40.1001 157.101V159.901C40.1001 161.201 40.8001 162.501 41.6001 163.201V166.201C40.7001 165.801 40.2001 166.401 40.2001 166.401L43.5001 168.101C43.5001 168.101 43.0001 167.101 42.1001 166.501V163.501C43.0001 163.701 43.7001 162.901 43.7001 161.701Z" fill="#8C5438"/>
<path d="M61.2 178.4L53.3 174.4C52 173.8 51 172.2 51 170.8V163.1C51 161.8 52 161.2 53.3 161.8L61.2 165.8C62.5 166.4 63.5 168 63.5 169.4V177.1C63.5 178.5 62.5 179 61.2 178.4ZM53.3 162.4C52.3 161.9 51.5 162.4 51.5 163.4V171.1C51.5 172.1 52.3 173.4 53.3 173.9L61.2 177.9C62.2 178.4 63 177.9 63 176.9V169.2C63 168.2 62.2 166.9 61.2 166.4L53.3 162.4Z" fill="#8C5438"/>
<path d="M61.6 171.601C61.6 171.601 61.6 171.501 61.6 171.601C61.6 169.701 59.6001 167.101 57.2001 165.901C54.8001 164.701 52.8 165.301 52.8 167.201C52.8 167.201 53.1001 166.701 53.7001 167.001C54.3001 167.301 54.6 168.001 54.6 168.001C54.6 168.001 54.8 167.501 55.5 167.901C56.1 168.201 56.4001 168.901 56.4001 168.901C56.4001 168.901 56.7 168.401 57.3 168.701C57.9 169.001 58.2001 169.701 58.2001 169.701C58.2001 169.701 58.5 169.301 59.1 169.501C59.7 169.801 60 170.501 60 170.501C60 170.501 60.2001 170.001 60.9001 170.401C61.4001 170.901 61.6 171.601 61.6 171.601Z" fill="#8C5438"/>
<path d="M56.3001 174.5C55.9001 174.3 55.6001 174 55.4001 173.7C55.0001 173.1 55.1001 172.6 55.1001 172.5C55.1001 172.4 55.2001 172.3 55.4001 172.4C55.5001 172.5 55.6001 172.601 55.6001 172.801C55.6001 172.801 55.6001 173.2 55.8001 173.5C55.9001 173.7 56.1001 173.8 56.3001 173.9C56.5001 174 56.6001 174 56.8001 174C57.0001 173.9 57.1001 173.401 57.1001 173.301V165.2C57.1001 165.1 57.2001 165.001 57.3001 165.101C57.4001 165.201 57.5001 165.3 57.5001 165.5V173.601C57.5001 173.601 57.5001 174.401 57.1001 174.601C56.9001 174.701 56.6001 174.6 56.3001 174.5Z" fill="#8C5438"/>
<path d="M139.6 157.2L76 189H75.5V125.2L139.3 93.3003L139.6 93.7003V157.2Z" fill="#ECA763"/>
<path d="M112.4 106.8V122.1L102.7 127V111.6L112.4 106.8Z" fill="#8C5438"/>
<path d="M139.5 138.8C138.9 137.7 138.4 136.7 138 135.9C136.6 133.2 136.1 117.3 136 113.1C135.8 108.8 133.1 95.8003 133.1 95.8003L131.5 96.7003L121.7 101.9C121.7 101.9 122.4 113.1 124.8 118.1C127.2 123 130.6 132.2 130.9 134.5C131.2 136.7 131.6 141.1 132.1 142.7C132.6 144.2 135.4 149.4 136.4 151.4C136.8 152.2 138.2 153.7 139.6 154.6V138.8H139.5Z" fill="#C47941"/>
<path d="M108 150.9C107.5 150 108.9 135 109 130.3C109.1 127 108.2 108.3 108.2 108.3L95.4 115.2C95.4 115.2 97.7 135.2 98.9 139.7C100.1 144.1 101.8 152.3 101.8 153.8C101.8 155.3 100.1 157.7 102.1 160.8C104.1 163.9 104.6 166.4 106.7 168.6C107.8 169.7 108.8 171 110 171.8C111.1 171.3 113.3 170.2 114.3 169.8C114.3 166.8 113.3 162.4 113 161.6C112.6 160.3 108.5 151.8 108 150.9Z" fill="#C47941"/>
<path d="M130.3 127.7L114.1 135.8C112.6 136.6 111.3 138.4 111.3 139.8V147.1C111.3 148.5 112.6 149.1 114.1 148.3L130.3 140.2C131.8 139.4 133.1 137.6 133.1 136.2V128.9C133.1 127.5 131.9 127 130.3 127.7Z" fill="white"/>
<path d="M131.5 139.5C132.5 138.6 133.2 137.4 133.2 136.3V129C133.2 127.6 131.9 127 130.4 127.8L129 128.5C130 131.2 130.7 133.5 130.9 134.5C131 135.7 131.2 137.7 131.5 139.5Z" fill="#C6C4C1"/>
<path d="M114 139.5L123.9 134.6V133.9L114 138.8V139.5Z" fill="#8C5438"/>
<path d="M125.3 133.901L130.5 131.301V130.601L125.3 133.201V133.901Z" fill="#8C5438"/>
<path d="M114 141.501L130.5 133.301V132.601L114 140.801V141.501Z" fill="#8C5438"/>
<path d="M114 143.501L118.1 141.501V140.701L114 142.801V143.501Z" fill="#8C5438"/>
<path d="M119.9 140.601L126 137.501V136.801L119.9 139.901V140.601Z" fill="#8C5438"/>
<path d="M127.6 136.701L130.5 135.301V134.601L127.6 136.001V136.701Z" fill="#8C5438"/>
<path d="M114 145.501L123.2 140.901V140.201L114 144.801V145.501Z" fill="#8C5438"/>
<path d="M125 140L130.5 137.3V136.5L125 139.3V140Z" fill="#8C5438"/>
<path d="M130.3 143.2L114.1 151.3C112.6 152.1 111.3 153.9 111.3 155.3V162.6C111.3 164 112.6 164.6 114.1 163.8L130.3 155.7C131.8 154.9 133.1 153.1 133.1 151.7V144.4C133.1 142.9 131.9 142.4 130.3 143.2Z" fill="white"/>
<path d="M114.6 162.1L115.1 161.8V152.6L114.6 152.9V162.1Z" fill="#8C5438"/>
<path d="M115.6 159.7L116.1 159.4V152.1L115.6 152.4V159.7Z" fill="#8C5438"/>
<path d="M116.5 159.2L117.1 159V151.6L116.5 151.9V159.2Z" fill="#8C5438"/>
<path d="M117.5 158.7L118.1 158.5V151.1L117.5 151.4V158.7Z" fill="#8C5438"/>
<path d="M118.5 158.3L119 158V150.6L118.5 150.9V158.3Z" fill="#8C5438"/>
<path d="M119.5 157.8L120 157.5V150.2L119.5 150.4V157.8Z" fill="#8C5438"/>
<path d="M120.4 157.3L121 157V149.7L120.4 149.9V157.3Z" fill="#8C5438"/>
<path d="M121.4 158.7L122 158.4V149.2L121.4 149.5V158.7Z" fill="#8C5438"/>
<path d="M122.4 158.2L122.9 157.9V148.7L122.4 149V158.2Z" fill="#8C5438"/>
<path d="M123.4 155.8L123.9 155.5V148.2L123.4 148.5V155.8Z" fill="#8C5438"/>
<path d="M124.3 155.3L124.9 155.1V147.7L124.3 148V155.3Z" fill="#8C5438"/>
<path d="M125.3 154.8L125.8 154.6V147.2L125.3 147.5V154.8Z" fill="#8C5438"/>
<path d="M126.3 154.4L126.8 154.1V146.7L126.3 147V154.4Z" fill="#8C5438"/>
<path d="M127.2 153.9L127.8 153.6V146.3L127.2 146.5V153.9Z" fill="#8C5438"/>
<path d="M128.2 153.4L128.8 153.1V145.8L128.2 146V153.4Z" fill="#8C5438"/>
<path d="M129.2 154.8L129.7 154.5V145.3L129.2 145.6V154.8Z" fill="#8C5438"/>
<path d="M130.1 154.4L130.7 154.1V144.8L130.1 145.1V154.4Z" fill="#8C5438"/>
<path d="M115.4 161.7L116.1 161.3V160.2L115.4 160.5V161.7Z" fill="#8C5438"/>
<path d="M113.6 162.6L114.3 162.3V161.1L113.6 161.5V162.6Z" fill="#8C5438"/>
<path d="M116.4 161.2L117.1 160.8V159.7L116.4 160V161.2Z" fill="#8C5438"/>
<path d="M117.4 160.7L118.1 160.3V159.2L117.4 159.5V160.7Z" fill="#8C5438"/>
<path d="M118.4 160.1L119.1 159.8V158.6L118.4 159V160.1Z" fill="#8C5438"/>
<path d="M119.5 159.6L120.2 159.3V158.1L119.5 158.5V159.6Z" fill="#8C5438"/>
<path d="M120.5 159.1L121.2 158.8V157.6L120.5 158V159.1Z" fill="#8C5438"/>
<path d="M123.2 157.8L123.9 157.5V156.3L123.2 156.7V157.8Z" fill="#8C5438"/>
<path d="M124.2 157.3L124.9 157V155.8L124.2 156.2V157.3Z" fill="#8C5438"/>
<path d="M125.2 156.8L125.9 156.4V155.3L125.2 155.6V156.8Z" fill="#8C5438"/>
<path d="M126.2 156.3L126.9 155.9V154.8L126.2 155.1V156.3Z" fill="#8C5438"/>
<path d="M127.3 155.8L128 155.4V154.3L127.3 154.6V155.8Z" fill="#8C5438"/>
<path d="M128.3 155.3L129 154.9V153.7L128.3 154.1V155.3Z" fill="#8C5438"/>
<path d="M133.1 144.4C133.1 143.6 132.7 143.1 132.1 142.9C132.3 143.4 132.7 144.2 133.1 145V144.4Z" fill="#C6C4C1"/>
<path d="M76 125.2H75.1V189H76V125.2Z" fill="#F2BA82"/>
<path d="M75.5 125.7L11.5 93.7004L12 92.9004L75.5 124.7L139 92.9004L139.6 93.7004L75.5 125.7Z" fill="#F4CEAB"/>
<path d="M102.7 112.1L112.4 107.3L111.9 106.5L102.2 111.4L102.7 112.1Z" fill="#BC8266"/>
<path d="M37.9 80.0002L101.9 112.1L113.2 106.4L112.9 105.9L49.4 74.2002L37.9 80.0002Z" fill="#A06442"/>
<path d="M101.2 111.7C104.7 110.1 108.8 108.1 112.9 106L112.8 105.9L78.9 89C76.6 90 72.4 92.2 70.3 96.3L101.2 111.7Z" fill="#7F4934"/>
<path d="M43.4 77.2L107.5 109.3L108 109L43.9 77L43.4 77.2Z" fill="#7C420D"/>
<path d="M101.9 130.4L113.5 124.6L113.2 107L113.1 106.5L101.9 112.1V130.4Z" fill="#8C5438"/>
<path d="M101.3 111.8C101.3 111.8 101.7 112 101.8 112.2C101.9 112.3 101.9 112.6 101.9 112.6L113.5 106.8C113.5 106.8 113.4 106.5 113.3 106.3C113.2 106.1 112.9 106 112.9 106L101.3 111.8Z" fill="#BC8266"/>
<path d="M139 92.9004L94.8 115C95 115.2 95.2 115.4 95.3 115.7L139.5 93.6004L139 92.9004Z" fill="#C19676"/>
<path d="M36.1 104V111.4L60.4 123.5V116.4L85.3 102.8L62 91.6001L36.1 104Z" fill="#C47941"/>
<path d="M31.2 105.7L55.5 117.9L85.8 102.8L61.5 90.6001L31.2 105.7Z" fill="#C6C4C1"/>
<path d="M32.1 103.9L56.5 116.1L86.7 100.9L62.4 88.8003L32.1 103.9Z" fill="white"/>
<path d="M68.7999 99.3003C67.9999 102.1 69.8999 105.2 73.1999 107.8L86.7999 101L72.4999 93.8003C70.7999 95.3003 69.3999 97.2003 68.7999 99.3003Z" fill="#DDDCDB"/>
<path d="M38.5 103L58.2 112.9L58.4 112.8L38.7 102.9L38.5 103Z" fill="#BCBCBC"/>
<path d="M39.2 102.7L58.9 112.6L59.0999 112.4L39.4 102.6L39.2 102.7Z" fill="#BCBCBC"/>
<path d="M39.9 102.3L59.6 112.2L59.8 112.1L40.1 102.2L39.9 102.3Z" fill="#BCBCBC"/>
<path d="M40.6 102L60.3 111.8L60.5 111.7L40.8 101.9L40.6 102Z" fill="#BCBCBC"/>
<path d="M41.3 101.6L61 111.5L61.2001 111.4L41.5 101.5L41.3 101.6Z" fill="#BCBCBC"/>
<path d="M43.4 100.5L63.2 110.4L63.4 110.3L43.6 100.4L43.4 100.5Z" fill="#BCBCBC"/>
<path d="M44.1 100.2L63.9 110.1L64.1 110L44.3 100.1L44.1 100.2Z" fill="#BCBCBC"/>
<path d="M44.8 99.8002L64.6 109.7L64.8001 109.6L45.1 99.7002L44.8 99.8002Z" fill="#BCBCBC"/>
<path d="M45.5 99.4999L65.3 109.4L65.5 109.3L45.8 99.3999L45.5 99.4999Z" fill="#BCBCBC"/>
<path d="M46.2001 99.1L66.0001 109L66.2001 108.9L46.5001 99L46.2001 99.1Z" fill="#BCBCBC"/>
<path d="M48.4 98.1L68.1 107.9L68.4 107.8L48.6 98L48.4 98.1Z" fill="#BCBCBC"/>
<path d="M49.1 97.7001L68.8 107.6L69.1 107.5L49.3 97.6001L49.1 97.7001Z" fill="#BCBCBC"/>
<path d="M49.8 97.4002L69.6 107.2L69.8001 107.1L50 97.2002L49.8 97.4002Z" fill="#BCBCBC"/>
<path d="M50.5 96.9999L70.3 106.9L70.5 106.8L50.7 96.8999L50.5 96.9999Z" fill="#BCBCBC"/>
<path d="M51.2001 96.7L71.0001 106.5L71.2001 106.4L51.4001 96.5L51.2001 96.7Z" fill="#BCBCBC"/>
<path d="M53.4 95.6L73.1 105.4L73.3 105.3L53.6 95.5L53.4 95.6Z" fill="#BCBCBC"/>
<path d="M54.1 95.2001L73.8 105.1L74 105L54.3 95.1001L54.1 95.2001Z" fill="#BCBCBC"/>
<path d="M54.8 94.9003L74.5 104.7L74.7 104.6L55 94.8003L54.8 94.9003Z" fill="#BCBCBC"/>
<path d="M55.5 94.4999L75.2 104.4L75.4 104.3L55.7 94.3999L55.5 94.4999Z" fill="#BCBCBC"/>
<path d="M56.2001 94.2001L75.9001 104L76.1001 103.9L56.4001 94.1001L56.2001 94.2001Z" fill="#BCBCBC"/>
<path d="M58.4 93.1L78.1 103L78.3 102.9L58.6 93L58.4 93.1Z" fill="#BCBCBC"/>
<path d="M59.1 92.7001L78.8 102.6L79 102.5L59.3 92.6001L59.1 92.7001Z" fill="#BCBCBC"/>
<path d="M59.8 92.4003L79.5 102.3L79.7 102.1L60 92.3003L59.8 92.4003Z" fill="#BCBCBC"/>
<path d="M60.5 91.9999L80.2 101.9L80.4 101.8L60.7 91.8999L60.5 91.9999Z" fill="#BCBCBC"/>
<path d="M61.2001 91.7001L80.9001 101.5L81.1001 101.4L61.4001 91.6001L61.2001 91.7001Z" fill="#BCBCBC"/>
<path d="M112.8 168.5C111 166.1 109.2 161 108.6 160C108 159 106.8 158.2 106.8 158.2C106.8 158.2 106.7 159.6 107 160.3C107.3 161 108.3 163.2 108.8 164.2C109.3 165.2 109.9 167.8 110.2 168.5C110.4 169.2 112.6 171 114 171.7C115.4 172.4 117.6 173 118.3 172.9C118.9 172.8 119.8 171.5 119.8 171.5C119.8 171.5 114.6 171 112.8 168.5Z" fill="black"/>
<path d="M114.5 156.5C113.6 153.8 113.9 149.7 113.9 149.7C113.9 149.7 111.1 150.9 109.9 150.5C108.8 150 107.7 150.3 107.7 150.3C107.7 150.3 107.9 153.4 107.5 154.7C107 156.1 106.4 158.7 107.2 160.2C108 161.7 110.1 166.1 110.5 168.3C110.9 170.1 116.8 172.9 118.3 172.6C120.9 172.1 119.7 168.9 119.3 166.2C119.1 163.8 115.5 158.8 114.5 156.5Z" fill="#EDB291"/>
<path d="M111.2 163.4C110.8 162.1 109.1 157.8 109.3 156.7C109.5 155.6 110.6 154.4 111.6 153.9C112.3 153.5 113.2 152.2 113.7 151.2C113.7 150.3 113.7 149.7 113.7 149.7C113.7 149.7 110.9 150.9 109.7 150.5C108.6 150 107.5 150.3 107.5 150.3C107.5 150.3 107.7 153.4 107.3 154.7C106.8 156.1 106.2 158.7 107 160.2C107.8 161.7 109.9 166.1 110.3 168.3C110.7 170.1 116.6 172.9 118.1 172.6C118.1 172.6 118.1 172.6 118.2 172.6C117.4 171.8 116.1 170.7 114.9 170.1C113.2 169 111.6 164.7 111.2 163.4Z" fill="#E59E7A"/>
<path d="M115.1 157.7C116 160.2 117.5 162.9 117.5 162.9C117.5 162.9 116.8 163 115.4 163.5C113.1 164.3 112.3 165.7 112.3 165.7C112.3 165.7 111.4 163.7 110.9 162.8C110.5 161.9 109.6 158.2 108.8 156.3C108.4 155.5 108 154.9 107.5 154.6V154.7C107 156.1 106.4 158.7 107.2 160.2C108 161.7 110.1 166.1 110.5 168.3C110.9 170.1 116.8 172.9 118.3 172.6C120.9 172.1 119.7 168.9 119.3 166.2C119.2 164.1 116.5 160.3 115.1 157.7Z" fill="#F2170C"/>
<path d="M115.6 170.3C115.1 169.8 113.8 168.3 112.9 167.2C112.1 166.3 111.3 165.1 110.9 164.1C110.7 163.6 110.5 162.3 110.3 160.8C109.9 159.3 109.3 157.4 108.8 156.2C108.5 155.6 108.2 155.1 107.9 154.8C107.8 154.7 107.7 154.6 107.6 154.6C107.1 156 106.5 158.6 107.3 160.1C108.1 161.6 110.2 166 110.6 168.2C111 170 116.9 172.8 118.4 172.5C119.2 172.4 119.6 172 119.9 171.4C119.5 171.5 119 171.7 118.6 171.7C117.7 171.8 116.1 170.9 115.6 170.3Z" fill="#B70606"/>
<path d="M145.2 152.9C143.8 150.8 142.1 147.6 141.4 146.5C140.8 145.4 139.6 144.6 138.7 143.5C137.8 142.5 137.4 142 137.4 142L137.3 143.3C137.3 143.3 137.3 144.3 137.4 144.7C137.5 145.3 137.9 145.7 139.4 146.7C139.8 147 140.5 147.3 140.8 148C141.1 148.6 141.7 151.1 141.9 151.5C142.2 152.5 143.9 154.3 145.4 155.3C146.9 156.3 149.1 156.9 149.9 156.9C150.8 156.9 151.5 155.9 151.5 155.9C151.5 155.9 146.6 155 145.2 152.9Z" fill="black"/>
<path d="M148.7 147C148.1 146.4 145.6 143.5 144.7 142.2C143.8 140.9 143.1 135.2 143.1 135.2C143.1 135.2 140 136.5 139 136.2C138 135.9 136.8 135.9 136.8 135.9L137.2 137.7C137.2 137.7 137.6 139.5 137.4 140.5C137.2 141.6 137 142.8 137.2 143.7C137.7 145.2 140.6 147.1 141 147.9C141.5 148.8 141.8 151.3 142.2 151.8C143 152.7 146.2 156.5 150.6 156.3C152 156.2 152.1 153.9 151.4 151.3C151 149.5 149.3 147.6 148.7 147Z" fill="#EDB291"/>
<path d="M147.2 154C146.6 153.6 144.8 151.7 144.2 150.9C143.6 150 142.9 148.2 142.7 147.1C142.4 146 141.6 144.8 141 143.9C140.4 143 139.6 142.2 139.6 142.2C139.6 142.2 139.6 141.1 139.7 140.8C139.7 140.5 141.3 138.9 142.5 137.9C143 137.5 143.3 137 143.5 136.5C143.4 135.7 143.3 135.1 143.3 135.1C143.3 135.1 140.2 136.4 139.2 136.1C138.2 135.8 137 135.8 137 135.8L137.4 137.6C137.4 137.6 137.8 139.4 137.6 140.4C137.4 141.5 137.2 142.7 137.4 143.6C137.9 145.1 140.8 147 141.2 147.8C141.7 148.7 142 151.2 142.4 151.7C143.2 152.6 146.4 156.4 150.8 156.2C151.4 156.2 151.8 155.7 152 154.9C151.4 154.9 150.6 155.1 150.1 155.2C149.2 155.5 147.7 154.4 147.2 154Z" fill="#E59E7A"/>
<path d="M148.7 147C148.1 146.4 145.6 143.5 144.7 142.2C144.6 142.1 144.5 141.9 144.4 141.6C144.3 141.7 144.3 141.9 144.3 142C144.4 142.5 148.6 147.2 148.6 147.2C148.6 147.2 147.1 147.4 146.1 147.9C145.1 148.4 143.8 149.7 143.8 149.7C143.2 149.1 141.7 145.7 141.5 145C141.3 144.3 139.9 142.3 139 141.4C138.5 140.9 137.9 140.7 137.4 140.7C137.2 141.8 137 143 137.2 143.8C137.7 145.3 140.6 147.2 141 148C141.5 148.9 141.8 151.4 142.2 151.9C143 152.8 146.2 156.6 150.6 156.4C152 156.3 152.1 154 151.4 151.4C151 149.5 149.3 147.6 148.7 147Z" fill="#F2170C"/>
<path d="M146.6 153.4C146 152.9 144.4 151.4 144 150.7C143.8 150.4 143 149.5 142.4 148C141.9 146.9 141.2 145.6 141.1 145.2C140.9 144.5 140 142.3 139.1 141.4C138.6 140.9 138 140.7 137.5 140.7C137.3 141.8 137.1 143 137.3 143.8C137.8 145.3 140.7 147.2 141.1 148C141.6 148.9 141.9 151.4 142.3 151.9C143.1 152.8 146.3 156.6 150.7 156.4C151.5 156.4 151.9 155.5 151.9 154.4C151.5 154.7 150.9 155 150.4 155.1C149.5 155.4 147.1 153.9 146.6 153.4Z" fill="#B70606"/>
<path d="M115.7 32.1003C115.4 30.9003 116.7 29.5003 116.7 29.5003C113.5 28.5003 111.9 26.1003 110.1 23.0003C108.3 19.9003 106.1 17.3003 105.8 19.8003C105.6 22.3003 106.6 25.1003 104.6 28.4003C102.7 31.8003 97.4999 33.9003 97.4999 33.9003C97.4999 33.9003 98.4999 38.0003 101.3 41.0003C104.1 44.0003 109.5 46.8003 114.2 43.2003C118.9 39.7003 117.6 36.3003 117.4 34.1003C117.3 31.9003 116 33.3003 115.7 32.1003Z" fill="#EDB291"/>
<path d="M110.1 23.0003C108.3 19.9003 106.1 17.3003 105.8 19.8003C105.6 22.3003 106.2 25.1003 104.3 28.4003C102.4 31.8003 97.4999 33.9003 97.4999 33.9003C97.4999 33.9003 97.6999 34.5003 97.9999 35.5003C98.8999 35.0003 99.8999 34.3003 100.8 33.5003C103.2 31.5003 107.1 30.6003 110.4 30.4003C112.3 30.3003 114.5 30.3003 116 30.3003C116.3 29.8003 116.6 29.4003 116.6 29.4003C113.4 28.4003 111.9 26.1003 110.1 23.0003Z" fill="#E59E7A"/>
<path d="M139.8 90.1C138.1 89.6 128.7 85.1 125.8 84.4C122.9 83.7 114.2 80.3 112 80C109.8 79.7 103.1 83.2 102.5 85.6C101.8 88 100.1 91.7 102.3 94.5C102.3 94.5 106.9 97.1 108.8 98.1C110.7 99.1 114.9 100 116.8 100.3C118.7 100.6 124.3 101.7 127.2 100.8C126.2 106.8 131.8 120.4 133.7 127.2C135.6 134 135.7 135.7 137.1 138.3C141.2 139.2 143.7 136.9 143.8 135.2C143.9 133.5 144.1 129.7 144.1 125.3C144.2 120.9 143.9 107.4 143.9 99.7C143.7 97.4 144.2 91.5 139.8 90.1Z" fill="#085460"/>
<path d="M140 90.3001C138.3 89.8001 128.9 85.3001 126 84.6001C124.2 84.2001 120.2 82.7001 116.8 81.6001C117.1 83.9001 118.6 90.1001 124.4 91.6001C131.4 93.5001 135 91.9001 135.8 93.0001C136.7 94.0001 136.1 95.7001 138.2 97.3001C140.2 98.8001 139.9 104.5 140.2 109.9C140.5 115.3 140.5 124.3 141.7 138.1C143 137.4 143.7 136.4 143.8 135.5C143.9 133.8 144.1 130 144.1 125.6C144.2 121.2 143.9 107.7 143.9 100C144 97.6001 144.5 91.7001 140 90.3001Z" fill="#05687F"/>
<path d="M139.9 55.4004C138.2 55.4004 136.8 57.1004 136.8 59.1004C136.8 61.1004 138.2 62.8004 139.9 62.8004C141.6 62.8004 143 61.1004 143 59.1004C143 57.1004 141.6 55.4004 139.9 55.4004Z" fill="#C6C4C1"/>
<path d="M145.8 55.1001C144.8 55.0001 143 55.7001 141.6 55.9001C140.2 56.1001 137.1 56.7001 137.1 56.7001C137.1 56.7001 135.5 59.3001 135.6 60.0001C135.7 60.7001 136.9 61.9001 136.9 61.9001C136.9 61.9001 141.7 61.3001 142.4 61.3001C143.1 61.3001 144.3 62.7001 144.3 62.7001C144.3 62.7001 147.9 57.4001 148.1 57.0001C148.1 56.7001 146.8 55.2001 145.8 55.1001Z" fill="#E59E7A"/>
<path d="M141.6 55.9002C140.2 56.1002 137.1 56.7002 137.1 56.7002C137.1 56.7002 136.3 58.0002 135.9 59.0002C136.4 59.2002 137 59.3002 137.4 59.2002C138.4 59.1002 139 58.8002 139.6 58.7002C140.2 58.6002 141.3 58.6002 141.3 58.6002L142.9 56.9002L142.7 55.7002C142.3 55.7002 141.9 55.8002 141.6 55.9002Z" fill="#EDB291"/>
<path d="M140.6 55.4004C140.6 55.4004 140.4 55.4004 140.2 55.4004C140.4 55.5004 140.6 55.4004 140.6 55.4004Z" fill="white"/>
<path d="M138.4 56.1C139.1 55.7 139.7 55.6 140.2 55.5C138.4 55.6 131.1 56.2 128.7 56.3C124.8 56.5 124.7 51.6 124.4 49.1C123.9 45 122.9 29.4 122.2 27.8C121.5 26.2 118.6 25 116.4 25.9C114.2 26.8 114.6 28.5 114.6 28.5C114.6 28.5 115.4 34.6 114.6 36.3C113.8 38 113 40.7 108.7 39.5C104.1 38.2 102.2 30 102.2 30C102.2 30 95.6999 34.3 93.7999 36C91.9999 37.7 91.1999 40.1 90.7999 43.8C90.4999 47.5 89.7999 52.8 89.8999 54.8C89.9999 56.8 87.1999 65.5 86.5999 68.2C85.9999 70.9 86.4999 80.2 92.2999 82.2C98.0999 84.1 108.2 76.6 108.2 76.6C108.2 76.6 109.7 68.5 111.2 66.8C113.2 64.4 111.1 64.8 113.6 58.4C114.4 56.4 116 47.6 116.6 50.3C117.4 54.4 117.8 62.6 120.5 62.9C123.1 63.1 128.5 63.4 130.4 63.4C133.1 63.4 137.8 63.8 139.6 62.9C138.7 63.1 136.5 61.6 136.7 58.5C136.7 57.7 137.5 56.6 138.4 56.1Z" fill="white"/>
<path d="M118.7 82.6C118.7 82.6 114.6 82.2 113.4 79.5C111.9 76.1 112.6 78 111 71C111 71 107.4 73.9 104.4 75.1C101.3 76.3 98.0999 77.3 93.9999 76.3C89.8999 75.3 84.5999 71 84.5999 71C84.5999 71 82.7999 73 81.5999 76.7C80.3999 80.5 77.4999 86.4 79.9999 92.4C82.0999 97.4 83.8999 98.5 87.1999 102.7C90.3999 104.7 95.2999 99.4 97.4999 98C99.6999 96.6 107.6 96.1 107.6 96.1C107.6 96.1 106.7 90.6 106.7 88.9C106.8 87.3 118.7 82.6 118.7 82.6Z" fill="#085460"/>
<path d="M109.9 97.9003C108.6 95.8003 106 90.1003 102.4 88.8003C98.8 90.4003 94.7 90.6003 89.3 91.3003C85.4 91.8003 81.3999 92.3003 82.0999 94.7003C82.0999 94.7003 83.9999 99.3003 86.6999 102.2C89.3999 105.1 98.5 114.8 98.5 114.8C99.4 116.2 100.2 122 101.1 125C102 128.1 103.3 124.8 108.4 123.6C113.5 122.4 114.9 121.2 114.7 115.6C114.5 109.2 111.5 100.5 109.9 97.9003Z" fill="#05687F"/>
<path d="M122 24.2004C121.4 24.1004 116.2 25.5004 114.8 26.2004C113.4 27.0004 114.7 28.8004 114.7 28.8004C114.7 28.8004 115.9 31.9004 114.9 40.8004C114.6 44.0004 112.3 49.4004 112.3 49.4004L107.4 51.0004C107.4 51.0004 104.4 61.6004 102.9 67.7004C101.6 74.0004 98.9999 83.3004 98.9999 83.3004C98.9999 83.3004 100.9 86.4004 103.3 85.5004C105.7 84.6004 113.1 80.3004 113.5 79.5004C114 78.7004 113.1 75.5004 113 72.7004C112.9 69.9004 115.6 63.6004 116.9 61.7004C118.9 58.5004 122.5 52.7004 122.8 50.1004C123.1 47.5004 122.7 45.5004 122.7 44.3004C122.7 39.7004 122.9 31.2004 123.1 29.6004C123.3 27.7004 122.6 24.3004 122 24.2004Z" fill="#F2170C"/>
<path d="M115.8 26.8001C114.4 27.5001 116 29.4001 116.4 30.0001C116.8 30.5001 119 29.1001 119.7 29.7001C120.4 30.3001 120 36.9001 120.6 39.9001C121.2 42.9001 121.5 47.1001 121.5 49.3001C121.4 51.4001 120.1 53.6001 119.2 54.8001C119.2 54.8001 120.9 53.5001 121.8 51.4001C122.7 49.3001 122.3 46.4001 122.1 45.4001C121.9 44.5001 122.3 34.8001 122.4 32.7001C122.5 30.6001 122.7 27.8001 122 25.9001C121.3 23.8001 117.1 26.1001 115.8 26.8001Z" fill="#F94932"/>
<path d="M105 38.5C103.6 35.8 102.8 33.2 102.7 31.8C102.7 31 102.8 30 102.4 30C101.8 30 100.1 31.5 100.1 31.5C100.1 31.5 97.0999 33.1 96.0999 33.6C93.8999 34.6 89.3999 37.3 88.2999 38.5C88.2999 38.5 86.1999 39.4 85.7999 44.8C85.5999 47.8 85.8999 48.3 86.2999 50.5C86.5999 52.4 88.3999 57.4 87.9999 59.3C87.2999 62.9 85.8999 66.2 84.9999 69C83.6999 73 79.0999 80.6 79.7999 82.1C80.4999 83.6 86.6999 87.2 91.6999 88.1C94.8999 88.7 101.1 86.7 103.6 85.3C106.1 83.8 115.4 49.4 114.3 48.1C111 46.8 106.5 41.3 105 38.5Z" fill="#F2170C"/>
<path d="M105.4 58.9C104.6 58.3 102.8 56.1 97.7 44.9C95.2 39.3 92 37.7 89.5 37.5C88.9 37.9 88.5 38.3 88.2 38.6C88.2 38.6 86.1 39.5 85.7 44.9C85.5 47.9 85.8 48.4 86.2 50.6C86.5 52.5 88.3 57.5 87.9 59.4C87.2 63 85.8 66.3 84.9 69.1C83.6 73.1 79 80.7 79.7 82.2C80.4 83.7 86.6 87.3 91.6 88.2C92.4 88.3 93.4 88.3 94.4 88.2C94.8 86.3 95.1 83.8 95.4 82.2C96.8 73.1 98 71.5 99 69.4C100 67.2 104.7 65.4 107.9 63.3C109.4 62.3 111.4 59.1 111.4 59.1C111.4 59.1 108.2 61 105.4 58.9Z" fill="#B70606"/>
<path d="M89.5 38.1C87.8 38.4 86.3 41.6 86.2 44.1C86.2 44.1 86 47.1 86.8 50.9C87.6 54.8 88.9 59.9 91.5 60.1C94.1 60.3 96.1 58.2 97.5 54.6C98.9 51.1 98.2 46.2 96.4 42.2C94.6 38.1 91.2 37.7 89.5 38.1Z" fill="#840606"/>
<path d="M119.1 63.2002C118.4 63.2002 117.8 65.3002 117.8 67.9002C117.8 70.5002 118.4 71.2002 119.2 71.2002C119.9 71.2002 120.6 69.4002 120.6 66.8002C120.5 64.2002 119.8 63.2002 119.1 63.2002Z" fill="#C6C4C1"/>
<path d="M123.9 51.5002C123.7 51.6002 123.6 51.8002 123.7 51.9002L124 52.7002C124.1 52.9002 124.3 53.0002 124.4 52.9002C124.6 52.8002 124.7 52.6002 124.6 52.5002L124.3 51.7002C124.3 51.5002 124.1 51.4002 123.9 51.5002Z" fill="#F2170C"/>
<path d="M123.4 53.8C123.5 53.3 123.9 53.2 123.9 53.2L123.8 52.5C123.8 52.5 123 52.7 123 53.6C123 54.4 123.5 55.3 124.2 56.1C124.7 56.7 125.7 58.1 125.7 58.5C125.7 58.9 125.8 59.3 125.9 58.9C126 58.5 125.4 57.2 125.1 56.7C124.7 56.2 123.3 54.4 123.4 53.8Z" fill="#F2170C"/>
<path d="M125 52.4C124.9 52.1 124.5 51.9 124.1 52.1C123.7 52.2 123.6 52.6 123.7 52.9L128.2 64.5C128.3 64.8 128.7 65 129.1 64.8C129.5 64.7 129.6 64.3 129.5 64L125 52.4Z" fill="black"/>
<path d="M125.4 53.6L124.2 54.1C124.1 54.1 124.1 54.2 124.1 54.3C124.1 54.4 124.2 54.5 124.3 54.4L125.5 53.9C125.6 53.9 125.6 53.8 125.5 53.7C125.6 53.6 125.5 53.5 125.4 53.6Z" fill="#F2170C"/>
<path d="M129 59.3004C127.6 58.4004 125.8 57.9004 124.9 58.9004C123.8 60.1004 122.6 61.4004 121.4 62.8004C120.8 63.5004 119.2 63.5004 117.9 64.2004C115.9 66.7004 118.4 70.0004 118.4 70.0004L120.3 68.9004C120.3 68.9004 122.8 68.1004 124.2 67.9004C125.6 67.7004 128.4 67.8004 129.3 67.7004C130.2 67.5004 131.7 65.8004 132 65.0004C132.5 63.8004 132.1 63.0004 132.1 63.0004C132.1 63.0004 131.3 60.7004 129 59.3004Z" fill="#EDB291"/>
<path d="M129 59.3006C128.1 58.7006 126.9 58.3006 126 58.4006C126.6 58.8006 127.2 59.2006 127.5 59.7006C128 60.4006 128.5 61.5006 128.9 62.1006C129.4 62.7006 129.8 65.2006 129.8 65.2006L131.9 65.4006C132 65.3006 132 65.2006 132 65.1006C132.5 63.9006 132.1 63.1006 132.1 63.1006C132.1 63.1006 131.3 60.7006 129 59.3006Z" fill="#F4CEAB"/>
<path d="M127 64.8003C126.4 65.2003 123.7 66.4003 123 66.4003C122 66.4003 121.5 65.5003 121.4 65.7003C121.3 65.9003 121.2 66.9003 120.7 67.2003C120.4 67.4003 118.8 67.8003 117.6 68.1003C117.4 69.3003 118 70.2003 118 70.2003L120.5 68.8003C120.5 68.8003 123 68.0003 124.4 67.8003C125.8 67.6003 128.6 67.7003 129.5 67.6003C130.4 67.4003 131.9 65.7003 132.2 64.9003C132.4 64.4003 132.4 64.1003 132.4 63.8003C131.5 63.6003 130.1 63.3003 129.7 63.3003C129 63.4003 127.5 64.4003 127 64.8003Z" fill="#E59E7A"/>
<path d="M117.6 68.7C117 65.1 118.9 63.3 118.9 63.3C118.9 63.3 113.4 64.8 111.2 65.2C109.4 65.5 106.8 65.4 105.2 65.7C104.1 63.3 102.6 58.7 102.4 58C100.7 53.3 99 50.6 97.4 46.3C96 42.7 94.8 42 93 40.5C91.1 39 89.1 40.1 87.8 41.4C86.6 42.7 86.5 46.3 86.9 48.4C87.3 50.4 87.9 51.8 89.6 55.1C90.5 56.9 91.0999 58.6 92.1999 60.7C93.2999 62.9 96.3999 70.7 98.1999 72.7C101.1 75.9 107.3 75.3 111.4 74.2C115.1 73.2 117.8 71.9 119.2 71.4C118.5 71.1 117.8 69.5 117.6 68.7Z" fill="white"/>
<path d="M121.8 7.70013C118.3 6.80013 115.3 8.90013 113.2 11.5001C111.1 14.1001 112.5 15.7001 111.8 16.0001C111.1 16.3001 108.6 17.1001 108.2 16.1001C107.7 15.0001 106 15.2001 105.1 15.6001C104.2 16.0001 104.5 18.1001 104.9 19.0001C105.3 19.9001 105.2 20.8001 106 22.2001C106.9 23.6001 107.4 22.4001 107.4 22.4001C107.4 22.4001 107.4 23.0001 107.9 24.0001C108.4 25.0001 110.6 27.2001 112.6 28.4001C113.7 29.1001 118.2 30.7001 119.3 30.7001C120.4 30.6001 120.8 28.4001 122 25.7001C123.2 23.0001 123.2 20.7001 123 19.6001C122.8 18.5001 123.9 17.5001 124 14.9001C124.1 12.1001 124.6 8.40013 121.8 7.70013Z" fill="#F4CEAB"/>
<path d="M113.2 11.5C111.1 14.1 112.5 15.7 111.8 16C111.1 16.3 108.6 17.1 108.2 16.1C107.7 15 106 15.2 105.1 15.6C104.2 16 104.5 18.1 104.9 19C105.3 19.9 105.2 20.8 106 22.2C106.9 23.6 107.4 22.4 107.4 22.4C107.4 22.4 107.4 23 107.9 24C108.4 25 110.6 27.2 112.6 28.4C113.5 28.9 116.3 30 118.1 30.5C118 30.4 117.9 30.3 117.7 30.2C113.9 27.5 113.3 25.1 113.7 24.3C114.2 23.4 115.2 24.2 115.7 23.2C114.5 22.6 113.5 21.4 113.3 20.1C113.2 19.3 113 17.4 116.1 16.6C119.5 15.7 123.1 13 123.8 10.6C121.7 11 114.6 9.79995 113.2 11.5Z" fill="#EDB291"/>
<path d="M119.9 3.10018C118.5 2.30018 116 0.800178 114.2 0.300178C112.4 -0.299822 109.2 0.400178 107.1 1.20018C105 2.00018 103.7 3.60018 102.3 5.70018C100.3 8.80018 100.6 13.0002 101.4 15.7002C101.9 17.6002 103.3 19.6002 104.1 21.1002C104.8 22.6002 104.6 23.5002 104.5 25.3002C104.4 27.1002 105 27.8002 105 27.8002C105 27.8002 106.6 25.4002 106.9 24.4002C107.3 23.4002 107.5 22.5002 107.5 22.5002C107.5 22.5002 107 23.0002 106.1 22.3002C105.2 21.6002 105.7 21.5002 105.3 20.1002C104.9 18.7002 105 17.3002 105.7 16.1002C106.3 14.9002 107.8 15.5002 108.3 16.2002C108.8 16.9002 109 19.0002 109 19.0002C109 19.0002 109.6 19.0002 110.3 17.7002C111 16.4002 114.9 15.8002 118.5 14.6002C122.2 13.3002 123.2 9.50018 124.1 10.9002C124.9 12.1002 124.1 15.3002 124.1 15.3002C124.1 15.3002 124.9 14.3002 125.5 13.0002C126.1 11.7002 125 8.70018 124.2 7.40018C123.3 6.10018 121.2 3.90018 119.9 3.10018Z" fill="#5E2D15"/>
<path d="M118.6 3.10033C116.7 2.00033 114.1 0.90033 114.1 0.90033C112.1 0.30033 107.5 0.80033 105.3 2.70033C103.1 4.60033 101.7 7.10033 101.4 8.70033C101.2 10.3003 101.5 13.0003 101.5 13.0003C101.5 13.0003 101.4 9.20033 102.4 7.50033C103.4 5.80033 105.7 4.80033 105.7 4.80033C105.7 4.80033 103.2 6.50033 102.7 8.50033C102.7 8.50033 104.3 6.60033 105.8 5.90033C107.3 5.20033 109.1 5.20033 109.1 5.20033C109.1 5.20033 105.1 6.60033 103.9 9.40033C102.7 12.2003 103.3 13.3003 103.3 13.3003C103.3 13.3003 103.5 10.2003 105 9.00033C106.5 7.70033 109.3 7.10033 109.7 6.70033C109.7 6.70033 107.2 8.30033 106.6 9.40033C106 10.5003 106 13.2003 106 13.2003C106 13.2003 106.7 10.0003 107.7 9.30033C108.7 8.60033 110.7 7.80033 111 7.50033C111 7.50033 109.9 8.90033 109.4 9.90033C108.9 10.9003 108.8 12.9003 108.8 12.9003C108.8 12.9003 109.4 10.9003 110.4 9.80033C111.4 8.80033 113 7.60033 113 7.60033C113 7.60033 112.5 9.40033 111.9 10.3003C111.2 11.2003 110.5 14.5003 110.5 14.5003C110.5 14.5003 112.4 10.0003 113.6 8.70033C114.7 7.50033 115.5 7.30033 116.4 7.00033C117.3 6.70033 118.9 5.20033 119.8 5.10033C120.6 5.00033 122.6 6.50033 123.3 7.10033C122.2 5.50033 120.5 4.10033 118.6 3.10033Z" fill="#844B34"/>
<path d="M123.6 7.50029C123.6 7.50029 123.5 7.40029 123.4 7.30029C123.5 7.30029 123.6 7.40029 123.6 7.50029Z" fill="#844B34"/>
<path d="M93.8999 39.0003C91.2999 37.4003 89.8999 38.0003 89.8999 38.0003C89.8999 38.0003 89.3999 38.3003 88.3999 39.5003C87.3999 40.7003 86.9999 42.7003 86.9999 42.7003C88.1999 40.8003 89.1999 39.4003 92.4999 40.5003C94.5999 41.2003 97.7999 47.0003 97.7999 47.0003C97.7999 47.0003 96.4999 40.7003 93.8999 39.0003Z" fill="#C6C4C1"/>
<path d="M102.2 30.4004C102.2 30.4004 101.2 31.0004 100.8 31.5004C100.5 32.0004 97.8999 33.4004 96.6999 33.8004C95.4999 34.2004 91.3999 36.7004 90.8999 37.1004C91.2999 37.2004 93.2999 37.4004 94.3999 38.3004C95.4999 39.2004 95.9999 40.3004 95.9999 40.3004C95.9999 40.3004 97.0999 39.1004 98.2999 38.1004C99.4999 37.1004 102.3 35.3004 102.3 35.3004C102.3 35.3004 101.8 33.0004 101.8 32.0004C102 31.0004 102.2 30.4004 102.2 30.4004Z" fill="#F94932"/>
<path d="M114.6 116.1C114.6 116 114.6 115.8 114.6 115.7C114.4 109.2 111.4 100.5 109.8 97.9003C108.5 95.8003 105.9 90.1003 102.3 88.8003C98.7 90.4003 94.6 90.6003 89.2 91.3003C85.3 91.8003 81.3 92.3003 82 94.7003C82 94.7003 83.9 99.3003 86.6 102.2C89.3 105.1 98.4 114.8 98.4 114.8C101.6 131.8 104.7 144 107.2 152.9C108.2 154.5 114.4 151.5 114.6 149.5C114.8 147.5 114.8 143 114.8 137.5C114.8 130.6 115.1 122.4 114.6 116.1Z" fill="#05687F"/>
<path d="M103.6 120.6C103.6 120.6 104.2 117.1 102.4 114.3C101.1 112.4 101.7 109.6 101.7 109.6C101.7 109.6 101.2 109.1 99.4 105.7C98.2 103.4 95.2 97.6001 94.1 93.5001C93.8 92.3001 94.2 89.8001 94.4 89.1001C93 89.3001 89.3 89.1001 87.8 89.3001C83.9 89.8001 80 90.7001 80.7 93.0001C80.7 93.0001 84 99.2001 86.8 102.1C89.5 105 98.6 114.7 98.6 114.7C101.8 131.7 104.9 143.9 107.4 152.8C107.7 153.3 108.5 153.3 109.4 153.2C109 146.6 105.7 135.1 105.1 131.5C103.9 125 103.7 123.1 103.6 120.6Z" fill="#085460"/>
<path d="M104.9 96.2001L131.5 82.8001L149 55.1001L122.4 68.5001L104.9 96.2001Z" fill="black"/>
<path d="M122.3 68.3004V68.4004L104.8 96.1004L105.1 96.4004L122.6 68.7004L149 55.3004L148.9 54.9004L122.3 68.3004Z" fill="#7C7A77"/>
<path d="M146.4 58C145.7 58.9 145.5 59.6 145.3 60.2C145.1 60.8 143.5 62.5 143.9 62.7C144.6 63 145.2 63.1 145.8 62.6C146.5 62.1 146.9 60.9 147.5 60C148.1 59.1 148.7 56.5 148.3 56C148.4 55.9 147.2 57.1 146.4 58Z" fill="#EDB291"/>
<path d="M147.6 55.0001C145.7 54.8001 145 54.4001 144.8 54.3001C144.2 54.1001 143.7 54.4001 142.8 54.7001C141.9 55.0001 139.4 56.1001 139 56.3001L139.3 57.5001C139.3 57.5001 140.4 58.8001 141.7 58.5001C143 58.2001 144.1 57.6001 145 56.5001C145.4 56.3001 147 56.6001 147.9 56.2001C148.8 55.8001 148.9 54.9001 147.6 55.0001Z" fill="#EDB291"/>
<path d="M147.6 55.0001C145.7 54.8001 145 54.4001 144.8 54.3001C144.2 54.1001 143.7 54.4001 142.8 54.7001C142 55.0001 140 55.9001 139.3 56.2001C139.5 56.3001 139.7 56.3001 140.1 56.2001C141 55.9001 143.4 54.8001 143.8 54.7001C144.2 54.6001 144.2 54.9001 144.5 54.9001C144.8 54.9001 145 54.8001 145.2 54.8001C145.5 54.9001 146.3 55.3001 146.7 55.3001C147 55.3001 148.2 55.8001 148.6 55.2001C148.5 55.1001 148.2 54.9001 147.6 55.0001Z" fill="#F4CEAB"/>
<path d="M144.6 62C144.5 61.9 144.3 61.9 144.2 61.9C144 62.3 143.8 62.6 144 62.6C144.7 62.9 145.3 63 145.9 62.5C146.2 62.3 146.5 61.9 146.7 61.5C146.4 61.7 146.1 61.9 145.8 62C145.4 62.3 145 62.2 144.6 62Z" fill="#E59E7A"/>
</g>
<defs>
<clipPath id="clip0">
<rect width="152" height="196.8" fill="white"/>
</clipPath>
</defs>
</svg>
