<svg width="260" height="261" viewBox="0 0 260 261" fill="none" xmlns="http://www.w3.org/2000/svg">
<g clip-path="url(#clip0)">
<path d="M4.00004 232.01L59.2341 258.948C64.5958 261.599 73.1915 261.599 78.5532 258.948L195.66 199.598C201.021 196.947 201.021 192.586 195.66 189.935L140.426 162.911C135.064 160.26 126.468 160.26 121.106 162.911L4.00004 222.261C-1.36167 224.997 -1.36167 229.359 4.00004 232.01Z" fill="#C7D0D4"/>
<path d="M140.596 175.055L170.638 190.448C176 193.099 184.596 193.099 189.957 190.448L256 156.326C261.362 153.675 261.362 149.314 256 146.663L225.957 131.27C220.596 128.619 212 128.619 206.638 131.27L140.596 165.391C135.234 168.042 135.234 172.404 140.596 175.055Z" fill="#C7D0D4"/>
<path d="M202.638 24.7146C203.064 24.8001 205.787 25.1421 206.723 25.4842C207.745 25.8263 207.83 26.596 207.83 26.596C208 27.0235 207.149 27.7077 206.979 27.7932C206.809 27.8787 203.404 26.6815 202.553 26.0828C201.702 25.5697 202.128 24.629 202.638 24.7146Z" fill="#840606"/>
<path d="M194.979 27.0236C195.064 23.4318 200.426 23.6884 200.426 23.6884L204.936 20.6097H206.043C206.043 20.9518 205.787 23.7739 206.128 25.0567C206.468 26.3394 208.766 28.7339 208.766 28.7339L209.872 29.5036C209.872 29.5036 207.915 36.345 203.83 38.3974C199.745 40.4498 196.341 40.0223 194.383 38.9105C192.426 37.7988 191.66 34.1215 191.66 34.1215L193.362 30.3588C193.362 30.4443 194.894 30.6153 194.979 27.0236Z" fill="#EDB291"/>
<path d="M200.426 23.6884L204.936 20.6097H206.043C206.043 20.9518 205.787 23.7739 206.128 25.0567C206.468 26.3394 208.766 28.7339 208.766 28.7339L209.873 29.5036C209.873 29.5036 209.362 31.1284 208.426 33.0953C207.49 31.8981 206.213 30.7008 204.681 30.2732C202.468 29.7601 197.532 29.6746 194.724 28.9905C194.894 28.4774 194.979 27.8787 194.979 26.9381C195.149 23.4318 200.426 23.6884 200.426 23.6884Z" fill="#E59E7A"/>
<path d="M188.426 25.3988C189.362 21.5505 193.192 20.0967 193.192 20.0967L199.064 22.7477C199.064 22.7477 195.83 27.9643 195.745 28.3064C195.149 30.1022 194.128 32.6678 195.149 34.4637C196.681 37.1147 201.022 36.174 203.66 34.2071C205.873 32.5823 208.085 27.2802 208.085 27.2802C208.085 27.2802 210.553 28.5629 211.745 29.2471C212.936 29.9312 215.575 31.214 216.766 31.9836C217.958 32.7533 220.085 33.694 221.447 34.8057C221.447 34.8057 217.447 37.0292 216.936 40.4499C216.426 43.9561 216.256 48.061 216.256 49.6003C216.256 51.1396 214.809 56.6983 214.894 61.0597C214.894 61.0597 214.894 65.8486 215.064 68.8418C215.149 69.6969 216.17 75.5121 216.596 82.3536C216.681 83.8074 216.256 91.2474 215.319 92.4446C214.383 93.7274 202.809 92.6157 196.936 90.7343C191.064 88.8529 186.553 86.1163 185.192 84.0639C183.83 82.0115 186.128 68.6707 186.553 67.1314C186.979 65.5921 186.213 61.6583 186.213 61.6583C185.107 57.3824 184.17 54.3038 183.915 49.9424C183.66 45.8375 183.49 40.0223 184.596 36.0885C185.617 32.8388 187.66 28.5629 188.426 25.3988Z" fill="#20A9D3"/>
<path d="M220.511 136.315C220.511 136.315 221.957 137.769 222.043 138.795C222.128 139.907 221.447 141.788 220.936 143.157C220.511 144.525 220.596 147.261 220.596 148.801C220.596 150.34 219.83 152.906 217.957 155.044C216 157.267 213.872 158.721 213.277 158.892C211.149 159.662 210.383 159.491 209.702 158.977C209.021 158.464 213.957 157.609 215.83 154.958C217.617 152.393 218.553 149.656 218.723 146.919C218.894 144.183 218.723 142.644 219.149 141.617C219.575 140.591 220.17 139.479 220.255 138.71C220.426 137.94 219.489 135.802 219.489 135.802L220.511 136.315Z" fill="black"/>
<path d="M213.787 132.125C213.787 132.125 215.149 133.75 216.426 134.263C217.787 134.776 218.383 135.374 218.383 136.572C218.383 137.854 217.192 141.874 214.979 142.9C212.085 144.268 210.979 143.071 210.979 143.071C210.979 143.071 211.404 142.216 210.043 140.506C208.681 138.795 204.681 136.828 204.681 136.828C204.681 136.828 207.319 136.144 208.766 134.177C210.213 132.21 210.979 130.072 210.979 130.072L213.787 132.125Z" fill="white"/>
<path d="M216.851 134.177C216.851 134.177 216.511 134.947 216.596 136.315C216.681 137.683 216.851 138.966 216 139.821C215.149 140.677 213.787 141.19 213.192 140.848C212.596 140.505 211.064 140.677 211.064 140.677L210.468 142.216C210.468 142.216 210.383 143.755 210.383 145.123C210.383 146.492 209.787 150.682 209.447 151.965C208.255 155.984 208.511 157.352 209.021 158.55C209.362 159.319 211.064 159.747 212.851 158.892C214.638 158.037 218.043 153.419 218.979 151.452C219.915 149.485 219.575 148.117 219.575 146.15C219.575 144.354 219.404 143.584 219.915 142.472C220.511 141.275 221.021 139.736 221.021 138.71C221.021 137.683 220.851 137.341 220.085 136.401C219.319 135.374 217.277 134.092 216.851 134.177Z" fill="#0F5B68"/>
<path d="M209.277 158.55C209.617 158.55 210.468 158.208 210.894 158.293C212.085 158.464 213.787 156.07 214.723 154.787C215.66 153.419 217.106 149.741 217.021 148.117C216.936 146.406 217.617 141.617 217.957 139.479C218.213 138.026 218.894 136.401 219.319 135.46C219.66 135.717 220 135.973 220.17 136.23C220.936 137.17 221.106 137.598 221.106 138.539C221.106 139.565 220.596 141.019 220 142.301C219.489 143.328 219.66 144.183 219.66 145.979C219.66 147.946 220 149.314 219.064 151.281C218.128 153.248 214.723 157.866 212.936 158.721C211.404 159.49 209.617 159.319 209.277 158.55Z" fill="#0E4D54"/>
<path d="M214.809 144.012C214.809 143.926 214.724 143.926 214.638 143.926L210.383 144.696C210.383 144.867 210.383 144.952 210.383 145.124L211.915 145.893L210.298 147.09C210.298 147.261 210.298 147.518 210.298 147.689L213.532 147.09L211.575 148.459L210.298 147.775C210.298 147.86 210.298 147.946 210.298 148.117L211.319 148.63L210.128 149.399C210.128 149.485 210.128 149.656 210.128 149.741L211.575 148.715L213.192 149.57L210.128 149.741C210.128 149.827 210.128 149.912 210.043 149.998L213.702 149.827H213.787C213.787 149.827 213.787 149.741 213.873 149.741C213.873 149.656 213.873 149.656 213.787 149.57L211.83 148.544L214.213 146.919C214.213 146.919 214.213 146.919 214.298 146.834V146.748C214.298 146.748 214.298 146.748 214.213 146.663L212.426 145.808L214.638 144.183C214.809 144.183 214.809 144.097 214.809 144.012ZM213.787 146.748L210.468 147.347L212.255 145.979L213.787 146.748ZM212.255 145.722L210.724 144.952L214.128 144.354L212.255 145.722Z" fill="white"/>
<path d="M182.979 75.17C182.979 75.17 180.511 100.056 180.085 106.897C179.66 113.739 177.362 116.988 185.447 124.257C190.809 129.132 207.915 142.045 207.915 142.045C207.915 142.045 209.958 141.788 213.362 138.026C215.575 135.546 216.341 132.552 216.341 132.552C216.341 132.552 207.234 123.316 204.851 121.35C200.17 117.501 193.958 113.91 193.958 113.91C193.958 113.91 198.213 100.654 199.915 96.1219C201.617 91.5894 211.915 87.3136 211.915 85.6032C211.915 83.8928 183.83 80.0446 182.979 75.17Z" fill="#0F5B68"/>
<path d="M177.532 178.304C181.362 176.85 186.809 174.969 188 174.028C189.192 173.088 193.532 171.035 193.532 171.035L195.064 169.838L195.404 171.292C195.404 171.292 195.745 173.43 195.319 174.456C194.894 175.482 193.873 176.594 192.766 176.765C191.66 176.936 190.043 177.278 189.277 177.791C188.511 178.304 185.277 179.844 183.319 180.528C181.277 181.212 176.681 182.58 173.787 181.725C170.553 180.784 170.298 178.817 170.298 178.817C170.298 178.817 173.617 179.758 177.532 178.304Z" fill="black"/>
<path d="M185.107 166.759C188.851 162.826 188.426 158.208 188.426 158.208L195.745 161.115C195.745 161.115 196.681 161.97 195.66 163.852C194.639 165.819 195.575 170.608 195.575 170.608C195.575 170.608 196.766 174.114 188.851 175.91C185.192 178.475 175.575 182.837 171.745 179.758C168.596 178.903 174.043 174.37 176.256 172.318C178.383 170.437 183.745 167.615 185.107 166.759Z" fill="white"/>
<path d="M183.66 166.674C185.192 163.168 187.66 167.529 187.66 167.529C187.66 167.529 189.362 169.753 189.702 168.555C189.958 167.615 193.617 167.615 195.064 167.615C195.149 169.239 195.405 170.693 195.405 170.693C195.405 170.693 196.596 174.199 188.681 175.995C185.022 178.561 175.405 182.922 171.575 179.844C168.426 178.988 170.298 175.653 175.66 172.233C178.298 170.693 182.383 167.529 183.66 166.674Z" fill="#0F5B68"/>
<path d="M173.277 179.587C174.468 179.758 178.213 177.962 179.405 177.107C180.596 176.252 183.319 174.285 186.553 173.772C189.787 173.259 191.745 170.608 192 169.239C192.085 168.812 192.681 168.213 193.447 167.615C194.128 167.615 194.809 167.615 195.234 167.615C195.319 169.239 195.575 170.693 195.575 170.693C195.575 170.693 196.766 174.199 188.851 175.995C185.192 178.561 175.405 183.179 171.66 180.1C170.724 179.416 170.043 178.646 170.383 178.048C170.724 178.646 172.426 179.502 173.277 179.587Z" fill="#0E4D54"/>
<path d="M178.979 169.924C178.894 169.924 178.894 169.924 178.809 170.009C178.809 170.095 178.809 170.095 178.809 170.18L181.532 173.088H181.617H181.702C181.788 173.088 181.788 173.002 181.788 172.917L181.277 170.864L184 171.634H184.085C184.085 171.634 184.085 171.548 184.171 171.548V171.463L183.66 169.582L186.298 170.18C186.383 170.18 186.383 170.18 186.468 170.095C186.468 170.009 186.468 170.009 186.468 169.924L183.064 167.187C182.979 167.187 182.979 167.187 182.894 167.187C182.809 167.187 182.809 167.273 182.809 167.358L183.319 169.239L180.851 168.641C180.851 168.641 180.851 168.641 180.766 168.641L180.681 168.555C180.596 168.555 180.596 168.555 180.511 168.555C180.426 168.555 180.426 168.641 180.426 168.726L180.851 170.522L178.979 169.924ZM183.66 169.154L183.234 167.529L185.788 169.667L183.66 169.154ZM183.83 171.035L181.277 168.983L183.405 169.496L183.83 171.035ZM181.192 170.522L180.851 168.983L183.49 171.121L181.192 170.522ZM179.319 170.266L180.937 170.693L181.362 172.404L179.319 170.266Z" fill="white"/>
<path d="M200.766 71.7494C198.809 72.8611 195.83 79.3604 195.234 84.3205C188.681 87.4846 183.66 90.0502 183.66 90.0502C183.66 90.0502 185.702 73.3742 186.553 69.9535C187.319 66.4473 200.766 71.7494 200.766 71.7494Z" fill="#0F5B68"/>
<path d="M218.383 84.919L215.319 74.9134C215.319 74.9134 207.83 80.6431 202.724 79.3604C197.617 77.9921 183.49 73.5452 183.49 73.5452C183.49 73.5452 182.553 79.3604 182.383 81.8404C182.128 84.2349 194.894 96.3784 197.873 97.3191C196.681 103.733 195.49 111.002 194.553 117.159C193.702 122.889 192.256 128.02 192.256 128.02C192.256 128.02 188 156.839 186.553 163.082C188.17 165.306 189.277 165.904 191.49 166.759C195.149 168.128 197.617 166.161 198.043 165.733C198.724 165.049 202.979 154.017 205.021 145.637C206.979 137.256 205.702 130.414 206.468 128.533C208.426 123.402 210.383 117.843 213.277 111.173C220.936 93.2142 218.383 84.919 218.383 84.919Z" fill="#05687F"/>
<path d="M213.277 111.173C220.936 93.2143 218.383 84.9191 218.383 84.9191L215.319 74.9135C215.319 74.9135 207.83 80.6432 202.724 79.3604C199.234 78.4197 191.404 76.0252 186.894 74.5714C187.575 77.9921 189.277 84.577 189.277 84.577C189.277 84.577 198.638 93.1288 203.064 94.4115C207.49 95.6943 209.447 98.944 210.043 102.108C210.638 105.187 211.149 115.107 209.787 119.81C210.809 117.159 211.915 114.337 213.277 111.173Z" fill="#0F5B68"/>
<path d="M198.553 102.279C198.638 102.279 198.724 102.194 198.724 102.194C198.553 102.279 198.383 102.365 198.213 102.45C198.213 102.45 198.298 102.365 198.553 102.279Z" fill="#0F5B68"/>
<path d="M173.021 53.9616C173.021 57.2113 170.723 59.8624 167.915 59.8624C165.106 59.8624 162.809 57.2113 162.809 53.9616C162.809 50.712 165.106 48.0609 167.915 48.0609C170.723 48.0609 173.021 50.712 173.021 53.9616Z" fill="#097789"/>
<path d="M161.192 47.5479C161.192 47.5479 165.787 49.0872 166.638 48.8306C167.49 48.5741 169.702 47.6334 170.809 48.061C171.915 48.4885 173.787 50.2844 173.873 51.9948C173.958 53.7051 173.362 55.9286 173.362 55.9286C173.362 55.9286 167.745 56.6983 166.638 57.2114C165.532 57.7245 160.255 57.6389 157.277 56.0996C154.298 54.4748 159.915 49.0017 160.426 48.4885C160.936 47.9754 161.192 47.5479 161.192 47.5479Z" fill="#E59E7A"/>
<path d="M196.851 25.2277C196.851 25.2277 195.234 21.2084 194.383 21.0373C193.532 20.8663 190.638 19.5835 188.511 21.1228C186.383 22.6622 181.277 37.7988 179.745 41.6471C179.149 43.0154 178.468 46.4361 176.766 46.5216C165.873 46.7781 164.17 50.0278 164.17 50.0278C164.17 50.0278 165.873 48.0609 168.426 48.2319C169.958 48.3175 171.404 49.6857 171.915 50.4554C172.936 51.9947 173.192 54.7313 172.256 56.7837C170.724 60.2044 168.17 59.9479 168.17 59.9479C168.17 59.9479 178.724 57.981 179.83 57.5534C180.936 57.1258 186.809 54.7313 188.085 51.3106C189.362 47.8899 192.766 36.9436 192.766 36.9436L196.851 25.2277Z" fill="#20A9D3"/>
<path d="M188.851 20.7807C185.192 24.8 183.064 35.6608 182.213 39.8512C181.362 44.2981 180.936 48.8305 178.979 49.6857C177.873 50.1988 174.553 50.9685 172.341 51.4816C172.936 52.6788 172.511 55.5864 171.745 57.2113C170.213 60.632 168 59.8623 168 59.8623C168 59.8623 178.553 57.8954 179.66 57.4678C180.766 57.0402 186.639 54.6457 187.915 51.225C189.192 47.8043 192.596 36.858 192.596 36.858L196.851 25.3132C196.851 25.3132 193.447 21.978 192.596 21.7214C191.915 21.4649 190.639 20.0111 188.851 20.7807Z" fill="#0B8CAA"/>
<path d="M183.915 62.6845C183.915 56.4417 182.468 45.923 182.979 41.5616C183.489 37.2002 186.468 27.0236 186.809 25.2277C186.979 24.116 187.915 22.2346 188.341 20.7808C188.681 19.4981 191.149 19.327 191.149 19.327L196.426 21.807C196.426 21.807 198.298 22.5767 197.958 24.2871C197.532 26.425 194.128 33.6085 193.787 36.0885C193.532 38.1409 193.021 39.6802 193.872 48.4886L194.213 69.1838L193.787 87.6557C193.787 87.6557 190.468 86.2019 187.404 84.0639C184.511 82.0115 181.532 77.6501 182.468 75.5122C183.319 73.2887 183.915 68.9273 183.915 62.6845Z" fill="#F2170C"/>
<path d="M190.979 20.4388C191.915 20.6098 195.745 22.9188 195.745 22.9188L195.064 24.0305C195.064 24.0305 193.702 24.2015 193.021 24.2015C192.341 24.2015 191.149 25.9974 190.638 25.9974C190.128 25.9974 188.085 25.3988 188.085 25.3988C188.085 25.3988 188.596 22.4912 188.936 21.3794C189.106 20.2677 190.043 20.2677 190.979 20.4388Z" fill="#F94932"/>
<path d="M190.809 16.9324C190.894 16.0772 190.468 11.2882 191.149 9.74893C191.83 8.20961 193.277 4.87442 194.979 4.10476C194.979 4.10476 197.021 3.42062 198.468 4.01924C199.915 4.53235 203.149 6.32822 204.596 9.49237C206.128 12.6565 204.341 15.1365 204.341 15.1365C204.341 15.1365 205.192 16.0772 205.787 15.4786C206.298 14.7945 207.234 15.4786 207.83 16.2483C208.511 17.0179 207.83 18.3862 207.489 18.9848C207.149 19.4979 206.553 20.6097 206.298 21.4648C206.043 22.32 204.681 25.3131 203.66 25.9118C202.723 26.5959 195.149 28.2207 194.043 28.3063C192.936 28.3918 191.234 27.7932 191.149 27.1945C191.064 26.6814 190.213 22.0635 190.298 20.4386C190.383 18.8138 190.723 17.7876 190.809 16.9324Z" fill="#F4CEAB"/>
<path d="M194.894 4.10476C194.894 4.10476 196.936 3.42062 198.383 4.01924C199.83 4.53235 203.064 6.32822 204.511 9.49237C206.043 12.6565 204.256 15.1365 204.256 15.1365C204.256 15.1365 205.107 16.0772 205.702 15.4786C206.213 14.7945 207.149 15.4786 207.745 16.2483C208.426 17.0179 207.745 18.3862 207.404 18.9848C207.064 19.4979 206.468 20.6097 206.213 21.4648C205.958 22.32 204.596 25.3131 203.575 25.9118C202.639 26.5959 195.064 28.2207 193.958 28.3063C193.532 28.3063 193.022 28.3063 192.511 28.1352C195.064 27.4511 197.277 25.1421 197.532 24.0304C197.787 22.9186 198.213 21.978 199.234 20.7807C200.341 19.5835 200.766 18.1297 201.192 17.6166C201.617 17.1034 201.532 15.2221 201.107 13.6827C200.681 12.1434 195.49 11.6303 193.873 10.9462C192.17 10.262 192.085 9.83444 191.575 8.46616C192.426 6.84133 193.617 4.70338 194.894 4.10476Z" fill="#EDB291"/>
<path d="M194.298 2.47998C195.83 1.62481 198.979 -0.427618 203.319 0.0854886C207.66 0.598595 210.979 2.90757 211.66 5.72966C212.34 8.55174 211.745 12.8276 211.319 14.1104C210.894 15.3932 208.681 18.4718 208 19.5835C207.234 20.6953 206.638 21.6359 206.468 22.4911C206.213 23.4318 206.213 23.6884 206.213 23.6884C206.213 23.6884 205.702 22.2346 205.872 21.7215C206.128 21.2084 207.404 18.8994 207.489 17.189C207.575 15.4787 206.383 15.6497 205.872 15.6497C205.362 15.6497 204.851 16.2483 204.596 17.018C204.426 17.5311 204.085 17.9587 204.085 17.9587C204.085 17.9587 202.894 15.9063 202.979 14.6235C203.064 13.3407 203.234 10.6897 202.723 10.6042C202.298 10.5186 199.83 10.3476 198.723 10.6042C197.617 10.8607 192.255 10.3476 191.149 9.40692C190.553 8.80829 190.043 6.84139 190.638 5.38759C191.234 3.93378 192.766 3.33516 194.298 2.47998Z" fill="#F7A521"/>
<path d="M195.66 2.39448C197.192 1.62482 200.17 0.342055 202.468 0.684126C203.234 0.769644 207.234 1.62482 208.085 2.22344C208.936 2.73655 211.234 5.3876 211.319 7.52554C211.405 9.66348 211.234 11.5449 211.234 11.5449C211.234 11.5449 211.149 9.06486 210.553 8.03865C210.043 7.09795 209.022 6.92692 209.022 6.92692C209.022 6.92692 210.298 8.38072 210.298 10.0056C210.298 11.6304 209.447 13.2552 209.447 13.2552C209.447 13.2552 210.128 11.1173 209.447 9.57797C208.766 8.03865 206.724 7.26899 206.724 7.26899C206.724 7.26899 207.915 8.46624 208 10.0911C208.085 11.7159 207.234 13.2552 207.234 13.2552C207.234 13.2552 207.49 10.1766 206.383 9.2359C205.277 8.2952 205.107 9.2359 205.107 9.749C205.107 10.2621 204.256 8.89382 202.724 8.97934C201.192 9.06486 195.149 9.2359 193.617 8.46624C192.085 7.69658 191.319 6.15726 191.575 5.3876C191.915 4.61794 194.128 3.16414 195.66 2.39448Z" fill="#F4C222"/>
<path d="M192.511 52.2513C192.851 48.4885 198.383 41.7327 199.745 40.0223C201.873 37.2002 206.383 28.8195 207.49 26.6815C207.745 26.254 207.404 25.9119 207.319 25.7408C207.49 25.9119 208.17 26.5105 208.341 26.6815C209.107 27.3657 210.809 28.3064 212 28.8195C213.532 29.4181 216.511 30.7864 219.404 32.4112C222.043 33.6085 223.915 35.7464 224.341 37.7133C220.596 34.1216 215.915 38.1409 214.639 39.3382C213.362 40.6209 213.107 44.2982 213.702 47.1203C214.298 49.9423 221.617 50.7975 221.617 50.7975C221.617 50.7975 218.468 55.7576 217.958 57.5534C217.107 60.5465 216.936 65.8486 216.936 65.8486C216.936 65.8486 217.107 72.6045 217.362 76.3673C217.702 80.1301 219.234 87.2281 218.638 88.1688C218.043 89.1095 214.639 91.846 208.085 91.9315C198.979 92.0171 193.277 87.2281 193.277 87.2281L192.936 79.446C192.936 79.446 193.277 68.9273 193.873 67.0459C194.468 65.1645 192.256 55.1589 192.511 52.2513Z" fill="#F2170C"/>
<path d="M213.617 47.2057C214.213 50.0278 221.532 50.883 221.532 50.883C221.532 50.883 218.383 55.843 217.873 57.6389C217.022 60.632 216.851 65.9341 216.851 65.9341C216.851 65.9341 217.022 72.69 217.277 76.4528C217.617 80.2155 219.149 87.3135 218.553 88.2542C217.958 89.1949 214.553 91.9315 208 92.017C207.49 92.017 207.064 92.017 206.639 92.017C205.532 87.5701 203.405 78.0776 203.405 69.6114C203.405 59.9479 211.234 45.5809 213.702 41.2195C213.192 42.7588 213.192 45.2388 213.617 47.2057Z" fill="#B70606"/>
<path d="M223.064 36.0029C225.022 37.3712 224.426 41.2195 224.426 42.4168C224.426 42.4168 223.915 45.923 222.043 49.8568C220.596 52.7644 218.128 56.1851 215.83 56.4417C213.617 56.7837 212 51.9947 211.83 48.4885C211.745 46.094 212.681 40.7064 214.639 37.7988C216.596 34.8057 221.107 34.5491 223.064 36.0029Z" fill="#840606"/>
<path d="M199.575 62.599C199.575 65.25 197.617 68.7562 195.745 68.7562C193.872 68.7562 192.766 65.25 192.766 62.599C192.766 59.9479 194.043 58.0665 196 58.0665C197.787 57.981 199.575 59.8624 199.575 62.599Z" fill="#097789"/>
<path d="M196.17 58.5796C196.17 58.5796 195.489 58.5796 192.085 58.5796C188.681 58.5796 185.021 57.4679 184 58.7507C182.979 60.0334 180 63.2831 180.596 64.5659C181.106 65.6776 181.021 66.0197 181.702 67.1314C182.383 68.2431 183.83 69.868 184.255 69.9535C185.021 70.21 186.553 71.4928 187.66 71.4073C188.766 71.3218 189.958 70.8087 191.234 69.0983C192.511 67.388 192.341 65.7631 193.787 65.8486C195.234 65.9342 198.298 67.3024 198.298 67.3024C198.298 67.3024 201.447 66.8749 200.681 64.3093C200 61.7438 202.383 58.8362 196.17 58.5796Z" fill="#EDB291"/>
<path d="M200.766 64.8225L199.149 64.5659C199.149 64.5659 195.319 64.3094 194.638 64.2239C193.958 64.1383 191.915 63.0266 191.915 63.0266C191.915 63.0266 191.83 65.1646 191.234 65.8487C190.383 66.9604 189.702 68.2432 189.192 68.8418C188.681 69.4404 188.085 70.3811 187.064 70.4666C186.043 70.5522 184.085 69.9535 184.085 69.9535C184.851 70.2101 186.383 71.4929 187.489 71.4073C188.596 71.3218 189.787 70.8087 191.064 69.0984C192.341 67.388 192.17 65.7632 193.617 65.8487C195.064 65.9342 198.128 67.3025 198.128 67.3025C198.128 67.3025 200.851 66.8749 200.766 64.8225Z" fill="#E59E7A"/>
<path d="M194.979 57.981C198.128 57.3823 202.213 58.2375 211.405 59.6913C210.468 54.9023 208.681 45.1533 211.405 41.5616C213.958 38.2264 215.49 35.4898 219.405 35.2333C223.234 34.8912 223.319 38.7395 222.894 47.9754C222.894 47.9754 223.915 57.1258 221.617 66.7893C221.447 67.5589 220.256 69.0127 218.213 69.7824C214.383 71.2362 210.724 70.6376 206.128 69.8679C201.192 69.0127 198.298 68.0721 196.511 67.2169C197.192 65.7631 198.128 63.7962 197.958 61.9148C197.788 59.9479 196.851 58.8361 194.979 57.981Z" fill="#20A9D3"/>
<path d="M221.702 66.8748C222.128 65.1645 222.383 63.5396 222.639 61.9148C222.128 63.3686 221.277 65.3355 220 66.4472C217.873 68.3286 213.873 67.0459 209.958 66.1907C206.894 65.5065 200.596 64.7369 197.788 64.3948C197.532 65.5065 196.426 68.2431 194.979 68.7562C197.277 69.4404 200.681 69.9535 205.617 70.8086C210.128 71.5783 214.468 71.4073 218.298 69.9535C220.256 69.0983 221.447 67.6445 221.702 66.8748Z" fill="#0B8CAA"/>
<path d="M222.809 38.4829C222.128 37.2857 220.681 36.2594 217.702 36.4305C215.575 36.516 215.745 36.9436 215.064 37.1146C216.255 36.0884 217.617 35.0622 219.489 34.8912C221.277 34.8056 222.724 36.4305 222.809 38.4829Z" fill="#0B8CAA"/>
<path d="M208.17 27.6222C208.17 27.6222 209.192 28.1353 209.447 28.5629C209.617 28.9905 213.362 30.4443 214.468 30.8719C215.575 31.2995 221.107 34.1215 220 33.9505C218.979 33.865 218.043 34.4636 218.043 34.4636C218.043 34.4636 216.766 33.6084 216 33.6084C215.149 33.6084 213.362 33.6084 211.66 34.4636C210.043 35.3188 209.277 35.1478 208.17 34.5491C207.064 33.9505 204.766 33.4374 205.362 32.7533C206.043 32.1546 208.17 27.6222 208.17 27.6222Z" fill="#F94932"/>
<path d="M159.66 146.663L161.958 145.722L175.149 55.4154L172.766 56.3561L159.66 146.663Z" fill="black"/>
<path d="M160.17 143.242L172.766 56.3561L170.809 54.8168L158.128 141.703L160.17 143.242Z" fill="#303D40"/>
<path d="M172 76.2817L176.17 78.5052C176.34 78.5907 176.511 78.6762 176.681 78.6762C181.106 78.8472 186.043 76.1962 186.043 74.9134L186.553 70.2955C186.553 67.1313 184.511 64.8223 181.532 63.1975L162.213 52.6788C161.447 52.2512 161.106 52.1657 160.511 52.1657C159.319 52.1657 159.064 52.5078 158.638 54.3892L158.213 58.2375C158.213 61.7437 162.468 70.8941 165.106 72.3479L168.426 74.5713L167.66 78.5052L163.66 76.3672C159.234 73.9727 154.723 62.3423 154.723 57.9809L155.149 54.2181C155.745 50.1988 157.277 47.9753 160.511 47.9753C161.702 47.9753 162.894 48.3174 164.17 49.0016L183.489 59.5202C187.66 61.8292 190.383 65.9341 190.468 70.8941L189.702 75.9396C188.766 80.3866 182.043 82.8666 177.702 82.8666C176.936 82.8666 175.83 82.6955 175.149 82.3535L171.319 80.4721C171.319 80.4721 170.383 79.5314 170.723 78.0776C170.979 76.0252 172 76.2817 172 76.2817Z" fill="#303D40"/>
<path d="M158.638 62.7699L158.128 62.5989L157.277 62.6844L157.872 64.3092C157.872 64.3092 160.766 71.4072 162.213 72.69C163.404 73.6307 166.383 75.341 167.745 76.1107L168 74.7424L164.426 72.6044C162.468 71.5782 160.085 66.7892 158.638 62.7699Z" fill="#525B5E"/>
<path d="M184.255 76.8804L184.766 75.4266C184.766 75.4266 185.362 74.4003 185.702 72.861C186.213 70.8941 186.128 68.4996 185.787 67.8155C184.511 65.25 182.979 64.7369 182.468 64.3948C181.362 63.5396 181.277 63.112 181.277 63.112C181.277 63.112 181.191 62.1713 181.702 60.9741C182.128 59.7768 182.808 59.3492 182.808 59.3492C182.808 59.3492 184.255 59.7768 185.106 60.2044C185.617 60.461 186.638 61.1451 186.894 61.4017C187.83 62.1713 190.213 64.7369 190.468 68.1576C190.723 71.5783 190.383 73.3741 190.043 74.7424C189.702 76.1107 189.447 77.308 189.021 78.0776C188.596 78.7618 187.915 79.0183 187.915 79.0183C187.915 79.0183 187.319 79.5314 185.787 78.5907C184.255 77.479 184.255 76.8804 184.255 76.8804Z" fill="black"/>
<path d="M159.66 64.3948C159.66 64.3948 159.149 64.8223 157.532 64.4803C156 64.1382 155.319 62.8554 155.319 62.8554L154.808 61.5727C154.808 61.5727 154.383 60.7175 154.298 59.1782C154.298 57.5533 154.638 54.2181 155.064 52.5933C155.489 51.054 156.34 49.2581 157.277 48.4885C158.213 47.8043 160.17 47.2057 162.213 47.8043C164.17 48.403 166.383 49.8567 166.383 49.8567L166.808 50.2843C166.808 50.2843 165.957 51.3106 165.617 52.5078C165.277 53.705 165.532 54.2182 165.532 54.2182C165.532 54.2182 164.936 54.2181 164.681 54.1326C164.426 54.0471 161.872 52.6788 161.702 52.5078C161.447 52.4223 159.745 51.8237 159.319 52.6788C158.894 53.534 158.383 57.8099 158.383 58.494C158.383 59.1782 159.064 61.3161 159.574 62.6844C159.66 63.283 159.83 63.9672 159.66 64.3948Z" fill="black"/>
<path d="M171.915 76.7094C171.915 76.7094 171.404 76.7949 171.234 77.2225C171.064 77.65 171.234 77.65 171.234 77.65C171.234 77.65 173.532 79.0183 174.128 79.1894C175.404 79.617 177.362 79.1894 177.362 79.1894C177.362 79.1894 175.404 78.8473 174.894 78.5907C174.298 78.2487 171.915 76.7094 171.915 76.7094Z" fill="#525B5E"/>
<path d="M182.128 59.2637C181.617 59.5202 181.532 60.2899 181.532 60.2899L166.213 51.9946C166.213 51.9946 166.213 51.8236 166.383 51.4815C166.553 51.1395 166.894 51.054 166.894 51.054L182.128 59.2637Z" fill="#525B5E"/>
<path d="M155.489 140.334L152.511 138.71C152.511 138.71 151.66 138.025 150.043 139.223C148.34 140.505 146.213 142.985 146.213 142.985C146.213 142.985 144 145.551 143.319 146.15C142.723 146.663 144.17 147.347 144.17 147.347C144.17 147.347 147.234 146.235 148.17 145.466C149.106 144.696 150.809 142.729 152.085 141.788C153.277 140.762 154.043 140.249 155.489 140.334Z" fill="#525B5E"/>
<path d="M146.894 173.857C146.894 171.292 149.021 168.128 151.574 166.845C153.021 166.075 154.723 166.075 155.489 166.93C155.915 167.101 156 167.187 156.511 167.444C158.042 167.615 158.468 168.384 158.468 168.384C158.468 168.384 152.085 178.304 151.574 178.133C151.149 177.962 148.511 176.594 148.511 176.594C148.511 176.594 148.255 176.508 148 176.252C147.319 175.91 146.894 175.055 146.894 173.857Z" fill="#525B5E"/>
<path d="M150.042 175.482C150.042 178.048 152.17 179.16 154.723 177.791C157.277 176.508 159.404 173.344 159.404 170.779C159.404 168.213 157.277 167.102 154.723 168.47C152.17 169.753 150.042 172.917 150.042 175.482Z" fill="#303D40"/>
<path d="M153.957 170.779C153.957 170.779 155.489 169.41 156.681 169.753C157.872 170.095 158.298 170.95 158.042 172.404C157.787 173.772 155.745 176.936 152.851 176.081C151.149 175.055 153.957 170.779 153.957 170.779Z" fill="#242E30"/>
<path d="M151.915 174.542C151.915 176.081 153.191 176.765 154.723 175.91C156.255 175.14 157.532 173.259 157.532 171.719C157.532 170.18 156.255 169.496 154.723 170.351C153.191 171.121 151.915 173.002 151.915 174.542Z" fill="black"/>
<path d="M153.021 174.028C153.021 174.969 153.787 175.311 154.723 174.884C155.66 174.456 156.426 173.259 156.426 172.318C156.426 171.377 155.66 171.035 154.723 171.463C153.787 171.89 153.021 173.088 153.021 174.028Z" fill="#303D40"/>
<path d="M155.574 171.377C155.66 171.377 155.66 171.292 155.745 171.292C156.17 171.377 156.426 171.719 156.426 172.318C156.426 173.259 155.66 174.371 154.723 174.884C154.638 174.884 154.638 174.969 154.553 174.969C154.128 174.884 153.872 174.542 153.872 173.943C153.872 172.917 154.638 171.805 155.574 171.377Z" fill="#525B5E"/>
<path d="M152.766 167.444C154.383 166.674 155.489 166.759 156.51 167.529C155.745 167.273 154.808 167.444 153.702 168.042C151.149 169.325 149.021 172.489 149.021 175.055C149.021 176.081 149.362 176.851 149.872 177.278C148.851 176.936 148.17 175.995 148.17 174.456C148.085 171.891 150.127 168.726 152.766 167.444Z" fill="black"/>
<path d="M154.383 173.088V168.641C154.383 168.641 155.234 169.924 158.213 170.009C161.191 170.095 162.042 168.641 162.042 168.641V173.088C162.213 173.686 161.787 174.285 160.936 174.713C159.404 175.482 156.936 175.482 155.489 174.713C154.638 174.199 154.213 173.686 154.383 173.088Z" fill="#303D40"/>
<path d="M158.213 169.924C161.191 170.009 162.043 168.555 162.043 168.555V173.002C162.213 173.601 161.787 174.199 160.936 174.627C159.915 175.14 158.553 175.311 157.277 175.14L157.362 172.147C157.362 172.147 156.511 171.89 155.319 171.206C154.979 171.035 154.638 170.608 154.298 170.18V168.641C154.383 168.641 155.234 169.924 158.213 169.924Z" fill="#212B2D"/>
<path d="M154.894 177.962C154.894 175.397 157.021 172.233 159.574 170.95C161.021 170.18 162.723 170.18 163.489 171.035C163.915 171.206 164 171.292 164.511 171.548C166.042 171.719 166.468 172.489 166.468 172.489C166.468 172.489 160.085 182.409 159.574 182.238C159.149 182.067 156.511 180.699 156.511 180.699C156.511 180.699 156.255 180.613 156 180.357C155.319 180.015 154.894 179.16 154.894 177.962Z" fill="#525B5E"/>
<path d="M158.042 179.587C158.042 182.153 160.17 183.264 162.723 181.896C165.277 180.613 167.404 177.449 167.404 174.884C167.404 172.318 165.277 171.206 162.723 172.575C160.17 173.857 158.042 177.021 158.042 179.587Z" fill="#303D40"/>
<path d="M161.957 174.884C161.957 174.884 163.489 173.515 164.681 173.857C165.872 174.199 166.298 175.055 166.042 176.508C165.787 177.877 163.745 181.041 160.851 180.186C159.149 179.16 161.957 174.884 161.957 174.884Z" fill="#242E30"/>
<path d="M159.915 178.646C159.915 180.186 161.191 180.87 162.723 180.015C164.255 179.245 165.532 177.364 165.532 175.824C165.532 174.285 164.255 173.601 162.723 174.456C161.191 175.226 159.915 177.107 159.915 178.646Z" fill="black"/>
<path d="M161.021 178.048C161.021 178.988 161.787 179.33 162.723 178.903C163.66 178.475 164.425 177.278 164.425 176.337C164.425 175.397 163.66 175.055 162.723 175.482C161.787 175.995 161.021 177.107 161.021 178.048Z" fill="#303D40"/>
<path d="M163.574 175.397C163.66 175.397 163.66 175.311 163.745 175.311C164.17 175.397 164.425 175.739 164.425 176.337C164.425 177.278 163.66 178.39 162.723 178.903C162.638 178.903 162.638 178.988 162.553 178.988C162.128 178.903 161.872 178.561 161.872 177.962C161.872 177.022 162.638 175.91 163.574 175.397Z" fill="#525B5E"/>
<path d="M160.766 171.548C162.383 170.779 163.489 170.864 164.51 171.634C163.745 171.377 162.808 171.548 161.702 172.147C159.149 173.43 157.021 176.594 157.021 179.159C157.021 180.186 157.362 180.955 157.872 181.383C156.851 181.041 156.17 180.1 156.17 178.561C156.085 175.995 158.127 172.831 160.766 171.548Z" fill="black"/>
<path d="M163.83 127.421L164.851 129.303L160.085 153.419L158.468 154.616L152.51 151.281L159.745 125.369L163.83 127.421Z" fill="#242E30"/>
<path d="M163.83 127.421L166.553 132.21L164.085 150.083L158.468 154.616L163.83 127.421Z" fill="black"/>
<path d="M162.298 166.332V152.392C162.298 152.392 160.851 154.53 155.915 154.616C150.979 154.701 149.532 152.392 149.532 152.392V166.246C149.276 167.187 149.872 168.213 151.404 168.983C153.957 170.266 158.042 170.266 160.511 168.983C161.872 168.213 162.468 167.273 162.298 166.332Z" fill="#464F51"/>
<path d="M155.745 154.701C150.979 154.787 149.532 152.392 149.532 152.392V166.246C149.276 167.187 149.872 168.213 151.404 168.983C152.596 169.582 154.213 169.924 155.83 169.924V154.701H155.745Z" fill="#303D40"/>
<path d="M160.511 149.998C163.064 151.281 163.064 153.333 160.511 154.616C157.957 155.899 153.872 155.899 151.404 154.616C148.851 153.333 148.851 151.281 151.404 149.998C153.957 148.715 158.042 148.715 160.511 149.998Z" fill="#525B5E"/>
<path d="M153.362 151.366C153.362 151.366 153.872 152.221 154.808 152.392C155.83 152.563 157.532 152.392 158.128 152.136C158.723 151.794 158.979 151.452 158.979 151.452C158.979 151.452 158.893 152.392 158.468 152.735C157.872 153.248 156.936 153.333 156.085 153.419C155.319 153.419 154.383 153.162 153.957 152.82C153.447 152.478 153.362 151.366 153.362 151.366Z" fill="black"/>
<path d="M159.064 151.11V144.952C159.064 144.952 158.383 145.893 156.255 145.979C154.127 146.064 153.447 144.952 153.447 144.952V151.024C153.362 151.452 153.617 151.879 154.213 152.221C155.319 152.82 157.106 152.82 158.213 152.221C158.893 151.965 159.149 151.537 159.064 151.11Z" fill="#464F51"/>
<path d="M156.255 145.979C154.127 146.064 153.447 144.952 153.447 144.952V151.024C153.362 151.452 153.617 151.879 154.213 152.221C154.723 152.478 155.319 152.649 156 152.649V149.656C156 149.656 156.766 149.741 157.957 149.143C158.468 148.886 158.808 148.63 159.064 148.373V144.952C159.064 145.038 158.383 145.979 156.255 145.979Z" fill="#303D40"/>
<path d="M169.872 147.775L166.894 146.15C166.894 146.15 166.043 145.466 164.426 146.663C162.723 147.946 160.596 150.426 160.596 150.426C160.596 150.426 161.957 151.794 161.277 152.307C160.681 152.82 158.553 154.701 158.553 154.701C158.553 154.701 161.617 153.59 162.553 152.82C163.489 152.05 166.213 149.399 167.234 148.886C168.681 148.202 168.511 147.689 169.872 147.775Z" fill="#525B5E"/>
<path d="M156.596 155.471L162.298 152.82C162.298 152.82 165.021 149.741 167.234 148.031C169.787 145.979 173.447 148.373 168.085 156.583C167.745 157.01 167.915 157.523 168 158.037L158.043 162.911L156.596 155.471Z" fill="#303D40"/>
<path d="M167.319 151.366C167.319 150.768 167.745 150.083 168.34 149.827C168.681 149.656 168.851 149.656 169.021 149.827L169.617 150.169L169.191 151.452L168.255 152.392C168.255 152.392 167.915 152.221 167.745 152.136C167.489 152.05 167.489 151.965 167.404 151.879C167.404 151.708 167.319 151.537 167.319 151.366Z" fill="#525B5E"/>
<path d="M167.915 151.708C167.915 152.307 168.34 152.478 168.936 152.221C169.532 151.965 169.957 151.281 169.957 150.682C169.957 150.083 169.532 149.912 168.936 150.169C168.425 150.425 167.915 151.11 167.915 151.708Z" fill="#464F51"/>
<path d="M169.532 151.195C169.617 151.024 169.702 150.768 169.617 150.597C169.532 150.511 169.447 150.426 169.276 150.426C169.191 150.426 169.021 150.426 168.936 150.511C168.766 150.597 168.596 150.768 168.51 150.939C168.425 151.11 168.34 151.366 168.425 151.537C168.51 151.366 168.596 151.195 168.681 151.024C168.766 150.853 168.936 150.768 169.106 150.682C169.276 150.597 169.447 150.597 169.532 150.682C169.532 150.768 169.532 150.939 169.532 151.195Z" fill="#748184"/>
<path d="M167.489 150.853C167.574 150.597 167.83 150.34 168 150.083L168.34 150.255C168.085 150.426 167.915 150.682 167.83 151.024L167.489 150.853Z" fill="#748184"/>
<path d="M159.404 142.814V146.064C159.404 146.064 158.979 147.518 154.128 149.399C149.702 151.024 152.596 147.176 152.596 147.176C152.596 147.176 156.255 145.722 157.617 144.61C158.979 143.413 159.404 142.814 159.404 142.814Z" fill="#EBA500"/>
<path d="M156.511 150.083L150.724 152.991L135.66 145.38L141.362 142.472L156.511 150.083Z" fill="#FFCD00"/>
<path d="M167.404 182.837L156.511 150.083L150.723 152.991L158.043 187.455L167.404 182.837Z" fill="#EBA500"/>
<path d="M167.404 182.837V191.218L158.128 195.835V187.369L167.404 182.837Z" fill="#EF8F11"/>
<path d="M158.213 187.54L150.809 152.991L135.66 145.38L124.426 170.522V175.91V178.903L147.915 190.704L158.213 195.75H158.298V187.54H158.213Z" fill="#FFCD00"/>
<path d="M155.745 197.289L158.128 195.835V184.205L155.745 187.284V197.289Z" fill="#303D40"/>
<path d="M156 197.118L121.872 179.758V170.009L124 167.187L158.213 184.205L156 187.284V197.118Z" fill="#464F51"/>
<path d="M121.872 169.924L155.83 187.198L158.213 184.205L124 167.187L121.872 169.924Z" fill="#525B5E"/>
<path d="M48.1703 218.412L51.7447 216.531C51.7447 216.531 52.5107 216.018 53.7873 216.445C55.0639 216.873 56.1703 217.728 56.1703 217.728L59.7447 215.334L53.8724 212.255L45.1064 216.702L48.1703 218.412Z" fill="#303D40"/>
<path d="M48.3403 220.892C48.3403 222.945 50.0425 223.8 52.085 222.774C54.1276 221.747 55.8297 219.182 55.8297 217.129C55.8297 215.077 54.1276 214.222 52.085 215.248C50.0425 216.274 48.3403 218.84 48.3403 220.892Z" fill="#EBA500"/>
<path d="M57.6168 216.531C57.6168 216.531 54.8934 214.991 54.2977 214.906C53.7019 214.82 49.6168 217.215 48.936 220.037C48.3402 222.859 49.6168 223.201 49.6168 223.201C49.6168 223.201 51.7445 224.313 52.0849 224.398C52.5105 224.484 57.6168 216.531 57.6168 216.531Z" fill="#EBA500"/>
<path d="M50.8936 222.175C50.8936 224.227 52.5957 225.082 54.6382 224.056C56.6808 223.03 58.3829 220.464 58.3829 218.412C58.3829 216.36 56.6808 215.504 54.6382 216.531C52.5957 217.557 50.8936 220.122 50.8936 222.175Z" fill="#EF8F11"/>
<path d="M52.4254 220.379C52.2552 220.636 52.1701 220.978 52.085 221.32C51.9998 221.662 51.9998 222.004 52.1701 222.346C52.2552 222.688 52.5105 222.945 52.8509 223.116C53.1913 223.287 53.5318 223.287 53.8722 223.287C54.553 223.201 55.1488 222.774 55.5743 222.346C55.9999 221.918 56.4254 221.32 56.5956 220.721C56.2552 221.234 55.8296 221.662 55.319 222.089C55.0637 222.26 54.8084 222.431 54.553 222.602C54.2977 222.773 54.0424 222.859 53.702 222.859C53.4467 222.945 53.1062 222.859 52.936 222.774C52.6807 222.688 52.5105 222.431 52.4254 222.175C52.2552 221.662 52.3403 220.978 52.4254 220.379Z" fill="#EBA500"/>
<path d="M131.489 180.87V184.462C131.489 184.462 55.0639 222.945 53.4468 223.543C49.8724 224.826 39.4043 224.142 40.5107 221.063C40.5107 221.063 45.1915 223.116 58.2979 216.702C71.4043 210.288 127.574 181.383 127.574 181.383L131.489 180.87Z" fill="#303D40"/>
<path d="M122.468 176.337L131.66 180.955C131.66 180.955 58.6383 217.728 55.3191 219.353C52 220.978 43.6595 223.372 40.851 221.918C38.0425 220.55 43.0638 216.274 46.1276 214.735C49.2766 213.196 122.468 176.337 122.468 176.337ZM54.7234 213.623C53.9574 213.196 52.5106 213.281 51.5744 213.709L48.1702 215.419C47.234 215.932 47.1489 216.616 47.9149 217.044L50.8085 218.498C51.5744 218.925 53.0212 218.84 53.9574 218.327L57.3617 216.616C58.2978 216.103 58.3829 215.419 57.617 214.991L54.7234 213.623Z" fill="#525B5E"/>
<path d="M72.9361 231.24L76.5106 229.358C76.5106 229.358 77.2766 228.845 78.5532 229.273C79.8298 229.7 80.9361 230.556 80.9361 230.556L84.5106 228.161L78.6383 225.083L69.8723 229.444L72.9361 231.24Z" fill="#303D40"/>
<path d="M72.8511 233.463C72.8511 235.516 74.5532 236.371 76.5958 235.345C78.6383 234.318 80.3404 231.753 80.3404 229.7C80.3404 227.648 78.6383 226.793 76.5958 227.819C74.5532 228.845 72.8511 231.411 72.8511 233.463Z" fill="#EBA500"/>
<path d="M82.1276 229.102C82.1276 229.102 79.4042 227.562 78.8084 227.477C78.2127 227.391 74.1276 229.786 73.4467 232.608C72.851 235.43 74.1276 235.772 74.1276 235.772C74.1276 235.772 76.2552 236.884 76.5957 236.969C77.0212 237.14 82.1276 229.102 82.1276 229.102Z" fill="#EBA500"/>
<path d="M75.4043 234.746C75.4043 236.798 77.1064 237.653 79.149 236.627C81.1915 235.601 82.8937 233.036 82.8937 230.983C82.8937 228.931 81.1915 228.075 79.149 229.102C77.1064 230.213 75.4043 232.693 75.4043 234.746Z" fill="#EF8F11"/>
<path d="M76.9361 232.95C76.7659 233.207 76.6808 233.549 76.5957 233.891C76.5106 234.233 76.5106 234.575 76.6808 234.917C76.7659 235.259 77.0212 235.516 77.3617 235.687C77.7021 235.858 78.0425 235.858 78.3829 235.858C79.0638 235.772 79.6595 235.345 80.0851 234.917C80.5106 234.489 80.9361 233.891 81.1063 233.292C80.7659 233.805 80.3404 234.233 79.8297 234.66C79.5744 234.831 79.3191 235.003 79.0638 235.174C78.8085 235.345 78.5531 235.43 78.2127 235.43C77.9574 235.516 77.617 235.43 77.4468 235.345C77.1914 235.259 77.0212 235.003 76.9361 234.746C76.7659 234.233 76.7659 233.634 76.9361 232.95Z" fill="#EBA500"/>
<path d="M156 193.526V197.118C156 197.118 79.5743 235.601 77.9573 236.2C74.3829 237.483 63.9148 236.798 65.0212 233.72C65.0212 233.72 69.702 235.772 82.8084 229.358C95.9148 222.945 152.085 194.04 152.085 194.04L156 193.526Z" fill="#303D40"/>
<path d="M146.808 188.908L156 193.526C156 193.526 82.9786 230.299 79.6594 231.924C76.3403 233.549 67.9999 235.943 65.1914 234.489C62.3829 233.036 67.4041 228.845 70.468 227.306C73.6169 225.852 146.808 188.908 146.808 188.908ZM79.0637 226.28C78.2977 225.852 76.8509 225.938 75.9148 226.365L72.5105 228.076C71.5743 228.589 71.4892 229.273 72.2552 229.615L75.1488 231.069C75.9148 231.496 77.3616 231.411 78.2977 230.983L81.702 229.273C82.6382 228.76 82.7233 228.076 81.9573 227.733L79.0637 226.28Z" fill="#525B5E"/>
<path d="M144.085 145.038L151.83 141.19C151.83 141.19 155.574 139.394 157.957 140.933C160.34 142.472 159.745 144.61 157.191 145.893C154.638 147.261 151.319 148.972 151.319 148.972L144.085 145.038Z" fill="#FFCD00"/>
<path d="M193.191 61.5727C192.511 60.3755 191.66 59.5203 190.894 58.5796C187.83 58.4086 184.766 57.6389 183.915 58.7506C182.894 60.0334 179.915 63.2831 180.511 64.5658C181.021 65.6776 180.936 66.0196 181.617 67.1314C182.298 68.2431 183.745 69.8679 184.17 69.9535C184.936 70.21 186.468 71.4928 187.574 71.4073C188.681 71.3217 189.872 70.8086 191.149 69.0983C192.17 67.73 192.255 66.3617 193.106 65.9341C192.936 64.9934 193.702 62.4279 193.191 61.5727Z" fill="#EDB291"/>
<path d="M193.532 63.7961C192.766 63.4541 192 63.0265 192 63.0265C192 63.0265 191.915 65.1644 191.319 65.8486C190.468 66.9603 189.787 68.2431 189.277 68.8417C188.766 69.4403 188.17 70.381 187.149 70.4665C186.128 70.552 184.17 69.9534 184.17 69.9534C184.936 70.21 186.468 71.4927 187.574 71.4072C188.681 71.3217 189.872 70.8086 191.149 69.0982C192.17 67.73 192.255 66.3617 193.106 65.9341C193.021 65.2499 193.106 64.4803 193.532 63.7961Z" fill="#E59E7A"/>
<path d="M158.043 58.7506C158.043 58.7506 154.638 59.3492 153.872 57.2968C153.107 55.3299 152.766 52.4223 153.787 50.712C154.468 49.6002 157.277 47.9754 159.319 47.2057C161.277 46.4361 163.745 47.8899 163.745 47.8899C163.745 47.8899 165.277 50.0278 165.362 51.2251C165.532 52.4223 164.596 53.534 163.49 54.2182C162.383 54.9023 163.064 55.1589 161.702 56.1851C160.766 56.9547 160.341 58.5796 158.043 58.7506Z" fill="#EDB291"/>
<path d="M163.49 54.2182C164.596 53.5341 165.532 52.4223 165.362 51.2251C165.362 50.883 165.192 50.4554 164.936 50.0278V50.1133C164.596 51.3106 161.532 53.363 160.596 54.2182C159.66 55.0734 159.064 56.4417 157.617 57.5534C156.341 58.4941 154.894 58.2375 154.553 58.152C155.83 59.0927 158.043 58.7506 158.043 58.7506C160.341 58.6651 160.766 57.0403 161.702 56.1851C163.064 55.0734 162.383 54.9023 163.49 54.2182Z" fill="#E59E7A"/>
<path d="M167.49 49.9424C167.064 50.541 166.128 51.0541 164.936 49.9424C164.596 48.9161 162.468 47.3768 162.468 47.3768C162.468 47.3768 163.575 47.8899 164.17 47.9755C165.277 48.1465 165.958 48.061 166.638 47.9755C167.66 47.9755 168 49.2582 167.49 49.9424Z" fill="#EDB291"/>
<path d="M163.404 48.403C163.404 48.403 164.34 49.0016 164.511 49.3437C164.681 49.6857 165.021 50.1133 165.106 50.1988C165.192 50.2843 166.128 51.054 166.894 50.5409C167.66 50.1133 167.66 49.5147 167.66 49.5147C167.66 49.5147 166.894 50.6264 166.128 50.2843C165.362 49.9423 165.021 49.0871 164.681 48.9161C164.34 48.6595 163.404 48.403 163.404 48.403Z" fill="#E59E7A"/>
<path d="M6.46826 224.484L108.511 173.088L114.979 176.337L13.0215 227.734L6.46826 224.484Z" fill="#C47733"/>
<path d="M13.0215 230.299L114.979 178.903V176.337L13.0215 227.734V230.299Z" fill="#C47733"/>
<path d="M6.46826 227.049L13.0215 230.299V227.734L6.46826 224.484V227.049Z" fill="#FFBB63"/>
<path d="M32.8513 237.568L134.809 186.172L141.362 189.422L39.4045 240.903L32.8513 237.568Z" fill="#C47733"/>
<path d="M39.4045 243.469L141.362 191.987V189.422L39.4045 240.903V243.469Z" fill="#C47733"/>
<path d="M32.8513 240.134L39.4045 243.469V240.903L32.8513 237.568V240.134Z" fill="#FFBB63"/>
<path d="M58.7236 253.303L160.681 201.822L167.234 205.157L65.2768 256.553L58.7236 253.303Z" fill="#E39143"/>
<path d="M65.2769 259.119L167.234 207.723V205.157L65.2769 256.553V259.119Z" fill="#C47733"/>
<path d="M58.7236 255.869L65.2768 259.119V256.553L58.7236 253.303V255.869Z" fill="#FFBB63"/>
<path d="M58.7234 245.265L65.2766 248.514L71.7447 245.265L65.2766 242.015L58.7234 245.265Z" fill="#F1A04B"/>
<path d="M65.2766 256.553L71.7447 253.303V245.265L65.2766 248.514V256.553Z" fill="#B87335"/>
<path d="M58.7234 253.303L65.2766 256.553V248.514L58.7234 245.265V253.303Z" fill="#D68B44"/>
<path d="M154.128 197.118L160.681 200.368L167.234 197.118L160.681 193.869L154.128 197.118Z" fill="#F1A04B"/>
<path d="M160.681 208.406L167.234 205.157V197.118L160.681 200.368V208.406Z" fill="#B87335"/>
<path d="M154.128 205.157L160.681 208.406V200.368L154.128 197.118V205.157Z" fill="#D68B44"/>
<path d="M110.553 219.096L117.106 222.346L123.66 219.096L117.106 215.847L110.553 219.096Z" fill="#F1A04B"/>
<path d="M117.106 230.385L123.66 227.135V219.096L117.106 222.346V230.385Z" fill="#B87335"/>
<path d="M110.553 227.135L117.106 230.385V222.346L110.553 219.096V227.135Z" fill="#D68B44"/>
<path d="M6.46826 216.445L13.0215 219.695L19.5746 216.445L13.0215 213.196L6.46826 216.445Z" fill="#F1A04B"/>
<path d="M13.0215 227.734L19.5747 224.484V216.445L13.0215 219.695V227.734Z" fill="#D68B44"/>
<path d="M6.46826 224.484L13.0215 227.734V219.695L6.46826 216.445V224.484Z" fill="#E0934E"/>
<path d="M55.7449 191.559L62.213 194.895L68.7662 191.559L62.213 188.31L55.7449 191.559Z" fill="#F1A04B"/>
<path d="M62.2129 202.933L68.7661 199.598V191.559L62.2129 194.895V202.933Z" fill="#B86E38"/>
<path d="M55.7449 199.598L62.213 202.933V194.895L55.7449 191.559V199.598Z" fill="#D18039"/>
<path d="M101.958 168.299L108.511 171.634L114.979 168.299L108.511 165.049L101.958 168.299Z" fill="#F1A04B"/>
<path d="M108.511 179.587L114.979 176.337V168.299L108.511 171.634V179.587Z" fill="#B87335"/>
<path d="M101.958 176.337L108.511 179.587V171.634L101.958 168.299V176.337Z" fill="#D18039"/>
<path d="M32.8511 229.529L39.4043 232.865L45.8724 229.529L39.0638 226.451L32.8511 229.529Z" fill="#F1A04B"/>
<path d="M39.4043 240.903L45.8724 237.568V229.529L39.4043 232.864V240.903Z" fill="#D68B44"/>
<path d="M32.8511 237.568L39.4043 240.903V232.864L32.8511 229.529V237.568Z" fill="#E0934E"/>
<path d="M82.0427 204.729L88.5959 207.979L95.1491 204.729L88.5959 201.48L82.0427 204.729Z" fill="#F1A04B"/>
<path d="M88.5959 216.018L95.1491 212.768V204.729L88.5959 207.979V216.018Z" fill="#B86E38"/>
<path d="M82.0427 212.768L88.5959 216.018V207.979L82.0427 204.729V212.768Z" fill="#D18039"/>
<path d="M128.17 181.554L134.724 184.804L141.277 181.554L134.724 178.304L128.17 181.554Z" fill="#F1A04B"/>
<path d="M134.724 192.842L141.277 189.593V181.554L134.724 184.804V192.842Z" fill="#B87335"/>
<path d="M128.17 189.593L134.724 192.842V184.804L128.17 181.554V189.593Z" fill="#D18039"/>
<path d="M6.38306 218.327L65.1916 247.83L71.6597 244.495L12.9362 214.991L6.38306 218.327Z" fill="#FFBB63"/>
<path d="M6.38306 220.807L65.1916 250.396V247.83L6.38306 218.327V220.807Z" fill="#F1A04B"/>
<path d="M65.1917 250.396L71.6597 247.061V244.495L65.1917 247.83V250.396Z" fill="#D68B44"/>
<path d="M101.958 170.864L160.766 200.368L167.319 197.118L108.511 167.529L101.958 170.864Z" fill="#FFBB63"/>
<path d="M101.958 173.43L160.766 202.933V200.368L101.958 170.864V173.43Z" fill="#F1A04B"/>
<path d="M160.766 202.933L167.319 199.598V197.118L160.766 200.368V202.933Z" fill="#D68B44"/>
<path d="M58.7234 242.785L160.681 191.389L167.234 194.638L65.2766 246.034L58.7234 242.785Z" fill="#FFCE82"/>
<path d="M65.2766 248.6L167.234 197.204V194.638L65.2766 246.034V248.6Z" fill="#F1A04B"/>
<path d="M58.7234 245.35L65.2766 248.6V246.034L58.7234 242.785V245.35Z" fill="#FFBB63"/>
<path d="M45.7021 236.285L147.66 184.804L154.213 188.139L52.1702 239.535L45.7021 236.285Z" fill="#FFCE82"/>
<path d="M52.1702 242.101L154.213 190.619V188.139L52.1702 239.535V242.101Z" fill="#F1A04B"/>
<path d="M45.7021 238.765L52.1702 242.101V239.535L45.7021 236.285V238.765Z" fill="#FFBB63"/>
<path d="M32.5957 229.7L134.553 178.219L141.106 181.554L39.1489 232.95L32.5957 229.7Z" fill="#FFCE82"/>
<path d="M39.1489 235.516L141.106 184.119V181.554L39.1489 232.95V235.516Z" fill="#F1A04B"/>
<path d="M32.5957 232.266L39.1489 235.516V232.95L32.5957 229.7V232.266Z" fill="#FFBB63"/>
<path d="M19.5745 223.116L121.532 171.719L128.085 174.969L26.1277 226.365L19.5745 223.116Z" fill="#FFCE82"/>
<path d="M26.1277 228.931L128.085 177.535V174.969L26.1277 226.365V228.931Z" fill="#F1A04B"/>
<path d="M19.5745 225.681L26.1277 228.931V226.365L19.5745 223.116V225.681Z" fill="#FFBB63"/>
<path d="M6.46899 216.531L108.426 165.135L114.98 168.384L13.0222 219.866L6.46899 216.531Z" fill="#FFCE82"/>
<path d="M13.0215 222.431L114.979 170.95V168.384L13.0215 219.866V222.431Z" fill="#F1A04B"/>
<path d="M6.46826 219.096L13.0215 222.432V219.866L6.46826 216.531V219.096Z" fill="#FFBB63"/>
<path d="M148.766 158.293L108.085 137.854L67.4896 158.293L67.3193 158.55L108.085 179.074L148.936 158.55L148.766 158.293Z" fill="#F2BA82"/>
<path d="M131.745 167.187L90.7235 146.577L84.5107 149.741L125.532 170.351L131.745 167.187Z" fill="#A06442"/>
<path d="M128.766 168.726L87.7448 148.117L87.4895 148.202L128.426 168.812L128.766 168.726Z" fill="#7C420D"/>
<path d="M107.83 220.123L67.1492 199.684V158.806L67.3194 158.55L108.085 179.074V220.123H107.83Z" fill="#D78C4B"/>
<path d="M79.4894 202.42L73.9575 199.598V199L79.4894 201.822V202.42Z" fill="#8C5438"/>
<path d="M76.5107 196.263L75.4894 194.553L74.5532 195.237L75.149 195.579V199.256L75.9149 199.684V195.921L76.5107 196.263Z" fill="#8C5438"/>
<path d="M78.9788 197.46L77.9576 195.75L76.9363 196.52H77.0214L77.532 196.776V200.453L78.3831 200.881V197.204L78.9788 197.46Z" fill="#8C5438"/>
<path d="M79.3193 203.361L74.2129 200.796C73.3619 200.368 72.7661 199.342 72.7661 198.487V193.527C72.7661 192.671 73.447 192.329 74.2129 192.757L79.3193 195.322C80.1704 195.75 80.7661 196.776 80.7661 197.631V202.591C80.7661 203.447 80.0853 203.789 79.3193 203.361ZM74.2129 193.099C73.6172 192.757 73.1065 193.099 73.1065 193.698V198.658C73.1065 199.342 73.6172 200.111 74.2129 200.453L79.3193 203.019C79.915 203.361 80.4257 203.019 80.4257 202.42V197.46C80.4257 196.776 79.915 196.007 79.3193 195.664L74.2129 193.099Z" fill="#8C5438"/>
<path d="M89.1064 208.321L84 205.756C83.149 205.328 82.5532 204.302 82.5532 203.447V198.487C82.5532 197.631 83.2341 197.289 84 197.631L89.1064 200.197C89.9575 200.624 90.5532 201.651 90.5532 202.506V207.466C90.5532 208.407 89.9575 208.749 89.1064 208.321ZM84.0851 198.059C83.4894 197.717 82.9788 198.059 82.9788 198.658V203.618C82.9788 204.302 83.4894 205.071 84.0851 205.413L89.1915 207.979C89.7873 208.321 90.2979 207.979 90.2979 207.38V202.42C90.2979 201.736 89.7873 200.967 89.1915 200.624L84.0851 198.059Z" fill="#8C5438"/>
<path d="M87.7446 202.506V200.71L85.4468 199.598V201.394C85.4468 202.249 85.8723 203.104 86.3829 203.447V205.328C85.7872 205.071 85.4468 205.413 85.4468 205.413L87.5744 206.525C87.5744 206.525 87.234 205.927 86.6383 205.499V203.618C87.3191 203.789 87.7446 203.361 87.7446 202.506Z" fill="#8C5438"/>
<path d="M98.979 213.281L93.8726 210.716C93.0215 210.288 92.4258 209.262 92.4258 208.407V203.447C92.4258 202.591 93.1066 202.249 93.8726 202.591L98.979 205.157C99.83 205.585 100.426 206.611 100.426 207.466V212.426C100.426 213.281 99.7449 213.709 98.979 213.281ZM93.8726 203.019C93.2768 202.677 92.7662 203.019 92.7662 203.618V208.578C92.7662 209.262 93.2768 210.031 93.8726 210.374L98.979 212.939C99.5747 213.281 100.085 212.939 100.085 212.34V207.38C100.085 206.696 99.5747 205.927 98.979 205.585L93.8726 203.019Z" fill="#8C5438"/>
<path d="M99.2342 208.92C99.2342 208.834 99.2342 208.834 99.2342 208.92C99.2342 207.637 97.9576 206.012 96.4257 205.242C94.8938 204.473 93.6172 204.815 93.6172 206.098C93.6172 206.098 93.7874 205.841 94.2129 206.012C94.5534 206.183 94.8087 206.696 94.8087 206.696C94.8087 206.696 94.9789 206.44 95.4044 206.611C95.83 206.782 96.0002 207.295 96.0002 207.295C96.0002 207.295 96.1704 207.038 96.5108 207.209C96.8512 207.38 97.1065 207.894 97.1065 207.894C97.1065 207.894 97.2768 207.637 97.7023 207.808C98.0427 207.979 98.298 208.492 98.298 208.492C98.298 208.492 98.4682 208.15 98.8938 208.407C99.064 208.407 99.2342 208.92 99.2342 208.92Z" fill="#8C5438"/>
<path d="M95.8299 210.801C95.7448 210.801 95.7448 210.716 95.8299 210.801C95.5745 210.716 95.4043 210.545 95.2341 210.288C94.9788 209.946 95.0639 209.518 95.0639 209.518C95.0639 209.433 95.149 209.433 95.2341 209.433C95.3192 209.518 95.4043 209.604 95.4043 209.689C95.4043 209.689 95.4043 209.946 95.4894 210.203C95.5745 210.288 95.6597 210.374 95.8299 210.459C95.915 210.545 96.0852 210.545 96.0852 210.459C96.2554 210.374 96.2554 210.117 96.2554 210.031V204.815C96.2554 204.729 96.3405 204.729 96.4256 204.729C96.5107 204.815 96.5958 204.9 96.5958 204.986V210.203C96.5958 210.203 96.5958 210.716 96.3405 210.887C96.1703 210.887 96.0001 210.887 95.8299 210.801Z" fill="#8C5438"/>
<path d="M149.107 199.684L108.426 220.123H108.085V179.074L148.937 158.55L149.107 158.806V199.684Z" fill="#ECA763"/>
<path d="M131.745 167.187V177.107L125.532 180.186V170.351L131.745 167.187Z" fill="#8C5438"/>
<path d="M108.426 179.074H107.83V220.122H108.426V179.074Z" fill="#F2BA82"/>
<path d="M108.085 179.416L67.1492 158.806L67.4896 158.293L108.085 178.732L148.766 158.293L149.107 158.806L108.085 179.416Z" fill="#F4CEAB"/>
<path d="M125.447 170.693L131.745 167.529L131.404 167.016L125.192 170.18L125.447 170.693Z" fill="#BC8266"/>
<path d="M83.3193 150.34L124.426 171.035L132.766 166.845L132.596 166.417L92.0002 145.979L83.3193 150.34Z" fill="#A06442"/>
<path d="M87.4895 148.288L128.596 168.897L128.936 168.726L87.8299 148.031L87.4895 148.288Z" fill="#7C420D"/>
<path d="M124.17 181.297L132.851 177.022V167.016L132.511 166.759L124.17 170.95V181.297Z" fill="#8C5438"/>
<path d="M124 170.779C124 170.779 124.17 170.864 124.17 171.035C124.17 171.206 124.17 171.377 124.17 171.377L132.766 167.101C132.766 167.101 132.851 166.93 132.851 166.759C132.766 166.503 132.681 166.417 132.681 166.417L124 170.779Z" fill="#BC8266"/>
<path d="M105.362 180.1L64.7661 159.661L24.0853 180.1L23.915 180.357L64.7661 200.881L105.532 180.357L105.362 180.1Z" fill="#F2BA82"/>
<path d="M88.3405 188.994L47.3192 168.384L41.1064 171.548L82.1277 192.158L88.3405 188.994Z" fill="#A06442"/>
<path d="M85.3618 190.533L44.4256 169.924L44.0852 170.009L85.1065 190.619L85.3618 190.533Z" fill="#7C420D"/>
<path d="M64.4257 241.93L23.7449 221.491V180.613L23.9151 180.357L64.7661 200.881V241.93H64.4257Z" fill="#D78C4B"/>
<path d="M105.702 221.491L65.0214 241.93H64.7661V200.881L105.532 180.357L105.702 180.613V221.491Z" fill="#ECA763"/>
<path d="M88.3407 188.994V198.914L82.1279 201.993V192.158L88.3407 188.994Z" fill="#8C5438"/>
<path d="M65.0215 200.881H64.4258V241.929H65.0215V200.881Z" fill="#F2BA82"/>
<path d="M64.7661 201.223L23.7449 180.613L24.0853 180.1L64.7661 200.539L105.362 180.1L105.702 180.613L64.7661 201.223Z" fill="#F4CEAB"/>
<path d="M82.1278 192.5L88.3406 189.336L88.0001 188.823L81.7874 191.987L82.1278 192.5Z" fill="#BC8266"/>
<path d="M39.915 172.147L81.0214 192.842L89.3618 188.652L89.2767 188.224L48.5959 167.786L39.915 172.147Z" fill="#A06442"/>
<path d="M44.0852 170.095L85.1916 190.704L85.6171 190.533L44.5107 169.838L44.0852 170.095Z" fill="#7C420D"/>
<path d="M80.7661 203.104L89.447 198.829V188.823L89.1916 188.566L80.7661 192.757V203.104Z" fill="#8C5438"/>
<path d="M80.5959 192.586C80.5959 192.586 80.7662 192.671 80.7662 192.842C80.7662 193.013 80.7662 193.184 80.7662 193.184L89.3619 188.908C89.3619 188.908 89.447 188.737 89.447 188.566C89.3619 188.31 89.2768 188.224 89.2768 188.224L80.5959 192.586Z" fill="#BC8266"/>
<path d="M145.192 115.021L104.511 94.5825L63.83 115.021L63.7449 115.278L104.511 135.802L145.362 115.278L145.192 115.021Z" fill="#F2BA82"/>
<path d="M128.085 123.915L87.149 103.305L80.9363 106.469L121.872 127.079L128.085 123.915Z" fill="#A06442"/>
<path d="M125.192 125.454L84.1704 104.845L83.915 104.93L124.851 125.54L125.192 125.454Z" fill="#7C420D"/>
<path d="M104.256 176.851L63.5747 156.412V115.534L63.7449 115.278L104.511 135.802V176.851H104.256Z" fill="#D78C4B"/>
<path d="M75.9152 159.148L70.3833 156.326V155.813L75.9152 158.55V159.148Z" fill="#8C5438"/>
<path d="M72.9364 152.991L71.9152 151.281L70.979 151.965L71.5747 152.307V155.984L72.3407 156.412V152.649L72.9364 152.991Z" fill="#8C5438"/>
<path d="M75.3195 154.188L74.3833 152.478L73.3621 153.248L73.9578 153.504V157.181L74.7238 157.609V153.932L75.3195 154.188Z" fill="#8C5438"/>
<path d="M75.6599 160.089L70.5535 157.524C69.7024 157.096 69.1067 156.07 69.1067 155.215V150.255C69.1067 149.399 69.7875 149.057 70.5535 149.399L75.6599 151.965C76.511 152.393 77.1067 153.419 77.1067 154.274V159.234C77.1918 160.175 76.511 160.517 75.6599 160.089ZM70.6386 149.827C70.0429 149.485 69.5322 149.827 69.5322 150.426V155.386C69.5322 156.07 70.0429 156.839 70.6386 157.182L75.745 159.747C76.3407 160.089 76.8514 159.747 76.8514 159.148V154.188C76.8514 153.504 76.3407 152.735 75.745 152.393L70.6386 149.827Z" fill="#8C5438"/>
<path d="M85.5322 165.049L80.4258 162.484C79.5747 162.056 78.979 161.03 78.979 160.175V155.215C78.979 154.359 79.6599 154.017 80.4258 154.359L85.5322 156.925C86.3833 157.352 86.979 158.379 86.979 159.234V164.194C86.979 165.135 86.3833 165.477 85.5322 165.049ZM80.4258 154.787C79.8301 154.445 79.3194 154.787 79.3194 155.386V160.346C79.3194 161.03 79.8301 161.799 80.4258 162.141L85.5322 164.707C86.1279 165.049 86.6386 164.707 86.6386 164.108V159.148C86.6386 158.464 86.1279 157.695 85.5322 157.352L80.4258 154.787Z" fill="#8C5438"/>
<path d="M84.1704 159.234V157.438L81.8726 156.326V158.122C81.8726 158.977 82.2981 159.833 82.8087 160.26V162.142C82.213 161.885 81.8726 162.227 81.8726 162.227L84.0002 163.339C84.0002 163.339 83.6598 162.74 83.0641 162.313V160.431C83.7449 160.517 84.1704 160.089 84.1704 159.234Z" fill="#8C5438"/>
<path d="M95.4045 170.009L90.2981 167.444C89.4471 167.016 88.8513 165.99 88.8513 165.135V160.175C88.8513 159.319 89.5322 158.977 90.2981 159.319L95.4045 161.885C96.2556 162.313 96.8513 163.339 96.8513 164.194V169.154C96.8513 170.009 96.1705 170.437 95.4045 170.009ZM90.2981 159.747C89.7024 159.405 89.1917 159.747 89.1917 160.346V165.306C89.1917 165.99 89.7024 166.759 90.2981 167.102L95.4045 169.667C96.0003 170.009 96.5109 169.667 96.5109 169.068V164.108C96.5109 163.424 96.0003 162.655 95.4045 162.313L90.2981 159.747Z" fill="#8C5438"/>
<path d="M95.6597 165.648C95.6597 165.562 95.6597 165.562 95.6597 165.648C95.6597 164.365 94.3831 162.74 92.8512 161.971C91.3193 161.201 90.0427 161.543 90.0427 162.826C90.0427 162.826 90.2129 162.569 90.6385 162.74C90.9789 162.911 91.2342 163.424 91.2342 163.424C91.2342 163.424 91.4044 163.168 91.83 163.339C92.2555 163.51 92.4257 164.023 92.4257 164.023C92.4257 164.023 92.5959 163.766 92.9363 163.937C93.2768 164.108 93.5321 164.622 93.5321 164.622C93.5321 164.622 93.7023 164.365 94.1278 164.536C94.4682 164.707 94.7236 165.22 94.7236 165.22C94.7236 165.22 94.8938 164.878 95.3193 165.135C95.4895 165.135 95.6597 165.648 95.6597 165.648Z" fill="#8C5438"/>
<path d="M92.1703 167.529C91.915 167.444 91.7448 167.273 91.6597 167.016C91.4043 166.674 91.4894 166.246 91.4894 166.246C91.4894 166.161 91.5746 166.161 91.6597 166.161C91.7448 166.246 91.8299 166.332 91.8299 166.417C91.8299 166.417 91.8299 166.674 91.915 166.931C92.0001 167.016 92.0852 167.102 92.2554 167.187C92.3405 167.273 92.5107 167.273 92.5107 167.187C92.6809 167.102 92.6809 166.845 92.6809 166.759V161.543C92.6809 161.457 92.766 161.457 92.8511 161.457C92.9363 161.543 93.0214 161.628 93.0214 161.714V166.931C93.0214 166.931 93.0214 167.444 92.766 167.615C92.5958 167.615 92.4256 167.615 92.1703 167.529Z" fill="#8C5438"/>
<path d="M145.532 156.412L104.851 176.851H104.511V135.802L145.362 115.278L145.532 115.534V156.412Z" fill="#ECA763"/>
<path d="M128.086 123.915V133.835L121.873 136.914V127.079L128.086 123.915Z" fill="#8C5438"/>
<path d="M104.851 135.802H104.256V176.85H104.851V135.802Z" fill="#F2BA82"/>
<path d="M104.511 136.144L63.5747 115.534L63.83 115.021L104.511 135.46L145.192 115.021L145.532 115.534L104.511 136.144Z" fill="#F4CEAB"/>
<path d="M121.873 127.421L128.085 124.257L127.83 123.744L121.617 126.908L121.873 127.421Z" fill="#BC8266"/>
<path d="M79.7449 107.068L120.851 127.763L129.192 123.573L129.021 123.145L88.4257 102.707L79.7449 107.068Z" fill="#A06442"/>
<path d="M83.915 105.016L124.936 125.625L125.362 125.454L84.2555 104.759L83.915 105.016Z" fill="#7C420D"/>
<path d="M120.596 138.025L129.192 133.75V123.744L128.936 123.487L120.596 127.678V138.025Z" fill="#8C5438"/>
<path d="M120.426 127.507C120.426 127.507 120.596 127.592 120.596 127.763C120.596 127.934 120.596 128.105 120.596 128.105L129.192 123.83C129.192 123.83 129.277 123.658 129.277 123.487C129.192 123.231 129.107 123.145 129.107 123.145L120.426 127.507Z" fill="#BC8266"/>
<path d="M101.787 136.828L61.1065 116.39L20.5108 136.828L20.3406 137.085L61.1065 157.609L101.958 137.085L101.787 136.828Z" fill="#F2BA82"/>
<path d="M84.766 145.722L43.7448 125.112L37.532 128.276L78.5533 148.886L84.766 145.722Z" fill="#A06442"/>
<path d="M81.7873 147.261L40.7661 126.652L40.5107 126.737L81.532 147.347L81.7873 147.261Z" fill="#7C420D"/>
<path d="M60.8513 198.658L20.1704 178.219V137.341L20.3406 137.085L61.1066 157.609V198.658H60.8513Z" fill="#D78C4B"/>
<path d="M102.128 178.219L61.4469 198.658H61.1064V157.609L101.958 137.085L102.128 137.341V178.219Z" fill="#ECA763"/>
<path d="M84.766 145.722V155.642L78.5532 158.721V148.886L84.766 145.722Z" fill="#8C5438"/>
<path d="M61.4471 157.609H60.8513V198.658H61.4471V157.609Z" fill="#F2BA82"/>
<path d="M61.1066 157.951L20.1704 137.341L20.5108 136.828L61.1066 157.267L101.787 136.828L102.128 137.341L61.1066 157.951Z" fill="#F4CEAB"/>
<path d="M78.5533 149.228L84.7661 146.064L84.4257 145.551L78.2129 148.715L78.5533 149.228Z" fill="#BC8266"/>
<path d="M36.3406 128.875L77.447 149.57L85.7874 145.38L85.7023 144.952L45.0214 124.514L36.3406 128.875Z" fill="#A06442"/>
<path d="M40.5107 126.823L81.6171 147.432L81.9576 147.261L40.8512 126.566L40.5107 126.823Z" fill="#7C420D"/>
<path d="M77.1917 159.832L85.8725 155.557V145.551L85.6172 145.294L77.1917 149.485V159.832Z" fill="#8C5438"/>
<path d="M77.0215 149.314C77.0215 149.314 77.1917 149.399 77.1917 149.57C77.1917 149.741 77.1917 149.912 77.1917 149.912L85.7874 145.637C85.7874 145.637 85.8726 145.465 85.8726 145.294C85.7874 145.038 85.7023 144.952 85.7023 144.952L77.0215 149.314Z" fill="#BC8266"/>
<path d="M86.043 181.383L91.5749 178.561V177.962L86.043 180.784V181.383Z" fill="#8C5438"/>
<path d="M89.0217 175.226L90.043 173.515L90.9792 174.2L90.3834 174.542V178.219L89.6175 178.561V174.884L89.0217 175.226Z" fill="#8C5438"/>
<path d="M86.6387 176.423L87.5748 174.713L88.5961 175.397V175.482L88.0004 175.739V179.416L87.2344 179.844V176.166L86.6387 176.423Z" fill="#8C5438"/>
<path d="M84.7664 181.554V176.594C84.7664 175.739 85.4472 174.713 86.2132 174.285L91.3196 171.719C92.1706 171.292 92.7664 171.634 92.7664 172.489V177.449C92.7664 178.304 92.0855 179.331 91.3196 179.758L86.2132 182.324C85.4472 182.751 84.7664 182.409 84.7664 181.554ZM86.2983 174.627C85.7025 174.969 85.1919 175.739 85.1919 176.423V181.383C85.1919 182.067 85.7025 182.324 86.2983 181.982L91.4047 179.416C92.0004 179.074 92.511 178.304 92.511 177.62V172.746C92.511 172.062 92.0004 171.805 91.4047 172.147L86.2983 174.627Z" fill="#8C5438"/>
<path d="M74.979 186.514V181.554C74.979 180.699 75.6599 179.673 76.4258 179.245L81.5322 176.68C82.3833 176.252 82.979 176.594 82.979 177.535V182.495C82.979 183.35 82.2982 184.376 81.5322 184.804L76.4258 187.369C75.6599 187.711 74.979 187.369 74.979 186.514ZM76.4258 179.587C75.8301 179.929 75.3194 180.699 75.3194 181.383V186.343C75.3194 187.027 75.8301 187.284 76.4258 186.942L81.5322 184.376C82.1279 184.034 82.6386 183.264 82.6386 182.58V177.62C82.6386 176.936 82.1279 176.68 81.5322 177.022L76.4258 179.587Z" fill="#8C5438"/>
<path d="M77.8726 181.469V179.673L80.1704 178.561V180.357C80.1704 181.212 79.7449 182.067 79.2343 182.409V184.291C79.83 184.034 80.1704 184.376 80.1704 184.376L78.0428 185.488C78.0428 185.488 78.3832 184.889 78.9789 184.462V182.58C78.213 182.751 77.8726 182.324 77.8726 181.469Z" fill="#8C5438"/>
<path d="M65.1067 191.389V186.429C65.1067 185.573 65.7875 184.547 66.5535 184.12L71.6599 181.554C72.5109 181.126 73.1067 181.469 73.1067 182.409V187.369C73.1067 188.224 72.4258 189.251 71.6599 189.678L66.5535 192.244C65.7875 192.671 65.1067 192.244 65.1067 191.389ZM66.6386 184.547C66.0429 184.889 65.5322 185.659 65.5322 186.343V191.303C65.5322 191.987 66.0429 192.244 66.6386 191.902L71.745 189.336C72.3407 188.994 72.8514 188.224 72.8514 187.54V182.58C72.8514 181.896 72.3407 181.64 71.745 181.982L66.6386 184.547Z" fill="#8C5438"/>
<path d="M66.2981 187.797C66.2981 186.514 67.5747 184.889 69.1066 184.12C70.6385 183.35 71.9151 183.692 71.9151 184.975C71.9151 184.975 71.7449 184.718 71.3194 184.889C70.9789 185.06 70.7236 185.573 70.7236 185.573C70.7236 185.573 70.5534 185.317 70.1279 185.488C69.7024 185.659 69.5321 186.172 69.5321 186.172C69.5321 186.172 69.3619 185.915 69.0215 186.086C68.6811 186.257 68.4258 186.771 68.4258 186.771C68.4258 186.771 68.2555 186.514 67.83 186.685C67.4896 186.856 67.2343 187.369 67.2343 187.369C67.2343 187.369 67.0641 187.027 66.6385 187.284C66.4683 187.369 66.2981 187.797 66.2981 187.797Z" fill="#8C5438"/>
<path d="M69.7874 189.678C70.0428 189.593 70.213 189.422 70.3832 189.165C70.6385 188.823 70.5534 188.395 70.5534 188.395C70.5534 188.31 70.4683 188.31 70.3832 188.31C70.2981 188.395 70.213 188.481 70.213 188.566C70.213 188.566 70.213 188.823 70.1279 189.08C70.0428 189.165 69.9577 189.251 69.7874 189.336C69.7023 189.422 69.5321 189.422 69.5321 189.336C69.3619 189.251 69.3619 188.994 69.3619 188.909V183.692C69.3619 183.606 69.2768 183.606 69.1917 183.606C69.1066 183.606 69.0215 183.777 69.0215 183.863V189.08C69.0215 189.08 69.0215 189.593 69.2768 189.764C69.3619 189.849 69.5321 189.849 69.7874 189.678Z" fill="#8C5438"/>
<path d="M89.2769 225.254L94.7237 222.432V221.833L89.2769 224.655V225.254Z" fill="#8C5438"/>
<path d="M92.2556 219.096L93.1918 217.386L94.2131 218.07L93.6173 218.412V222.089L92.8514 222.517V218.754L92.2556 219.096Z" fill="#8C5438"/>
<path d="M89.7876 220.294L90.8089 218.583L91.745 219.267V219.353L91.1493 219.609V223.287L90.3833 223.714V220.037L89.7876 220.294Z" fill="#8C5438"/>
<path d="M88.0002 225.425V220.465C88.0002 219.609 88.6811 218.583 89.447 218.156L94.5534 215.59C95.4045 215.163 96.0002 215.505 96.0002 216.36V221.32C96.0002 222.175 95.3194 223.201 94.5534 223.629L89.447 226.194C88.6811 226.622 88.0002 226.28 88.0002 225.425ZM89.447 218.498C88.8513 218.84 88.3407 219.609 88.3407 220.294V225.254C88.3407 225.938 88.8513 226.194 89.447 225.852L94.5534 223.287C95.1492 222.945 95.6598 222.175 95.6598 221.491V216.531C95.6598 215.847 95.1492 215.59 94.5534 215.932L89.447 218.498Z" fill="#8C5438"/>
<path d="M78.1277 230.385V225.425C78.1277 224.569 78.8085 223.543 79.5745 223.116L84.6809 220.55C85.5319 220.122 86.1277 220.465 86.1277 221.32V226.28C86.1277 227.135 85.4468 228.161 84.6809 228.589L79.5745 231.154C78.8085 231.582 78.1277 231.24 78.1277 230.385ZM79.6596 223.458C79.0639 223.8 78.5532 224.569 78.5532 225.254V230.214C78.5532 230.898 79.0639 231.154 79.6596 230.812L84.766 228.247C85.3617 227.905 85.8724 227.135 85.8724 226.451V221.491C85.8724 220.807 85.3617 220.55 84.766 220.892L79.6596 223.458Z" fill="#8C5438"/>
<path d="M81.0212 225.339V223.543L83.3191 222.431V224.227C83.3191 225.082 82.8936 225.938 82.3829 226.28V228.161C82.9787 227.905 83.3191 228.247 83.3191 228.247L81.1915 229.358C81.1915 229.358 81.5319 228.76 82.1276 228.332V226.451C81.4468 226.622 81.0212 226.194 81.0212 225.339Z" fill="#8C5438"/>
<path d="M68.3406 235.259V230.299C68.3406 229.444 69.0214 228.418 69.7874 227.99L74.8938 225.425C75.7448 224.997 76.3406 225.339 76.3406 226.28V231.24C76.3406 232.095 75.6597 233.121 74.8938 233.549L69.7874 236.114C69.0214 236.542 68.3406 236.114 68.3406 235.259ZM69.7874 228.418C69.1916 228.76 68.681 229.529 68.681 230.214V235.174C68.681 235.858 69.1916 236.114 69.7874 235.772L74.8938 233.207C75.4895 232.865 76.0001 232.095 76.0001 231.411V226.451C76.0001 225.767 75.4895 225.51 74.8938 225.852L69.7874 228.418Z" fill="#8C5438"/>
<path d="M69.532 231.753C69.532 231.667 69.532 231.667 69.532 231.753C69.532 230.47 70.8086 228.845 72.3405 228.076C73.8724 227.306 75.149 227.648 75.149 228.931C75.149 228.931 74.9788 228.674 74.5533 228.845C74.2128 229.016 73.9575 229.529 73.9575 229.529C73.9575 229.529 73.7873 229.273 73.3618 229.444C72.9362 229.615 72.766 230.128 72.766 230.128C72.766 230.128 72.5958 229.871 72.2554 230.042C71.915 230.214 71.6596 230.727 71.6596 230.727C71.6596 230.727 71.4894 230.47 71.0639 230.641C70.7235 230.812 70.4682 231.325 70.4682 231.325C70.4682 231.325 70.2979 230.983 69.8724 231.24C69.7022 231.24 69.532 231.753 69.532 231.753Z" fill="#8C5438"/>
<path d="M72.9363 233.634C72.9363 233.634 72.9363 233.549 72.9363 233.634C73.1916 233.463 73.3618 233.378 73.4469 233.121C73.7022 232.779 73.6171 232.351 73.6171 232.351C73.6171 232.266 73.532 232.266 73.4469 232.266C73.3618 232.351 73.2767 232.437 73.2767 232.523C73.2767 232.523 73.2767 232.779 73.1916 233.036C73.1065 233.121 73.0214 233.207 72.8512 233.292C72.7661 233.378 72.5958 233.378 72.5958 233.292C72.4256 233.207 72.4256 232.95 72.4256 232.865V227.648C72.4256 227.563 72.3405 227.562 72.2554 227.562C72.1703 227.562 72.0852 227.734 72.0852 227.819V233.036C72.0852 233.036 72.0852 233.549 72.3405 233.72C72.5958 233.72 72.7661 233.72 72.9363 233.634Z" fill="#8C5438"/>
<path d="M131.574 203.618L137.106 200.881V200.282L131.574 203.019V203.618Z" fill="#8C5438"/>
<path d="M134.553 197.46L135.574 195.75L136.511 196.434V196.52L136 196.776V200.453L135.149 200.881V197.204L134.553 197.46Z" fill="#8C5438"/>
<path d="M132.17 198.658L133.106 196.947L134.128 197.717L133.532 197.973V201.651L132.766 202.078V198.401L132.17 198.658Z" fill="#8C5438"/>
<path d="M130.298 203.789V198.829C130.298 197.973 130.979 196.947 131.745 196.52L136.851 193.954C137.702 193.527 138.298 193.869 138.298 194.724V199.684C138.298 200.539 137.617 201.565 136.851 201.993L131.745 204.558C130.979 204.986 130.298 204.644 130.298 203.789ZM131.83 196.862C131.234 197.204 130.723 197.973 130.723 198.658V203.618C130.723 204.302 131.234 204.558 131.83 204.216L136.936 201.651C137.532 201.309 138.043 200.539 138.043 199.855V194.98C138.043 194.296 137.532 194.04 136.936 194.382L131.83 196.862Z" fill="#8C5438"/>
<path d="M120.511 208.749V203.789C120.511 202.933 121.192 201.907 121.958 201.48L127.064 198.914C127.915 198.486 128.511 198.829 128.511 199.684V204.644C128.511 205.499 127.83 206.525 127.064 206.953L121.958 209.518C121.192 209.946 120.511 209.604 120.511 208.749ZM121.958 201.822C121.362 202.164 120.851 202.933 120.851 203.618V208.578C120.851 209.262 121.362 209.518 121.958 209.176L127.064 206.611C127.66 206.269 128.17 205.499 128.17 204.815V199.855C128.17 199.171 127.66 198.914 127.064 199.256L121.958 201.822Z" fill="#8C5438"/>
<path d="M123.404 203.703V201.907L125.702 200.795V202.591C125.702 203.446 125.277 204.302 124.766 204.644V206.525C125.362 206.269 125.702 206.611 125.702 206.611L123.575 207.722C123.575 207.722 123.915 207.124 124.511 206.696V204.815C123.83 204.986 123.404 204.558 123.404 203.703Z" fill="#8C5438"/>
<path d="M110.638 213.709V208.749C110.638 207.893 111.319 206.867 112.085 206.44L117.192 203.874C118.043 203.447 118.638 203.789 118.638 204.729V209.689C118.638 210.545 117.958 211.571 117.192 211.998L112.085 214.564C111.319 214.906 110.638 214.564 110.638 213.709ZM112.17 206.782C111.575 207.124 111.064 207.893 111.064 208.578V213.538C111.064 214.222 111.575 214.478 112.17 214.136L117.277 211.571C117.872 211.229 118.383 210.459 118.383 209.775V204.815C118.383 204.131 117.872 203.874 117.277 204.216L112.17 206.782Z" fill="#8C5438"/>
<path d="M111.915 210.117C111.915 208.834 113.192 207.209 114.724 206.44C116.255 205.67 117.532 206.012 117.532 207.295C117.532 207.295 117.362 207.038 116.936 207.209C116.596 207.38 116.341 207.894 116.341 207.894C116.341 207.894 116.17 207.637 115.745 207.808C115.319 207.979 115.149 208.492 115.149 208.492C115.149 208.492 114.979 208.236 114.638 208.407C114.298 208.578 114.043 209.091 114.043 209.091C114.043 209.091 113.872 208.834 113.447 209.005C113.107 209.176 112.851 209.689 112.851 209.689C112.851 209.689 112.681 209.347 112.255 209.604C112 209.604 111.915 210.117 111.915 210.117Z" fill="#8C5438"/>
<path d="M115.319 211.998C115.575 211.827 115.745 211.742 115.83 211.485C116.085 211.143 116 210.716 116 210.716C116 210.63 115.915 210.63 115.83 210.63C115.745 210.716 115.66 210.801 115.66 210.887C115.66 210.887 115.66 211.143 115.575 211.4C115.49 211.485 115.404 211.571 115.234 211.656C115.149 211.742 114.979 211.742 114.979 211.656C114.809 211.571 114.809 211.314 114.809 211.229V206.012C114.809 205.927 114.724 205.927 114.638 205.927C114.553 205.927 114.468 206.098 114.468 206.183V211.4C114.468 211.4 114.468 211.913 114.724 212.084C114.894 212.084 115.064 212.084 115.319 211.998Z" fill="#8C5438"/>
<path d="M128 160.004L133.532 157.182V156.583L128 159.405V160.004Z" fill="#8C5438"/>
<path d="M130.979 153.846L132 152.136L132.936 152.82L132.341 153.162V156.839L131.575 157.182V153.504L130.979 153.846Z" fill="#8C5438"/>
<path d="M128.596 155.044L129.532 153.333L130.553 154.017V154.103L129.958 154.359V158.037L129.192 158.464V154.787L128.596 155.044Z" fill="#8C5438"/>
<path d="M126.724 160.175V155.215C126.724 154.359 127.404 153.333 128.17 152.906L133.277 150.34C134.128 149.913 134.724 150.255 134.724 151.11V156.07C134.724 156.925 134.043 157.951 133.277 158.379L128.17 160.944C127.404 161.372 126.724 161.03 126.724 160.175ZM128.256 153.248C127.66 153.59 127.149 154.359 127.149 155.044V160.004C127.149 160.688 127.66 160.944 128.256 160.602L133.362 158.037C133.958 157.695 134.468 156.925 134.468 156.241V151.366C134.468 150.682 133.958 150.426 133.362 150.768L128.256 153.248Z" fill="#8C5438"/>
<path d="M116.936 165.135V160.175C116.936 159.319 117.617 158.293 118.383 157.866L123.489 155.3C124.341 154.872 124.936 155.215 124.936 156.07V161.03C124.936 161.885 124.255 162.911 123.489 163.339L118.383 165.904C117.532 166.332 116.936 165.99 116.936 165.135ZM118.383 158.208C117.787 158.55 117.277 159.319 117.277 160.004V164.964C117.277 165.648 117.787 165.904 118.383 165.562L123.489 162.997C124.085 162.655 124.596 161.885 124.596 161.201V156.241C124.596 155.557 124.085 155.3 123.489 155.642L118.383 158.208Z" fill="#8C5438"/>
<path d="M119.745 160.089V158.293L122.043 157.181V158.977C122.043 159.832 121.617 160.688 121.107 161.03V162.911C121.702 162.655 122.043 162.997 122.043 162.997L119.915 164.108C119.915 164.108 120.256 163.51 120.851 163.082V161.201C120.17 161.372 119.745 160.944 119.745 160.089Z" fill="#8C5438"/>
<path d="M107.064 170.009V165.049C107.064 164.194 107.745 163.168 108.511 162.74L113.617 160.175C114.468 159.747 115.064 160.089 115.064 161.03V165.99C115.064 166.845 114.383 167.871 113.617 168.299L108.511 170.864C107.745 171.292 107.064 170.864 107.064 170.009ZM108.511 163.168C107.915 163.51 107.404 164.28 107.404 164.964V169.924C107.404 170.608 107.915 170.864 108.511 170.522L113.617 167.957C114.213 167.615 114.724 166.845 114.724 166.161V161.201C114.724 160.517 114.213 160.26 113.617 160.602L108.511 163.168Z" fill="#8C5438"/>
<path d="M108.255 166.503C108.255 166.417 108.255 166.417 108.255 166.503C108.255 165.22 109.532 163.595 111.064 162.826C112.596 162.056 113.872 162.398 113.872 163.681C113.872 163.681 113.702 163.424 113.277 163.595C112.936 163.766 112.681 164.28 112.681 164.28C112.681 164.28 112.511 164.023 112.085 164.194C111.66 164.365 111.489 164.878 111.489 164.878C111.489 164.878 111.319 164.622 110.979 164.793C110.638 164.964 110.383 165.477 110.383 165.477C110.383 165.477 110.213 165.22 109.787 165.391C109.447 165.562 109.192 166.075 109.192 166.075C109.192 166.075 109.021 165.733 108.596 165.99C108.426 165.99 108.255 166.503 108.255 166.503Z" fill="#8C5438"/>
<path d="M111.745 168.384C111.745 168.299 111.745 168.299 111.745 168.384C112 168.213 112.17 168.128 112.255 167.871C112.511 167.529 112.425 167.102 112.425 167.102C112.425 167.016 112.34 167.016 112.255 167.016C112.17 167.102 112.085 167.187 112.085 167.273C112.085 167.273 112.085 167.529 112 167.786C111.915 167.871 111.83 167.957 111.66 168.042C111.574 168.128 111.404 168.128 111.404 168.042C111.234 167.957 111.234 167.7 111.234 167.615V162.398C111.234 162.313 111.149 162.313 111.064 162.313C110.979 162.313 110.894 162.484 110.894 162.569V167.786C110.894 167.786 110.894 168.299 111.149 168.47C111.319 168.47 111.489 168.47 111.745 168.384Z" fill="#8C5438"/>
</g>
<defs>
<clipPath id="clip0">
<rect width="260" height="261" fill="white"/>
</clipPath>
</defs>
</svg>
