<svg width="151" height="238" viewBox="0 0 151 238" fill="none" xmlns="http://www.w3.org/2000/svg">
<g clip-path="url(#clip0)">
<path d="M139.929 206.446L62.5344 166.729C56.251 163.644 46.1777 163.644 39.8944 166.729L4.68761 184.647C-1.59574 187.732 -1.59574 192.809 4.68761 195.895L82.0826 235.611C88.366 238.697 98.4393 238.697 104.723 235.611L139.929 217.694C146.113 214.608 146.113 209.631 139.929 206.446Z" fill="#C7D0D4"/>
<path d="M82.9801 28.7671C82.4814 28.8666 79.2899 29.2648 78.1928 29.663C76.996 30.0611 76.8962 30.957 76.8962 30.957C76.6968 31.4547 77.6941 32.251 77.8936 32.3505C78.0931 32.4501 82.0825 31.0565 83.0798 30.3597C84.0772 29.7625 83.5785 28.6676 82.9801 28.7671Z" fill="#840606"/>
<path d="M119.184 51.4621C115.793 47.5801 110.108 37.3275 107.715 34.3413C105.221 31.0564 102.329 26.0794 98.4392 23.5909C95.5468 21.7992 93.6518 30.6583 94.6492 32.7486C95.7463 34.7394 99.0376 42.0058 99.0376 42.0058C99.0376 42.0058 98.7384 49.4713 100.234 50.5663C101.73 51.6612 104.124 55.0456 107.415 57.7331C109.61 59.5249 114.696 65.6963 119.084 69.9766C124.37 75.2522 133.546 85.1066 133.546 85.1066C133.546 85.1066 136.239 85.5048 137.536 84.3103C140.029 82.0209 139.829 80.0301 139.829 80.0301C139.829 80.0301 124.47 55.2446 119.184 51.4621Z" fill="#C6C4C1"/>
<path d="M91.9563 31.4546C91.8566 27.274 85.5732 27.5726 85.5732 27.5726L80.2872 23.9891H78.9907C78.9907 24.3873 79.2899 27.6721 78.8909 29.1652C78.492 30.6583 75.7991 33.4454 75.7991 33.4454L74.5026 34.3413C74.5026 34.3413 76.7965 42.3045 81.5838 44.6934C86.3711 47.0824 90.3606 46.5847 92.6545 45.2907C94.9484 43.9967 95.846 39.7164 95.846 39.7164L93.8513 35.3367C93.8513 35.4362 92.0561 35.6353 91.9563 31.4546Z" fill="#EDB291"/>
<path d="M85.5732 27.5726L80.2872 23.9891H78.9907C78.9907 24.3873 79.2899 27.6721 78.8909 29.1652C78.492 30.6583 75.7991 33.4454 75.7991 33.4454L74.5026 34.3413C74.5026 34.3413 75.101 36.2325 76.1981 38.522C77.2952 37.1284 78.7912 35.7349 80.5865 35.2372C83.1796 34.6399 88.9643 34.5404 92.2555 33.7441C92.0561 33.1468 91.9563 32.45 91.9563 31.3551C91.7569 27.274 85.5732 27.5726 85.5732 27.5726Z" fill="#E59E7A"/>
<path d="M99.6361 29.5633C98.539 25.084 94.0509 23.3918 94.0509 23.3918L87.1691 26.4776C87.1691 26.4776 90.9591 32.5495 91.0588 32.9477C91.757 35.038 92.9538 38.0242 91.757 40.1146C89.9617 43.2003 84.8752 42.1054 81.7834 39.8159C79.1903 37.9247 76.5971 31.7532 76.5971 31.7532C76.5971 31.7532 73.7048 33.2463 72.3085 34.0426C70.9122 34.8389 67.8204 36.332 66.4241 37.2279C65.0278 38.1238 62.5344 39.2187 60.9386 40.5127C60.9386 40.5127 65.6262 43.1008 66.2246 47.0823C66.823 51.1635 67.0225 55.9414 67.0225 57.7331C67.0225 59.5248 68.718 65.9949 68.6183 71.0715C68.6183 71.0715 68.6183 76.6457 68.4188 80.1296C68.319 81.125 67.1222 87.8937 66.6235 95.8569C66.5238 97.5491 67.0225 106.209 68.1196 107.603C69.2167 109.096 82.7807 107.802 89.6625 105.612C96.5443 103.422 101.83 100.237 103.426 97.8477C105.022 95.4588 102.329 79.9305 101.83 78.1388C101.332 76.3471 102.229 71.7683 102.229 71.7683C103.526 66.7913 104.623 63.2078 104.922 58.1313C105.221 53.3534 105.421 46.5847 104.124 42.0058C102.927 38.2233 100.534 33.2463 99.6361 29.5633Z" fill="white"/>
<path d="M40.9914 182.556C40.9914 182.556 39.0964 184.348 38.9967 185.742C38.8969 187.135 39.7946 189.624 40.393 191.316C40.9914 193.008 40.7919 196.591 40.7919 198.483C40.7919 200.473 41.6895 203.758 44.1829 206.545C46.6763 209.333 49.4689 211.224 50.2668 211.522C53.0594 212.518 54.0568 212.319 54.8547 211.622C55.7523 210.925 49.2695 209.83 46.9755 206.446C44.6816 203.062 43.4848 199.677 43.1856 196.193C42.8864 192.709 43.1856 190.719 42.5872 189.325C41.9887 187.931 41.2906 186.538 41.0911 185.542C40.8916 184.547 42.0885 181.859 42.0885 181.859L40.9914 182.556Z" fill="black"/>
<path d="M49.5686 177.082C49.5686 177.082 47.8731 179.172 46.1776 179.869C44.4821 180.565 43.5845 181.262 43.5845 182.855C43.5845 184.448 45.1802 189.624 47.9728 191.017C51.6631 192.809 53.1591 191.216 53.1591 191.216C53.1591 191.216 51.6631 188.13 53.4583 186.04C55.2536 183.85 62.5343 182.059 62.5343 182.059C62.5343 182.059 57.8467 182.357 55.9517 179.769C54.0567 177.181 53.1591 174.494 53.1591 174.494L49.5686 177.082Z" fill="white"/>
<path d="M45.5792 179.769C45.5792 179.769 45.9782 180.764 45.8784 182.556C45.7787 184.248 45.5792 185.941 46.6763 187.135C47.7734 188.23 49.4689 188.827 50.2668 188.429C51.0647 188.031 53.0594 188.13 53.0594 188.13L53.8573 190.121C53.8573 190.121 53.957 192.112 53.957 193.804C53.957 195.496 54.7549 200.971 55.2536 202.564C56.8494 207.74 56.4504 209.432 55.7523 211.025C55.2536 212.02 53.1591 212.518 50.8652 211.423C48.5713 210.328 44.1829 204.355 42.9861 201.867C41.7892 199.378 42.1882 197.587 42.1882 195.098C42.1882 192.809 42.4874 191.714 41.7893 190.42C40.9914 188.827 40.2932 186.936 40.2932 185.642C40.2932 184.348 40.4927 183.85 41.49 182.656C42.3877 181.262 45.0805 179.67 45.5792 179.769Z" fill="#383A3A"/>
<path d="M55.4531 211.025C55.0541 211.025 53.957 210.627 53.3586 210.726C51.8626 210.925 49.5686 207.939 48.3718 206.147C47.175 204.455 45.28 199.677 45.3797 197.587C45.4795 195.397 44.5819 189.225 44.1829 186.538C43.8837 184.647 42.9861 182.556 42.4874 181.362C42.0885 181.66 41.6895 182.059 41.3903 182.357C40.393 183.552 40.1935 184.049 40.1935 185.343C40.1935 186.637 40.8916 188.529 41.6895 190.121C42.3877 191.515 42.0885 192.51 42.0885 194.8C42.0885 197.288 41.6895 199.08 42.8863 201.568C44.0832 204.057 48.4716 209.93 50.7655 211.124C52.7602 212.219 54.9544 211.921 55.4531 211.025Z" fill="black"/>
<path d="M48.2721 192.61L51.1644 194.7L48.8705 195.795C48.8705 195.795 48.7708 195.795 48.7708 195.895V195.994C48.7708 195.994 48.7708 195.994 48.8705 196.094L51.9623 198.184L49.4689 199.478C49.3692 199.478 49.3692 199.578 49.3692 199.677C49.3692 199.677 49.3692 199.777 49.4689 199.777H49.5687L54.2563 199.976C54.2563 199.876 54.2562 199.777 54.1565 199.578L50.1671 199.378L52.2615 198.284L54.1565 199.578C54.1565 199.478 54.1565 199.279 54.1565 199.179L52.6605 198.184L54.0568 197.487C54.0568 197.388 54.0568 197.189 54.0568 197.089L52.3613 197.985L49.7681 196.193L53.957 196.89C53.957 196.691 53.957 196.392 53.957 196.094L51.8626 194.601L53.8573 193.605C53.8573 193.406 53.8573 193.307 53.8573 193.107L48.3718 192.112C48.2721 192.112 48.1724 192.112 48.1724 192.212C48.2721 192.411 48.2721 192.51 48.2721 192.61ZM51.5634 194.899L53.957 196.591L49.6684 195.795L51.5634 194.899ZM49.1697 192.709L53.5581 193.506L51.5634 194.501L49.1697 192.709Z" fill="white"/>
<path d="M107.515 210.726C103.127 208.636 97.043 205.849 95.7464 204.654C94.4498 203.46 89.6625 200.573 89.6625 200.573L88.0667 198.98L87.4683 200.673C87.4683 200.673 86.8699 203.161 87.2689 204.356C87.6678 205.65 88.7649 206.944 89.9617 207.242C91.1585 207.541 93.0535 208.138 93.8514 208.735C94.749 209.332 98.2398 211.522 100.534 212.518C102.828 213.513 108.114 215.604 111.505 214.907C115.394 214.21 115.793 211.921 115.793 211.921C115.793 211.921 111.904 212.816 107.515 210.726Z" fill="black"/>
<path d="M101.731 198.084C97.7411 193.207 101.93 182.059 101.93 182.059L90.9591 178.475C90.9591 178.475 91.5575 188.429 89.862 191.316C88.0667 194.601 87.7675 200.274 87.7675 200.274C87.7675 200.274 85.5733 203.858 94.6493 206.844C98.7385 210.129 109.41 216.201 114.198 213.015C117.987 212.319 112.103 206.545 109.709 203.957C107.316 201.469 103.227 199.179 101.731 198.084Z" fill="white"/>
<path d="M101.531 196.591C100.135 192.411 96.7437 197.089 96.7437 197.089C96.7437 197.089 94.5495 199.478 94.2503 198.085C94.0509 196.99 89.7622 196.492 88.1664 196.392C87.8672 198.284 87.3686 199.976 87.3686 199.976C87.3686 199.976 85.6731 203.858 94.6493 206.844C98.7384 210.129 109.41 216.201 114.197 213.015C117.987 212.319 116.092 208.337 110.208 203.758C107.415 201.767 103.027 197.686 101.531 196.591Z" fill="#383A3A"/>
<path d="M112.303 212.617C110.906 212.717 106.717 210.228 105.421 209.133C104.124 208.039 101.132 205.45 97.4419 204.455C93.7517 203.559 91.7569 200.274 91.6572 198.682C91.6572 198.184 90.9591 197.487 90.1612 196.591C89.3633 196.492 88.6651 196.392 88.1664 196.392C87.8672 198.284 87.3686 199.976 87.3686 199.976C87.3686 199.976 85.6731 203.858 94.6493 206.844C98.7384 210.129 109.61 216.499 114.297 213.414C115.394 212.717 116.292 211.821 115.993 211.124C115.394 211.721 113.3 212.617 112.303 212.617Z" fill="black"/>
<path d="M104.423 201.17L105.122 199.08C105.122 198.98 105.122 198.98 105.022 198.881C104.922 198.881 104.922 198.881 104.822 198.881L104.623 198.98H104.523L101.631 199.379L102.329 197.288C102.329 197.189 102.329 197.189 102.229 197.089C102.129 197.089 102.129 197.089 102.03 197.089L97.8408 199.876C97.7411 199.876 97.7411 199.976 97.7411 200.075C97.7411 200.175 97.8408 200.175 97.9406 200.175L101.032 199.777L100.334 201.867V201.967V202.066H100.434L103.725 201.469L102.927 203.858C102.927 203.957 102.927 203.957 103.027 204.057H103.127H103.227L106.717 200.971C106.817 200.971 106.817 200.872 106.717 200.772C106.717 200.673 106.618 200.673 106.518 200.673L104.423 201.17ZM98.7384 199.777L102.03 197.587L101.431 199.379L98.7384 199.777ZM101.531 199.777L104.124 199.478L100.933 201.668L101.531 199.777ZM101.332 201.668L104.623 199.478L104.024 201.27L101.332 201.668ZM103.626 203.46L104.324 201.469L106.318 201.17L103.626 203.46Z" fill="white"/>
<path d="M85.1743 83.5141C87.4682 84.8081 90.959 92.3731 91.6571 98.1464C99.3368 101.829 105.221 104.816 105.221 104.816C105.221 104.816 102.828 85.4053 101.83 81.4237C100.933 77.3426 85.1743 83.5141 85.1743 83.5141Z" fill="#0F5B68"/>
<path d="M85.0747 89.8846C85.0747 89.8846 104.822 86.0026 105.72 86.1021C109.211 97.0515 106.219 106.806 108.912 127.71C109.61 132.886 109.31 138.56 109.31 138.56C109.31 138.56 102.129 183.651 101.132 191.117C99.8356 192.809 97.6414 194.103 94.8488 194.103C90.2609 194.103 87.6678 192.411 87.3686 191.814C86.9696 190.818 85.9723 171.706 86.5707 161.653C87.2689 148.812 89.5628 145.926 89.5628 143.537C86.8699 134.777 83.0799 122.434 82.7807 113.973C81.7834 91.2782 85.0747 89.8846 85.0747 89.8846Z" fill="#895236"/>
<path d="M87.7675 119.05C87.6677 119.05 87.568 118.95 87.568 118.95C87.7675 119.05 87.9669 119.149 88.1664 119.249C88.1664 119.249 88.0667 119.149 87.7675 119.05Z" fill="#0F5B68"/>
<path d="M106.219 90.0836C106.219 90.0836 101.93 102.227 90.5601 112.181C91.0587 116.661 88.8646 128.506 87.568 141.446C86.8698 148.912 84.7754 152.197 76.7965 162.151C72.8071 167.128 57.747 184.945 57.747 184.945C57.747 184.945 55.6525 187.434 51.6631 183.054C49.07 180.167 48.5713 176.783 48.5713 176.783C48.5713 176.783 56.2509 160.06 58.1459 156.178C62.2351 147.916 69.815 144.034 69.815 144.034C69.815 144.034 66.025 127.112 65.0277 121.638C63.5317 113.874 60.6393 112.281 64.1301 99.8385C64.1301 97.7482 102.728 94.0652 106.219 90.0836Z" fill="#A06442"/>
<path d="M64.1301 117.756C62.1354 112.48 61.3375 109.992 64.0304 99.7391C64.0304 98.5446 78.1929 96.6533 90.1611 94.563C95.3474 95.9565 100.933 101.033 100.933 101.033C100.933 101.033 95.6466 113.476 89.9617 114.969C84.2767 116.462 68.8177 118.253 68.8177 121.737C68.8177 125.221 68.7179 139.655 68.7179 139.655C68.7179 139.655 65.4267 123.728 64.1301 117.756Z" fill="#895236"/>
<path d="M104.922 72.9627C104.922 65.6963 106.618 53.4529 106.019 48.3764C105.421 43.2998 101.93 31.4546 101.531 29.3642C101.332 28.0702 100.234 25.8803 99.7357 24.1881C99.3368 22.6951 96.4445 22.496 96.4445 22.496L90.2608 25.3826C90.2608 25.3826 88.0667 26.2785 88.4656 28.2693C88.9643 30.7578 92.9537 39.1191 93.3527 42.0058C93.6519 44.3948 94.2503 46.1865 93.2529 56.4391L92.9537 80.6273L93.4524 102.128C93.4524 102.128 97.3421 100.436 100.933 97.9472C104.324 95.5583 107.814 90.4818 106.717 87.9933C105.62 85.3057 104.922 80.2291 104.922 72.9627Z" fill="#F2170C"/>
<path d="M96.6439 23.7901C95.5468 23.9892 91.0587 26.6768 91.0587 26.6768L91.8566 27.9708C91.8566 27.9708 93.4524 28.1699 94.2503 28.1699C95.0481 28.1699 96.4444 30.2602 97.0429 30.2602C97.6413 30.2602 100.035 29.5634 100.035 29.5634C100.035 29.5634 99.4365 26.1791 99.0376 24.885C98.8381 23.591 97.741 23.591 96.6439 23.7901Z" fill="#F94932"/>
<path d="M96.8435 19.7089C96.7437 18.7135 97.2424 13.1393 96.4445 11.3476C95.6467 9.55586 93.9511 5.6738 91.9564 4.77794C91.9564 4.77794 89.5628 3.98162 87.8673 4.6784C86.3712 5.27564 82.4815 7.36598 80.786 10.9494C78.9908 14.6324 81.0852 17.5191 81.0852 17.5191C81.0852 17.5191 80.0879 18.614 79.3897 17.9172C78.7913 17.1209 77.6942 17.9172 76.9961 18.8131C76.1982 19.7089 76.9961 21.3016 77.395 21.9984C77.7939 22.5956 78.4921 23.8896 78.7913 24.885C79.0905 25.8804 80.6863 29.3643 81.8831 30.0611C82.9802 30.8574 91.8567 32.7487 93.1533 32.8482C94.4498 32.9477 96.4445 32.251 96.5443 31.5542C96.644 30.9569 97.6414 25.5818 97.5416 23.6905C97.3422 21.8988 96.9432 20.7043 96.8435 19.7089Z" fill="#F4CEAB"/>
<path d="M92.0562 4.77794C92.0562 4.77794 89.6625 3.98162 87.967 4.6784C86.3712 5.27564 82.4815 7.36598 80.786 10.9494C78.9908 14.6324 81.0852 17.5191 81.0852 17.5191C81.0852 17.5191 80.0879 18.614 79.3897 17.9172C78.7913 17.1209 77.6942 17.9172 76.9961 18.8131C76.1982 19.7089 76.9961 21.3016 77.395 21.9984C77.7939 22.5956 78.4921 23.8896 78.7913 24.885C79.0905 25.8804 80.6863 29.3643 81.8831 30.0611C82.9802 30.8574 91.8567 32.7487 93.1533 32.8482C93.6519 32.8482 94.2504 32.8482 94.8488 32.6491C91.8567 31.8528 89.2636 29.1652 88.9644 27.8712C88.6651 26.5772 88.1665 25.4823 86.9696 24.0887C85.6731 22.6951 85.1744 21.003 84.6757 20.4057C84.177 19.8085 84.2768 17.6186 84.7755 15.8269C85.2741 14.0352 91.358 13.4379 93.253 12.6416C95.2477 11.8453 95.3474 11.3476 95.9459 9.75494C94.9485 7.96322 93.5522 5.47472 92.0562 4.77794Z" fill="#EDB291"/>
<path d="M92.7542 2.88666C90.959 1.89126 87.2688 -0.497702 82.1822 0.099538C77.0957 0.696778 73.206 3.38436 72.4081 6.66917C71.6102 9.95399 72.3084 14.931 72.8071 16.4241C73.3057 17.9172 75.8989 21.5006 76.6968 22.7946C77.5944 24.0887 78.2925 25.1836 78.492 26.179C78.7912 27.2739 78.7912 27.5726 78.7912 27.5726C78.7912 27.5726 79.3896 25.8804 79.1902 25.2831C78.891 24.6859 77.3949 21.9983 77.2952 20.0075C77.1954 18.0167 78.5917 18.2158 79.1902 18.2158C79.7886 18.2158 80.387 18.9126 80.6862 19.8084C80.8857 20.4057 81.2846 20.9034 81.2846 20.9034C81.2846 20.9034 82.6809 18.5144 82.5812 17.0213C82.4814 15.5282 82.282 12.4425 82.8804 12.343C83.3791 12.2434 86.2714 12.0443 87.568 12.343C88.8645 12.6416 95.1479 12.0443 96.4444 10.9494C97.1426 10.2526 97.741 7.96319 97.0429 6.27101C96.3447 4.57884 94.5495 3.88206 92.7542 2.88666Z" fill="#5E2D15"/>
<path d="M91.1585 2.78714C89.3633 1.89129 85.8725 0.398186 83.1796 0.796346C82.282 0.895886 77.5944 1.89129 76.5971 2.58806C75.5997 3.1853 72.9068 6.27104 72.8071 8.75954C72.7074 11.248 72.9068 13.4379 72.9068 13.4379C72.9068 13.4379 73.0066 10.5513 73.7047 9.35678C74.3031 8.26184 75.5 8.06276 75.5 8.06276C75.5 8.06276 74.0039 9.75494 74.0039 11.6462C74.0039 13.5375 75.0013 15.4287 75.0013 15.4287C75.0013 15.4287 74.2034 12.9402 75.0013 11.1485C75.7992 9.35678 78.1928 8.46092 78.1928 8.46092C78.1928 8.46092 76.7965 9.85448 76.6968 11.7457C76.5971 13.637 77.5944 15.4287 77.5944 15.4287C77.5944 15.4287 77.2952 11.8453 78.5918 10.7503C79.8884 9.6554 80.0878 10.7503 80.0878 11.3476C80.0878 11.9448 81.0852 10.3522 82.8804 10.4517C84.6757 10.5513 91.7569 10.7503 93.5522 9.85448C95.3474 8.95862 96.245 7.1669 95.9458 6.27104C95.5469 5.37518 92.9537 3.683 91.1585 2.78714Z" fill="#844B34"/>
<path d="M94.8487 60.8189C94.4497 56.4392 87.9669 48.5755 86.3711 46.5847C83.8777 43.2999 78.5917 33.545 77.2952 31.0565C76.996 30.5588 77.3949 30.1606 77.4946 29.9615C77.2952 30.1606 76.4973 30.8574 76.2978 31.0565C75.4002 31.8528 73.4055 32.9477 72.0092 33.545C70.2139 34.2418 66.7232 35.8344 63.3322 37.7257C60.2404 39.1192 58.0462 41.6077 57.5475 43.8971C61.9359 39.7165 67.4213 44.3948 68.9174 45.7884C70.4134 47.2815 70.7126 51.5617 70.0145 54.8465C69.3163 58.1313 60.739 59.1267 60.739 59.1267C60.739 59.1267 64.4293 64.9001 65.0277 66.9904C66.025 70.4743 66.2245 76.6458 66.2245 76.6458C66.2245 76.6458 66.025 84.5094 65.7258 88.8892C65.3269 93.2689 63.5316 101.531 64.2298 102.626C64.9279 103.721 68.9174 106.906 76.597 107.005C87.2688 107.105 93.951 101.531 93.951 101.531L94.35 92.4726C94.35 92.4726 93.951 80.2292 93.2529 78.0393C92.5547 75.8495 95.1479 64.2033 94.8487 60.8189Z" fill="#F2170C"/>
<path d="M70.1143 54.9461C69.4161 58.2309 60.8389 59.2263 60.8389 59.2263C60.8389 59.2263 64.5291 64.9996 65.1275 67.0899C66.1249 70.5738 66.3243 76.7453 66.3243 76.7453C66.3243 76.7453 66.1249 84.609 65.8257 88.9887C65.4267 93.3685 63.6315 101.63 64.3296 102.725C65.0278 103.82 69.0172 107.005 76.6969 107.105C77.2953 107.105 77.794 107.105 78.2926 107.105C79.5892 101.929 82.0826 90.88 82.0826 81.0255C82.0826 69.7775 72.9069 53.0548 70.0146 47.9783C70.613 49.77 70.613 52.6566 70.1143 54.9461Z" fill="#B70606"/>
<path d="M59.0435 41.9063C56.7496 43.4989 57.4477 47.9782 57.4477 49.3718C57.4477 49.3718 58.0461 53.4529 60.2403 58.0318C61.9358 61.4161 64.8282 65.3977 67.521 65.6963C70.1142 66.0945 72.0092 60.5203 72.2086 56.4391C72.3084 53.652 71.2113 47.381 68.9173 43.9966C66.6234 40.5127 61.3374 40.2141 59.0435 41.9063Z" fill="#840606"/>
<path d="M107.515 97.2505C104.523 93.0698 95.3474 77.1434 86.3712 69.1802C81.8831 58.0317 75.7992 52.6566 72.5079 48.3764C69.5158 44.4943 67.7206 41.309 63.1327 41.0104C58.6446 40.6122 57.3481 48.9736 60.9385 55.1451C60.9385 55.1451 64.4293 61.6152 66.3243 63.606C67.2219 64.6014 71.2113 70.5738 75.2008 74.3563C75.8989 75.0531 82.0825 86.8983 83.8778 88.7896C88.8646 94.0652 99.4366 103.123 101.73 103.422C104.124 103.721 109.111 99.3408 107.515 97.2505Z" fill="white"/>
<path d="M59.3428 44.7929C60.1407 43.3994 61.8362 42.2049 65.3269 42.404C67.8203 42.5035 67.6208 43.0012 68.4187 43.2003C67.0224 42.0058 65.5264 41.2095 63.3322 41.0104C61.2378 40.8113 59.8415 42.404 59.3428 44.7929Z" fill="#0B8CAA"/>
<path d="M76.4974 32.1514C76.4974 32.1514 75.3006 32.7486 75.0013 33.2463C74.8019 33.744 70.4135 35.4362 69.1169 35.9339C67.8204 36.4316 61.3375 39.7164 62.6341 39.5173C63.8309 39.4178 64.928 40.1146 64.928 40.1146C64.928 40.1146 66.4241 39.1192 67.3217 39.1192C68.3191 39.1192 70.4135 39.1192 72.4082 40.1146C74.3032 41.11 75.2008 40.9109 76.4974 40.2141C77.7939 39.5173 80.4868 38.9201 79.7887 38.1238C78.9908 37.427 76.4974 32.1514 76.4974 32.1514Z" fill="#F94932"/>
<path d="M99.3368 132.985C98.3395 127.312 99.8355 118.552 102.129 113.874C103.227 111.584 105.82 108.897 108.014 109.096C108.114 113.774 108.114 121.439 109.011 127.809C109.709 132.985 109.41 138.659 109.41 138.659C109.41 138.659 102.229 183.751 101.232 191.216C100.334 192.311 99.1374 193.207 97.6413 193.804C96.7437 191.614 97.2424 187.732 96.9432 183.85C96.4445 176.584 99.4366 147.22 100.234 144.731C101.032 142.243 100.334 138.659 99.3368 132.985Z" fill="#A06442"/>
<path d="M149.404 61.7147L119.184 46.6842L89.0641 61.7147L88.9644 61.9138L119.284 77.0439L149.504 61.9138L149.404 61.7147Z" fill="#F2BA82"/>
<path d="M136.738 68.2844L106.318 53.1543L101.731 55.4437L132.15 70.5738L136.738 68.2844Z" fill="#A06442"/>
<path d="M134.544 69.3793L104.124 54.2493L103.925 54.3488L134.344 69.4789L134.544 69.3793Z" fill="#7C420D"/>
<path d="M118.985 107.304L88.7649 92.2735V62.1129L88.9644 61.9138L119.284 77.0439V107.304H118.985Z" fill="#D78C4B"/>
<path d="M149.703 92.2735L119.484 107.304H119.284V77.0439L149.504 61.9138L149.703 62.1129V92.2735Z" fill="#ECA763"/>
<path d="M136.738 68.2844V75.6504L132.15 77.9398V70.5738L136.738 68.2844Z" fill="#8C5438"/>
<path d="M143.32 92.2735L147.31 90.2827V89.785L143.32 91.8754V92.2735Z" fill="#8C5438"/>
<path d="M145.514 87.7943L146.213 86.5002L146.911 86.9979L146.512 87.197V89.9841L145.913 90.2828V87.4956L145.514 87.7943Z" fill="#8C5438"/>
<path d="M143.719 88.6901L144.417 87.3961L145.116 87.8938L144.717 88.0929V90.88L144.118 91.1786V88.3915L143.719 88.6901Z" fill="#8C5438"/>
<path d="M142.323 92.3731V88.6901C142.323 88.0928 142.822 87.2965 143.42 86.9979L147.21 85.1067C147.808 84.808 148.307 85.1067 148.307 85.7039V89.3869C148.307 89.9841 147.808 90.7804 147.21 91.0791L143.42 92.9703C142.822 93.2689 142.323 93.0699 142.323 92.3731ZM143.42 87.2965C142.921 87.4956 142.622 88.0929 142.622 88.5906V92.2735C142.622 92.7712 143.021 92.9703 143.42 92.7712L147.21 90.88C147.709 90.6809 148.008 90.0837 148.008 89.586V85.903C148.008 85.4053 147.609 85.2062 147.21 85.4053L143.42 87.2965Z" fill="#8C5438"/>
<path d="M135.042 96.0561V92.3731C135.042 91.7758 135.541 90.9795 136.139 90.6809L139.929 88.7896C140.528 88.491 141.027 88.7896 141.027 89.3869V93.0699C141.027 93.6671 140.528 94.4634 139.929 94.762L136.139 96.6533C135.541 96.9519 135.042 96.6533 135.042 96.0561ZM136.139 90.9795C135.641 91.1786 135.342 91.7758 135.342 92.2735V95.9565C135.342 96.4542 135.741 96.6533 136.139 96.4542L139.929 94.563C140.428 94.3639 140.727 93.7666 140.727 93.2689V89.586C140.727 89.0883 140.328 88.8892 139.929 89.0883L136.139 90.9795Z" fill="#8C5438"/>
<path d="M137.137 92.3731V90.9795L138.832 90.1832V91.4772C138.832 92.0745 138.533 92.7713 138.134 93.0699V94.4634C138.533 94.2644 138.832 94.563 138.832 94.563L137.237 95.3593C137.237 95.3593 137.436 94.8616 137.935 94.563V93.1694C137.436 93.269 137.137 92.9703 137.137 92.3731Z" fill="#8C5438"/>
<path d="M127.762 99.739V96.0561C127.762 95.4588 128.26 94.6625 128.859 94.3639L132.649 92.4726C133.247 92.174 133.746 92.4726 133.746 93.0699V96.7528C133.746 97.3501 133.247 98.1464 132.649 98.445L128.859 100.336C128.26 100.635 127.762 100.336 127.762 99.739ZM128.859 94.563C128.36 94.762 128.061 95.3593 128.061 95.857V99.54C128.061 100.038 128.46 100.237 128.859 100.038L132.649 98.1464C133.147 97.9473 133.447 97.3501 133.447 96.8524V93.1694C133.447 92.6717 133.048 92.4726 132.649 92.6717L128.859 94.563Z" fill="#8C5438"/>
<path d="M128.659 97.0514C128.659 96.1555 129.557 94.9611 130.754 94.3638C131.851 93.7666 132.848 94.0652 132.848 94.9611C132.848 94.9611 132.748 94.762 132.449 94.8615C132.15 94.9611 132.05 95.3592 132.05 95.3592C132.05 95.3592 131.95 95.1601 131.651 95.2597C131.352 95.4588 131.252 95.7574 131.252 95.7574C131.252 95.7574 131.153 95.5583 130.853 95.6578C130.554 95.7574 130.454 96.1555 130.454 96.1555C130.454 96.1555 130.355 95.9565 130.055 96.056C129.756 96.1555 129.657 96.5537 129.657 96.5537C129.657 96.5537 129.557 96.3546 129.258 96.4542C128.759 96.7528 128.659 97.0514 128.659 97.0514Z" fill="#8C5438"/>
<path d="M131.153 98.445C131.352 98.3455 131.452 98.2459 131.552 98.0468C131.751 97.7482 131.651 97.5491 131.651 97.4496C131.651 97.3501 131.552 97.3501 131.552 97.4496C131.452 97.4496 131.452 97.5491 131.452 97.6487C131.452 97.6487 131.452 97.8478 131.352 98.0468C131.252 98.1464 131.252 98.2459 131.153 98.2459C131.053 98.2459 130.953 98.3454 130.953 98.2459C130.853 98.1464 130.853 97.9473 130.853 97.9473V94.0652C130.853 93.9657 130.754 93.9657 130.754 93.9657C130.654 93.9657 130.654 94.0652 130.654 94.1648V98.0468C130.654 98.0468 130.654 98.445 130.853 98.5445C130.853 98.5445 131.053 98.5445 131.153 98.445Z" fill="#8C5438"/>
<path d="M119.384 77.0439H118.985V107.304H119.384V77.0439Z" fill="#F2BA82"/>
<path d="M119.284 77.3425L88.7649 62.1129L89.0641 61.7147L119.284 76.8448L149.404 61.7147L149.703 62.1129L119.284 77.3425Z" fill="#F4CEAB"/>
<path d="M132.15 70.8724L136.738 68.583L136.538 68.1848L131.95 70.4742L132.15 70.8724Z" fill="#BC8266"/>
<path d="M100.833 55.8419L131.352 71.0715L137.536 67.9858L137.436 67.7867L107.216 52.6566L100.833 55.8419Z" fill="#A06442"/>
<path d="M103.925 54.3487L134.444 69.5783L134.743 69.4788L104.224 54.1497L103.925 54.3487Z" fill="#7C420D"/>
<path d="M131.153 78.736L137.536 75.5508V68.1848L137.336 67.9857L131.153 71.0715V78.736Z" fill="#8C5438"/>
<path d="M131.053 70.972C131.053 70.972 131.153 71.0715 131.153 71.1711C131.153 71.2706 131.153 71.4697 131.153 71.4697L137.536 68.2844C137.536 68.2844 137.635 68.1849 137.536 68.0853C137.536 67.8862 137.436 67.8862 137.436 67.8862L131.053 70.972Z" fill="#BC8266"/>
<path d="M138.533 37.9247L114.995 26.179L91.4576 37.9247L91.3579 38.0242L114.995 49.8695L138.633 38.0242L138.533 37.9247Z" fill="#F2BA82"/>
<path d="M128.659 43.0012L104.922 31.2555L101.332 33.0472L125.069 44.7929L128.659 43.0012Z" fill="#A06442"/>
<path d="M126.964 43.897L103.226 32.0518L103.027 32.1513L126.764 43.9966L126.964 43.897Z" fill="#7C420D"/>
<path d="M114.796 73.4604L91.2582 61.7147V38.2233L91.3579 38.0242L114.995 49.8694V73.4604H114.796Z" fill="#D78C4B"/>
<path d="M138.732 61.7147L115.195 73.4604H114.995V49.8694L138.633 38.0242L138.732 38.2233V61.7147Z" fill="#ECA763"/>
<path d="M128.659 43.0012V48.675L125.069 50.4667V44.7929L128.659 43.0012Z" fill="#8C5438"/>
<path d="M115.095 49.8695H114.796V73.4605H115.095V49.8695Z" fill="#F2BA82"/>
<path d="M114.995 50.0686L91.2582 38.2233L91.4576 37.9247L114.995 49.6704L138.533 37.9247L138.732 38.2233L114.995 50.0686Z" fill="#F4CEAB"/>
<path d="M125.069 44.992L128.659 43.2002L128.46 42.9016L124.869 44.6933L125.069 44.992Z" fill="#BC8266"/>
<path d="M132.449 61.9137L136.538 59.9229V59.5248L132.449 61.5156V61.9137Z" fill="#8C5438"/>
<path d="M134.643 57.4344L135.341 56.1404L136.139 56.7376L135.641 56.9367V59.6243L135.042 59.9229V57.2353L134.643 57.4344Z" fill="#8C5438"/>
<path d="M132.848 58.3303L133.546 57.0363L134.344 57.6335L133.845 57.8326V60.5202L133.247 60.8188V58.1312L132.848 58.3303Z" fill="#8C5438"/>
<path d="M131.452 62.1128V58.4298C131.452 57.8326 131.95 57.0363 132.549 56.7377L136.339 54.8464C136.937 54.5478 137.436 54.8464 137.436 55.4436V59.1266C137.436 59.7239 136.937 60.5202 136.339 60.8188L132.549 62.7101C131.95 63.0087 131.452 62.7101 131.452 62.1128ZM132.549 57.0363C132.05 57.2354 131.751 57.8326 131.751 58.3303V62.0133C131.751 62.511 132.15 62.7101 132.549 62.511L136.339 60.6197C136.837 60.4206 137.137 59.8234 137.137 59.3257V55.6427C137.137 55.145 136.738 54.9459 136.339 55.145L132.549 57.0363Z" fill="#8C5438"/>
<path d="M124.171 65.7958V62.1128C124.171 61.5156 124.67 60.7193 125.268 60.4206L129.058 58.5294C129.656 58.2308 130.155 58.5294 130.155 59.1266V62.8096C130.155 63.4068 129.656 64.2032 129.058 64.5018L125.268 66.393C124.67 66.6917 124.171 66.393 124.171 65.7958ZM125.268 60.6197C124.769 60.8188 124.47 61.416 124.47 61.9137V65.5967C124.47 66.0944 124.869 66.2935 125.268 66.0944L129.058 64.2032C129.557 64.0041 129.856 63.4068 129.856 62.9091V59.2262C129.856 58.7285 129.457 58.5294 129.058 58.7285L125.268 60.6197Z" fill="#8C5438"/>
<path d="M126.365 62.0133V60.7193L128.061 59.923V61.217C128.061 61.8142 127.762 62.511 127.363 62.8096V64.2032C127.762 64.0041 128.061 64.3027 128.061 64.3027L126.465 65.0991C126.465 65.0991 126.664 64.6014 127.163 64.3027V62.9092C126.664 63.0087 126.365 62.7101 126.365 62.0133Z" fill="#8C5438"/>
<path d="M116.89 69.3792V65.6962C116.89 65.099 117.389 64.3026 117.987 64.004L121.777 62.1128C122.376 61.8141 122.874 62.1128 122.874 62.71V66.393C122.874 66.9902 122.376 67.7865 121.777 68.0852L117.987 69.9764C117.389 70.275 116.89 70.076 116.89 69.3792ZM117.987 64.3026C117.489 64.5017 117.189 65.099 117.189 65.5967V69.2796C117.189 69.7773 117.588 69.9764 117.987 69.7773L121.777 67.8861C122.276 67.687 122.575 67.0898 122.575 66.5921V62.9091C122.575 62.4114 122.176 62.2123 121.777 62.4114L117.987 64.3026Z" fill="#8C5438"/>
<path d="M117.788 66.7911C117.788 65.8953 118.685 64.7008 119.882 64.1036C120.979 63.5063 121.977 63.8049 121.977 64.7008C121.977 64.7008 121.877 64.5017 121.578 64.6013C121.279 64.7008 121.179 65.099 121.179 65.099C121.179 65.099 121.079 64.8999 120.78 64.9994C120.481 65.1985 120.381 65.4971 120.381 65.4971C120.381 65.4971 120.281 65.298 119.982 65.3976C119.683 65.4971 119.583 65.8953 119.583 65.8953C119.583 65.8953 119.483 65.6962 119.184 65.7957C118.885 65.8953 118.785 66.2934 118.785 66.2934C118.785 66.2934 118.685 66.0944 118.386 66.1939C117.888 66.393 117.788 66.7911 117.788 66.7911Z" fill="#8C5438"/>
<path d="M120.281 68.1847C120.381 68.1847 120.381 68.1847 120.281 68.1847C120.481 68.0851 120.58 67.9856 120.68 67.7865C120.88 67.4879 120.78 67.2888 120.78 67.1893C120.78 67.0897 120.68 67.0897 120.68 67.1893C120.58 67.1893 120.58 67.2888 120.58 67.3884C120.58 67.3884 120.58 67.5874 120.481 67.7865C120.381 67.8861 120.381 67.9856 120.281 67.9856C120.182 67.9856 120.082 68.0851 120.082 67.9856C119.982 67.8861 119.982 67.687 119.982 67.687V63.7054C119.982 63.6058 119.882 63.6058 119.882 63.6058C119.783 63.6058 119.783 63.7054 119.783 63.8049V67.687C119.783 67.687 119.783 68.0851 119.982 68.1847C120.082 68.1847 120.182 68.1847 120.281 68.1847Z" fill="#8C5438"/>
<path d="M99.8354 33.6445L123.672 45.5893L129.856 42.5036L129.756 42.2049L106.418 30.4592L99.8354 33.6445Z" fill="#A06442"/>
<path d="M103.027 32.1514L126.764 43.9967L127.063 43.8971L103.326 32.0519L103.027 32.1514Z" fill="#7C420D"/>
<path d="M123.473 53.1544L129.956 49.9691V42.6031L129.756 42.4041L123.473 45.5893V53.1544Z" fill="#8C5438"/>
<path d="M123.373 45.3902C123.373 45.3902 123.473 45.4897 123.473 45.5893C123.473 45.6888 123.473 45.8879 123.473 45.8879L129.856 42.7026C129.856 42.7026 129.956 42.6031 129.856 42.5035C129.856 42.3044 129.756 42.3044 129.756 42.3044L123.373 45.3902Z" fill="#BC8266"/>
<path d="M105.919 97.35C105.919 97.35 107.216 99.6395 108.612 100.137C110.009 100.635 112.302 98.445 113.898 99.6395C114.796 100.237 116.292 101.133 117.588 101.63C118.686 102.028 119.583 101.63 120.082 101.929C120.581 102.227 120.281 104.318 117.588 103.92C115.893 103.621 113.1 103.322 114.098 104.119C115.095 104.915 119.284 107.304 119.284 107.304L124.969 104.616C124.969 104.616 120.481 110.29 115.793 110.091C111.106 109.892 106.817 108.299 105.82 106.408C104.124 103.422 98.8381 99.4404 98.8381 99.4404C98.8381 99.4404 103.426 94.2643 105.919 97.35Z" fill="#EDB291"/>
<path d="M118.486 103.422C119.184 103.522 119.882 102.924 120.182 102.725C120.082 103.422 119.384 104.318 117.588 104.019C116.192 103.82 113.798 103.522 113.898 103.92C113.2 103.123 114.696 102.526 115.295 102.526C115.893 102.626 117.588 103.322 118.486 103.422Z" fill="#E59E7A"/>
<path d="M100.633 97.8478C102.129 98.6441 105.121 100.535 106.119 102.626C107.515 105.413 110.607 107.603 112.203 108.299C113.699 108.996 117.289 109.593 118.985 109.394H119.085C117.987 109.892 116.89 110.191 115.693 110.191C111.006 109.992 106.717 108.399 105.72 106.508C104.024 103.522 98.7384 99.54 98.7384 99.54C98.7384 99.54 99.5363 98.6441 100.633 97.8478Z" fill="#E59E7A"/>
<path d="M107.515 97.2505C104.523 93.0698 95.3474 77.1434 86.3712 69.1802C81.8831 58.0318 71.2114 70.5738 75.2008 74.3563C75.8989 75.0531 82.0826 86.8983 83.8778 88.7896C88.8646 94.0652 99.4366 103.123 101.731 103.422C104.124 103.721 109.111 99.3408 107.515 97.2505Z" fill="#20A9D3"/>
<path d="M149.604 85.8035C149.604 85.8035 151.1 89.8846 151 91.3777C150.9 92.8708 145.016 94.4634 145.016 94.4634C145.016 94.4634 147.509 93.1694 148.606 90.6809C149.703 88.1924 149.604 85.8035 149.604 85.8035Z" fill="#EDB291"/>
<path d="M107.515 97.2505C104.523 93.0698 95.3474 77.1434 86.3712 69.1802C81.8831 58.0318 71.2114 70.5738 75.2008 74.3563C75.8989 75.0531 82.0826 86.8983 83.8778 88.7896C88.8646 94.0652 99.4366 103.123 101.731 103.422C104.124 103.721 109.111 99.3408 107.515 97.2505Z" fill="white"/>
<path d="M61.138 55.0456C58.8441 51.1635 58.5449 46.4851 59.642 43.5985C60.6393 42.2049 61.537 41.4086 61.8362 41.11H61.9359C61.9359 41.6077 62.5343 44.8925 63.4319 48.3764C64.4293 52.1589 70.9121 62.9092 74.7021 67.0899C77.4947 70.1756 81.5839 74.6549 81.5839 74.6549C81.5839 74.6549 84.9749 80.3287 87.0693 83.6135C89.463 87.3961 94.4498 91.6763 95.9458 93.3685C97.3421 94.8616 104.024 100.933 105.321 102.028C104.124 102.924 102.828 103.522 101.93 103.422C99.636 103.024 89.064 94.0652 84.0773 88.7896C82.282 86.8984 76.0984 75.0531 75.4002 74.3563C71.4108 70.5738 67.4214 64.6014 66.5238 63.606C64.6288 61.5157 61.138 55.0456 61.138 55.0456Z" fill="#C6C4C1"/>
</g>
<defs>
<clipPath id="clip0">
<rect width="151" height="238" fill="white"/>
</clipPath>
</defs>
</svg>
