<svg width="236" height="215" viewBox="0 0 236 215" fill="none" xmlns="http://www.w3.org/2000/svg">
<path d="M188.221 176.995L63.1153 114.733C63.1153 114.733 42.2169 109.462 40.7953 113.308C39.0893 117.725 54.0167 125.704 54.0167 125.704L160.215 177.993L188.221 176.995Z" fill="#C7D0D4"/>
<path d="M147.562 196.942L22.4559 134.68C22.4559 134.68 1.55749 129.408 0.135831 133.255C-1.57016 137.672 13.3572 145.651 13.3572 145.651L119.555 197.94L147.562 196.942Z" fill="#C7D0D4"/>
<path d="M211.394 187.966C218.076 184.689 218.076 179.133 211.394 175.856L193.908 166.88C187.226 163.603 176.421 163.603 169.74 166.88L123.251 190.673C116.57 193.95 116.57 199.507 123.251 202.784L140.738 211.76C147.42 215.037 158.224 215.037 164.906 211.76L211.394 187.966Z" fill="#C7D0D4"/>
<path d="M61.2671 117.155L64.9634 115.303C64.9634 115.303 66.5273 114.591 67.9489 115.161C69.3706 115.731 73.209 117.868 73.209 117.868L77.9005 114.876L65.9586 109.034L56.86 113.878L61.2671 117.155Z" fill="#303D40"/>
<path d="M74.4886 121.43C74.4886 124.564 71.9296 125.847 68.802 124.279C65.6743 122.712 63.1154 118.865 63.1154 115.731C63.1154 112.596 65.6743 111.314 68.802 112.881C71.9296 114.449 74.4886 118.295 74.4886 121.43Z" fill="#EBA500"/>
<path d="M60.272 114.876C60.272 114.876 64.3948 112.596 65.2478 112.454C66.1008 112.311 72.3561 115.873 73.3512 120.148C74.3464 124.422 72.3561 124.992 72.3561 124.992C72.3561 124.992 69.0862 126.559 68.6598 126.844C68.0911 126.844 60.272 114.876 60.272 114.876Z" fill="#EBA500"/>
<path d="M70.5079 123.425C70.5079 126.559 67.9489 127.841 64.8213 126.274C61.6936 124.707 59.1346 120.86 59.1346 117.725C59.1346 114.591 61.6936 113.309 64.8213 114.876C67.9489 116.443 70.5079 120.148 70.5079 123.425Z" fill="#EF8F11"/>
<path d="M68.2333 120.717C68.5176 121.145 68.6598 121.572 68.6598 122.142C68.8019 122.569 68.8019 123.139 68.5176 123.567C68.3754 123.994 67.9489 124.564 67.5224 124.707C67.0959 124.992 66.5273 124.992 65.9586 124.849C64.9635 124.707 64.1105 124.137 63.3996 123.424C62.6888 122.712 62.1201 121.857 61.8358 121.002C62.4045 121.715 62.9731 122.427 63.684 122.997C64.1105 123.282 64.3948 123.567 64.8213 123.709C65.2478 123.852 65.6743 124.137 66.1008 124.137C66.5273 124.279 66.9538 124.137 67.3803 123.994C67.8068 123.852 68.0911 123.567 68.2333 123.139C68.5176 122.569 68.3754 121.572 68.2333 120.717Z" fill="#EBA500"/>
<path d="M173.294 174.574V179.703L57.8552 121.43C57.8552 121.43 46.7662 115.588 48.3301 106.612C48.3301 106.612 50.7469 112.454 57.0022 115.873C63.2575 119.293 173.294 174.574 173.294 174.574Z" fill="#303D40"/>
<path d="M57.4287 116.301C52.7372 114.021 45.2024 107.467 49.4674 105.33C53.7324 103.193 66.3851 106.755 71.3609 109.319C76.3367 111.884 187.226 167.592 187.226 167.592L173.294 174.574C173.294 174.574 62.1202 118.58 57.4287 116.301ZM74.7729 115.731C76.0524 115.161 75.7681 114.021 74.3464 113.309L69.2285 110.744C67.8068 110.032 65.6743 109.889 64.3948 110.602L59.9877 112.739C58.7082 113.309 58.9925 114.448 60.4142 115.161L65.5322 117.725C66.9538 118.438 69.0863 118.58 70.3658 117.868L74.7729 115.731Z" fill="#525B5E"/>
<path d="M173.294 174.289V179.56L187.226 172.579V167.592L173.294 174.289Z" fill="#404D51"/>
<path d="M23.8775 135.819L27.5738 133.967C27.5738 133.967 29.1377 133.255 30.5593 133.825C31.981 134.395 35.8194 136.532 35.8194 136.532L40.5109 133.54L28.569 127.698L19.6125 132.4L23.8775 135.819Z" fill="#303D40"/>
<path d="M37.099 139.951C37.099 143.086 34.54 144.368 31.4123 142.801C28.2847 141.234 25.7257 137.387 25.7257 134.252C25.7257 131.118 28.2847 129.836 31.4123 131.403C34.54 132.97 37.099 136.817 37.099 139.951Z" fill="#EBA500"/>
<path d="M23.0245 133.397C23.0245 133.397 27.1473 131.118 28.0003 130.975C28.8533 130.833 35.1086 134.395 36.1038 138.669C37.0989 142.943 35.1086 143.513 35.1086 143.513C35.1086 143.513 31.8388 145.081 31.4123 145.365C30.7015 145.508 23.0245 133.397 23.0245 133.397Z" fill="#EBA500"/>
<path d="M33.1183 141.946C33.1183 145.08 30.5593 146.363 27.4316 144.796C24.304 143.228 21.745 139.381 21.745 136.247C21.745 133.112 24.304 131.83 27.4316 133.397C30.7014 134.965 33.1183 138.812 33.1183 141.946Z" fill="#EF8F11"/>
<path d="M30.8436 139.239C31.128 139.666 31.2701 140.094 31.2701 140.664C31.4123 141.091 31.4123 141.661 31.128 142.088C30.9858 142.516 30.5593 143.086 30.1328 143.228C29.7063 143.513 29.1376 143.513 28.569 143.371C27.5738 143.228 26.7208 142.658 26.01 141.946C25.2992 141.233 24.7305 140.379 24.4462 139.524C25.0148 140.236 25.5835 140.948 26.2943 141.518C26.7208 141.803 27.0051 142.088 27.4316 142.231C27.8581 142.373 28.2846 142.658 28.7111 142.658C29.1376 142.801 29.5641 142.658 29.9906 142.516C30.4171 142.373 30.7015 142.088 30.8436 141.661C31.128 141.091 31.128 140.236 30.8436 139.239Z" fill="#EBA500"/>
<path d="M135.904 193.095V198.224L20.4655 140.094C20.4655 140.094 9.3766 134.252 10.9404 125.276C10.9404 125.276 13.3572 131.118 19.6125 134.537C25.8678 137.957 135.904 193.095 135.904 193.095Z" fill="#303D40"/>
<path d="M20.0391 134.965C15.3476 132.685 7.8128 126.131 12.0778 123.994C16.3427 121.857 28.9955 125.419 33.9713 127.983C38.9471 130.548 149.836 186.256 149.836 186.256L135.904 193.238C135.904 193.095 24.7305 137.244 20.0391 134.965ZM37.3833 134.395C38.6628 133.825 38.3784 132.685 36.9568 131.973L31.8388 129.408C30.4172 128.696 28.2847 128.553 27.0052 129.266L22.598 131.403C21.3185 131.973 21.6029 133.113 23.0245 133.825L28.1425 136.39C29.5642 137.102 31.6966 137.244 32.9761 136.532L37.3833 134.395Z" fill="#525B5E"/>
<path d="M135.904 192.953V198.224L149.836 191.1V186.114L135.904 192.953Z" fill="#404D51"/>
<path d="M135.904 185.402V198.224L187.226 172.579V159.613L135.904 185.402Z" fill="#404D51"/>
<path d="M135.904 198.225L132.919 196.658V186.969L135.904 185.402V198.225Z" fill="#303D40"/>
<path d="M175.426 124.421L186.799 159.756L201.3 166.879L184.098 128.838L175.426 124.421Z" fill="#B76604"/>
<path d="M186.799 159.756V172.436L201.3 179.56V166.88L186.799 159.756Z" fill="#B76604"/>
<path d="M152.537 135.962L161.21 140.236L184.098 128.838L175.426 124.421L152.537 135.962Z" fill="#FFCD00"/>
<path d="M135.904 185.544L152.538 135.962L161.21 140.237L150.121 192.526L135.904 185.544Z" fill="#EBA500"/>
<path d="M135.904 185.544V198.225L149.979 205.206V192.383L135.904 185.544Z" fill="#EF8F11"/>
<path d="M183.956 185.117L186.942 186.684V181.982L184.098 180.558L162.916 191.386V195.803L183.956 185.117Z" fill="#B76204"/>
<path d="M153.106 199.364L165.617 192.81L162.916 191.386L184.24 180.7L187.084 182.125L196.751 177.28L199.168 175.998L186.657 170.014L152.253 187.254L153.106 199.364Z" fill="#D87C0E"/>
<path d="M196.751 169.159V177.281L184.525 170.869V163.175L177.843 131.83L179.691 130.976L196.751 169.159Z" fill="#EF8F11"/>
<path d="M155.523 192.811C155.523 192.811 185.946 177.566 187.795 176.568C189.643 175.571 190.069 173.291 190.069 167.735C190.069 162.036 178.838 134.68 178.838 134.68L163.484 142.516C163.484 142.516 153.391 174.431 153.391 184.262C153.391 194.235 155.523 192.811 155.523 192.811Z" fill="black"/>
<path d="M183.387 157.904V165.74L160.214 177.138V169.444L183.387 157.904Z" fill="#EBA500"/>
<path d="M163.058 156.622V161.893L181.255 153.345V147.788L163.058 156.622Z" fill="#EBA500"/>
<path d="M161.636 170.442V174.716L181.966 164.6V160.611L161.636 170.442Z" fill="#B76204"/>
<path d="M164.622 156.907V160.184L180.118 152.917V149.783L164.622 156.907Z" fill="#B76204"/>
<path d="M149.836 192.668V205.206L154.67 202.784V190.246V190.389L165.901 138.1L161.21 140.237L149.836 192.668Z" fill="#FFCD00"/>
<path d="M196.751 181.697L201.3 179.56V166.88L184.098 128.838L179.691 130.976L196.751 169.159V181.697Z" fill="#FFCD00"/>
<path d="M161.21 140.236L184.098 128.696L185.093 132.543L161.494 144.511L161.21 140.236Z" fill="#FFCD00"/>
<path d="M149.979 205.206L165.617 197.512V192.953L149.979 200.647V205.206Z" fill="#FFCD00"/>
<path d="M186.942 181.982V186.684L201.3 179.56V175.144L186.942 181.982Z" fill="#FFCD00"/>
<path d="M196.893 192.811C196.893 188.821 193.766 184.12 189.785 182.125C187.51 180.985 185.093 180.985 183.814 182.267C183.103 182.552 183.103 182.695 182.392 183.122C180.118 183.407 179.407 184.547 179.407 184.547C179.407 184.547 189.216 199.65 189.785 199.365C190.496 199.08 194.476 197.085 194.476 197.085C194.476 197.085 194.903 196.943 195.187 196.515C196.325 195.945 196.893 194.663 196.893 192.811Z" fill="#525B5E"/>
<path d="M192.06 195.375C192.06 199.364 188.932 200.932 184.951 198.937C180.971 196.942 177.843 192.241 177.843 188.251C177.843 184.262 180.971 182.695 184.951 184.689C188.932 186.542 192.06 191.386 192.06 195.375Z" fill="#303D40"/>
<path d="M186.231 188.251C186.231 188.251 183.956 186.257 182.108 186.827C180.26 187.396 179.691 188.679 180.118 190.816C180.544 192.953 183.53 197.655 187.937 196.372C190.354 194.663 186.231 188.251 186.231 188.251Z" fill="#242E30"/>
<path d="M189.216 193.95C189.216 196.373 187.368 197.227 184.951 196.088C182.534 194.948 180.686 192.098 180.686 189.676C180.686 187.254 182.534 186.399 184.951 187.539C187.368 188.679 189.216 191.528 189.216 193.95Z" fill="black"/>
<path d="M187.51 193.095C187.51 194.52 186.373 195.09 184.951 194.378C183.53 193.665 182.392 191.956 182.392 190.531C182.392 189.106 183.53 188.536 184.951 189.249C186.373 189.961 187.51 191.671 187.51 193.095Z" fill="#303D40"/>
<path d="M183.672 188.964C183.53 188.964 183.53 188.964 183.387 188.821C182.819 188.964 182.392 189.534 182.392 190.389C182.392 191.813 183.53 193.523 184.951 194.235C185.093 194.235 185.093 194.235 185.236 194.378C185.804 194.235 186.231 193.666 186.231 192.811C186.231 191.528 185.093 189.676 183.672 188.964Z" fill="#525B5E"/>
<path d="M187.937 183.122C185.52 181.84 183.814 182.125 182.25 183.122C183.53 182.695 184.809 182.98 186.515 183.835C190.496 185.829 193.623 190.531 193.623 194.52C193.623 196.088 193.197 197.228 192.344 197.94C193.908 197.512 195.045 195.945 195.045 193.666C195.045 189.819 191.917 185.117 187.937 183.122Z" fill="black"/>
<path d="M182.25 183.55C182.25 183.55 182.677 183.265 183.387 183.122C184.383 182.98 185.662 183.692 185.662 183.692C185.662 183.692 184.951 183.977 184.809 184.12C184.667 184.405 183.387 183.55 182.25 183.55Z" fill="#92999B"/>
<path d="M185.378 181.983C185.378 181.983 186.089 181.698 186.657 181.555C187.226 181.555 188.79 181.84 188.932 182.125C188.505 182.41 187.652 182.553 187.652 182.553C187.652 182.553 186.657 182.268 185.378 181.983Z" fill="#92999B"/>
<path d="M185.52 191.671V184.832C185.52 184.832 184.24 186.827 179.691 186.827C175.284 186.969 173.862 184.832 173.862 184.832V191.528C173.578 192.383 174.147 193.381 175.568 193.951C177.843 195.09 181.539 195.09 183.814 193.951C185.236 193.381 185.662 192.526 185.52 191.671Z" fill="#303D40"/>
<path d="M179.691 186.969C175.284 187.111 173.862 184.974 173.862 184.974V191.67C173.578 192.525 174.147 193.523 175.568 194.093C177.132 194.805 179.122 195.09 181.113 194.805L180.971 190.246C180.971 190.246 182.392 189.818 184.098 188.821C184.525 188.536 185.093 187.966 185.662 187.254V184.974C185.52 184.832 184.24 186.826 179.691 186.969Z" fill="#212B2D"/>
<path d="M184.809 199.079C184.809 195.09 181.681 190.388 177.701 188.394C175.426 187.254 173.009 187.254 171.73 188.536C171.019 188.821 171.019 188.963 170.308 189.391C168.034 189.676 167.323 190.816 167.323 190.816C167.323 190.816 177.132 205.918 177.701 205.633C178.412 205.348 182.392 203.354 182.392 203.354C182.392 203.354 182.819 203.211 183.103 202.784C184.098 202.071 184.809 200.789 184.809 199.079Z" fill="#525B5E"/>
<path d="M179.975 201.502C179.975 205.491 176.848 207.058 172.867 205.063C168.887 203.069 165.759 198.367 165.759 194.378C165.759 190.388 168.887 188.821 172.867 190.816C176.706 192.81 179.975 197.512 179.975 201.502Z" fill="#303D40"/>
<path d="M174.005 194.377C174.005 194.377 171.73 192.383 169.882 192.953C168.034 193.522 167.465 194.805 167.891 196.942C168.318 199.079 171.303 203.781 175.711 202.498C178.27 200.931 174.005 194.377 174.005 194.377Z" fill="#242E30"/>
<path d="M177.132 200.076C177.132 202.499 175.284 203.353 172.867 202.214C170.45 201.074 168.602 198.224 168.602 195.802C168.602 193.38 170.45 192.525 172.867 193.665C175.142 194.805 177.132 197.797 177.132 200.076Z" fill="black"/>
<path d="M175.426 199.222C175.426 200.647 174.289 201.217 172.867 200.504C171.446 199.792 170.308 198.082 170.308 196.657C170.308 195.233 171.446 194.663 172.867 195.375C174.289 196.087 175.426 197.797 175.426 199.222Z" fill="#303D40"/>
<path d="M171.588 195.232C171.446 195.232 171.446 195.232 171.303 195.09C170.735 195.232 170.308 195.802 170.308 196.657C170.308 198.082 171.446 199.792 172.867 200.504C173.009 200.504 173.009 200.504 173.152 200.646C173.72 200.504 174.147 199.934 174.147 199.079C174.147 197.654 173.009 195.945 171.588 195.232Z" fill="#525B5E"/>
<path d="M175.853 189.248C173.436 187.966 171.73 188.251 170.166 189.248C171.446 188.821 172.725 189.106 174.431 189.961C178.412 191.955 181.539 196.657 181.539 200.646C181.539 202.214 181.113 203.354 180.26 204.066C181.824 203.638 182.961 202.071 182.961 199.792C182.961 196.087 179.833 191.243 175.853 189.248Z" fill="black"/>
<path d="M170.024 189.818C170.024 189.818 170.45 189.533 171.161 189.391C172.014 189.248 173.436 189.961 173.436 189.961C173.436 189.961 172.725 190.246 172.583 190.388C172.441 190.531 171.303 189.676 170.024 189.818Z" fill="#92999B"/>
<path d="M173.151 188.109C173.151 188.109 173.862 187.681 174.431 187.681C175 187.681 176.563 187.966 176.706 188.251C176.279 188.394 175.426 188.678 175.426 188.678C175.426 188.678 174.573 188.394 173.151 188.109Z" fill="#92999B"/>
<path d="M194.05 174.716V172.721C194.05 172.721 192.77 172.721 191.775 173.006C191.633 173.006 191.491 173.149 191.207 173.291C190.211 172.864 189.358 172.437 189.358 172.437L183.814 175.144L167.038 183.692L164.622 184.262C164.622 184.262 163.342 184.262 163.2 184.405C163.058 184.405 160.783 184.974 160.783 184.974V186.969C160.641 187.824 161.21 187.966 161.21 187.966L163.058 189.106C163.626 189.391 164.053 189.676 164.337 189.676C164.622 189.819 165.759 190.104 167.181 189.534C167.891 189.249 168.744 188.679 169.597 188.394C171.446 187.539 172.725 188.109 172.725 188.109C172.725 188.109 173.578 188.536 174.573 188.679C175.71 188.821 176.99 188.964 179.122 188.536C181.255 188.109 183.103 187.397 183.103 187.397L189.074 184.12C189.074 184.12 190.922 183.122 191.491 181.982C191.917 181.27 192.06 180.7 191.917 179.988V178.136C191.917 178.136 191.349 177.993 190.922 177.708C191.633 177.281 192.77 176.711 193.481 176.426C193.908 175.856 194.05 175.286 194.05 174.716Z" fill="#303D40"/>
<path d="M193.197 172.009C192.202 171.581 189.216 170.157 189.216 170.157L183.672 172.864L166.328 181.697C166.328 181.697 162.916 183.407 161.636 183.977C159.788 184.832 161.21 185.687 161.21 185.687L163.911 187.111C163.911 187.111 165.332 187.681 167.038 186.969C167.749 186.684 168.602 186.114 169.455 185.829C171.303 184.974 172.583 185.544 172.583 185.544C172.583 185.544 173.436 185.972 174.431 186.114C175.568 186.257 176.848 186.399 178.98 185.972C181.113 185.544 182.961 184.832 182.961 184.832L188.932 181.555C188.932 181.555 190.78 180.558 191.349 179.56C191.917 178.563 191.917 177.85 191.633 177.138C191.064 176.141 189.785 175.998 189.785 175.998C189.785 175.998 192.06 174.858 193.339 174.146C194.334 173.149 194.192 172.436 193.197 172.009Z" fill="#525B5E"/>
<path d="M179.265 147.788L186.373 151.35C186.373 151.35 188.648 147.93 193.908 145.65C197.177 144.226 201.158 148.073 198.315 153.059L193.623 158.616V161.893L179.122 154.769L179.265 147.788Z" fill="#303D40"/>
<path d="M184.383 178.42V155.482C182.961 155.909 181.113 156.336 178.838 156.336C171.446 156.479 169.029 152.917 169.029 152.917V173.861C168.602 175.286 169.597 176.853 171.872 177.993C175.284 179.56 180.544 179.845 184.383 178.42Z" fill="#474F51"/>
<path d="M185.52 178.99V175.001C185.52 175.001 184.24 176.996 179.691 176.996C175.284 177.138 173.862 175.001 173.862 175.001V178.99C173.578 179.845 174.147 180.843 175.568 181.412C177.843 182.552 181.539 182.552 183.814 181.412C185.236 180.7 185.662 179.845 185.52 178.99Z" fill="#303D40"/>
<path d="M168.887 174.858C168.887 174.858 170.593 177.708 174.005 178.278C177.417 178.848 183.387 178.42 185.378 177.281C187.368 176.141 188.363 175.001 188.363 175.001C188.363 175.001 188.363 176.996 186.657 178.42C184.667 180.273 181.255 180.557 178.412 180.7C175.853 180.842 172.441 179.703 171.161 178.705C169.313 177.281 168.887 174.858 168.887 174.858Z" fill="black"/>
<path d="M188.505 174.004V152.917C188.505 152.917 186.231 156.194 178.838 156.336C171.446 156.479 169.029 152.917 169.029 152.917V173.861C168.602 175.286 169.597 176.853 171.872 177.993C175.71 179.845 181.824 179.845 185.662 177.993C187.795 176.853 188.79 175.428 188.505 174.004Z" fill="#464F51"/>
<path d="M178.554 156.336C171.303 156.479 169.029 152.917 169.029 152.917V173.861C168.602 175.286 169.597 176.853 171.872 177.993C173.72 178.99 176.137 179.418 178.554 179.418V156.336Z" fill="#303D40"/>
<path d="M185.804 149.07C189.643 150.922 189.643 154.057 185.804 156.052C181.966 157.904 175.853 157.904 172.014 156.052C168.176 154.199 168.176 151.065 172.014 149.07C175.711 147.218 181.966 147.218 185.804 149.07Z" fill="#242E30"/>
<path d="M184.383 180.272C184.383 180.272 184.383 181.697 181.966 181.982C181.113 182.125 178.696 180.7 178.696 180.7L178.412 179.417L184.383 180.272Z" fill="black"/>
<path d="M191.775 176.995C191.775 176.995 191.775 178.42 189.358 178.705C188.505 178.848 186.089 177.423 186.089 177.423L185.804 176.141L191.775 176.995Z" fill="black"/>
<path d="M178.554 179.417L181.824 180.985C181.824 180.985 182.961 181.412 183.956 180.842C184.951 180.272 184.24 179.417 184.24 179.417L181.539 177.993L178.554 179.417Z" fill="#464F51"/>
<path d="M185.804 175.998L189.074 177.566C189.074 177.566 190.211 177.993 191.207 177.423C192.202 176.853 191.491 175.998 191.491 175.998L188.79 174.574L185.804 175.998Z" fill="#464F51"/>
<path d="M171.161 175.998L170.45 175.286V156.336L171.161 156.906V175.998Z" fill="#474F51"/>
<path d="M183.814 179.133C183.814 179.845 183.245 180.415 182.534 180.415C181.824 180.415 181.255 179.845 181.255 179.133V165.313C181.255 164.6 181.824 164.03 182.534 164.03C183.245 164.03 183.814 164.6 183.814 165.313V179.133Z" fill="#525B5E"/>
<path d="M191.775 175.998C191.775 176.71 191.207 177.28 190.496 177.28C189.785 177.28 189.216 176.71 189.216 175.998V162.178C189.216 161.465 189.785 160.896 190.496 160.896C191.207 160.896 191.775 161.465 191.775 162.178V175.998Z" fill="#525B5E"/>
<path d="M174.858 151.35C174.858 151.35 175.568 152.632 177.132 152.917C178.696 153.202 181.255 152.917 182.108 152.49C182.961 151.92 183.387 151.493 183.387 151.493C183.387 151.493 183.245 152.917 182.534 153.487C181.681 154.2 180.118 154.485 178.98 154.485C177.843 154.485 176.421 154.057 175.711 153.63C175 152.917 174.858 151.35 174.858 151.35Z" fill="black"/>
<path d="M183.53 150.923V141.662C183.53 141.662 182.534 143.086 179.265 143.229C175.995 143.371 175 141.662 175 141.662V150.923C174.858 151.635 175.284 152.205 176.279 152.775C177.985 153.63 180.686 153.63 182.392 152.775C183.245 152.205 183.672 151.493 183.53 150.923Z" fill="#464F51"/>
<path d="M179.265 143.229C175.995 143.371 175 141.662 175 141.662V150.923C174.858 151.635 175.284 152.205 176.279 152.775C176.99 153.202 177.985 153.345 178.98 153.345V148.928C178.98 148.928 180.118 149.07 181.966 148.216C182.677 147.931 183.245 147.361 183.672 146.933V141.804C183.53 141.662 182.534 143.086 179.265 143.229Z" fill="#303D40"/>
<path d="M182.392 139.952C184.098 140.807 184.098 142.231 182.392 142.944C180.686 143.799 177.985 143.799 176.279 142.944C174.573 142.089 174.573 140.664 176.279 139.952C177.985 139.239 180.686 139.239 182.392 139.952Z" fill="#242E30"/>
<path d="M190.211 120.432L194.192 118.865L191.491 148.5L183.245 149.07L190.211 120.432Z" fill="black"/>
<path d="M183.388 167.022L193.623 161.893V158.758C193.623 158.758 197.178 155.197 198.315 153.202C199.31 151.207 200.163 147.36 197.035 145.936C196.04 145.223 194.192 145.651 194.192 145.651L183.245 151.065C183.245 151.065 187.653 149.497 188.648 153.202C189.927 157.904 183.53 163.745 183.53 163.745V167.022H183.388Z" fill="#525B5E"/>
<path d="M169.029 152.917L176.137 156.479C176.137 156.479 178.412 153.059 183.672 150.78C186.942 149.355 191.064 153.772 188.079 158.188C185.094 162.605 183.388 163.745 183.388 163.745V167.022L168.887 159.898L169.029 152.917Z" fill="#303D40"/>
<path d="M186.942 155.054C186.942 154.199 186.231 153.202 185.378 152.774C184.809 152.489 184.525 152.489 184.383 152.774L183.387 153.202L183.956 155.054L185.378 156.479C185.378 156.479 185.804 156.336 186.089 156.051C186.373 155.909 186.515 155.766 186.515 155.766C186.799 155.624 186.942 155.339 186.942 155.054Z" fill="#525B5E"/>
<path d="M186.089 155.481C186.089 156.336 185.378 156.621 184.525 156.194C183.672 155.766 182.961 154.769 182.961 153.914C182.961 153.059 183.672 152.774 184.525 153.202C185.378 153.629 186.089 154.627 186.089 155.481Z" fill="#464F51"/>
<path d="M183.672 154.769C183.53 154.484 183.387 154.199 183.53 153.772C183.672 153.629 183.814 153.487 184.098 153.487C184.24 153.487 184.525 153.487 184.667 153.629C184.951 153.772 185.236 154.057 185.378 154.342C185.52 154.627 185.662 154.912 185.52 155.197C185.378 154.912 185.236 154.627 185.093 154.484C184.951 154.342 184.667 154.057 184.525 154.057C184.24 153.914 184.098 153.914 183.956 154.057C183.672 154.199 183.672 154.484 183.672 154.769Z" fill="#748184"/>
<path d="M186.657 154.341C186.515 153.914 186.231 153.487 185.804 153.202L185.236 153.487C185.52 153.772 185.804 154.199 186.089 154.626L186.657 154.341Z" fill="#748184"/>
<path d="M167.038 137.245V141.091C167.038 141.091 176.706 146.078 178.554 146.791C181.966 148.073 185.662 146.221 186.373 144.083C187.084 138.812 186.089 138.384 186.089 138.384C186.089 138.384 184.951 141.091 181.539 140.664C178.27 140.379 168.318 136.532 168.318 136.532L167.038 137.245Z" fill="#EBA500"/>
<path d="M166.754 137.102L176.848 142.374C176.848 142.374 181.539 144.796 185.52 141.661C188.079 139.524 185.094 136.39 185.094 136.39L175.853 131.831L166.754 137.102Z" fill="#FFCD00"/>
<path d="M194.476 149.07C194.476 149.07 197.178 148.358 196.893 150.923C196.609 153.487 193.623 155.909 193.623 155.909L194.476 149.07Z" fill="#242E30"/>
<path d="M186.799 149.355C186.799 149.355 190.069 149.498 191.207 151.777C192.77 154.912 190.211 159.898 190.211 159.898L194.334 157.619L201.443 126.844L195.614 119.292L186.799 149.355Z" fill="#242E30"/>
<path d="M190.638 147.93L187.652 145.508L208.124 8.73047L211.11 11.1526L190.638 147.93Z" fill="black"/>
<path d="M191.349 142.658L211.11 11.1523L214.664 9.72754L194.903 141.234L191.349 142.658Z" fill="#303D40"/>
<path d="M214.664 9.72777L211.11 11.1525L208.124 8.73043L211.679 7.30566L214.664 9.72777Z" fill="#303D40"/>
<path d="M197.178 129.124L189.785 120.29L180.971 152.205C180.971 152.205 185.947 149.213 188.079 149.498C189.501 149.783 190.638 150.638 191.207 151.777C192.06 153.345 191.775 155.482 191.349 157.049L197.178 129.124Z" fill="black"/>
<path d="M191.491 120.147L190.922 120.432L197.746 128.696V128.839L190.78 159.613L190.211 159.898C190.211 159.898 190.78 158.901 191.349 156.621C191.917 154.199 191.491 152.917 191.491 152.917L196.893 128.981L189.785 120.29L191.633 119.435L191.491 120.147Z" fill="#303D40"/>
<path d="M197.746 122.285L201.727 126.701V126.986L194.761 157.334L193.766 158.046L200.874 126.986L197.604 123.14L197.746 122.285Z" fill="#303D40"/>
<path d="M209.972 40.2179L214.237 38.0807C215.375 37.5108 218.502 34.0914 222.341 27.395C225.895 21.126 227.459 16.4243 227.459 14.9995V10.1553C227.459 7.59073 226.179 7.59073 225.611 7.59073C225.042 7.59073 224.189 7.73321 222.91 8.30312L195.045 22.6933C190.922 24.8304 187.226 30.1021 187.226 34.2339V39.0781C187.226 41.3577 192.628 46.2019 196.751 46.2019C197.178 46.2019 197.604 46.0594 197.888 46.0594L203.717 43.2099C203.717 43.2099 204.997 42.7825 205.281 44.9196C205.565 46.9143 204.286 50.7612 204.286 50.7612L201.016 52.3284C199.737 52.8983 198.315 53.3257 196.893 53.3257C189.927 53.3257 180.402 46.2019 180.402 39.2206V34.3764C180.402 27.6799 185.52 19.8437 192.06 16.5668L219.924 2.17662C221.914 1.17928 223.905 0.609375 225.895 0.609375C231.155 0.609375 234.709 4.45625 234.709 10.1553V14.9995C234.709 19.8437 230.16 28.2499 228.738 30.8144C226.464 34.9463 221.914 42.2126 217.649 44.3497L208.977 48.624L209.972 40.2179Z" fill="#303D40"/>
<path d="M180.828 42.2127C180.828 42.2127 179.549 41.3578 179.407 39.2207C179.265 36.7986 179.122 31.6694 180.686 28.1075C182.25 24.5456 184.098 21.8385 185.093 20.8412C187.368 18.5615 190.211 16.9943 191.064 16.5669C191.775 16.1394 193.623 15.8545 193.623 15.8545C193.623 15.8545 195.614 15.8545 196.325 17.8492C197.035 19.8438 196.893 21.8385 196.893 21.8385C196.893 21.8385 196.609 22.5509 195.756 22.9783C195.045 23.4058 193.766 23.8332 191.917 25.5429C190.069 27.2526 188.363 29.8172 187.51 32.8092C187.084 34.234 187.368 37.6534 187.368 38.2233C187.368 38.7932 186.942 39.9331 186.942 39.9331C186.942 39.9331 186.657 40.7879 185.093 41.5003C182.819 42.7826 180.828 42.2127 180.828 42.2127Z" fill="black"/>
<path d="M225.326 29.3897C228.17 23.6906 229.307 19.1313 229.307 19.1313L227.317 18.4189C226.606 20.6986 224.9 24.9729 222.483 29.2472C218.645 35.9436 215.375 38.6506 214.095 39.2205L209.83 41.3577L209.404 44.6347C211.252 43.9223 216.228 41.7851 217.081 40.9303C218.929 39.2205 222.057 36.0861 225.326 29.3897Z" fill="#525B5E"/>
<path d="M226.606 17.4217C226.606 17.4217 226.322 18.419 226.606 18.8464C226.89 19.4163 228.738 19.7013 230.729 18.8464C232.719 17.9916 233.998 16.9942 234.283 16.5668C234.851 15.7119 234.994 14.7146 234.994 14.7146C234.994 14.7146 235.278 9.30049 234.994 8.0182C234.567 5.31114 233.145 2.46161 230.302 1.03684C227.459 -0.387927 223.905 -0.102974 222.341 0.466933C220.777 1.17932 220.208 2.03418 220.208 2.03418C220.208 2.03418 222.341 3.17399 222.767 5.02619C223.052 6.87838 223.052 8.16068 223.052 8.16068C223.052 8.16068 223.62 8.16068 223.763 8.16068C223.905 8.16068 225.184 7.87572 226.037 7.87572C226.748 7.87572 227.743 10.8677 227.459 14.7146C227.175 15.7119 226.606 17.4217 226.606 17.4217Z" fill="black"/>
<path d="M196.751 17.4219C196.467 15.9971 195.187 15.5697 195.187 15.5697L219.782 3.03174C219.782 3.03174 221.061 3.74412 221.061 4.74146L196.751 17.4219Z" fill="#525B5E"/>
<path d="M204.57 45.9171C204.57 45.9171 204.57 45.0623 204.286 44.6349C203.859 44.2074 203.717 44.0649 203.717 44.0649C203.717 44.0649 199.594 46.0596 199.168 46.3446C198.741 46.6295 197.035 47.4844 195.614 46.9145C196.467 47.4844 197.178 48.1968 200.021 47.4844C202.864 46.9145 204.57 45.9171 204.57 45.9171Z" fill="#525B5E"/>
</svg>
