<svg width="1920" height="1207" viewBox="0 0 1920 1207" fill="none" xmlns="http://www.w3.org/2000/svg"><path d="M436 307.268c-294.44-65.043-402.5 238.5-436 359v540.002h1921c0-464.669-.5-887.324-.5-971.324 0-78.8-69.5-159.9997-179-200.9997-99.09-37.1023-353.5-75-559.5 68.8217-233.584 163.079-535.5 251-746 204.5z" fill="#F3F4FF"/><path d="M436 307.268c-294.44-65.043-402.5 238.5-436 359v540.002h1921c0-464.669-.5-887.324-.5-971.324 0-78.8-69.5-159.9997-179-200.9997-99.09-37.1023-353.5-75-559.5 68.8217-233.584 163.079-535.5 251-746 204.5z" fill="url(#paint0_linear)"/><defs><linearGradient id="paint0_linear" x1="960" y1="990.446" x2="961" y2="309" gradientUnits="userSpaceOnUse"><stop stop-color="#fff"/><stop offset="1" stop-color="#fff" stop-opacity="0"/></linearGradient></defs></svg>